%TF.GenerationSoftware,KiCad,Pcbnew,9.0.1*%
%TF.CreationDate,2025-09-03T14:35:04-07:00*%
%TF.ProjectId,Project68,50726f6a-6563-4743-9638-2e6b69636164,rev?*%
%TF.SameCoordinates,Original*%
%TF.FileFunction,Drillmap*%
%TF.FilePolarity,Positive*%
%FSLAX45Y45*%
G04 Gerber Fmt 4.5, Leading zero omitted, Abs format (unit mm)*
G04 Created by KiCad (PCBNEW 9.0.1) date 2025-09-03 14:35:04*
%MOMM*%
%LPD*%
G01*
G04 APERTURE LIST*
%ADD10C,0.050000*%
%ADD11C,0.010000*%
%ADD12C,0.200000*%
%ADD13C,0.100000*%
%ADD14C,0.300000*%
G04 APERTURE END LIST*
D10*
X8575000Y-3948100D02*
X23480000Y-3948100D01*
X23480000Y-14300000D01*
X8575000Y-14300000D01*
X8575000Y-3948100D01*
D11*
X23255000Y-4185000D02*
X23255000Y-4365000D01*
X23255000Y-4365000D02*
X23425000Y-4365000D01*
X23255000Y-5035000D02*
X23255000Y-5215000D01*
X23255000Y-5215000D02*
X23425000Y-5215000D01*
X23425000Y-4185000D02*
X23255000Y-4185000D01*
X23425000Y-4365000D02*
X23425000Y-4185000D01*
X23425000Y-5035000D02*
X23255000Y-5035000D01*
X23425000Y-5215000D02*
X23425000Y-5035000D01*
X22904600Y-6333500D02*
X22974600Y-6333500D01*
X22904600Y-6553500D02*
X22904600Y-6333500D01*
X22974600Y-6333500D02*
X22974600Y-6553500D01*
X22974600Y-6553500D02*
X22904600Y-6553500D01*
D12*
D13*
X20204600Y-8298500D02*
X20264600Y-8358500D01*
X20264600Y-8298500D02*
X20204600Y-8358500D01*
X20204600Y-9398500D02*
X20264600Y-9458500D01*
X20264600Y-9398500D02*
X20204600Y-9458500D01*
X22774100Y-10689000D02*
G75*
G02*
X22709100Y-10689000I-32500J0D01*
G01*
X22709100Y-10689000D02*
G75*
G02*
X22774100Y-10689000I32500J0D01*
G01*
X22774100Y-11267000D02*
G75*
G02*
X22709100Y-11267000I-32500J0D01*
G01*
X22709100Y-11267000D02*
G75*
G02*
X22774100Y-11267000I32500J0D01*
G01*
D14*
X9000000Y-13475000D02*
X9000000Y-13775000D01*
X8850000Y-13625000D02*
X9150000Y-13625000D01*
X9025000Y-4150000D02*
X9025000Y-4450000D01*
X8875000Y-4300000D02*
X9175000Y-4300000D01*
X20325000Y-4375000D02*
X20325000Y-4675000D01*
X20175000Y-4525000D02*
X20475000Y-4525000D01*
X23050000Y-13536500D02*
X23050000Y-13836500D01*
X22900000Y-13686500D02*
X23200000Y-13686500D01*
D12*
X8833277Y-14613984D02*
X8833277Y-14413984D01*
X8833277Y-14413984D02*
X8880896Y-14413984D01*
X8880896Y-14413984D02*
X8909467Y-14423508D01*
X8909467Y-14423508D02*
X8928515Y-14442555D01*
X8928515Y-14442555D02*
X8938039Y-14461603D01*
X8938039Y-14461603D02*
X8947563Y-14499698D01*
X8947563Y-14499698D02*
X8947563Y-14528269D01*
X8947563Y-14528269D02*
X8938039Y-14566365D01*
X8938039Y-14566365D02*
X8928515Y-14585412D01*
X8928515Y-14585412D02*
X8909467Y-14604460D01*
X8909467Y-14604460D02*
X8880896Y-14613984D01*
X8880896Y-14613984D02*
X8833277Y-14613984D01*
X9033277Y-14613984D02*
X9033277Y-14480650D01*
X9033277Y-14518746D02*
X9042801Y-14499698D01*
X9042801Y-14499698D02*
X9052324Y-14490174D01*
X9052324Y-14490174D02*
X9071372Y-14480650D01*
X9071372Y-14480650D02*
X9090420Y-14480650D01*
X9157086Y-14613984D02*
X9157086Y-14480650D01*
X9157086Y-14413984D02*
X9147563Y-14423508D01*
X9147563Y-14423508D02*
X9157086Y-14433031D01*
X9157086Y-14433031D02*
X9166610Y-14423508D01*
X9166610Y-14423508D02*
X9157086Y-14413984D01*
X9157086Y-14413984D02*
X9157086Y-14433031D01*
X9280896Y-14613984D02*
X9261848Y-14604460D01*
X9261848Y-14604460D02*
X9252324Y-14585412D01*
X9252324Y-14585412D02*
X9252324Y-14413984D01*
X9385658Y-14613984D02*
X9366610Y-14604460D01*
X9366610Y-14604460D02*
X9357086Y-14585412D01*
X9357086Y-14585412D02*
X9357086Y-14413984D01*
X9614229Y-14613984D02*
X9614229Y-14413984D01*
X9614229Y-14413984D02*
X9680896Y-14556841D01*
X9680896Y-14556841D02*
X9747563Y-14413984D01*
X9747563Y-14413984D02*
X9747563Y-14613984D01*
X9928515Y-14613984D02*
X9928515Y-14509222D01*
X9928515Y-14509222D02*
X9918991Y-14490174D01*
X9918991Y-14490174D02*
X9899944Y-14480650D01*
X9899944Y-14480650D02*
X9861848Y-14480650D01*
X9861848Y-14480650D02*
X9842801Y-14490174D01*
X9928515Y-14604460D02*
X9909467Y-14613984D01*
X9909467Y-14613984D02*
X9861848Y-14613984D01*
X9861848Y-14613984D02*
X9842801Y-14604460D01*
X9842801Y-14604460D02*
X9833277Y-14585412D01*
X9833277Y-14585412D02*
X9833277Y-14566365D01*
X9833277Y-14566365D02*
X9842801Y-14547317D01*
X9842801Y-14547317D02*
X9861848Y-14537793D01*
X9861848Y-14537793D02*
X9909467Y-14537793D01*
X9909467Y-14537793D02*
X9928515Y-14528269D01*
X10023753Y-14480650D02*
X10023753Y-14680650D01*
X10023753Y-14490174D02*
X10042801Y-14480650D01*
X10042801Y-14480650D02*
X10080896Y-14480650D01*
X10080896Y-14480650D02*
X10099944Y-14490174D01*
X10099944Y-14490174D02*
X10109467Y-14499698D01*
X10109467Y-14499698D02*
X10118991Y-14518746D01*
X10118991Y-14518746D02*
X10118991Y-14575888D01*
X10118991Y-14575888D02*
X10109467Y-14594936D01*
X10109467Y-14594936D02*
X10099944Y-14604460D01*
X10099944Y-14604460D02*
X10080896Y-14613984D01*
X10080896Y-14613984D02*
X10042801Y-14613984D01*
X10042801Y-14613984D02*
X10023753Y-14604460D01*
X10204705Y-14594936D02*
X10214229Y-14604460D01*
X10214229Y-14604460D02*
X10204705Y-14613984D01*
X10204705Y-14613984D02*
X10195182Y-14604460D01*
X10195182Y-14604460D02*
X10204705Y-14594936D01*
X10204705Y-14594936D02*
X10204705Y-14613984D01*
X10204705Y-14490174D02*
X10214229Y-14499698D01*
X10214229Y-14499698D02*
X10204705Y-14509222D01*
X10204705Y-14509222D02*
X10195182Y-14499698D01*
X10195182Y-14499698D02*
X10204705Y-14490174D01*
X10204705Y-14490174D02*
X10204705Y-14509222D01*
D13*
X8512500Y-14912500D02*
X8572500Y-14972500D01*
X8572500Y-14912500D02*
X8512500Y-14972500D01*
D12*
X8871372Y-14833984D02*
X8890420Y-14833984D01*
X8890420Y-14833984D02*
X8909467Y-14843508D01*
X8909467Y-14843508D02*
X8918991Y-14853031D01*
X8918991Y-14853031D02*
X8928515Y-14872079D01*
X8928515Y-14872079D02*
X8938039Y-14910174D01*
X8938039Y-14910174D02*
X8938039Y-14957793D01*
X8938039Y-14957793D02*
X8928515Y-14995888D01*
X8928515Y-14995888D02*
X8918991Y-15014936D01*
X8918991Y-15014936D02*
X8909467Y-15024460D01*
X8909467Y-15024460D02*
X8890420Y-15033984D01*
X8890420Y-15033984D02*
X8871372Y-15033984D01*
X8871372Y-15033984D02*
X8852324Y-15024460D01*
X8852324Y-15024460D02*
X8842801Y-15014936D01*
X8842801Y-15014936D02*
X8833277Y-14995888D01*
X8833277Y-14995888D02*
X8823753Y-14957793D01*
X8823753Y-14957793D02*
X8823753Y-14910174D01*
X8823753Y-14910174D02*
X8833277Y-14872079D01*
X8833277Y-14872079D02*
X8842801Y-14853031D01*
X8842801Y-14853031D02*
X8852324Y-14843508D01*
X8852324Y-14843508D02*
X8871372Y-14833984D01*
X9023753Y-15014936D02*
X9033277Y-15024460D01*
X9033277Y-15024460D02*
X9023753Y-15033984D01*
X9023753Y-15033984D02*
X9014229Y-15024460D01*
X9014229Y-15024460D02*
X9023753Y-15014936D01*
X9023753Y-15014936D02*
X9023753Y-15033984D01*
X9204705Y-14833984D02*
X9166610Y-14833984D01*
X9166610Y-14833984D02*
X9147563Y-14843508D01*
X9147563Y-14843508D02*
X9138039Y-14853031D01*
X9138039Y-14853031D02*
X9118991Y-14881603D01*
X9118991Y-14881603D02*
X9109467Y-14919698D01*
X9109467Y-14919698D02*
X9109467Y-14995888D01*
X9109467Y-14995888D02*
X9118991Y-15014936D01*
X9118991Y-15014936D02*
X9128515Y-15024460D01*
X9128515Y-15024460D02*
X9147563Y-15033984D01*
X9147563Y-15033984D02*
X9185658Y-15033984D01*
X9185658Y-15033984D02*
X9204705Y-15024460D01*
X9204705Y-15024460D02*
X9214229Y-15014936D01*
X9214229Y-15014936D02*
X9223753Y-14995888D01*
X9223753Y-14995888D02*
X9223753Y-14948269D01*
X9223753Y-14948269D02*
X9214229Y-14929222D01*
X9214229Y-14929222D02*
X9204705Y-14919698D01*
X9204705Y-14919698D02*
X9185658Y-14910174D01*
X9185658Y-14910174D02*
X9147563Y-14910174D01*
X9147563Y-14910174D02*
X9128515Y-14919698D01*
X9128515Y-14919698D02*
X9118991Y-14929222D01*
X9118991Y-14929222D02*
X9109467Y-14948269D01*
X9347563Y-14833984D02*
X9366610Y-14833984D01*
X9366610Y-14833984D02*
X9385658Y-14843508D01*
X9385658Y-14843508D02*
X9395182Y-14853031D01*
X9395182Y-14853031D02*
X9404705Y-14872079D01*
X9404705Y-14872079D02*
X9414229Y-14910174D01*
X9414229Y-14910174D02*
X9414229Y-14957793D01*
X9414229Y-14957793D02*
X9404705Y-14995888D01*
X9404705Y-14995888D02*
X9395182Y-15014936D01*
X9395182Y-15014936D02*
X9385658Y-15024460D01*
X9385658Y-15024460D02*
X9366610Y-15033984D01*
X9366610Y-15033984D02*
X9347563Y-15033984D01*
X9347563Y-15033984D02*
X9328515Y-15024460D01*
X9328515Y-15024460D02*
X9318991Y-15014936D01*
X9318991Y-15014936D02*
X9309467Y-14995888D01*
X9309467Y-14995888D02*
X9299944Y-14957793D01*
X9299944Y-14957793D02*
X9299944Y-14910174D01*
X9299944Y-14910174D02*
X9309467Y-14872079D01*
X9309467Y-14872079D02*
X9318991Y-14853031D01*
X9318991Y-14853031D02*
X9328515Y-14843508D01*
X9328515Y-14843508D02*
X9347563Y-14833984D01*
X9538039Y-14833984D02*
X9557086Y-14833984D01*
X9557086Y-14833984D02*
X9576134Y-14843508D01*
X9576134Y-14843508D02*
X9585658Y-14853031D01*
X9585658Y-14853031D02*
X9595182Y-14872079D01*
X9595182Y-14872079D02*
X9604705Y-14910174D01*
X9604705Y-14910174D02*
X9604705Y-14957793D01*
X9604705Y-14957793D02*
X9595182Y-14995888D01*
X9595182Y-14995888D02*
X9585658Y-15014936D01*
X9585658Y-15014936D02*
X9576134Y-15024460D01*
X9576134Y-15024460D02*
X9557086Y-15033984D01*
X9557086Y-15033984D02*
X9538039Y-15033984D01*
X9538039Y-15033984D02*
X9518991Y-15024460D01*
X9518991Y-15024460D02*
X9509467Y-15014936D01*
X9509467Y-15014936D02*
X9499944Y-14995888D01*
X9499944Y-14995888D02*
X9490420Y-14957793D01*
X9490420Y-14957793D02*
X9490420Y-14910174D01*
X9490420Y-14910174D02*
X9499944Y-14872079D01*
X9499944Y-14872079D02*
X9509467Y-14853031D01*
X9509467Y-14853031D02*
X9518991Y-14843508D01*
X9518991Y-14843508D02*
X9538039Y-14833984D01*
X9690420Y-15033984D02*
X9690420Y-14900650D01*
X9690420Y-14919698D02*
X9699944Y-14910174D01*
X9699944Y-14910174D02*
X9718991Y-14900650D01*
X9718991Y-14900650D02*
X9747563Y-14900650D01*
X9747563Y-14900650D02*
X9766610Y-14910174D01*
X9766610Y-14910174D02*
X9776134Y-14929222D01*
X9776134Y-14929222D02*
X9776134Y-15033984D01*
X9776134Y-14929222D02*
X9785658Y-14910174D01*
X9785658Y-14910174D02*
X9804705Y-14900650D01*
X9804705Y-14900650D02*
X9833277Y-14900650D01*
X9833277Y-14900650D02*
X9852325Y-14910174D01*
X9852325Y-14910174D02*
X9861848Y-14929222D01*
X9861848Y-14929222D02*
X9861848Y-15033984D01*
X9957086Y-15033984D02*
X9957086Y-14900650D01*
X9957086Y-14919698D02*
X9966610Y-14910174D01*
X9966610Y-14910174D02*
X9985658Y-14900650D01*
X9985658Y-14900650D02*
X10014229Y-14900650D01*
X10014229Y-14900650D02*
X10033277Y-14910174D01*
X10033277Y-14910174D02*
X10042801Y-14929222D01*
X10042801Y-14929222D02*
X10042801Y-15033984D01*
X10042801Y-14929222D02*
X10052325Y-14910174D01*
X10052325Y-14910174D02*
X10071372Y-14900650D01*
X10071372Y-14900650D02*
X10099944Y-14900650D01*
X10099944Y-14900650D02*
X10118991Y-14910174D01*
X10118991Y-14910174D02*
X10128515Y-14929222D01*
X10128515Y-14929222D02*
X10128515Y-15033984D01*
X10518991Y-14824460D02*
X10347563Y-15081603D01*
X10776134Y-14833984D02*
X10795182Y-14833984D01*
X10795182Y-14833984D02*
X10814229Y-14843508D01*
X10814229Y-14843508D02*
X10823753Y-14853031D01*
X10823753Y-14853031D02*
X10833277Y-14872079D01*
X10833277Y-14872079D02*
X10842801Y-14910174D01*
X10842801Y-14910174D02*
X10842801Y-14957793D01*
X10842801Y-14957793D02*
X10833277Y-14995888D01*
X10833277Y-14995888D02*
X10823753Y-15014936D01*
X10823753Y-15014936D02*
X10814229Y-15024460D01*
X10814229Y-15024460D02*
X10795182Y-15033984D01*
X10795182Y-15033984D02*
X10776134Y-15033984D01*
X10776134Y-15033984D02*
X10757087Y-15024460D01*
X10757087Y-15024460D02*
X10747563Y-15014936D01*
X10747563Y-15014936D02*
X10738039Y-14995888D01*
X10738039Y-14995888D02*
X10728515Y-14957793D01*
X10728515Y-14957793D02*
X10728515Y-14910174D01*
X10728515Y-14910174D02*
X10738039Y-14872079D01*
X10738039Y-14872079D02*
X10747563Y-14853031D01*
X10747563Y-14853031D02*
X10757087Y-14843508D01*
X10757087Y-14843508D02*
X10776134Y-14833984D01*
X10928515Y-15014936D02*
X10938039Y-15024460D01*
X10938039Y-15024460D02*
X10928515Y-15033984D01*
X10928515Y-15033984D02*
X10918991Y-15024460D01*
X10918991Y-15024460D02*
X10928515Y-15014936D01*
X10928515Y-15014936D02*
X10928515Y-15033984D01*
X11061848Y-14833984D02*
X11080896Y-14833984D01*
X11080896Y-14833984D02*
X11099944Y-14843508D01*
X11099944Y-14843508D02*
X11109468Y-14853031D01*
X11109468Y-14853031D02*
X11118991Y-14872079D01*
X11118991Y-14872079D02*
X11128515Y-14910174D01*
X11128515Y-14910174D02*
X11128515Y-14957793D01*
X11128515Y-14957793D02*
X11118991Y-14995888D01*
X11118991Y-14995888D02*
X11109468Y-15014936D01*
X11109468Y-15014936D02*
X11099944Y-15024460D01*
X11099944Y-15024460D02*
X11080896Y-15033984D01*
X11080896Y-15033984D02*
X11061848Y-15033984D01*
X11061848Y-15033984D02*
X11042801Y-15024460D01*
X11042801Y-15024460D02*
X11033277Y-15014936D01*
X11033277Y-15014936D02*
X11023753Y-14995888D01*
X11023753Y-14995888D02*
X11014229Y-14957793D01*
X11014229Y-14957793D02*
X11014229Y-14910174D01*
X11014229Y-14910174D02*
X11023753Y-14872079D01*
X11023753Y-14872079D02*
X11033277Y-14853031D01*
X11033277Y-14853031D02*
X11042801Y-14843508D01*
X11042801Y-14843508D02*
X11061848Y-14833984D01*
X11204706Y-14853031D02*
X11214229Y-14843508D01*
X11214229Y-14843508D02*
X11233277Y-14833984D01*
X11233277Y-14833984D02*
X11280896Y-14833984D01*
X11280896Y-14833984D02*
X11299944Y-14843508D01*
X11299944Y-14843508D02*
X11309467Y-14853031D01*
X11309467Y-14853031D02*
X11318991Y-14872079D01*
X11318991Y-14872079D02*
X11318991Y-14891127D01*
X11318991Y-14891127D02*
X11309467Y-14919698D01*
X11309467Y-14919698D02*
X11195182Y-15033984D01*
X11195182Y-15033984D02*
X11318991Y-15033984D01*
X11385658Y-14833984D02*
X11509467Y-14833984D01*
X11509467Y-14833984D02*
X11442801Y-14910174D01*
X11442801Y-14910174D02*
X11471372Y-14910174D01*
X11471372Y-14910174D02*
X11490420Y-14919698D01*
X11490420Y-14919698D02*
X11499944Y-14929222D01*
X11499944Y-14929222D02*
X11509467Y-14948269D01*
X11509467Y-14948269D02*
X11509467Y-14995888D01*
X11509467Y-14995888D02*
X11499944Y-15014936D01*
X11499944Y-15014936D02*
X11490420Y-15024460D01*
X11490420Y-15024460D02*
X11471372Y-15033984D01*
X11471372Y-15033984D02*
X11414229Y-15033984D01*
X11414229Y-15033984D02*
X11395182Y-15024460D01*
X11395182Y-15024460D02*
X11385658Y-15014936D01*
X11680896Y-14833984D02*
X11642801Y-14833984D01*
X11642801Y-14833984D02*
X11623753Y-14843508D01*
X11623753Y-14843508D02*
X11614229Y-14853031D01*
X11614229Y-14853031D02*
X11595182Y-14881603D01*
X11595182Y-14881603D02*
X11585658Y-14919698D01*
X11585658Y-14919698D02*
X11585658Y-14995888D01*
X11585658Y-14995888D02*
X11595182Y-15014936D01*
X11595182Y-15014936D02*
X11604706Y-15024460D01*
X11604706Y-15024460D02*
X11623753Y-15033984D01*
X11623753Y-15033984D02*
X11661848Y-15033984D01*
X11661848Y-15033984D02*
X11680896Y-15024460D01*
X11680896Y-15024460D02*
X11690420Y-15014936D01*
X11690420Y-15014936D02*
X11699944Y-14995888D01*
X11699944Y-14995888D02*
X11699944Y-14948269D01*
X11699944Y-14948269D02*
X11690420Y-14929222D01*
X11690420Y-14929222D02*
X11680896Y-14919698D01*
X11680896Y-14919698D02*
X11661848Y-14910174D01*
X11661848Y-14910174D02*
X11623753Y-14910174D01*
X11623753Y-14910174D02*
X11604706Y-14919698D01*
X11604706Y-14919698D02*
X11595182Y-14929222D01*
X11595182Y-14929222D02*
X11585658Y-14948269D01*
X11776134Y-14833984D02*
X11776134Y-14872079D01*
X11852325Y-14833984D02*
X11852325Y-14872079D01*
X12147563Y-15110174D02*
X12138039Y-15100650D01*
X12138039Y-15100650D02*
X12118991Y-15072079D01*
X12118991Y-15072079D02*
X12109468Y-15053031D01*
X12109468Y-15053031D02*
X12099944Y-15024460D01*
X12099944Y-15024460D02*
X12090420Y-14976841D01*
X12090420Y-14976841D02*
X12090420Y-14938746D01*
X12090420Y-14938746D02*
X12099944Y-14891127D01*
X12099944Y-14891127D02*
X12109468Y-14862555D01*
X12109468Y-14862555D02*
X12118991Y-14843508D01*
X12118991Y-14843508D02*
X12138039Y-14814936D01*
X12138039Y-14814936D02*
X12147563Y-14805412D01*
X12214229Y-14853031D02*
X12223753Y-14843508D01*
X12223753Y-14843508D02*
X12242801Y-14833984D01*
X12242801Y-14833984D02*
X12290420Y-14833984D01*
X12290420Y-14833984D02*
X12309468Y-14843508D01*
X12309468Y-14843508D02*
X12318991Y-14853031D01*
X12318991Y-14853031D02*
X12328515Y-14872079D01*
X12328515Y-14872079D02*
X12328515Y-14891127D01*
X12328515Y-14891127D02*
X12318991Y-14919698D01*
X12318991Y-14919698D02*
X12204706Y-15033984D01*
X12204706Y-15033984D02*
X12328515Y-15033984D01*
X12566610Y-15033984D02*
X12566610Y-14833984D01*
X12652325Y-15033984D02*
X12652325Y-14929222D01*
X12652325Y-14929222D02*
X12642801Y-14910174D01*
X12642801Y-14910174D02*
X12623753Y-14900650D01*
X12623753Y-14900650D02*
X12595182Y-14900650D01*
X12595182Y-14900650D02*
X12576134Y-14910174D01*
X12576134Y-14910174D02*
X12566610Y-14919698D01*
X12776134Y-15033984D02*
X12757087Y-15024460D01*
X12757087Y-15024460D02*
X12747563Y-15014936D01*
X12747563Y-15014936D02*
X12738039Y-14995888D01*
X12738039Y-14995888D02*
X12738039Y-14938746D01*
X12738039Y-14938746D02*
X12747563Y-14919698D01*
X12747563Y-14919698D02*
X12757087Y-14910174D01*
X12757087Y-14910174D02*
X12776134Y-14900650D01*
X12776134Y-14900650D02*
X12804706Y-14900650D01*
X12804706Y-14900650D02*
X12823753Y-14910174D01*
X12823753Y-14910174D02*
X12833277Y-14919698D01*
X12833277Y-14919698D02*
X12842801Y-14938746D01*
X12842801Y-14938746D02*
X12842801Y-14995888D01*
X12842801Y-14995888D02*
X12833277Y-15014936D01*
X12833277Y-15014936D02*
X12823753Y-15024460D01*
X12823753Y-15024460D02*
X12804706Y-15033984D01*
X12804706Y-15033984D02*
X12776134Y-15033984D01*
X12957087Y-15033984D02*
X12938039Y-15024460D01*
X12938039Y-15024460D02*
X12928515Y-15005412D01*
X12928515Y-15005412D02*
X12928515Y-14833984D01*
X13109468Y-15024460D02*
X13090420Y-15033984D01*
X13090420Y-15033984D02*
X13052325Y-15033984D01*
X13052325Y-15033984D02*
X13033277Y-15024460D01*
X13033277Y-15024460D02*
X13023753Y-15005412D01*
X13023753Y-15005412D02*
X13023753Y-14929222D01*
X13023753Y-14929222D02*
X13033277Y-14910174D01*
X13033277Y-14910174D02*
X13052325Y-14900650D01*
X13052325Y-14900650D02*
X13090420Y-14900650D01*
X13090420Y-14900650D02*
X13109468Y-14910174D01*
X13109468Y-14910174D02*
X13118991Y-14929222D01*
X13118991Y-14929222D02*
X13118991Y-14948269D01*
X13118991Y-14948269D02*
X13023753Y-14967317D01*
X13195182Y-15024460D02*
X13214230Y-15033984D01*
X13214230Y-15033984D02*
X13252325Y-15033984D01*
X13252325Y-15033984D02*
X13271372Y-15024460D01*
X13271372Y-15024460D02*
X13280896Y-15005412D01*
X13280896Y-15005412D02*
X13280896Y-14995888D01*
X13280896Y-14995888D02*
X13271372Y-14976841D01*
X13271372Y-14976841D02*
X13252325Y-14967317D01*
X13252325Y-14967317D02*
X13223753Y-14967317D01*
X13223753Y-14967317D02*
X13204706Y-14957793D01*
X13204706Y-14957793D02*
X13195182Y-14938746D01*
X13195182Y-14938746D02*
X13195182Y-14929222D01*
X13195182Y-14929222D02*
X13204706Y-14910174D01*
X13204706Y-14910174D02*
X13223753Y-14900650D01*
X13223753Y-14900650D02*
X13252325Y-14900650D01*
X13252325Y-14900650D02*
X13271372Y-14910174D01*
X13347563Y-15110174D02*
X13357087Y-15100650D01*
X13357087Y-15100650D02*
X13376134Y-15072079D01*
X13376134Y-15072079D02*
X13385658Y-15053031D01*
X13385658Y-15053031D02*
X13395182Y-15024460D01*
X13395182Y-15024460D02*
X13404706Y-14976841D01*
X13404706Y-14976841D02*
X13404706Y-14938746D01*
X13404706Y-14938746D02*
X13395182Y-14891127D01*
X13395182Y-14891127D02*
X13385658Y-14862555D01*
X13385658Y-14862555D02*
X13376134Y-14843508D01*
X13376134Y-14843508D02*
X13357087Y-14814936D01*
X13357087Y-14814936D02*
X13347563Y-14805412D01*
X13709468Y-15110174D02*
X13699944Y-15100650D01*
X13699944Y-15100650D02*
X13680896Y-15072079D01*
X13680896Y-15072079D02*
X13671372Y-15053031D01*
X13671372Y-15053031D02*
X13661849Y-15024460D01*
X13661849Y-15024460D02*
X13652325Y-14976841D01*
X13652325Y-14976841D02*
X13652325Y-14938746D01*
X13652325Y-14938746D02*
X13661849Y-14891127D01*
X13661849Y-14891127D02*
X13671372Y-14862555D01*
X13671372Y-14862555D02*
X13680896Y-14843508D01*
X13680896Y-14843508D02*
X13699944Y-14814936D01*
X13699944Y-14814936D02*
X13709468Y-14805412D01*
X13785658Y-14900650D02*
X13785658Y-15033984D01*
X13785658Y-14919698D02*
X13795182Y-14910174D01*
X13795182Y-14910174D02*
X13814230Y-14900650D01*
X13814230Y-14900650D02*
X13842801Y-14900650D01*
X13842801Y-14900650D02*
X13861849Y-14910174D01*
X13861849Y-14910174D02*
X13871372Y-14929222D01*
X13871372Y-14929222D02*
X13871372Y-15033984D01*
X13995182Y-15033984D02*
X13976134Y-15024460D01*
X13976134Y-15024460D02*
X13966611Y-15014936D01*
X13966611Y-15014936D02*
X13957087Y-14995888D01*
X13957087Y-14995888D02*
X13957087Y-14938746D01*
X13957087Y-14938746D02*
X13966611Y-14919698D01*
X13966611Y-14919698D02*
X13976134Y-14910174D01*
X13976134Y-14910174D02*
X13995182Y-14900650D01*
X13995182Y-14900650D02*
X14023753Y-14900650D01*
X14023753Y-14900650D02*
X14042801Y-14910174D01*
X14042801Y-14910174D02*
X14052325Y-14919698D01*
X14052325Y-14919698D02*
X14061849Y-14938746D01*
X14061849Y-14938746D02*
X14061849Y-14995888D01*
X14061849Y-14995888D02*
X14052325Y-15014936D01*
X14052325Y-15014936D02*
X14042801Y-15024460D01*
X14042801Y-15024460D02*
X14023753Y-15033984D01*
X14023753Y-15033984D02*
X13995182Y-15033984D01*
X14118992Y-14900650D02*
X14195182Y-14900650D01*
X14147563Y-14833984D02*
X14147563Y-15005412D01*
X14147563Y-15005412D02*
X14157087Y-15024460D01*
X14157087Y-15024460D02*
X14176134Y-15033984D01*
X14176134Y-15033984D02*
X14195182Y-15033984D01*
X14414230Y-14900650D02*
X14414230Y-15100650D01*
X14414230Y-14910174D02*
X14433277Y-14900650D01*
X14433277Y-14900650D02*
X14471373Y-14900650D01*
X14471373Y-14900650D02*
X14490420Y-14910174D01*
X14490420Y-14910174D02*
X14499944Y-14919698D01*
X14499944Y-14919698D02*
X14509468Y-14938746D01*
X14509468Y-14938746D02*
X14509468Y-14995888D01*
X14509468Y-14995888D02*
X14499944Y-15014936D01*
X14499944Y-15014936D02*
X14490420Y-15024460D01*
X14490420Y-15024460D02*
X14471373Y-15033984D01*
X14471373Y-15033984D02*
X14433277Y-15033984D01*
X14433277Y-15033984D02*
X14414230Y-15024460D01*
X14623753Y-15033984D02*
X14604706Y-15024460D01*
X14604706Y-15024460D02*
X14595182Y-15005412D01*
X14595182Y-15005412D02*
X14595182Y-14833984D01*
X14785658Y-15033984D02*
X14785658Y-14929222D01*
X14785658Y-14929222D02*
X14776134Y-14910174D01*
X14776134Y-14910174D02*
X14757087Y-14900650D01*
X14757087Y-14900650D02*
X14718992Y-14900650D01*
X14718992Y-14900650D02*
X14699944Y-14910174D01*
X14785658Y-15024460D02*
X14766611Y-15033984D01*
X14766611Y-15033984D02*
X14718992Y-15033984D01*
X14718992Y-15033984D02*
X14699944Y-15024460D01*
X14699944Y-15024460D02*
X14690420Y-15005412D01*
X14690420Y-15005412D02*
X14690420Y-14986365D01*
X14690420Y-14986365D02*
X14699944Y-14967317D01*
X14699944Y-14967317D02*
X14718992Y-14957793D01*
X14718992Y-14957793D02*
X14766611Y-14957793D01*
X14766611Y-14957793D02*
X14785658Y-14948269D01*
X14852325Y-14900650D02*
X14928515Y-14900650D01*
X14880896Y-14833984D02*
X14880896Y-15005412D01*
X14880896Y-15005412D02*
X14890420Y-15024460D01*
X14890420Y-15024460D02*
X14909468Y-15033984D01*
X14909468Y-15033984D02*
X14928515Y-15033984D01*
X15071373Y-15024460D02*
X15052325Y-15033984D01*
X15052325Y-15033984D02*
X15014230Y-15033984D01*
X15014230Y-15033984D02*
X14995182Y-15024460D01*
X14995182Y-15024460D02*
X14985658Y-15005412D01*
X14985658Y-15005412D02*
X14985658Y-14929222D01*
X14985658Y-14929222D02*
X14995182Y-14910174D01*
X14995182Y-14910174D02*
X15014230Y-14900650D01*
X15014230Y-14900650D02*
X15052325Y-14900650D01*
X15052325Y-14900650D02*
X15071373Y-14910174D01*
X15071373Y-14910174D02*
X15080896Y-14929222D01*
X15080896Y-14929222D02*
X15080896Y-14948269D01*
X15080896Y-14948269D02*
X14985658Y-14967317D01*
X15252325Y-15033984D02*
X15252325Y-14833984D01*
X15252325Y-15024460D02*
X15233277Y-15033984D01*
X15233277Y-15033984D02*
X15195182Y-15033984D01*
X15195182Y-15033984D02*
X15176134Y-15024460D01*
X15176134Y-15024460D02*
X15166611Y-15014936D01*
X15166611Y-15014936D02*
X15157087Y-14995888D01*
X15157087Y-14995888D02*
X15157087Y-14938746D01*
X15157087Y-14938746D02*
X15166611Y-14919698D01*
X15166611Y-14919698D02*
X15176134Y-14910174D01*
X15176134Y-14910174D02*
X15195182Y-14900650D01*
X15195182Y-14900650D02*
X15233277Y-14900650D01*
X15233277Y-14900650D02*
X15252325Y-14910174D01*
X15328515Y-15110174D02*
X15338039Y-15100650D01*
X15338039Y-15100650D02*
X15357087Y-15072079D01*
X15357087Y-15072079D02*
X15366611Y-15053031D01*
X15366611Y-15053031D02*
X15376134Y-15024460D01*
X15376134Y-15024460D02*
X15385658Y-14976841D01*
X15385658Y-14976841D02*
X15385658Y-14938746D01*
X15385658Y-14938746D02*
X15376134Y-14891127D01*
X15376134Y-14891127D02*
X15366611Y-14862555D01*
X15366611Y-14862555D02*
X15357087Y-14843508D01*
X15357087Y-14843508D02*
X15338039Y-14814936D01*
X15338039Y-14814936D02*
X15328515Y-14805412D01*
D13*
X8572500Y-15206500D02*
G75*
G02*
X8507500Y-15206500I-32500J0D01*
G01*
X8507500Y-15206500D02*
G75*
G02*
X8572500Y-15206500I32500J0D01*
G01*
D12*
X8871372Y-15097984D02*
X8890420Y-15097984D01*
X8890420Y-15097984D02*
X8909467Y-15107508D01*
X8909467Y-15107508D02*
X8918991Y-15117031D01*
X8918991Y-15117031D02*
X8928515Y-15136079D01*
X8928515Y-15136079D02*
X8938039Y-15174174D01*
X8938039Y-15174174D02*
X8938039Y-15221793D01*
X8938039Y-15221793D02*
X8928515Y-15259888D01*
X8928515Y-15259888D02*
X8918991Y-15278936D01*
X8918991Y-15278936D02*
X8909467Y-15288460D01*
X8909467Y-15288460D02*
X8890420Y-15297984D01*
X8890420Y-15297984D02*
X8871372Y-15297984D01*
X8871372Y-15297984D02*
X8852324Y-15288460D01*
X8852324Y-15288460D02*
X8842801Y-15278936D01*
X8842801Y-15278936D02*
X8833277Y-15259888D01*
X8833277Y-15259888D02*
X8823753Y-15221793D01*
X8823753Y-15221793D02*
X8823753Y-15174174D01*
X8823753Y-15174174D02*
X8833277Y-15136079D01*
X8833277Y-15136079D02*
X8842801Y-15117031D01*
X8842801Y-15117031D02*
X8852324Y-15107508D01*
X8852324Y-15107508D02*
X8871372Y-15097984D01*
X9023753Y-15278936D02*
X9033277Y-15288460D01*
X9033277Y-15288460D02*
X9023753Y-15297984D01*
X9023753Y-15297984D02*
X9014229Y-15288460D01*
X9014229Y-15288460D02*
X9023753Y-15278936D01*
X9023753Y-15278936D02*
X9023753Y-15297984D01*
X9204705Y-15097984D02*
X9166610Y-15097984D01*
X9166610Y-15097984D02*
X9147563Y-15107508D01*
X9147563Y-15107508D02*
X9138039Y-15117031D01*
X9138039Y-15117031D02*
X9118991Y-15145603D01*
X9118991Y-15145603D02*
X9109467Y-15183698D01*
X9109467Y-15183698D02*
X9109467Y-15259888D01*
X9109467Y-15259888D02*
X9118991Y-15278936D01*
X9118991Y-15278936D02*
X9128515Y-15288460D01*
X9128515Y-15288460D02*
X9147563Y-15297984D01*
X9147563Y-15297984D02*
X9185658Y-15297984D01*
X9185658Y-15297984D02*
X9204705Y-15288460D01*
X9204705Y-15288460D02*
X9214229Y-15278936D01*
X9214229Y-15278936D02*
X9223753Y-15259888D01*
X9223753Y-15259888D02*
X9223753Y-15212269D01*
X9223753Y-15212269D02*
X9214229Y-15193222D01*
X9214229Y-15193222D02*
X9204705Y-15183698D01*
X9204705Y-15183698D02*
X9185658Y-15174174D01*
X9185658Y-15174174D02*
X9147563Y-15174174D01*
X9147563Y-15174174D02*
X9128515Y-15183698D01*
X9128515Y-15183698D02*
X9118991Y-15193222D01*
X9118991Y-15193222D02*
X9109467Y-15212269D01*
X9404705Y-15097984D02*
X9309467Y-15097984D01*
X9309467Y-15097984D02*
X9299944Y-15193222D01*
X9299944Y-15193222D02*
X9309467Y-15183698D01*
X9309467Y-15183698D02*
X9328515Y-15174174D01*
X9328515Y-15174174D02*
X9376134Y-15174174D01*
X9376134Y-15174174D02*
X9395182Y-15183698D01*
X9395182Y-15183698D02*
X9404705Y-15193222D01*
X9404705Y-15193222D02*
X9414229Y-15212269D01*
X9414229Y-15212269D02*
X9414229Y-15259888D01*
X9414229Y-15259888D02*
X9404705Y-15278936D01*
X9404705Y-15278936D02*
X9395182Y-15288460D01*
X9395182Y-15288460D02*
X9376134Y-15297984D01*
X9376134Y-15297984D02*
X9328515Y-15297984D01*
X9328515Y-15297984D02*
X9309467Y-15288460D01*
X9309467Y-15288460D02*
X9299944Y-15278936D01*
X9538039Y-15097984D02*
X9557086Y-15097984D01*
X9557086Y-15097984D02*
X9576134Y-15107508D01*
X9576134Y-15107508D02*
X9585658Y-15117031D01*
X9585658Y-15117031D02*
X9595182Y-15136079D01*
X9595182Y-15136079D02*
X9604705Y-15174174D01*
X9604705Y-15174174D02*
X9604705Y-15221793D01*
X9604705Y-15221793D02*
X9595182Y-15259888D01*
X9595182Y-15259888D02*
X9585658Y-15278936D01*
X9585658Y-15278936D02*
X9576134Y-15288460D01*
X9576134Y-15288460D02*
X9557086Y-15297984D01*
X9557086Y-15297984D02*
X9538039Y-15297984D01*
X9538039Y-15297984D02*
X9518991Y-15288460D01*
X9518991Y-15288460D02*
X9509467Y-15278936D01*
X9509467Y-15278936D02*
X9499944Y-15259888D01*
X9499944Y-15259888D02*
X9490420Y-15221793D01*
X9490420Y-15221793D02*
X9490420Y-15174174D01*
X9490420Y-15174174D02*
X9499944Y-15136079D01*
X9499944Y-15136079D02*
X9509467Y-15117031D01*
X9509467Y-15117031D02*
X9518991Y-15107508D01*
X9518991Y-15107508D02*
X9538039Y-15097984D01*
X9690420Y-15297984D02*
X9690420Y-15164650D01*
X9690420Y-15183698D02*
X9699944Y-15174174D01*
X9699944Y-15174174D02*
X9718991Y-15164650D01*
X9718991Y-15164650D02*
X9747563Y-15164650D01*
X9747563Y-15164650D02*
X9766610Y-15174174D01*
X9766610Y-15174174D02*
X9776134Y-15193222D01*
X9776134Y-15193222D02*
X9776134Y-15297984D01*
X9776134Y-15193222D02*
X9785658Y-15174174D01*
X9785658Y-15174174D02*
X9804705Y-15164650D01*
X9804705Y-15164650D02*
X9833277Y-15164650D01*
X9833277Y-15164650D02*
X9852325Y-15174174D01*
X9852325Y-15174174D02*
X9861848Y-15193222D01*
X9861848Y-15193222D02*
X9861848Y-15297984D01*
X9957086Y-15297984D02*
X9957086Y-15164650D01*
X9957086Y-15183698D02*
X9966610Y-15174174D01*
X9966610Y-15174174D02*
X9985658Y-15164650D01*
X9985658Y-15164650D02*
X10014229Y-15164650D01*
X10014229Y-15164650D02*
X10033277Y-15174174D01*
X10033277Y-15174174D02*
X10042801Y-15193222D01*
X10042801Y-15193222D02*
X10042801Y-15297984D01*
X10042801Y-15193222D02*
X10052325Y-15174174D01*
X10052325Y-15174174D02*
X10071372Y-15164650D01*
X10071372Y-15164650D02*
X10099944Y-15164650D01*
X10099944Y-15164650D02*
X10118991Y-15174174D01*
X10118991Y-15174174D02*
X10128515Y-15193222D01*
X10128515Y-15193222D02*
X10128515Y-15297984D01*
X10518991Y-15088460D02*
X10347563Y-15345603D01*
X10776134Y-15097984D02*
X10795182Y-15097984D01*
X10795182Y-15097984D02*
X10814229Y-15107508D01*
X10814229Y-15107508D02*
X10823753Y-15117031D01*
X10823753Y-15117031D02*
X10833277Y-15136079D01*
X10833277Y-15136079D02*
X10842801Y-15174174D01*
X10842801Y-15174174D02*
X10842801Y-15221793D01*
X10842801Y-15221793D02*
X10833277Y-15259888D01*
X10833277Y-15259888D02*
X10823753Y-15278936D01*
X10823753Y-15278936D02*
X10814229Y-15288460D01*
X10814229Y-15288460D02*
X10795182Y-15297984D01*
X10795182Y-15297984D02*
X10776134Y-15297984D01*
X10776134Y-15297984D02*
X10757087Y-15288460D01*
X10757087Y-15288460D02*
X10747563Y-15278936D01*
X10747563Y-15278936D02*
X10738039Y-15259888D01*
X10738039Y-15259888D02*
X10728515Y-15221793D01*
X10728515Y-15221793D02*
X10728515Y-15174174D01*
X10728515Y-15174174D02*
X10738039Y-15136079D01*
X10738039Y-15136079D02*
X10747563Y-15117031D01*
X10747563Y-15117031D02*
X10757087Y-15107508D01*
X10757087Y-15107508D02*
X10776134Y-15097984D01*
X10928515Y-15278936D02*
X10938039Y-15288460D01*
X10938039Y-15288460D02*
X10928515Y-15297984D01*
X10928515Y-15297984D02*
X10918991Y-15288460D01*
X10918991Y-15288460D02*
X10928515Y-15278936D01*
X10928515Y-15278936D02*
X10928515Y-15297984D01*
X11061848Y-15097984D02*
X11080896Y-15097984D01*
X11080896Y-15097984D02*
X11099944Y-15107508D01*
X11099944Y-15107508D02*
X11109468Y-15117031D01*
X11109468Y-15117031D02*
X11118991Y-15136079D01*
X11118991Y-15136079D02*
X11128515Y-15174174D01*
X11128515Y-15174174D02*
X11128515Y-15221793D01*
X11128515Y-15221793D02*
X11118991Y-15259888D01*
X11118991Y-15259888D02*
X11109468Y-15278936D01*
X11109468Y-15278936D02*
X11099944Y-15288460D01*
X11099944Y-15288460D02*
X11080896Y-15297984D01*
X11080896Y-15297984D02*
X11061848Y-15297984D01*
X11061848Y-15297984D02*
X11042801Y-15288460D01*
X11042801Y-15288460D02*
X11033277Y-15278936D01*
X11033277Y-15278936D02*
X11023753Y-15259888D01*
X11023753Y-15259888D02*
X11014229Y-15221793D01*
X11014229Y-15221793D02*
X11014229Y-15174174D01*
X11014229Y-15174174D02*
X11023753Y-15136079D01*
X11023753Y-15136079D02*
X11033277Y-15117031D01*
X11033277Y-15117031D02*
X11042801Y-15107508D01*
X11042801Y-15107508D02*
X11061848Y-15097984D01*
X11204706Y-15117031D02*
X11214229Y-15107508D01*
X11214229Y-15107508D02*
X11233277Y-15097984D01*
X11233277Y-15097984D02*
X11280896Y-15097984D01*
X11280896Y-15097984D02*
X11299944Y-15107508D01*
X11299944Y-15107508D02*
X11309467Y-15117031D01*
X11309467Y-15117031D02*
X11318991Y-15136079D01*
X11318991Y-15136079D02*
X11318991Y-15155127D01*
X11318991Y-15155127D02*
X11309467Y-15183698D01*
X11309467Y-15183698D02*
X11195182Y-15297984D01*
X11195182Y-15297984D02*
X11318991Y-15297984D01*
X11499944Y-15097984D02*
X11404706Y-15097984D01*
X11404706Y-15097984D02*
X11395182Y-15193222D01*
X11395182Y-15193222D02*
X11404706Y-15183698D01*
X11404706Y-15183698D02*
X11423753Y-15174174D01*
X11423753Y-15174174D02*
X11471372Y-15174174D01*
X11471372Y-15174174D02*
X11490420Y-15183698D01*
X11490420Y-15183698D02*
X11499944Y-15193222D01*
X11499944Y-15193222D02*
X11509467Y-15212269D01*
X11509467Y-15212269D02*
X11509467Y-15259888D01*
X11509467Y-15259888D02*
X11499944Y-15278936D01*
X11499944Y-15278936D02*
X11490420Y-15288460D01*
X11490420Y-15288460D02*
X11471372Y-15297984D01*
X11471372Y-15297984D02*
X11423753Y-15297984D01*
X11423753Y-15297984D02*
X11404706Y-15288460D01*
X11404706Y-15288460D02*
X11395182Y-15278936D01*
X11680896Y-15097984D02*
X11642801Y-15097984D01*
X11642801Y-15097984D02*
X11623753Y-15107508D01*
X11623753Y-15107508D02*
X11614229Y-15117031D01*
X11614229Y-15117031D02*
X11595182Y-15145603D01*
X11595182Y-15145603D02*
X11585658Y-15183698D01*
X11585658Y-15183698D02*
X11585658Y-15259888D01*
X11585658Y-15259888D02*
X11595182Y-15278936D01*
X11595182Y-15278936D02*
X11604706Y-15288460D01*
X11604706Y-15288460D02*
X11623753Y-15297984D01*
X11623753Y-15297984D02*
X11661848Y-15297984D01*
X11661848Y-15297984D02*
X11680896Y-15288460D01*
X11680896Y-15288460D02*
X11690420Y-15278936D01*
X11690420Y-15278936D02*
X11699944Y-15259888D01*
X11699944Y-15259888D02*
X11699944Y-15212269D01*
X11699944Y-15212269D02*
X11690420Y-15193222D01*
X11690420Y-15193222D02*
X11680896Y-15183698D01*
X11680896Y-15183698D02*
X11661848Y-15174174D01*
X11661848Y-15174174D02*
X11623753Y-15174174D01*
X11623753Y-15174174D02*
X11604706Y-15183698D01*
X11604706Y-15183698D02*
X11595182Y-15193222D01*
X11595182Y-15193222D02*
X11585658Y-15212269D01*
X11776134Y-15097984D02*
X11776134Y-15136079D01*
X11852325Y-15097984D02*
X11852325Y-15136079D01*
X12147563Y-15374174D02*
X12138039Y-15364650D01*
X12138039Y-15364650D02*
X12118991Y-15336079D01*
X12118991Y-15336079D02*
X12109468Y-15317031D01*
X12109468Y-15317031D02*
X12099944Y-15288460D01*
X12099944Y-15288460D02*
X12090420Y-15240841D01*
X12090420Y-15240841D02*
X12090420Y-15202746D01*
X12090420Y-15202746D02*
X12099944Y-15155127D01*
X12099944Y-15155127D02*
X12109468Y-15126555D01*
X12109468Y-15126555D02*
X12118991Y-15107508D01*
X12118991Y-15107508D02*
X12138039Y-15078936D01*
X12138039Y-15078936D02*
X12147563Y-15069412D01*
X12214229Y-15117031D02*
X12223753Y-15107508D01*
X12223753Y-15107508D02*
X12242801Y-15097984D01*
X12242801Y-15097984D02*
X12290420Y-15097984D01*
X12290420Y-15097984D02*
X12309468Y-15107508D01*
X12309468Y-15107508D02*
X12318991Y-15117031D01*
X12318991Y-15117031D02*
X12328515Y-15136079D01*
X12328515Y-15136079D02*
X12328515Y-15155127D01*
X12328515Y-15155127D02*
X12318991Y-15183698D01*
X12318991Y-15183698D02*
X12204706Y-15297984D01*
X12204706Y-15297984D02*
X12328515Y-15297984D01*
X12566610Y-15297984D02*
X12566610Y-15097984D01*
X12652325Y-15297984D02*
X12652325Y-15193222D01*
X12652325Y-15193222D02*
X12642801Y-15174174D01*
X12642801Y-15174174D02*
X12623753Y-15164650D01*
X12623753Y-15164650D02*
X12595182Y-15164650D01*
X12595182Y-15164650D02*
X12576134Y-15174174D01*
X12576134Y-15174174D02*
X12566610Y-15183698D01*
X12776134Y-15297984D02*
X12757087Y-15288460D01*
X12757087Y-15288460D02*
X12747563Y-15278936D01*
X12747563Y-15278936D02*
X12738039Y-15259888D01*
X12738039Y-15259888D02*
X12738039Y-15202746D01*
X12738039Y-15202746D02*
X12747563Y-15183698D01*
X12747563Y-15183698D02*
X12757087Y-15174174D01*
X12757087Y-15174174D02*
X12776134Y-15164650D01*
X12776134Y-15164650D02*
X12804706Y-15164650D01*
X12804706Y-15164650D02*
X12823753Y-15174174D01*
X12823753Y-15174174D02*
X12833277Y-15183698D01*
X12833277Y-15183698D02*
X12842801Y-15202746D01*
X12842801Y-15202746D02*
X12842801Y-15259888D01*
X12842801Y-15259888D02*
X12833277Y-15278936D01*
X12833277Y-15278936D02*
X12823753Y-15288460D01*
X12823753Y-15288460D02*
X12804706Y-15297984D01*
X12804706Y-15297984D02*
X12776134Y-15297984D01*
X12957087Y-15297984D02*
X12938039Y-15288460D01*
X12938039Y-15288460D02*
X12928515Y-15269412D01*
X12928515Y-15269412D02*
X12928515Y-15097984D01*
X13109468Y-15288460D02*
X13090420Y-15297984D01*
X13090420Y-15297984D02*
X13052325Y-15297984D01*
X13052325Y-15297984D02*
X13033277Y-15288460D01*
X13033277Y-15288460D02*
X13023753Y-15269412D01*
X13023753Y-15269412D02*
X13023753Y-15193222D01*
X13023753Y-15193222D02*
X13033277Y-15174174D01*
X13033277Y-15174174D02*
X13052325Y-15164650D01*
X13052325Y-15164650D02*
X13090420Y-15164650D01*
X13090420Y-15164650D02*
X13109468Y-15174174D01*
X13109468Y-15174174D02*
X13118991Y-15193222D01*
X13118991Y-15193222D02*
X13118991Y-15212269D01*
X13118991Y-15212269D02*
X13023753Y-15231317D01*
X13195182Y-15288460D02*
X13214230Y-15297984D01*
X13214230Y-15297984D02*
X13252325Y-15297984D01*
X13252325Y-15297984D02*
X13271372Y-15288460D01*
X13271372Y-15288460D02*
X13280896Y-15269412D01*
X13280896Y-15269412D02*
X13280896Y-15259888D01*
X13280896Y-15259888D02*
X13271372Y-15240841D01*
X13271372Y-15240841D02*
X13252325Y-15231317D01*
X13252325Y-15231317D02*
X13223753Y-15231317D01*
X13223753Y-15231317D02*
X13204706Y-15221793D01*
X13204706Y-15221793D02*
X13195182Y-15202746D01*
X13195182Y-15202746D02*
X13195182Y-15193222D01*
X13195182Y-15193222D02*
X13204706Y-15174174D01*
X13204706Y-15174174D02*
X13223753Y-15164650D01*
X13223753Y-15164650D02*
X13252325Y-15164650D01*
X13252325Y-15164650D02*
X13271372Y-15174174D01*
X13347563Y-15374174D02*
X13357087Y-15364650D01*
X13357087Y-15364650D02*
X13376134Y-15336079D01*
X13376134Y-15336079D02*
X13385658Y-15317031D01*
X13385658Y-15317031D02*
X13395182Y-15288460D01*
X13395182Y-15288460D02*
X13404706Y-15240841D01*
X13404706Y-15240841D02*
X13404706Y-15202746D01*
X13404706Y-15202746D02*
X13395182Y-15155127D01*
X13395182Y-15155127D02*
X13385658Y-15126555D01*
X13385658Y-15126555D02*
X13376134Y-15107508D01*
X13376134Y-15107508D02*
X13357087Y-15078936D01*
X13357087Y-15078936D02*
X13347563Y-15069412D01*
X13709468Y-15374174D02*
X13699944Y-15364650D01*
X13699944Y-15364650D02*
X13680896Y-15336079D01*
X13680896Y-15336079D02*
X13671372Y-15317031D01*
X13671372Y-15317031D02*
X13661849Y-15288460D01*
X13661849Y-15288460D02*
X13652325Y-15240841D01*
X13652325Y-15240841D02*
X13652325Y-15202746D01*
X13652325Y-15202746D02*
X13661849Y-15155127D01*
X13661849Y-15155127D02*
X13671372Y-15126555D01*
X13671372Y-15126555D02*
X13680896Y-15107508D01*
X13680896Y-15107508D02*
X13699944Y-15078936D01*
X13699944Y-15078936D02*
X13709468Y-15069412D01*
X13785658Y-15164650D02*
X13785658Y-15297984D01*
X13785658Y-15183698D02*
X13795182Y-15174174D01*
X13795182Y-15174174D02*
X13814230Y-15164650D01*
X13814230Y-15164650D02*
X13842801Y-15164650D01*
X13842801Y-15164650D02*
X13861849Y-15174174D01*
X13861849Y-15174174D02*
X13871372Y-15193222D01*
X13871372Y-15193222D02*
X13871372Y-15297984D01*
X13995182Y-15297984D02*
X13976134Y-15288460D01*
X13976134Y-15288460D02*
X13966611Y-15278936D01*
X13966611Y-15278936D02*
X13957087Y-15259888D01*
X13957087Y-15259888D02*
X13957087Y-15202746D01*
X13957087Y-15202746D02*
X13966611Y-15183698D01*
X13966611Y-15183698D02*
X13976134Y-15174174D01*
X13976134Y-15174174D02*
X13995182Y-15164650D01*
X13995182Y-15164650D02*
X14023753Y-15164650D01*
X14023753Y-15164650D02*
X14042801Y-15174174D01*
X14042801Y-15174174D02*
X14052325Y-15183698D01*
X14052325Y-15183698D02*
X14061849Y-15202746D01*
X14061849Y-15202746D02*
X14061849Y-15259888D01*
X14061849Y-15259888D02*
X14052325Y-15278936D01*
X14052325Y-15278936D02*
X14042801Y-15288460D01*
X14042801Y-15288460D02*
X14023753Y-15297984D01*
X14023753Y-15297984D02*
X13995182Y-15297984D01*
X14118992Y-15164650D02*
X14195182Y-15164650D01*
X14147563Y-15097984D02*
X14147563Y-15269412D01*
X14147563Y-15269412D02*
X14157087Y-15288460D01*
X14157087Y-15288460D02*
X14176134Y-15297984D01*
X14176134Y-15297984D02*
X14195182Y-15297984D01*
X14414230Y-15164650D02*
X14414230Y-15364650D01*
X14414230Y-15174174D02*
X14433277Y-15164650D01*
X14433277Y-15164650D02*
X14471373Y-15164650D01*
X14471373Y-15164650D02*
X14490420Y-15174174D01*
X14490420Y-15174174D02*
X14499944Y-15183698D01*
X14499944Y-15183698D02*
X14509468Y-15202746D01*
X14509468Y-15202746D02*
X14509468Y-15259888D01*
X14509468Y-15259888D02*
X14499944Y-15278936D01*
X14499944Y-15278936D02*
X14490420Y-15288460D01*
X14490420Y-15288460D02*
X14471373Y-15297984D01*
X14471373Y-15297984D02*
X14433277Y-15297984D01*
X14433277Y-15297984D02*
X14414230Y-15288460D01*
X14623753Y-15297984D02*
X14604706Y-15288460D01*
X14604706Y-15288460D02*
X14595182Y-15269412D01*
X14595182Y-15269412D02*
X14595182Y-15097984D01*
X14785658Y-15297984D02*
X14785658Y-15193222D01*
X14785658Y-15193222D02*
X14776134Y-15174174D01*
X14776134Y-15174174D02*
X14757087Y-15164650D01*
X14757087Y-15164650D02*
X14718992Y-15164650D01*
X14718992Y-15164650D02*
X14699944Y-15174174D01*
X14785658Y-15288460D02*
X14766611Y-15297984D01*
X14766611Y-15297984D02*
X14718992Y-15297984D01*
X14718992Y-15297984D02*
X14699944Y-15288460D01*
X14699944Y-15288460D02*
X14690420Y-15269412D01*
X14690420Y-15269412D02*
X14690420Y-15250365D01*
X14690420Y-15250365D02*
X14699944Y-15231317D01*
X14699944Y-15231317D02*
X14718992Y-15221793D01*
X14718992Y-15221793D02*
X14766611Y-15221793D01*
X14766611Y-15221793D02*
X14785658Y-15212269D01*
X14852325Y-15164650D02*
X14928515Y-15164650D01*
X14880896Y-15097984D02*
X14880896Y-15269412D01*
X14880896Y-15269412D02*
X14890420Y-15288460D01*
X14890420Y-15288460D02*
X14909468Y-15297984D01*
X14909468Y-15297984D02*
X14928515Y-15297984D01*
X15071373Y-15288460D02*
X15052325Y-15297984D01*
X15052325Y-15297984D02*
X15014230Y-15297984D01*
X15014230Y-15297984D02*
X14995182Y-15288460D01*
X14995182Y-15288460D02*
X14985658Y-15269412D01*
X14985658Y-15269412D02*
X14985658Y-15193222D01*
X14985658Y-15193222D02*
X14995182Y-15174174D01*
X14995182Y-15174174D02*
X15014230Y-15164650D01*
X15014230Y-15164650D02*
X15052325Y-15164650D01*
X15052325Y-15164650D02*
X15071373Y-15174174D01*
X15071373Y-15174174D02*
X15080896Y-15193222D01*
X15080896Y-15193222D02*
X15080896Y-15212269D01*
X15080896Y-15212269D02*
X14985658Y-15231317D01*
X15252325Y-15297984D02*
X15252325Y-15097984D01*
X15252325Y-15288460D02*
X15233277Y-15297984D01*
X15233277Y-15297984D02*
X15195182Y-15297984D01*
X15195182Y-15297984D02*
X15176134Y-15288460D01*
X15176134Y-15288460D02*
X15166611Y-15278936D01*
X15166611Y-15278936D02*
X15157087Y-15259888D01*
X15157087Y-15259888D02*
X15157087Y-15202746D01*
X15157087Y-15202746D02*
X15166611Y-15183698D01*
X15166611Y-15183698D02*
X15176134Y-15174174D01*
X15176134Y-15174174D02*
X15195182Y-15164650D01*
X15195182Y-15164650D02*
X15233277Y-15164650D01*
X15233277Y-15164650D02*
X15252325Y-15174174D01*
X15328515Y-15374174D02*
X15338039Y-15364650D01*
X15338039Y-15364650D02*
X15357087Y-15336079D01*
X15357087Y-15336079D02*
X15366611Y-15317031D01*
X15366611Y-15317031D02*
X15376134Y-15288460D01*
X15376134Y-15288460D02*
X15385658Y-15240841D01*
X15385658Y-15240841D02*
X15385658Y-15202746D01*
X15385658Y-15202746D02*
X15376134Y-15155127D01*
X15376134Y-15155127D02*
X15366611Y-15126555D01*
X15366611Y-15126555D02*
X15357087Y-15107508D01*
X15357087Y-15107508D02*
X15338039Y-15078936D01*
X15338039Y-15078936D02*
X15328515Y-15069412D01*
X8472500Y-15370500D02*
X8472500Y-15570500D01*
X8372500Y-15470500D02*
X8572500Y-15470500D01*
X8814229Y-15361984D02*
X8938039Y-15361984D01*
X8938039Y-15361984D02*
X8871372Y-15438174D01*
X8871372Y-15438174D02*
X8899944Y-15438174D01*
X8899944Y-15438174D02*
X8918991Y-15447698D01*
X8918991Y-15447698D02*
X8928515Y-15457222D01*
X8928515Y-15457222D02*
X8938039Y-15476269D01*
X8938039Y-15476269D02*
X8938039Y-15523888D01*
X8938039Y-15523888D02*
X8928515Y-15542936D01*
X8928515Y-15542936D02*
X8918991Y-15552460D01*
X8918991Y-15552460D02*
X8899944Y-15561984D01*
X8899944Y-15561984D02*
X8842801Y-15561984D01*
X8842801Y-15561984D02*
X8823753Y-15552460D01*
X8823753Y-15552460D02*
X8814229Y-15542936D01*
X9023753Y-15542936D02*
X9033277Y-15552460D01*
X9033277Y-15552460D02*
X9023753Y-15561984D01*
X9023753Y-15561984D02*
X9014229Y-15552460D01*
X9014229Y-15552460D02*
X9023753Y-15542936D01*
X9023753Y-15542936D02*
X9023753Y-15561984D01*
X9157086Y-15361984D02*
X9176134Y-15361984D01*
X9176134Y-15361984D02*
X9195182Y-15371508D01*
X9195182Y-15371508D02*
X9204705Y-15381031D01*
X9204705Y-15381031D02*
X9214229Y-15400079D01*
X9214229Y-15400079D02*
X9223753Y-15438174D01*
X9223753Y-15438174D02*
X9223753Y-15485793D01*
X9223753Y-15485793D02*
X9214229Y-15523888D01*
X9214229Y-15523888D02*
X9204705Y-15542936D01*
X9204705Y-15542936D02*
X9195182Y-15552460D01*
X9195182Y-15552460D02*
X9176134Y-15561984D01*
X9176134Y-15561984D02*
X9157086Y-15561984D01*
X9157086Y-15561984D02*
X9138039Y-15552460D01*
X9138039Y-15552460D02*
X9128515Y-15542936D01*
X9128515Y-15542936D02*
X9118991Y-15523888D01*
X9118991Y-15523888D02*
X9109467Y-15485793D01*
X9109467Y-15485793D02*
X9109467Y-15438174D01*
X9109467Y-15438174D02*
X9118991Y-15400079D01*
X9118991Y-15400079D02*
X9128515Y-15381031D01*
X9128515Y-15381031D02*
X9138039Y-15371508D01*
X9138039Y-15371508D02*
X9157086Y-15361984D01*
X9347563Y-15361984D02*
X9366610Y-15361984D01*
X9366610Y-15361984D02*
X9385658Y-15371508D01*
X9385658Y-15371508D02*
X9395182Y-15381031D01*
X9395182Y-15381031D02*
X9404705Y-15400079D01*
X9404705Y-15400079D02*
X9414229Y-15438174D01*
X9414229Y-15438174D02*
X9414229Y-15485793D01*
X9414229Y-15485793D02*
X9404705Y-15523888D01*
X9404705Y-15523888D02*
X9395182Y-15542936D01*
X9395182Y-15542936D02*
X9385658Y-15552460D01*
X9385658Y-15552460D02*
X9366610Y-15561984D01*
X9366610Y-15561984D02*
X9347563Y-15561984D01*
X9347563Y-15561984D02*
X9328515Y-15552460D01*
X9328515Y-15552460D02*
X9318991Y-15542936D01*
X9318991Y-15542936D02*
X9309467Y-15523888D01*
X9309467Y-15523888D02*
X9299944Y-15485793D01*
X9299944Y-15485793D02*
X9299944Y-15438174D01*
X9299944Y-15438174D02*
X9309467Y-15400079D01*
X9309467Y-15400079D02*
X9318991Y-15381031D01*
X9318991Y-15381031D02*
X9328515Y-15371508D01*
X9328515Y-15371508D02*
X9347563Y-15361984D01*
X9538039Y-15361984D02*
X9557086Y-15361984D01*
X9557086Y-15361984D02*
X9576134Y-15371508D01*
X9576134Y-15371508D02*
X9585658Y-15381031D01*
X9585658Y-15381031D02*
X9595182Y-15400079D01*
X9595182Y-15400079D02*
X9604705Y-15438174D01*
X9604705Y-15438174D02*
X9604705Y-15485793D01*
X9604705Y-15485793D02*
X9595182Y-15523888D01*
X9595182Y-15523888D02*
X9585658Y-15542936D01*
X9585658Y-15542936D02*
X9576134Y-15552460D01*
X9576134Y-15552460D02*
X9557086Y-15561984D01*
X9557086Y-15561984D02*
X9538039Y-15561984D01*
X9538039Y-15561984D02*
X9518991Y-15552460D01*
X9518991Y-15552460D02*
X9509467Y-15542936D01*
X9509467Y-15542936D02*
X9499944Y-15523888D01*
X9499944Y-15523888D02*
X9490420Y-15485793D01*
X9490420Y-15485793D02*
X9490420Y-15438174D01*
X9490420Y-15438174D02*
X9499944Y-15400079D01*
X9499944Y-15400079D02*
X9509467Y-15381031D01*
X9509467Y-15381031D02*
X9518991Y-15371508D01*
X9518991Y-15371508D02*
X9538039Y-15361984D01*
X9690420Y-15561984D02*
X9690420Y-15428650D01*
X9690420Y-15447698D02*
X9699944Y-15438174D01*
X9699944Y-15438174D02*
X9718991Y-15428650D01*
X9718991Y-15428650D02*
X9747563Y-15428650D01*
X9747563Y-15428650D02*
X9766610Y-15438174D01*
X9766610Y-15438174D02*
X9776134Y-15457222D01*
X9776134Y-15457222D02*
X9776134Y-15561984D01*
X9776134Y-15457222D02*
X9785658Y-15438174D01*
X9785658Y-15438174D02*
X9804705Y-15428650D01*
X9804705Y-15428650D02*
X9833277Y-15428650D01*
X9833277Y-15428650D02*
X9852325Y-15438174D01*
X9852325Y-15438174D02*
X9861848Y-15457222D01*
X9861848Y-15457222D02*
X9861848Y-15561984D01*
X9957086Y-15561984D02*
X9957086Y-15428650D01*
X9957086Y-15447698D02*
X9966610Y-15438174D01*
X9966610Y-15438174D02*
X9985658Y-15428650D01*
X9985658Y-15428650D02*
X10014229Y-15428650D01*
X10014229Y-15428650D02*
X10033277Y-15438174D01*
X10033277Y-15438174D02*
X10042801Y-15457222D01*
X10042801Y-15457222D02*
X10042801Y-15561984D01*
X10042801Y-15457222D02*
X10052325Y-15438174D01*
X10052325Y-15438174D02*
X10071372Y-15428650D01*
X10071372Y-15428650D02*
X10099944Y-15428650D01*
X10099944Y-15428650D02*
X10118991Y-15438174D01*
X10118991Y-15438174D02*
X10128515Y-15457222D01*
X10128515Y-15457222D02*
X10128515Y-15561984D01*
X10518991Y-15352460D02*
X10347563Y-15609603D01*
X10776134Y-15361984D02*
X10795182Y-15361984D01*
X10795182Y-15361984D02*
X10814229Y-15371508D01*
X10814229Y-15371508D02*
X10823753Y-15381031D01*
X10823753Y-15381031D02*
X10833277Y-15400079D01*
X10833277Y-15400079D02*
X10842801Y-15438174D01*
X10842801Y-15438174D02*
X10842801Y-15485793D01*
X10842801Y-15485793D02*
X10833277Y-15523888D01*
X10833277Y-15523888D02*
X10823753Y-15542936D01*
X10823753Y-15542936D02*
X10814229Y-15552460D01*
X10814229Y-15552460D02*
X10795182Y-15561984D01*
X10795182Y-15561984D02*
X10776134Y-15561984D01*
X10776134Y-15561984D02*
X10757087Y-15552460D01*
X10757087Y-15552460D02*
X10747563Y-15542936D01*
X10747563Y-15542936D02*
X10738039Y-15523888D01*
X10738039Y-15523888D02*
X10728515Y-15485793D01*
X10728515Y-15485793D02*
X10728515Y-15438174D01*
X10728515Y-15438174D02*
X10738039Y-15400079D01*
X10738039Y-15400079D02*
X10747563Y-15381031D01*
X10747563Y-15381031D02*
X10757087Y-15371508D01*
X10757087Y-15371508D02*
X10776134Y-15361984D01*
X10928515Y-15542936D02*
X10938039Y-15552460D01*
X10938039Y-15552460D02*
X10928515Y-15561984D01*
X10928515Y-15561984D02*
X10918991Y-15552460D01*
X10918991Y-15552460D02*
X10928515Y-15542936D01*
X10928515Y-15542936D02*
X10928515Y-15561984D01*
X11128515Y-15561984D02*
X11014229Y-15561984D01*
X11071372Y-15561984D02*
X11071372Y-15361984D01*
X11071372Y-15361984D02*
X11052325Y-15390555D01*
X11052325Y-15390555D02*
X11033277Y-15409603D01*
X11033277Y-15409603D02*
X11014229Y-15419127D01*
X11318991Y-15561984D02*
X11204706Y-15561984D01*
X11261848Y-15561984D02*
X11261848Y-15361984D01*
X11261848Y-15361984D02*
X11242801Y-15390555D01*
X11242801Y-15390555D02*
X11223753Y-15409603D01*
X11223753Y-15409603D02*
X11204706Y-15419127D01*
X11433277Y-15447698D02*
X11414229Y-15438174D01*
X11414229Y-15438174D02*
X11404706Y-15428650D01*
X11404706Y-15428650D02*
X11395182Y-15409603D01*
X11395182Y-15409603D02*
X11395182Y-15400079D01*
X11395182Y-15400079D02*
X11404706Y-15381031D01*
X11404706Y-15381031D02*
X11414229Y-15371508D01*
X11414229Y-15371508D02*
X11433277Y-15361984D01*
X11433277Y-15361984D02*
X11471372Y-15361984D01*
X11471372Y-15361984D02*
X11490420Y-15371508D01*
X11490420Y-15371508D02*
X11499944Y-15381031D01*
X11499944Y-15381031D02*
X11509467Y-15400079D01*
X11509467Y-15400079D02*
X11509467Y-15409603D01*
X11509467Y-15409603D02*
X11499944Y-15428650D01*
X11499944Y-15428650D02*
X11490420Y-15438174D01*
X11490420Y-15438174D02*
X11471372Y-15447698D01*
X11471372Y-15447698D02*
X11433277Y-15447698D01*
X11433277Y-15447698D02*
X11414229Y-15457222D01*
X11414229Y-15457222D02*
X11404706Y-15466746D01*
X11404706Y-15466746D02*
X11395182Y-15485793D01*
X11395182Y-15485793D02*
X11395182Y-15523888D01*
X11395182Y-15523888D02*
X11404706Y-15542936D01*
X11404706Y-15542936D02*
X11414229Y-15552460D01*
X11414229Y-15552460D02*
X11433277Y-15561984D01*
X11433277Y-15561984D02*
X11471372Y-15561984D01*
X11471372Y-15561984D02*
X11490420Y-15552460D01*
X11490420Y-15552460D02*
X11499944Y-15542936D01*
X11499944Y-15542936D02*
X11509467Y-15523888D01*
X11509467Y-15523888D02*
X11509467Y-15485793D01*
X11509467Y-15485793D02*
X11499944Y-15466746D01*
X11499944Y-15466746D02*
X11490420Y-15457222D01*
X11490420Y-15457222D02*
X11471372Y-15447698D01*
X11699944Y-15561984D02*
X11585658Y-15561984D01*
X11642801Y-15561984D02*
X11642801Y-15361984D01*
X11642801Y-15361984D02*
X11623753Y-15390555D01*
X11623753Y-15390555D02*
X11604706Y-15409603D01*
X11604706Y-15409603D02*
X11585658Y-15419127D01*
X11776134Y-15361984D02*
X11776134Y-15400079D01*
X11852325Y-15361984D02*
X11852325Y-15400079D01*
X12147563Y-15638174D02*
X12138039Y-15628650D01*
X12138039Y-15628650D02*
X12118991Y-15600079D01*
X12118991Y-15600079D02*
X12109468Y-15581031D01*
X12109468Y-15581031D02*
X12099944Y-15552460D01*
X12099944Y-15552460D02*
X12090420Y-15504841D01*
X12090420Y-15504841D02*
X12090420Y-15466746D01*
X12090420Y-15466746D02*
X12099944Y-15419127D01*
X12099944Y-15419127D02*
X12109468Y-15390555D01*
X12109468Y-15390555D02*
X12118991Y-15371508D01*
X12118991Y-15371508D02*
X12138039Y-15342936D01*
X12138039Y-15342936D02*
X12147563Y-15333412D01*
X12309468Y-15428650D02*
X12309468Y-15561984D01*
X12261848Y-15352460D02*
X12214229Y-15495317D01*
X12214229Y-15495317D02*
X12338039Y-15495317D01*
X12566610Y-15561984D02*
X12566610Y-15361984D01*
X12652325Y-15561984D02*
X12652325Y-15457222D01*
X12652325Y-15457222D02*
X12642801Y-15438174D01*
X12642801Y-15438174D02*
X12623753Y-15428650D01*
X12623753Y-15428650D02*
X12595182Y-15428650D01*
X12595182Y-15428650D02*
X12576134Y-15438174D01*
X12576134Y-15438174D02*
X12566610Y-15447698D01*
X12776134Y-15561984D02*
X12757087Y-15552460D01*
X12757087Y-15552460D02*
X12747563Y-15542936D01*
X12747563Y-15542936D02*
X12738039Y-15523888D01*
X12738039Y-15523888D02*
X12738039Y-15466746D01*
X12738039Y-15466746D02*
X12747563Y-15447698D01*
X12747563Y-15447698D02*
X12757087Y-15438174D01*
X12757087Y-15438174D02*
X12776134Y-15428650D01*
X12776134Y-15428650D02*
X12804706Y-15428650D01*
X12804706Y-15428650D02*
X12823753Y-15438174D01*
X12823753Y-15438174D02*
X12833277Y-15447698D01*
X12833277Y-15447698D02*
X12842801Y-15466746D01*
X12842801Y-15466746D02*
X12842801Y-15523888D01*
X12842801Y-15523888D02*
X12833277Y-15542936D01*
X12833277Y-15542936D02*
X12823753Y-15552460D01*
X12823753Y-15552460D02*
X12804706Y-15561984D01*
X12804706Y-15561984D02*
X12776134Y-15561984D01*
X12957087Y-15561984D02*
X12938039Y-15552460D01*
X12938039Y-15552460D02*
X12928515Y-15533412D01*
X12928515Y-15533412D02*
X12928515Y-15361984D01*
X13109468Y-15552460D02*
X13090420Y-15561984D01*
X13090420Y-15561984D02*
X13052325Y-15561984D01*
X13052325Y-15561984D02*
X13033277Y-15552460D01*
X13033277Y-15552460D02*
X13023753Y-15533412D01*
X13023753Y-15533412D02*
X13023753Y-15457222D01*
X13023753Y-15457222D02*
X13033277Y-15438174D01*
X13033277Y-15438174D02*
X13052325Y-15428650D01*
X13052325Y-15428650D02*
X13090420Y-15428650D01*
X13090420Y-15428650D02*
X13109468Y-15438174D01*
X13109468Y-15438174D02*
X13118991Y-15457222D01*
X13118991Y-15457222D02*
X13118991Y-15476269D01*
X13118991Y-15476269D02*
X13023753Y-15495317D01*
X13195182Y-15552460D02*
X13214230Y-15561984D01*
X13214230Y-15561984D02*
X13252325Y-15561984D01*
X13252325Y-15561984D02*
X13271372Y-15552460D01*
X13271372Y-15552460D02*
X13280896Y-15533412D01*
X13280896Y-15533412D02*
X13280896Y-15523888D01*
X13280896Y-15523888D02*
X13271372Y-15504841D01*
X13271372Y-15504841D02*
X13252325Y-15495317D01*
X13252325Y-15495317D02*
X13223753Y-15495317D01*
X13223753Y-15495317D02*
X13204706Y-15485793D01*
X13204706Y-15485793D02*
X13195182Y-15466746D01*
X13195182Y-15466746D02*
X13195182Y-15457222D01*
X13195182Y-15457222D02*
X13204706Y-15438174D01*
X13204706Y-15438174D02*
X13223753Y-15428650D01*
X13223753Y-15428650D02*
X13252325Y-15428650D01*
X13252325Y-15428650D02*
X13271372Y-15438174D01*
X13347563Y-15638174D02*
X13357087Y-15628650D01*
X13357087Y-15628650D02*
X13376134Y-15600079D01*
X13376134Y-15600079D02*
X13385658Y-15581031D01*
X13385658Y-15581031D02*
X13395182Y-15552460D01*
X13395182Y-15552460D02*
X13404706Y-15504841D01*
X13404706Y-15504841D02*
X13404706Y-15466746D01*
X13404706Y-15466746D02*
X13395182Y-15419127D01*
X13395182Y-15419127D02*
X13385658Y-15390555D01*
X13385658Y-15390555D02*
X13376134Y-15371508D01*
X13376134Y-15371508D02*
X13357087Y-15342936D01*
X13357087Y-15342936D02*
X13347563Y-15333412D01*
X13709468Y-15638174D02*
X13699944Y-15628650D01*
X13699944Y-15628650D02*
X13680896Y-15600079D01*
X13680896Y-15600079D02*
X13671372Y-15581031D01*
X13671372Y-15581031D02*
X13661849Y-15552460D01*
X13661849Y-15552460D02*
X13652325Y-15504841D01*
X13652325Y-15504841D02*
X13652325Y-15466746D01*
X13652325Y-15466746D02*
X13661849Y-15419127D01*
X13661849Y-15419127D02*
X13671372Y-15390555D01*
X13671372Y-15390555D02*
X13680896Y-15371508D01*
X13680896Y-15371508D02*
X13699944Y-15342936D01*
X13699944Y-15342936D02*
X13709468Y-15333412D01*
X13785658Y-15428650D02*
X13785658Y-15561984D01*
X13785658Y-15447698D02*
X13795182Y-15438174D01*
X13795182Y-15438174D02*
X13814230Y-15428650D01*
X13814230Y-15428650D02*
X13842801Y-15428650D01*
X13842801Y-15428650D02*
X13861849Y-15438174D01*
X13861849Y-15438174D02*
X13871372Y-15457222D01*
X13871372Y-15457222D02*
X13871372Y-15561984D01*
X13995182Y-15561984D02*
X13976134Y-15552460D01*
X13976134Y-15552460D02*
X13966611Y-15542936D01*
X13966611Y-15542936D02*
X13957087Y-15523888D01*
X13957087Y-15523888D02*
X13957087Y-15466746D01*
X13957087Y-15466746D02*
X13966611Y-15447698D01*
X13966611Y-15447698D02*
X13976134Y-15438174D01*
X13976134Y-15438174D02*
X13995182Y-15428650D01*
X13995182Y-15428650D02*
X14023753Y-15428650D01*
X14023753Y-15428650D02*
X14042801Y-15438174D01*
X14042801Y-15438174D02*
X14052325Y-15447698D01*
X14052325Y-15447698D02*
X14061849Y-15466746D01*
X14061849Y-15466746D02*
X14061849Y-15523888D01*
X14061849Y-15523888D02*
X14052325Y-15542936D01*
X14052325Y-15542936D02*
X14042801Y-15552460D01*
X14042801Y-15552460D02*
X14023753Y-15561984D01*
X14023753Y-15561984D02*
X13995182Y-15561984D01*
X14118992Y-15428650D02*
X14195182Y-15428650D01*
X14147563Y-15361984D02*
X14147563Y-15533412D01*
X14147563Y-15533412D02*
X14157087Y-15552460D01*
X14157087Y-15552460D02*
X14176134Y-15561984D01*
X14176134Y-15561984D02*
X14195182Y-15561984D01*
X14414230Y-15428650D02*
X14414230Y-15628650D01*
X14414230Y-15438174D02*
X14433277Y-15428650D01*
X14433277Y-15428650D02*
X14471373Y-15428650D01*
X14471373Y-15428650D02*
X14490420Y-15438174D01*
X14490420Y-15438174D02*
X14499944Y-15447698D01*
X14499944Y-15447698D02*
X14509468Y-15466746D01*
X14509468Y-15466746D02*
X14509468Y-15523888D01*
X14509468Y-15523888D02*
X14499944Y-15542936D01*
X14499944Y-15542936D02*
X14490420Y-15552460D01*
X14490420Y-15552460D02*
X14471373Y-15561984D01*
X14471373Y-15561984D02*
X14433277Y-15561984D01*
X14433277Y-15561984D02*
X14414230Y-15552460D01*
X14623753Y-15561984D02*
X14604706Y-15552460D01*
X14604706Y-15552460D02*
X14595182Y-15533412D01*
X14595182Y-15533412D02*
X14595182Y-15361984D01*
X14785658Y-15561984D02*
X14785658Y-15457222D01*
X14785658Y-15457222D02*
X14776134Y-15438174D01*
X14776134Y-15438174D02*
X14757087Y-15428650D01*
X14757087Y-15428650D02*
X14718992Y-15428650D01*
X14718992Y-15428650D02*
X14699944Y-15438174D01*
X14785658Y-15552460D02*
X14766611Y-15561984D01*
X14766611Y-15561984D02*
X14718992Y-15561984D01*
X14718992Y-15561984D02*
X14699944Y-15552460D01*
X14699944Y-15552460D02*
X14690420Y-15533412D01*
X14690420Y-15533412D02*
X14690420Y-15514365D01*
X14690420Y-15514365D02*
X14699944Y-15495317D01*
X14699944Y-15495317D02*
X14718992Y-15485793D01*
X14718992Y-15485793D02*
X14766611Y-15485793D01*
X14766611Y-15485793D02*
X14785658Y-15476269D01*
X14852325Y-15428650D02*
X14928515Y-15428650D01*
X14880896Y-15361984D02*
X14880896Y-15533412D01*
X14880896Y-15533412D02*
X14890420Y-15552460D01*
X14890420Y-15552460D02*
X14909468Y-15561984D01*
X14909468Y-15561984D02*
X14928515Y-15561984D01*
X15071373Y-15552460D02*
X15052325Y-15561984D01*
X15052325Y-15561984D02*
X15014230Y-15561984D01*
X15014230Y-15561984D02*
X14995182Y-15552460D01*
X14995182Y-15552460D02*
X14985658Y-15533412D01*
X14985658Y-15533412D02*
X14985658Y-15457222D01*
X14985658Y-15457222D02*
X14995182Y-15438174D01*
X14995182Y-15438174D02*
X15014230Y-15428650D01*
X15014230Y-15428650D02*
X15052325Y-15428650D01*
X15052325Y-15428650D02*
X15071373Y-15438174D01*
X15071373Y-15438174D02*
X15080896Y-15457222D01*
X15080896Y-15457222D02*
X15080896Y-15476269D01*
X15080896Y-15476269D02*
X14985658Y-15495317D01*
X15252325Y-15561984D02*
X15252325Y-15361984D01*
X15252325Y-15552460D02*
X15233277Y-15561984D01*
X15233277Y-15561984D02*
X15195182Y-15561984D01*
X15195182Y-15561984D02*
X15176134Y-15552460D01*
X15176134Y-15552460D02*
X15166611Y-15542936D01*
X15166611Y-15542936D02*
X15157087Y-15523888D01*
X15157087Y-15523888D02*
X15157087Y-15466746D01*
X15157087Y-15466746D02*
X15166611Y-15447698D01*
X15166611Y-15447698D02*
X15176134Y-15438174D01*
X15176134Y-15438174D02*
X15195182Y-15428650D01*
X15195182Y-15428650D02*
X15233277Y-15428650D01*
X15233277Y-15428650D02*
X15252325Y-15438174D01*
X15328515Y-15638174D02*
X15338039Y-15628650D01*
X15338039Y-15628650D02*
X15357087Y-15600079D01*
X15357087Y-15600079D02*
X15366611Y-15581031D01*
X15366611Y-15581031D02*
X15376134Y-15552460D01*
X15376134Y-15552460D02*
X15385658Y-15504841D01*
X15385658Y-15504841D02*
X15385658Y-15466746D01*
X15385658Y-15466746D02*
X15376134Y-15419127D01*
X15376134Y-15419127D02*
X15366611Y-15390555D01*
X15366611Y-15390555D02*
X15357087Y-15371508D01*
X15357087Y-15371508D02*
X15338039Y-15342936D01*
X15338039Y-15342936D02*
X15328515Y-15333412D01*
M02*
