M48
; DRILL file {KiCad 9.0.1} date 2025-09-03T14:35:04-0700
; FORMAT={-:-/ absolute / metric / decimal}
; #@! TF.CreationDate,2025-09-03T14:35:04-07:00
; #@! TF.GenerationSoftware,Kicad,Pcbnew,9.0.1
; #@! TF.FileFunction,Plated,1,4,PTH
FMAT,2
METRIC
; #@! TA.AperFunction,Plated,PTH,ViaDrill
T1C0.300
; #@! TA.AperFunction,Plated,PTH,ViaDrill
T2C0.500
; #@! TA.AperFunction,Plated,PTH,ComponentDrill
T3C0.600
; #@! TA.AperFunction,Plated,PTH,ComponentDrill
T4C0.700
; #@! TA.AperFunction,Plated,PTH,ComponentDrill
T5C0.800
; #@! TA.AperFunction,Plated,PTH,ComponentDrill
T6C0.813
; #@! TA.AperFunction,Plated,PTH,ComponentDrill
T7C0.900
; #@! TA.AperFunction,Plated,PTH,ComponentDrill
T8C1.000
; #@! TA.AperFunction,Plated,PTH,ComponentDrill
T9C1.300
%
G90
G05
T1
X97.328Y-137.615
X100.28Y-111.192
X103.232Y-125.872
X107.961Y-109.887
X108.105Y-108.839
X119.5Y-104.75
X120.346Y-109.02
X123.471Y-124.92
X124.5Y-113.25
X126.258Y-104.929
X126.366Y-120.615
X126.458Y-102.732
X126.651Y-108.256
X126.846Y-131.743
X129.798Y-87.705
X130.385Y-106.359
X131.846Y-121.285
X132.481Y-87.438
X132.75Y-120.0
X132.807Y-105.379
X134.814Y-109.341
X135.702Y-109.014
X138.871Y-53.06
X139.834Y-53.847
X140.634Y-54.422
X141.396Y-131.36
X142.096Y-98.785
X143.5Y-118.75
X144.358Y-45.822
X144.371Y-124.858
X144.5Y-116.75
X146.208Y-44.773
X146.698Y-126.577
X146.818Y-71.26
X146.958Y-44.023
X147.454Y-84.297
X147.463Y-117.064
X147.819Y-82.104
X148.59Y-87.705
X148.946Y-121.56
X149.196Y-117.96
X149.346Y-44.885
X149.684Y-115.923
X149.971Y-44.485
X150.008Y-124.623
X150.25Y-102.0
X150.521Y-115.71
X151.521Y-115.485
X151.546Y-124.36
X152.346Y-56.785
X152.496Y-47.985
X152.596Y-55.285
X152.608Y-115.047
X152.846Y-127.535
X153.158Y-108.256
X153.294Y-82.473
X153.346Y-134.61
X153.51Y-125.342
X153.708Y-114.973
X154.058Y-128.497
X154.346Y-130.785
X154.571Y-114.835
X155.051Y-101.728
X155.25Y-100.75
X155.346Y-131.785
X155.696Y-114.56
X156.971Y-134.61
X157.0Y-130.25
X157.221Y-139.335
X157.359Y-49.184
X157.396Y-140.485
X157.623Y-131.179
X159.274Y-115.093
X159.78Y-128.166
X160.083Y-94.292
X160.271Y-140.785
X161.855Y-51.545
X161.871Y-123.135
X161.995Y-79.492
X162.151Y-49.505
X162.278Y-52.465
X162.373Y-125.476
X162.646Y-123.332
X162.652Y-75.961
X162.808Y-104.273
X163.021Y-105.485
X163.248Y-53.266
X163.393Y-131.738
X164.748Y-125.663
X164.821Y-105.935
X165.4Y-97.286
X165.445Y-100.118
X166.174Y-130.535
X166.608Y-105.797
X166.719Y-135.912
X166.758Y-122.1
X166.959Y-112.398
X167.244Y-123.869
X167.898Y-125.583
X168.145Y-93.577
X168.296Y-135.535
X168.47Y-127.705
X168.721Y-105.385
X169.471Y-135.285
X169.925Y-83.579
X170.021Y-105.385
X170.141Y-123.084
X170.721Y-134.785
X171.121Y-55.232
X171.277Y-105.0
X172.121Y-134.16
X172.346Y-49.285
X172.397Y-53.386
X173.646Y-133.71
X174.571Y-108.16
X174.796Y-109.81
X174.846Y-133.06
X174.996Y-110.685
X175.16Y-56.242
X175.196Y-112.41
X175.221Y-113.41
X177.229Y-96.735
X177.296Y-115.01
X177.421Y-43.06
X177.431Y-80.773
X177.471Y-43.985
X177.524Y-112.173
X177.546Y-130.385
X178.017Y-79.339
X178.037Y-78.013
X178.096Y-129.385
X178.121Y-44.51
X178.246Y-93.089
X178.351Y-87.819
X178.421Y-115.035
X178.71Y-94.004
X178.946Y-45.085
X179.258Y-125.947
X179.484Y-115.073
X179.579Y-129.386
X179.855Y-90.517
X179.971Y-102.638
X179.996Y-45.535
X180.546Y-123.76
X180.571Y-115.235
X180.758Y-45.922
X180.884Y-128.213
X180.912Y-113.467
X181.025Y-129.206
X181.121Y-46.71
X181.971Y-46.885
X183.339Y-46.335
X184.596Y-111.535
X185.246Y-50.01
X185.882Y-93.754
X185.882Y-110.597
X185.958Y-118.047
X186.146Y-116.285
X186.171Y-50.185
X186.296Y-51.16
X187.396Y-51.11
X187.521Y-57.61
X187.621Y-107.06
X188.271Y-56.935
X188.346Y-51.685
X188.621Y-54.535
X189.146Y-52.31
X189.319Y-91.118
X190.198Y-125.324
X191.371Y-108.256
X195.538Y-116.28
X197.846Y-111.285
X207.096Y-73.535
X208.391Y-112.466
X208.709Y-46.602
X209.496Y-40.73
X210.098Y-117.064
X211.296Y-129.785
X212.51Y-114.728
X214.346Y-126.785
X214.832Y-63.957
X215.4Y-129.166
X219.496Y-109.699
X224.024Y-88.632
X224.024Y-109.099
X225.052Y-106.785
X227.164Y-86.596
X228.615Y-92.378
X230.405Y-92.31
T2
X207.313Y-86.118
X224.122Y-113.158
X224.348Y-125.767
T5
X93.951Y-117.3
X93.951Y-124.92
X109.191Y-117.3
X109.191Y-124.92
X197.346Y-89.285
X207.346Y-89.285
T6
X155.311Y-80.74
X155.311Y-83.28
X155.311Y-85.82
X155.311Y-88.36
X155.311Y-90.9
X155.311Y-93.44
X155.311Y-95.98
X157.851Y-78.2
X157.851Y-80.74
X157.851Y-83.28
X157.851Y-85.82
X157.851Y-88.36
X157.851Y-90.9
X157.851Y-93.44
X157.851Y-95.98
X157.851Y-98.52
X160.391Y-78.2
X160.391Y-80.74
X160.391Y-95.98
X160.391Y-98.52
X162.931Y-78.2
X162.931Y-80.74
X162.931Y-95.98
X162.931Y-98.52
X165.471Y-78.2
X165.471Y-80.74
X165.471Y-95.98
X165.471Y-98.52
X168.011Y-78.2
X168.011Y-80.74
X168.011Y-95.98
X168.011Y-98.52
X170.551Y-78.2
X170.551Y-80.74
X170.551Y-95.98
X170.551Y-98.52
X173.091Y-78.2
X173.091Y-80.74
X173.091Y-83.28
X173.091Y-85.82
X173.091Y-88.36
X173.091Y-90.9
X173.091Y-93.44
X173.091Y-95.98
X173.091Y-98.52
X175.631Y-80.74
X175.631Y-83.28
X175.631Y-85.82
X175.631Y-88.36
X175.631Y-90.9
X175.631Y-93.44
X175.631Y-95.98
T7
X223.096Y-61.035
X223.096Y-67.835
X225.596Y-61.035
X225.596Y-63.135
X225.596Y-65.735
X225.596Y-67.835
T8
X96.346Y-56.535
X96.346Y-59.075
X96.346Y-61.615
X96.346Y-64.155
X96.346Y-66.695
X96.346Y-69.235
X96.346Y-71.775
X96.346Y-74.315
X96.346Y-76.855
X96.346Y-79.395
X104.841Y-134.36
X107.381Y-134.36
X109.921Y-134.36
X127.346Y-56.535
X127.346Y-59.075
X127.346Y-61.615
X127.346Y-64.155
X127.346Y-66.695
X127.346Y-69.235
X127.346Y-71.775
X127.346Y-74.315
X127.346Y-76.855
X127.346Y-79.395
X196.371Y-120.26
X196.371Y-122.8
X196.371Y-125.34
X196.371Y-127.88
X196.371Y-130.42
X196.371Y-132.96
X205.941Y-135.485
X207.371Y-122.435
X207.371Y-124.975
X208.481Y-135.485
X211.021Y-135.485
X213.561Y-135.485
X216.101Y-135.485
X218.641Y-135.485
X221.181Y-135.485
X223.721Y-135.485
T3
G00X226.366Y-105.46
M15
G01X227.466Y-105.46
M16
G05
G00X226.366Y-114.1
M15
G01X227.466Y-114.1
M16
G05
G00X230.696Y-105.46
M15
G01X231.496Y-105.46
M16
G05
G00X230.696Y-114.1
M15
G01X231.496Y-114.1
M16
G05
T4
G00X229.396Y-65.185
M15
G01X229.396Y-63.685
M16
G05
T8
G00X225.0Y-47.0
M15
G01X226.5Y-47.0
M16
G05
T9
G00X230.25Y-46.4
M15
G01X230.25Y-47.6
M16
G05
M30
