G04 #@! TF.GenerationSoftware,KiCad,Pcbnew,9.0.1*
G04 #@! TF.CreationDate,2025-09-03T14:35:04-07:00*
G04 #@! TF.ProjectId,Project68,50726f6a-6563-4743-9638-2e6b69636164,rev?*
G04 #@! TF.SameCoordinates,Original*
G04 #@! TF.FileFunction,Legend,Top*
G04 #@! TF.FilePolarity,Positive*
%FSLAX46Y46*%
G04 Gerber Fmt 4.6, Leading zero omitted, Abs format (unit mm)*
G04 Created by KiCad (PCBNEW 9.0.1) date 2025-09-03 14:35:04*
%MOMM*%
%LPD*%
G01*
G04 APERTURE LIST*
G04 Aperture macros list*
%AMRoundRect*
0 Rectangle with rounded corners*
0 $1 Rounding radius*
0 $2 $3 $4 $5 $6 $7 $8 $9 X,Y pos of 4 corners*
0 Add a 4 corners polygon primitive as box body*
4,1,4,$2,$3,$4,$5,$6,$7,$8,$9,$2,$3,0*
0 Add four circle primitives for the rounded corners*
1,1,$1+$1,$2,$3*
1,1,$1+$1,$4,$5*
1,1,$1+$1,$6,$7*
1,1,$1+$1,$8,$9*
0 Add four rect primitives between the rounded corners*
20,1,$1+$1,$2,$3,$4,$5,0*
20,1,$1+$1,$4,$5,$6,$7,0*
20,1,$1+$1,$6,$7,$8,$9,0*
20,1,$1+$1,$8,$9,$2,$3,0*%
G04 Aperture macros list end*
%ADD10C,0.100000*%
%ADD11C,0.200000*%
%ADD12C,0.150000*%
%ADD13C,0.120000*%
%ADD14C,0.127000*%
%ADD15C,0.152400*%
%ADD16C,0.010000*%
%ADD17RoundRect,0.250000X-0.312500X-0.625000X0.312500X-0.625000X0.312500X0.625000X-0.312500X0.625000X0*%
%ADD18R,1.700000X1.700000*%
%ADD19C,1.700000*%
%ADD20RoundRect,0.150000X-0.825000X-0.150000X0.825000X-0.150000X0.825000X0.150000X-0.825000X0.150000X0*%
%ADD21C,3.200000*%
%ADD22RoundRect,0.150000X-0.512500X-0.150000X0.512500X-0.150000X0.512500X0.150000X-0.512500X0.150000X0*%
%ADD23RoundRect,0.375000X0.375000X-0.625000X0.375000X0.625000X-0.375000X0.625000X-0.375000X-0.625000X0*%
%ADD24RoundRect,0.500000X1.400000X-0.500000X1.400000X0.500000X-1.400000X0.500000X-1.400000X-0.500000X0*%
%ADD25O,2.154000X4.104000*%
%ADD26O,3.604000X1.904000*%
%ADD27RoundRect,0.250000X0.375000X0.625000X-0.375000X0.625000X-0.375000X-0.625000X0.375000X-0.625000X0*%
%ADD28C,0.600000*%
%ADD29C,1.511200*%
%ADD30RoundRect,0.101600X0.654000X0.654000X-0.654000X0.654000X-0.654000X-0.654000X0.654000X-0.654000X0*%
%ADD31C,0.650000*%
%ADD32RoundRect,0.150000X0.425000X-0.150000X0.425000X0.150000X-0.425000X0.150000X-0.425000X-0.150000X0*%
%ADD33RoundRect,0.075000X0.500000X-0.075000X0.500000X0.075000X-0.500000X0.075000X-0.500000X-0.075000X0*%
%ADD34O,2.100000X1.000000*%
%ADD35O,1.800000X1.000000*%
%ADD36R,1.600000X1.600000*%
%ADD37C,1.600000*%
%ADD38RoundRect,0.075000X0.712500X0.075000X-0.712500X0.075000X-0.712500X-0.075000X0.712500X-0.075000X0*%
%ADD39R,1.500000X0.800000*%
%ADD40RoundRect,0.362500X-0.637500X0.362500X-0.637500X-0.362500X0.637500X-0.362500X0.637500X0.362500X0*%
%ADD41RoundRect,0.150000X-0.675000X-0.150000X0.675000X-0.150000X0.675000X0.150000X-0.675000X0.150000X0*%
%ADD42RoundRect,0.060500X-0.821500X-0.181500X0.821500X-0.181500X0.821500X0.181500X-0.821500X0.181500X0*%
%ADD43RoundRect,0.060500X-0.181500X-0.821500X0.181500X-0.821500X0.181500X0.821500X-0.181500X0.821500X0*%
%ADD44RoundRect,0.250000X-0.325000X-0.650000X0.325000X-0.650000X0.325000X0.650000X-0.325000X0.650000X0*%
%ADD45C,1.524800*%
%ADD46RoundRect,0.102000X0.704000X-0.704000X0.704000X0.704000X-0.704000X0.704000X-0.704000X-0.704000X0*%
%ADD47C,1.612000*%
G04 APERTURE END LIST*
D10*
X213127580Y-137303884D02*
X214127580Y-137303884D01*
X214127580Y-137303884D02*
X214127580Y-137684836D01*
X214127580Y-137684836D02*
X214079961Y-137780074D01*
X214079961Y-137780074D02*
X214032342Y-137827693D01*
X214032342Y-137827693D02*
X213937104Y-137875312D01*
X213937104Y-137875312D02*
X213794247Y-137875312D01*
X213794247Y-137875312D02*
X213699009Y-137827693D01*
X213699009Y-137827693D02*
X213651390Y-137780074D01*
X213651390Y-137780074D02*
X213603771Y-137684836D01*
X213603771Y-137684836D02*
X213603771Y-137303884D01*
X213127580Y-138303884D02*
X214127580Y-138303884D01*
X213222819Y-139351502D02*
X213175200Y-139303883D01*
X213175200Y-139303883D02*
X213127580Y-139161026D01*
X213127580Y-139161026D02*
X213127580Y-139065788D01*
X213127580Y-139065788D02*
X213175200Y-138922931D01*
X213175200Y-138922931D02*
X213270438Y-138827693D01*
X213270438Y-138827693D02*
X213365676Y-138780074D01*
X213365676Y-138780074D02*
X213556152Y-138732455D01*
X213556152Y-138732455D02*
X213699009Y-138732455D01*
X213699009Y-138732455D02*
X213889485Y-138780074D01*
X213889485Y-138780074D02*
X213984723Y-138827693D01*
X213984723Y-138827693D02*
X214079961Y-138922931D01*
X214079961Y-138922931D02*
X214127580Y-139065788D01*
X214127580Y-139065788D02*
X214127580Y-139161026D01*
X214127580Y-139161026D02*
X214079961Y-139303883D01*
X214079961Y-139303883D02*
X214032342Y-139351502D01*
X214127580Y-139637217D02*
X214127580Y-140208645D01*
X213127580Y-139922931D02*
X214127580Y-139922931D01*
X214127580Y-140446741D02*
X213127580Y-141113407D01*
X214127580Y-141113407D02*
X213127580Y-140446741D01*
X199053884Y-130872419D02*
X199053884Y-129872419D01*
X199053884Y-129872419D02*
X199434836Y-129872419D01*
X199434836Y-129872419D02*
X199530074Y-129920038D01*
X199530074Y-129920038D02*
X199577693Y-129967657D01*
X199577693Y-129967657D02*
X199625312Y-130062895D01*
X199625312Y-130062895D02*
X199625312Y-130205752D01*
X199625312Y-130205752D02*
X199577693Y-130300990D01*
X199577693Y-130300990D02*
X199530074Y-130348609D01*
X199530074Y-130348609D02*
X199434836Y-130396228D01*
X199434836Y-130396228D02*
X199053884Y-130396228D01*
X200577693Y-129920038D02*
X200482455Y-129872419D01*
X200482455Y-129872419D02*
X200339598Y-129872419D01*
X200339598Y-129872419D02*
X200196741Y-129920038D01*
X200196741Y-129920038D02*
X200101503Y-130015276D01*
X200101503Y-130015276D02*
X200053884Y-130110514D01*
X200053884Y-130110514D02*
X200006265Y-130300990D01*
X200006265Y-130300990D02*
X200006265Y-130443847D01*
X200006265Y-130443847D02*
X200053884Y-130634323D01*
X200053884Y-130634323D02*
X200101503Y-130729561D01*
X200101503Y-130729561D02*
X200196741Y-130824800D01*
X200196741Y-130824800D02*
X200339598Y-130872419D01*
X200339598Y-130872419D02*
X200434836Y-130872419D01*
X200434836Y-130872419D02*
X200577693Y-130824800D01*
X200577693Y-130824800D02*
X200625312Y-130777180D01*
X200625312Y-130777180D02*
X200625312Y-130443847D01*
X200625312Y-130443847D02*
X200434836Y-130443847D01*
X201625312Y-130777180D02*
X201577693Y-130824800D01*
X201577693Y-130824800D02*
X201434836Y-130872419D01*
X201434836Y-130872419D02*
X201339598Y-130872419D01*
X201339598Y-130872419D02*
X201196741Y-130824800D01*
X201196741Y-130824800D02*
X201101503Y-130729561D01*
X201101503Y-130729561D02*
X201053884Y-130634323D01*
X201053884Y-130634323D02*
X201006265Y-130443847D01*
X201006265Y-130443847D02*
X201006265Y-130300990D01*
X201006265Y-130300990D02*
X201053884Y-130110514D01*
X201053884Y-130110514D02*
X201101503Y-130015276D01*
X201101503Y-130015276D02*
X201196741Y-129920038D01*
X201196741Y-129920038D02*
X201339598Y-129872419D01*
X201339598Y-129872419D02*
X201434836Y-129872419D01*
X201434836Y-129872419D02*
X201577693Y-129920038D01*
X201577693Y-129920038D02*
X201625312Y-129967657D01*
X199303884Y-128372419D02*
X199303884Y-127372419D01*
X199303884Y-127372419D02*
X199684836Y-127372419D01*
X199684836Y-127372419D02*
X199780074Y-127420038D01*
X199780074Y-127420038D02*
X199827693Y-127467657D01*
X199827693Y-127467657D02*
X199875312Y-127562895D01*
X199875312Y-127562895D02*
X199875312Y-127705752D01*
X199875312Y-127705752D02*
X199827693Y-127800990D01*
X199827693Y-127800990D02*
X199780074Y-127848609D01*
X199780074Y-127848609D02*
X199684836Y-127896228D01*
X199684836Y-127896228D02*
X199303884Y-127896228D01*
X200827693Y-127420038D02*
X200732455Y-127372419D01*
X200732455Y-127372419D02*
X200589598Y-127372419D01*
X200589598Y-127372419D02*
X200446741Y-127420038D01*
X200446741Y-127420038D02*
X200351503Y-127515276D01*
X200351503Y-127515276D02*
X200303884Y-127610514D01*
X200303884Y-127610514D02*
X200256265Y-127800990D01*
X200256265Y-127800990D02*
X200256265Y-127943847D01*
X200256265Y-127943847D02*
X200303884Y-128134323D01*
X200303884Y-128134323D02*
X200351503Y-128229561D01*
X200351503Y-128229561D02*
X200446741Y-128324800D01*
X200446741Y-128324800D02*
X200589598Y-128372419D01*
X200589598Y-128372419D02*
X200684836Y-128372419D01*
X200684836Y-128372419D02*
X200827693Y-128324800D01*
X200827693Y-128324800D02*
X200875312Y-128277180D01*
X200875312Y-128277180D02*
X200875312Y-127943847D01*
X200875312Y-127943847D02*
X200684836Y-127943847D01*
X201303884Y-128372419D02*
X201303884Y-127372419D01*
X201303884Y-127372419D02*
X201541979Y-127372419D01*
X201541979Y-127372419D02*
X201684836Y-127420038D01*
X201684836Y-127420038D02*
X201780074Y-127515276D01*
X201780074Y-127515276D02*
X201827693Y-127610514D01*
X201827693Y-127610514D02*
X201875312Y-127800990D01*
X201875312Y-127800990D02*
X201875312Y-127943847D01*
X201875312Y-127943847D02*
X201827693Y-128134323D01*
X201827693Y-128134323D02*
X201780074Y-128229561D01*
X201780074Y-128229561D02*
X201684836Y-128324800D01*
X201684836Y-128324800D02*
X201541979Y-128372419D01*
X201541979Y-128372419D02*
X201303884Y-128372419D01*
X199827693Y-124670038D02*
X199732455Y-124622419D01*
X199732455Y-124622419D02*
X199589598Y-124622419D01*
X199589598Y-124622419D02*
X199446741Y-124670038D01*
X199446741Y-124670038D02*
X199351503Y-124765276D01*
X199351503Y-124765276D02*
X199303884Y-124860514D01*
X199303884Y-124860514D02*
X199256265Y-125050990D01*
X199256265Y-125050990D02*
X199256265Y-125193847D01*
X199256265Y-125193847D02*
X199303884Y-125384323D01*
X199303884Y-125384323D02*
X199351503Y-125479561D01*
X199351503Y-125479561D02*
X199446741Y-125574800D01*
X199446741Y-125574800D02*
X199589598Y-125622419D01*
X199589598Y-125622419D02*
X199684836Y-125622419D01*
X199684836Y-125622419D02*
X199827693Y-125574800D01*
X199827693Y-125574800D02*
X199875312Y-125527180D01*
X199875312Y-125527180D02*
X199875312Y-125193847D01*
X199875312Y-125193847D02*
X199684836Y-125193847D01*
X200303884Y-125622419D02*
X200303884Y-124622419D01*
X200303884Y-124622419D02*
X200875312Y-125622419D01*
X200875312Y-125622419D02*
X200875312Y-124622419D01*
X201351503Y-125622419D02*
X201351503Y-124622419D01*
X201351503Y-124622419D02*
X201589598Y-124622419D01*
X201589598Y-124622419D02*
X201732455Y-124670038D01*
X201732455Y-124670038D02*
X201827693Y-124765276D01*
X201827693Y-124765276D02*
X201875312Y-124860514D01*
X201875312Y-124860514D02*
X201922931Y-125050990D01*
X201922931Y-125050990D02*
X201922931Y-125193847D01*
X201922931Y-125193847D02*
X201875312Y-125384323D01*
X201875312Y-125384323D02*
X201827693Y-125479561D01*
X201827693Y-125479561D02*
X201732455Y-125574800D01*
X201732455Y-125574800D02*
X201589598Y-125622419D01*
X201589598Y-125622419D02*
X201351503Y-125622419D01*
X199208646Y-122122419D02*
X199827693Y-122122419D01*
X199827693Y-122122419D02*
X199494360Y-122503371D01*
X199494360Y-122503371D02*
X199637217Y-122503371D01*
X199637217Y-122503371D02*
X199732455Y-122550990D01*
X199732455Y-122550990D02*
X199780074Y-122598609D01*
X199780074Y-122598609D02*
X199827693Y-122693847D01*
X199827693Y-122693847D02*
X199827693Y-122931942D01*
X199827693Y-122931942D02*
X199780074Y-123027180D01*
X199780074Y-123027180D02*
X199732455Y-123074800D01*
X199732455Y-123074800D02*
X199637217Y-123122419D01*
X199637217Y-123122419D02*
X199351503Y-123122419D01*
X199351503Y-123122419D02*
X199256265Y-123074800D01*
X199256265Y-123074800D02*
X199208646Y-123027180D01*
X200256265Y-123027180D02*
X200303884Y-123074800D01*
X200303884Y-123074800D02*
X200256265Y-123122419D01*
X200256265Y-123122419D02*
X200208646Y-123074800D01*
X200208646Y-123074800D02*
X200256265Y-123027180D01*
X200256265Y-123027180D02*
X200256265Y-123122419D01*
X200637217Y-122122419D02*
X201256264Y-122122419D01*
X201256264Y-122122419D02*
X200922931Y-122503371D01*
X200922931Y-122503371D02*
X201065788Y-122503371D01*
X201065788Y-122503371D02*
X201161026Y-122550990D01*
X201161026Y-122550990D02*
X201208645Y-122598609D01*
X201208645Y-122598609D02*
X201256264Y-122693847D01*
X201256264Y-122693847D02*
X201256264Y-122931942D01*
X201256264Y-122931942D02*
X201208645Y-123027180D01*
X201208645Y-123027180D02*
X201161026Y-123074800D01*
X201161026Y-123074800D02*
X201065788Y-123122419D01*
X201065788Y-123122419D02*
X200780074Y-123122419D01*
X200780074Y-123122419D02*
X200684836Y-123074800D01*
X200684836Y-123074800D02*
X200637217Y-123027180D01*
X201541979Y-122122419D02*
X201875312Y-123122419D01*
X201875312Y-123122419D02*
X202208645Y-122122419D01*
X199303884Y-120622419D02*
X199303884Y-119622419D01*
X199303884Y-119622419D02*
X199637217Y-120336704D01*
X199637217Y-120336704D02*
X199970550Y-119622419D01*
X199970550Y-119622419D02*
X199970550Y-120622419D01*
X201018169Y-120527180D02*
X200970550Y-120574800D01*
X200970550Y-120574800D02*
X200827693Y-120622419D01*
X200827693Y-120622419D02*
X200732455Y-120622419D01*
X200732455Y-120622419D02*
X200589598Y-120574800D01*
X200589598Y-120574800D02*
X200494360Y-120479561D01*
X200494360Y-120479561D02*
X200446741Y-120384323D01*
X200446741Y-120384323D02*
X200399122Y-120193847D01*
X200399122Y-120193847D02*
X200399122Y-120050990D01*
X200399122Y-120050990D02*
X200446741Y-119860514D01*
X200446741Y-119860514D02*
X200494360Y-119765276D01*
X200494360Y-119765276D02*
X200589598Y-119670038D01*
X200589598Y-119670038D02*
X200732455Y-119622419D01*
X200732455Y-119622419D02*
X200827693Y-119622419D01*
X200827693Y-119622419D02*
X200970550Y-119670038D01*
X200970550Y-119670038D02*
X201018169Y-119717657D01*
X201922931Y-120622419D02*
X201446741Y-120622419D01*
X201446741Y-120622419D02*
X201446741Y-119622419D01*
X202827693Y-120622419D02*
X202494360Y-120146228D01*
X202256265Y-120622419D02*
X202256265Y-119622419D01*
X202256265Y-119622419D02*
X202637217Y-119622419D01*
X202637217Y-119622419D02*
X202732455Y-119670038D01*
X202732455Y-119670038D02*
X202780074Y-119717657D01*
X202780074Y-119717657D02*
X202827693Y-119812895D01*
X202827693Y-119812895D02*
X202827693Y-119955752D01*
X202827693Y-119955752D02*
X202780074Y-120050990D01*
X202780074Y-120050990D02*
X202732455Y-120098609D01*
X202732455Y-120098609D02*
X202637217Y-120146228D01*
X202637217Y-120146228D02*
X202256265Y-120146228D01*
X199165789Y-119344800D02*
X202918170Y-119344800D01*
X129827693Y-66170038D02*
X129732455Y-66122419D01*
X129732455Y-66122419D02*
X129589598Y-66122419D01*
X129589598Y-66122419D02*
X129446741Y-66170038D01*
X129446741Y-66170038D02*
X129351503Y-66265276D01*
X129351503Y-66265276D02*
X129303884Y-66360514D01*
X129303884Y-66360514D02*
X129256265Y-66550990D01*
X129256265Y-66550990D02*
X129256265Y-66693847D01*
X129256265Y-66693847D02*
X129303884Y-66884323D01*
X129303884Y-66884323D02*
X129351503Y-66979561D01*
X129351503Y-66979561D02*
X129446741Y-67074800D01*
X129446741Y-67074800D02*
X129589598Y-67122419D01*
X129589598Y-67122419D02*
X129684836Y-67122419D01*
X129684836Y-67122419D02*
X129827693Y-67074800D01*
X129827693Y-67074800D02*
X129875312Y-67027180D01*
X129875312Y-67027180D02*
X129875312Y-66693847D01*
X129875312Y-66693847D02*
X129684836Y-66693847D01*
X130303884Y-67122419D02*
X130303884Y-66122419D01*
X130303884Y-66122419D02*
X130875312Y-67122419D01*
X130875312Y-67122419D02*
X130875312Y-66122419D01*
X131351503Y-67122419D02*
X131351503Y-66122419D01*
X131351503Y-66122419D02*
X131589598Y-66122419D01*
X131589598Y-66122419D02*
X131732455Y-66170038D01*
X131732455Y-66170038D02*
X131827693Y-66265276D01*
X131827693Y-66265276D02*
X131875312Y-66360514D01*
X131875312Y-66360514D02*
X131922931Y-66550990D01*
X131922931Y-66550990D02*
X131922931Y-66693847D01*
X131922931Y-66693847D02*
X131875312Y-66884323D01*
X131875312Y-66884323D02*
X131827693Y-66979561D01*
X131827693Y-66979561D02*
X131732455Y-67074800D01*
X131732455Y-67074800D02*
X131589598Y-67122419D01*
X131589598Y-67122419D02*
X131351503Y-67122419D01*
X129803884Y-59622419D02*
X129803884Y-58622419D01*
X129803884Y-58622419D02*
X130137217Y-59336704D01*
X130137217Y-59336704D02*
X130470550Y-58622419D01*
X130470550Y-58622419D02*
X130470550Y-59622419D01*
X131137217Y-58622419D02*
X131327693Y-58622419D01*
X131327693Y-58622419D02*
X131422931Y-58670038D01*
X131422931Y-58670038D02*
X131518169Y-58765276D01*
X131518169Y-58765276D02*
X131565788Y-58955752D01*
X131565788Y-58955752D02*
X131565788Y-59289085D01*
X131565788Y-59289085D02*
X131518169Y-59479561D01*
X131518169Y-59479561D02*
X131422931Y-59574800D01*
X131422931Y-59574800D02*
X131327693Y-59622419D01*
X131327693Y-59622419D02*
X131137217Y-59622419D01*
X131137217Y-59622419D02*
X131041979Y-59574800D01*
X131041979Y-59574800D02*
X130946741Y-59479561D01*
X130946741Y-59479561D02*
X130899122Y-59289085D01*
X130899122Y-59289085D02*
X130899122Y-58955752D01*
X130899122Y-58955752D02*
X130946741Y-58765276D01*
X130946741Y-58765276D02*
X131041979Y-58670038D01*
X131041979Y-58670038D02*
X131137217Y-58622419D01*
X131946741Y-59574800D02*
X132089598Y-59622419D01*
X132089598Y-59622419D02*
X132327693Y-59622419D01*
X132327693Y-59622419D02*
X132422931Y-59574800D01*
X132422931Y-59574800D02*
X132470550Y-59527180D01*
X132470550Y-59527180D02*
X132518169Y-59431942D01*
X132518169Y-59431942D02*
X132518169Y-59336704D01*
X132518169Y-59336704D02*
X132470550Y-59241466D01*
X132470550Y-59241466D02*
X132422931Y-59193847D01*
X132422931Y-59193847D02*
X132327693Y-59146228D01*
X132327693Y-59146228D02*
X132137217Y-59098609D01*
X132137217Y-59098609D02*
X132041979Y-59050990D01*
X132041979Y-59050990D02*
X131994360Y-59003371D01*
X131994360Y-59003371D02*
X131946741Y-58908133D01*
X131946741Y-58908133D02*
X131946741Y-58812895D01*
X131946741Y-58812895D02*
X131994360Y-58717657D01*
X131994360Y-58717657D02*
X132041979Y-58670038D01*
X132041979Y-58670038D02*
X132137217Y-58622419D01*
X132137217Y-58622419D02*
X132375312Y-58622419D01*
X132375312Y-58622419D02*
X132518169Y-58670038D01*
X132946741Y-59622419D02*
X132946741Y-58622419D01*
X129827693Y-78920038D02*
X129732455Y-78872419D01*
X129732455Y-78872419D02*
X129589598Y-78872419D01*
X129589598Y-78872419D02*
X129446741Y-78920038D01*
X129446741Y-78920038D02*
X129351503Y-79015276D01*
X129351503Y-79015276D02*
X129303884Y-79110514D01*
X129303884Y-79110514D02*
X129256265Y-79300990D01*
X129256265Y-79300990D02*
X129256265Y-79443847D01*
X129256265Y-79443847D02*
X129303884Y-79634323D01*
X129303884Y-79634323D02*
X129351503Y-79729561D01*
X129351503Y-79729561D02*
X129446741Y-79824800D01*
X129446741Y-79824800D02*
X129589598Y-79872419D01*
X129589598Y-79872419D02*
X129684836Y-79872419D01*
X129684836Y-79872419D02*
X129827693Y-79824800D01*
X129827693Y-79824800D02*
X129875312Y-79777180D01*
X129875312Y-79777180D02*
X129875312Y-79443847D01*
X129875312Y-79443847D02*
X129684836Y-79443847D01*
X130303884Y-79872419D02*
X130303884Y-78872419D01*
X130303884Y-78872419D02*
X130684836Y-78872419D01*
X130684836Y-78872419D02*
X130780074Y-78920038D01*
X130780074Y-78920038D02*
X130827693Y-78967657D01*
X130827693Y-78967657D02*
X130875312Y-79062895D01*
X130875312Y-79062895D02*
X130875312Y-79205752D01*
X130875312Y-79205752D02*
X130827693Y-79300990D01*
X130827693Y-79300990D02*
X130780074Y-79348609D01*
X130780074Y-79348609D02*
X130684836Y-79396228D01*
X130684836Y-79396228D02*
X130303884Y-79396228D01*
X131303884Y-79872419D02*
X131303884Y-78872419D01*
X131970550Y-78872419D02*
X132161026Y-78872419D01*
X132161026Y-78872419D02*
X132256264Y-78920038D01*
X132256264Y-78920038D02*
X132351502Y-79015276D01*
X132351502Y-79015276D02*
X132399121Y-79205752D01*
X132399121Y-79205752D02*
X132399121Y-79539085D01*
X132399121Y-79539085D02*
X132351502Y-79729561D01*
X132351502Y-79729561D02*
X132256264Y-79824800D01*
X132256264Y-79824800D02*
X132161026Y-79872419D01*
X132161026Y-79872419D02*
X131970550Y-79872419D01*
X131970550Y-79872419D02*
X131875312Y-79824800D01*
X131875312Y-79824800D02*
X131780074Y-79729561D01*
X131780074Y-79729561D02*
X131732455Y-79539085D01*
X131732455Y-79539085D02*
X131732455Y-79205752D01*
X131732455Y-79205752D02*
X131780074Y-79015276D01*
X131780074Y-79015276D02*
X131875312Y-78920038D01*
X131875312Y-78920038D02*
X131970550Y-78872419D01*
X132732455Y-78872419D02*
X133351502Y-78872419D01*
X133351502Y-78872419D02*
X133018169Y-79253371D01*
X133018169Y-79253371D02*
X133161026Y-79253371D01*
X133161026Y-79253371D02*
X133256264Y-79300990D01*
X133256264Y-79300990D02*
X133303883Y-79348609D01*
X133303883Y-79348609D02*
X133351502Y-79443847D01*
X133351502Y-79443847D02*
X133351502Y-79681942D01*
X133351502Y-79681942D02*
X133303883Y-79777180D01*
X133303883Y-79777180D02*
X133256264Y-79824800D01*
X133256264Y-79824800D02*
X133161026Y-79872419D01*
X133161026Y-79872419D02*
X132875312Y-79872419D01*
X132875312Y-79872419D02*
X132780074Y-79824800D01*
X132780074Y-79824800D02*
X132732455Y-79777180D01*
X129827693Y-76420038D02*
X129732455Y-76372419D01*
X129732455Y-76372419D02*
X129589598Y-76372419D01*
X129589598Y-76372419D02*
X129446741Y-76420038D01*
X129446741Y-76420038D02*
X129351503Y-76515276D01*
X129351503Y-76515276D02*
X129303884Y-76610514D01*
X129303884Y-76610514D02*
X129256265Y-76800990D01*
X129256265Y-76800990D02*
X129256265Y-76943847D01*
X129256265Y-76943847D02*
X129303884Y-77134323D01*
X129303884Y-77134323D02*
X129351503Y-77229561D01*
X129351503Y-77229561D02*
X129446741Y-77324800D01*
X129446741Y-77324800D02*
X129589598Y-77372419D01*
X129589598Y-77372419D02*
X129684836Y-77372419D01*
X129684836Y-77372419D02*
X129827693Y-77324800D01*
X129827693Y-77324800D02*
X129875312Y-77277180D01*
X129875312Y-77277180D02*
X129875312Y-76943847D01*
X129875312Y-76943847D02*
X129684836Y-76943847D01*
X130303884Y-77372419D02*
X130303884Y-76372419D01*
X130303884Y-76372419D02*
X130684836Y-76372419D01*
X130684836Y-76372419D02*
X130780074Y-76420038D01*
X130780074Y-76420038D02*
X130827693Y-76467657D01*
X130827693Y-76467657D02*
X130875312Y-76562895D01*
X130875312Y-76562895D02*
X130875312Y-76705752D01*
X130875312Y-76705752D02*
X130827693Y-76800990D01*
X130827693Y-76800990D02*
X130780074Y-76848609D01*
X130780074Y-76848609D02*
X130684836Y-76896228D01*
X130684836Y-76896228D02*
X130303884Y-76896228D01*
X131303884Y-77372419D02*
X131303884Y-76372419D01*
X131970550Y-76372419D02*
X132161026Y-76372419D01*
X132161026Y-76372419D02*
X132256264Y-76420038D01*
X132256264Y-76420038D02*
X132351502Y-76515276D01*
X132351502Y-76515276D02*
X132399121Y-76705752D01*
X132399121Y-76705752D02*
X132399121Y-77039085D01*
X132399121Y-77039085D02*
X132351502Y-77229561D01*
X132351502Y-77229561D02*
X132256264Y-77324800D01*
X132256264Y-77324800D02*
X132161026Y-77372419D01*
X132161026Y-77372419D02*
X131970550Y-77372419D01*
X131970550Y-77372419D02*
X131875312Y-77324800D01*
X131875312Y-77324800D02*
X131780074Y-77229561D01*
X131780074Y-77229561D02*
X131732455Y-77039085D01*
X131732455Y-77039085D02*
X131732455Y-76705752D01*
X131732455Y-76705752D02*
X131780074Y-76515276D01*
X131780074Y-76515276D02*
X131875312Y-76420038D01*
X131875312Y-76420038D02*
X131970550Y-76372419D01*
X132780074Y-76467657D02*
X132827693Y-76420038D01*
X132827693Y-76420038D02*
X132922931Y-76372419D01*
X132922931Y-76372419D02*
X133161026Y-76372419D01*
X133161026Y-76372419D02*
X133256264Y-76420038D01*
X133256264Y-76420038D02*
X133303883Y-76467657D01*
X133303883Y-76467657D02*
X133351502Y-76562895D01*
X133351502Y-76562895D02*
X133351502Y-76658133D01*
X133351502Y-76658133D02*
X133303883Y-76800990D01*
X133303883Y-76800990D02*
X132732455Y-77372419D01*
X132732455Y-77372419D02*
X133351502Y-77372419D01*
X98161027Y-73872419D02*
X98494360Y-74872419D01*
X98494360Y-74872419D02*
X98827693Y-73872419D01*
X99732455Y-74777180D02*
X99684836Y-74824800D01*
X99684836Y-74824800D02*
X99541979Y-74872419D01*
X99541979Y-74872419D02*
X99446741Y-74872419D01*
X99446741Y-74872419D02*
X99303884Y-74824800D01*
X99303884Y-74824800D02*
X99208646Y-74729561D01*
X99208646Y-74729561D02*
X99161027Y-74634323D01*
X99161027Y-74634323D02*
X99113408Y-74443847D01*
X99113408Y-74443847D02*
X99113408Y-74300990D01*
X99113408Y-74300990D02*
X99161027Y-74110514D01*
X99161027Y-74110514D02*
X99208646Y-74015276D01*
X99208646Y-74015276D02*
X99303884Y-73920038D01*
X99303884Y-73920038D02*
X99446741Y-73872419D01*
X99446741Y-73872419D02*
X99541979Y-73872419D01*
X99541979Y-73872419D02*
X99684836Y-73920038D01*
X99684836Y-73920038D02*
X99732455Y-73967657D01*
X100732455Y-74777180D02*
X100684836Y-74824800D01*
X100684836Y-74824800D02*
X100541979Y-74872419D01*
X100541979Y-74872419D02*
X100446741Y-74872419D01*
X100446741Y-74872419D02*
X100303884Y-74824800D01*
X100303884Y-74824800D02*
X100208646Y-74729561D01*
X100208646Y-74729561D02*
X100161027Y-74634323D01*
X100161027Y-74634323D02*
X100113408Y-74443847D01*
X100113408Y-74443847D02*
X100113408Y-74300990D01*
X100113408Y-74300990D02*
X100161027Y-74110514D01*
X100161027Y-74110514D02*
X100208646Y-74015276D01*
X100208646Y-74015276D02*
X100303884Y-73920038D01*
X100303884Y-73920038D02*
X100446741Y-73872419D01*
X100446741Y-73872419D02*
X100541979Y-73872419D01*
X100541979Y-73872419D02*
X100684836Y-73920038D01*
X100684836Y-73920038D02*
X100732455Y-73967657D01*
X98827693Y-66170038D02*
X98732455Y-66122419D01*
X98732455Y-66122419D02*
X98589598Y-66122419D01*
X98589598Y-66122419D02*
X98446741Y-66170038D01*
X98446741Y-66170038D02*
X98351503Y-66265276D01*
X98351503Y-66265276D02*
X98303884Y-66360514D01*
X98303884Y-66360514D02*
X98256265Y-66550990D01*
X98256265Y-66550990D02*
X98256265Y-66693847D01*
X98256265Y-66693847D02*
X98303884Y-66884323D01*
X98303884Y-66884323D02*
X98351503Y-66979561D01*
X98351503Y-66979561D02*
X98446741Y-67074800D01*
X98446741Y-67074800D02*
X98589598Y-67122419D01*
X98589598Y-67122419D02*
X98684836Y-67122419D01*
X98684836Y-67122419D02*
X98827693Y-67074800D01*
X98827693Y-67074800D02*
X98875312Y-67027180D01*
X98875312Y-67027180D02*
X98875312Y-66693847D01*
X98875312Y-66693847D02*
X98684836Y-66693847D01*
X99303884Y-67122419D02*
X99303884Y-66122419D01*
X99303884Y-66122419D02*
X99875312Y-67122419D01*
X99875312Y-67122419D02*
X99875312Y-66122419D01*
X100351503Y-67122419D02*
X100351503Y-66122419D01*
X100351503Y-66122419D02*
X100589598Y-66122419D01*
X100589598Y-66122419D02*
X100732455Y-66170038D01*
X100732455Y-66170038D02*
X100827693Y-66265276D01*
X100827693Y-66265276D02*
X100875312Y-66360514D01*
X100875312Y-66360514D02*
X100922931Y-66550990D01*
X100922931Y-66550990D02*
X100922931Y-66693847D01*
X100922931Y-66693847D02*
X100875312Y-66884323D01*
X100875312Y-66884323D02*
X100827693Y-66979561D01*
X100827693Y-66979561D02*
X100732455Y-67074800D01*
X100732455Y-67074800D02*
X100589598Y-67122419D01*
X100589598Y-67122419D02*
X100351503Y-67122419D01*
X98506265Y-64336704D02*
X98982455Y-64336704D01*
X98411027Y-64622419D02*
X98744360Y-63622419D01*
X98744360Y-63622419D02*
X99077693Y-64622419D01*
X99411027Y-63622419D02*
X99411027Y-64431942D01*
X99411027Y-64431942D02*
X99458646Y-64527180D01*
X99458646Y-64527180D02*
X99506265Y-64574800D01*
X99506265Y-64574800D02*
X99601503Y-64622419D01*
X99601503Y-64622419D02*
X99791979Y-64622419D01*
X99791979Y-64622419D02*
X99887217Y-64574800D01*
X99887217Y-64574800D02*
X99934836Y-64527180D01*
X99934836Y-64527180D02*
X99982455Y-64431942D01*
X99982455Y-64431942D02*
X99982455Y-63622419D01*
X100363408Y-63622419D02*
X101030074Y-64622419D01*
X101030074Y-63622419D02*
X100363408Y-64622419D01*
X101172932Y-64717657D02*
X101934836Y-64717657D01*
X102744360Y-64527180D02*
X102696741Y-64574800D01*
X102696741Y-64574800D02*
X102553884Y-64622419D01*
X102553884Y-64622419D02*
X102458646Y-64622419D01*
X102458646Y-64622419D02*
X102315789Y-64574800D01*
X102315789Y-64574800D02*
X102220551Y-64479561D01*
X102220551Y-64479561D02*
X102172932Y-64384323D01*
X102172932Y-64384323D02*
X102125313Y-64193847D01*
X102125313Y-64193847D02*
X102125313Y-64050990D01*
X102125313Y-64050990D02*
X102172932Y-63860514D01*
X102172932Y-63860514D02*
X102220551Y-63765276D01*
X102220551Y-63765276D02*
X102315789Y-63670038D01*
X102315789Y-63670038D02*
X102458646Y-63622419D01*
X102458646Y-63622419D02*
X102553884Y-63622419D01*
X102553884Y-63622419D02*
X102696741Y-63670038D01*
X102696741Y-63670038D02*
X102744360Y-63717657D01*
X103125313Y-64574800D02*
X103268170Y-64622419D01*
X103268170Y-64622419D02*
X103506265Y-64622419D01*
X103506265Y-64622419D02*
X103601503Y-64574800D01*
X103601503Y-64574800D02*
X103649122Y-64527180D01*
X103649122Y-64527180D02*
X103696741Y-64431942D01*
X103696741Y-64431942D02*
X103696741Y-64336704D01*
X103696741Y-64336704D02*
X103649122Y-64241466D01*
X103649122Y-64241466D02*
X103601503Y-64193847D01*
X103601503Y-64193847D02*
X103506265Y-64146228D01*
X103506265Y-64146228D02*
X103315789Y-64098609D01*
X103315789Y-64098609D02*
X103220551Y-64050990D01*
X103220551Y-64050990D02*
X103172932Y-64003371D01*
X103172932Y-64003371D02*
X103125313Y-63908133D01*
X103125313Y-63908133D02*
X103125313Y-63812895D01*
X103125313Y-63812895D02*
X103172932Y-63717657D01*
X103172932Y-63717657D02*
X103220551Y-63670038D01*
X103220551Y-63670038D02*
X103315789Y-63622419D01*
X103315789Y-63622419D02*
X103553884Y-63622419D01*
X103553884Y-63622419D02*
X103696741Y-63670038D01*
X129208646Y-68622419D02*
X129827693Y-68622419D01*
X129827693Y-68622419D02*
X129494360Y-69003371D01*
X129494360Y-69003371D02*
X129637217Y-69003371D01*
X129637217Y-69003371D02*
X129732455Y-69050990D01*
X129732455Y-69050990D02*
X129780074Y-69098609D01*
X129780074Y-69098609D02*
X129827693Y-69193847D01*
X129827693Y-69193847D02*
X129827693Y-69431942D01*
X129827693Y-69431942D02*
X129780074Y-69527180D01*
X129780074Y-69527180D02*
X129732455Y-69574800D01*
X129732455Y-69574800D02*
X129637217Y-69622419D01*
X129637217Y-69622419D02*
X129351503Y-69622419D01*
X129351503Y-69622419D02*
X129256265Y-69574800D01*
X129256265Y-69574800D02*
X129208646Y-69527180D01*
X130256265Y-69527180D02*
X130303884Y-69574800D01*
X130303884Y-69574800D02*
X130256265Y-69622419D01*
X130256265Y-69622419D02*
X130208646Y-69574800D01*
X130208646Y-69574800D02*
X130256265Y-69527180D01*
X130256265Y-69527180D02*
X130256265Y-69622419D01*
X130637217Y-68622419D02*
X131256264Y-68622419D01*
X131256264Y-68622419D02*
X130922931Y-69003371D01*
X130922931Y-69003371D02*
X131065788Y-69003371D01*
X131065788Y-69003371D02*
X131161026Y-69050990D01*
X131161026Y-69050990D02*
X131208645Y-69098609D01*
X131208645Y-69098609D02*
X131256264Y-69193847D01*
X131256264Y-69193847D02*
X131256264Y-69431942D01*
X131256264Y-69431942D02*
X131208645Y-69527180D01*
X131208645Y-69527180D02*
X131161026Y-69574800D01*
X131161026Y-69574800D02*
X131065788Y-69622419D01*
X131065788Y-69622419D02*
X130780074Y-69622419D01*
X130780074Y-69622419D02*
X130684836Y-69574800D01*
X130684836Y-69574800D02*
X130637217Y-69527180D01*
X131541979Y-68622419D02*
X131875312Y-69622419D01*
X131875312Y-69622419D02*
X132208645Y-68622419D01*
X98208646Y-68622419D02*
X98827693Y-68622419D01*
X98827693Y-68622419D02*
X98494360Y-69003371D01*
X98494360Y-69003371D02*
X98637217Y-69003371D01*
X98637217Y-69003371D02*
X98732455Y-69050990D01*
X98732455Y-69050990D02*
X98780074Y-69098609D01*
X98780074Y-69098609D02*
X98827693Y-69193847D01*
X98827693Y-69193847D02*
X98827693Y-69431942D01*
X98827693Y-69431942D02*
X98780074Y-69527180D01*
X98780074Y-69527180D02*
X98732455Y-69574800D01*
X98732455Y-69574800D02*
X98637217Y-69622419D01*
X98637217Y-69622419D02*
X98351503Y-69622419D01*
X98351503Y-69622419D02*
X98256265Y-69574800D01*
X98256265Y-69574800D02*
X98208646Y-69527180D01*
X99256265Y-69527180D02*
X99303884Y-69574800D01*
X99303884Y-69574800D02*
X99256265Y-69622419D01*
X99256265Y-69622419D02*
X99208646Y-69574800D01*
X99208646Y-69574800D02*
X99256265Y-69527180D01*
X99256265Y-69527180D02*
X99256265Y-69622419D01*
X99637217Y-68622419D02*
X100256264Y-68622419D01*
X100256264Y-68622419D02*
X99922931Y-69003371D01*
X99922931Y-69003371D02*
X100065788Y-69003371D01*
X100065788Y-69003371D02*
X100161026Y-69050990D01*
X100161026Y-69050990D02*
X100208645Y-69098609D01*
X100208645Y-69098609D02*
X100256264Y-69193847D01*
X100256264Y-69193847D02*
X100256264Y-69431942D01*
X100256264Y-69431942D02*
X100208645Y-69527180D01*
X100208645Y-69527180D02*
X100161026Y-69574800D01*
X100161026Y-69574800D02*
X100065788Y-69622419D01*
X100065788Y-69622419D02*
X99780074Y-69622419D01*
X99780074Y-69622419D02*
X99684836Y-69574800D01*
X99684836Y-69574800D02*
X99637217Y-69527180D01*
X100541979Y-68622419D02*
X100875312Y-69622419D01*
X100875312Y-69622419D02*
X101208645Y-68622419D01*
X130375312Y-62027180D02*
X130327693Y-62074800D01*
X130327693Y-62074800D02*
X130184836Y-62122419D01*
X130184836Y-62122419D02*
X130089598Y-62122419D01*
X130089598Y-62122419D02*
X129946741Y-62074800D01*
X129946741Y-62074800D02*
X129851503Y-61979561D01*
X129851503Y-61979561D02*
X129803884Y-61884323D01*
X129803884Y-61884323D02*
X129756265Y-61693847D01*
X129756265Y-61693847D02*
X129756265Y-61550990D01*
X129756265Y-61550990D02*
X129803884Y-61360514D01*
X129803884Y-61360514D02*
X129851503Y-61265276D01*
X129851503Y-61265276D02*
X129946741Y-61170038D01*
X129946741Y-61170038D02*
X130089598Y-61122419D01*
X130089598Y-61122419D02*
X130184836Y-61122419D01*
X130184836Y-61122419D02*
X130327693Y-61170038D01*
X130327693Y-61170038D02*
X130375312Y-61217657D01*
X131280074Y-62122419D02*
X130803884Y-62122419D01*
X130803884Y-62122419D02*
X130803884Y-61122419D01*
X131613408Y-62122419D02*
X131613408Y-61122419D01*
X132184836Y-62122419D02*
X131756265Y-61550990D01*
X132184836Y-61122419D02*
X131613408Y-61693847D01*
X129161027Y-73622419D02*
X129494360Y-74622419D01*
X129494360Y-74622419D02*
X129827693Y-73622419D01*
X130732455Y-74527180D02*
X130684836Y-74574800D01*
X130684836Y-74574800D02*
X130541979Y-74622419D01*
X130541979Y-74622419D02*
X130446741Y-74622419D01*
X130446741Y-74622419D02*
X130303884Y-74574800D01*
X130303884Y-74574800D02*
X130208646Y-74479561D01*
X130208646Y-74479561D02*
X130161027Y-74384323D01*
X130161027Y-74384323D02*
X130113408Y-74193847D01*
X130113408Y-74193847D02*
X130113408Y-74050990D01*
X130113408Y-74050990D02*
X130161027Y-73860514D01*
X130161027Y-73860514D02*
X130208646Y-73765276D01*
X130208646Y-73765276D02*
X130303884Y-73670038D01*
X130303884Y-73670038D02*
X130446741Y-73622419D01*
X130446741Y-73622419D02*
X130541979Y-73622419D01*
X130541979Y-73622419D02*
X130684836Y-73670038D01*
X130684836Y-73670038D02*
X130732455Y-73717657D01*
X131732455Y-74527180D02*
X131684836Y-74574800D01*
X131684836Y-74574800D02*
X131541979Y-74622419D01*
X131541979Y-74622419D02*
X131446741Y-74622419D01*
X131446741Y-74622419D02*
X131303884Y-74574800D01*
X131303884Y-74574800D02*
X131208646Y-74479561D01*
X131208646Y-74479561D02*
X131161027Y-74384323D01*
X131161027Y-74384323D02*
X131113408Y-74193847D01*
X131113408Y-74193847D02*
X131113408Y-74050990D01*
X131113408Y-74050990D02*
X131161027Y-73860514D01*
X131161027Y-73860514D02*
X131208646Y-73765276D01*
X131208646Y-73765276D02*
X131303884Y-73670038D01*
X131303884Y-73670038D02*
X131446741Y-73622419D01*
X131446741Y-73622419D02*
X131541979Y-73622419D01*
X131541979Y-73622419D02*
X131684836Y-73670038D01*
X131684836Y-73670038D02*
X131732455Y-73717657D01*
X98577693Y-76420038D02*
X98482455Y-76372419D01*
X98482455Y-76372419D02*
X98339598Y-76372419D01*
X98339598Y-76372419D02*
X98196741Y-76420038D01*
X98196741Y-76420038D02*
X98101503Y-76515276D01*
X98101503Y-76515276D02*
X98053884Y-76610514D01*
X98053884Y-76610514D02*
X98006265Y-76800990D01*
X98006265Y-76800990D02*
X98006265Y-76943847D01*
X98006265Y-76943847D02*
X98053884Y-77134323D01*
X98053884Y-77134323D02*
X98101503Y-77229561D01*
X98101503Y-77229561D02*
X98196741Y-77324800D01*
X98196741Y-77324800D02*
X98339598Y-77372419D01*
X98339598Y-77372419D02*
X98434836Y-77372419D01*
X98434836Y-77372419D02*
X98577693Y-77324800D01*
X98577693Y-77324800D02*
X98625312Y-77277180D01*
X98625312Y-77277180D02*
X98625312Y-76943847D01*
X98625312Y-76943847D02*
X98434836Y-76943847D01*
X99053884Y-77372419D02*
X99053884Y-76372419D01*
X99053884Y-76372419D02*
X99434836Y-76372419D01*
X99434836Y-76372419D02*
X99530074Y-76420038D01*
X99530074Y-76420038D02*
X99577693Y-76467657D01*
X99577693Y-76467657D02*
X99625312Y-76562895D01*
X99625312Y-76562895D02*
X99625312Y-76705752D01*
X99625312Y-76705752D02*
X99577693Y-76800990D01*
X99577693Y-76800990D02*
X99530074Y-76848609D01*
X99530074Y-76848609D02*
X99434836Y-76896228D01*
X99434836Y-76896228D02*
X99053884Y-76896228D01*
X100053884Y-77372419D02*
X100053884Y-76372419D01*
X100720550Y-76372419D02*
X100911026Y-76372419D01*
X100911026Y-76372419D02*
X101006264Y-76420038D01*
X101006264Y-76420038D02*
X101101502Y-76515276D01*
X101101502Y-76515276D02*
X101149121Y-76705752D01*
X101149121Y-76705752D02*
X101149121Y-77039085D01*
X101149121Y-77039085D02*
X101101502Y-77229561D01*
X101101502Y-77229561D02*
X101006264Y-77324800D01*
X101006264Y-77324800D02*
X100911026Y-77372419D01*
X100911026Y-77372419D02*
X100720550Y-77372419D01*
X100720550Y-77372419D02*
X100625312Y-77324800D01*
X100625312Y-77324800D02*
X100530074Y-77229561D01*
X100530074Y-77229561D02*
X100482455Y-77039085D01*
X100482455Y-77039085D02*
X100482455Y-76705752D01*
X100482455Y-76705752D02*
X100530074Y-76515276D01*
X100530074Y-76515276D02*
X100625312Y-76420038D01*
X100625312Y-76420038D02*
X100720550Y-76372419D01*
X101768169Y-76372419D02*
X101863407Y-76372419D01*
X101863407Y-76372419D02*
X101958645Y-76420038D01*
X101958645Y-76420038D02*
X102006264Y-76467657D01*
X102006264Y-76467657D02*
X102053883Y-76562895D01*
X102053883Y-76562895D02*
X102101502Y-76753371D01*
X102101502Y-76753371D02*
X102101502Y-76991466D01*
X102101502Y-76991466D02*
X102053883Y-77181942D01*
X102053883Y-77181942D02*
X102006264Y-77277180D01*
X102006264Y-77277180D02*
X101958645Y-77324800D01*
X101958645Y-77324800D02*
X101863407Y-77372419D01*
X101863407Y-77372419D02*
X101768169Y-77372419D01*
X101768169Y-77372419D02*
X101672931Y-77324800D01*
X101672931Y-77324800D02*
X101625312Y-77277180D01*
X101625312Y-77277180D02*
X101577693Y-77181942D01*
X101577693Y-77181942D02*
X101530074Y-76991466D01*
X101530074Y-76991466D02*
X101530074Y-76753371D01*
X101530074Y-76753371D02*
X101577693Y-76562895D01*
X101577693Y-76562895D02*
X101625312Y-76467657D01*
X101625312Y-76467657D02*
X101672931Y-76420038D01*
X101672931Y-76420038D02*
X101768169Y-76372419D01*
X129256265Y-72074800D02*
X129399122Y-72122419D01*
X129399122Y-72122419D02*
X129637217Y-72122419D01*
X129637217Y-72122419D02*
X129732455Y-72074800D01*
X129732455Y-72074800D02*
X129780074Y-72027180D01*
X129780074Y-72027180D02*
X129827693Y-71931942D01*
X129827693Y-71931942D02*
X129827693Y-71836704D01*
X129827693Y-71836704D02*
X129780074Y-71741466D01*
X129780074Y-71741466D02*
X129732455Y-71693847D01*
X129732455Y-71693847D02*
X129637217Y-71646228D01*
X129637217Y-71646228D02*
X129446741Y-71598609D01*
X129446741Y-71598609D02*
X129351503Y-71550990D01*
X129351503Y-71550990D02*
X129303884Y-71503371D01*
X129303884Y-71503371D02*
X129256265Y-71408133D01*
X129256265Y-71408133D02*
X129256265Y-71312895D01*
X129256265Y-71312895D02*
X129303884Y-71217657D01*
X129303884Y-71217657D02*
X129351503Y-71170038D01*
X129351503Y-71170038D02*
X129446741Y-71122419D01*
X129446741Y-71122419D02*
X129684836Y-71122419D01*
X129684836Y-71122419D02*
X129827693Y-71170038D01*
X130256265Y-71598609D02*
X130589598Y-71598609D01*
X130732455Y-72122419D02*
X130256265Y-72122419D01*
X130256265Y-72122419D02*
X130256265Y-71122419D01*
X130256265Y-71122419D02*
X130732455Y-71122419D01*
X131732455Y-72122419D02*
X131399122Y-71646228D01*
X131161027Y-72122419D02*
X131161027Y-71122419D01*
X131161027Y-71122419D02*
X131541979Y-71122419D01*
X131541979Y-71122419D02*
X131637217Y-71170038D01*
X131637217Y-71170038D02*
X131684836Y-71217657D01*
X131684836Y-71217657D02*
X131732455Y-71312895D01*
X131732455Y-71312895D02*
X131732455Y-71455752D01*
X131732455Y-71455752D02*
X131684836Y-71550990D01*
X131684836Y-71550990D02*
X131637217Y-71598609D01*
X131637217Y-71598609D02*
X131541979Y-71646228D01*
X131541979Y-71646228D02*
X131161027Y-71646228D01*
X131922932Y-72217657D02*
X132684836Y-72217657D01*
X132922932Y-72122419D02*
X132922932Y-71122419D01*
X133970550Y-72122419D02*
X133637217Y-71646228D01*
X133399122Y-72122419D02*
X133399122Y-71122419D01*
X133399122Y-71122419D02*
X133780074Y-71122419D01*
X133780074Y-71122419D02*
X133875312Y-71170038D01*
X133875312Y-71170038D02*
X133922931Y-71217657D01*
X133922931Y-71217657D02*
X133970550Y-71312895D01*
X133970550Y-71312895D02*
X133970550Y-71455752D01*
X133970550Y-71455752D02*
X133922931Y-71550990D01*
X133922931Y-71550990D02*
X133875312Y-71598609D01*
X133875312Y-71598609D02*
X133780074Y-71646228D01*
X133780074Y-71646228D02*
X133399122Y-71646228D01*
X135065788Y-72217657D02*
X134970550Y-72170038D01*
X134970550Y-72170038D02*
X134875312Y-72074800D01*
X134875312Y-72074800D02*
X134732455Y-71931942D01*
X134732455Y-71931942D02*
X134637217Y-71884323D01*
X134637217Y-71884323D02*
X134541979Y-71884323D01*
X134589598Y-72122419D02*
X134494360Y-72074800D01*
X134494360Y-72074800D02*
X134399122Y-71979561D01*
X134399122Y-71979561D02*
X134351503Y-71789085D01*
X134351503Y-71789085D02*
X134351503Y-71455752D01*
X134351503Y-71455752D02*
X134399122Y-71265276D01*
X134399122Y-71265276D02*
X134494360Y-71170038D01*
X134494360Y-71170038D02*
X134589598Y-71122419D01*
X134589598Y-71122419D02*
X134780074Y-71122419D01*
X134780074Y-71122419D02*
X134875312Y-71170038D01*
X134875312Y-71170038D02*
X134970550Y-71265276D01*
X134970550Y-71265276D02*
X135018169Y-71455752D01*
X135018169Y-71455752D02*
X135018169Y-71789085D01*
X135018169Y-71789085D02*
X134970550Y-71979561D01*
X134970550Y-71979561D02*
X134875312Y-72074800D01*
X134875312Y-72074800D02*
X134780074Y-72122419D01*
X134780074Y-72122419D02*
X134589598Y-72122419D01*
X98553884Y-57122419D02*
X98553884Y-56122419D01*
X98553884Y-56122419D02*
X98887217Y-56836704D01*
X98887217Y-56836704D02*
X99220550Y-56122419D01*
X99220550Y-56122419D02*
X99220550Y-57122419D01*
X99696741Y-57122419D02*
X99696741Y-56122419D01*
X100125312Y-57074800D02*
X100268169Y-57122419D01*
X100268169Y-57122419D02*
X100506264Y-57122419D01*
X100506264Y-57122419D02*
X100601502Y-57074800D01*
X100601502Y-57074800D02*
X100649121Y-57027180D01*
X100649121Y-57027180D02*
X100696740Y-56931942D01*
X100696740Y-56931942D02*
X100696740Y-56836704D01*
X100696740Y-56836704D02*
X100649121Y-56741466D01*
X100649121Y-56741466D02*
X100601502Y-56693847D01*
X100601502Y-56693847D02*
X100506264Y-56646228D01*
X100506264Y-56646228D02*
X100315788Y-56598609D01*
X100315788Y-56598609D02*
X100220550Y-56550990D01*
X100220550Y-56550990D02*
X100172931Y-56503371D01*
X100172931Y-56503371D02*
X100125312Y-56408133D01*
X100125312Y-56408133D02*
X100125312Y-56312895D01*
X100125312Y-56312895D02*
X100172931Y-56217657D01*
X100172931Y-56217657D02*
X100220550Y-56170038D01*
X100220550Y-56170038D02*
X100315788Y-56122419D01*
X100315788Y-56122419D02*
X100553883Y-56122419D01*
X100553883Y-56122419D02*
X100696740Y-56170038D01*
X101315788Y-56122419D02*
X101506264Y-56122419D01*
X101506264Y-56122419D02*
X101601502Y-56170038D01*
X101601502Y-56170038D02*
X101696740Y-56265276D01*
X101696740Y-56265276D02*
X101744359Y-56455752D01*
X101744359Y-56455752D02*
X101744359Y-56789085D01*
X101744359Y-56789085D02*
X101696740Y-56979561D01*
X101696740Y-56979561D02*
X101601502Y-57074800D01*
X101601502Y-57074800D02*
X101506264Y-57122419D01*
X101506264Y-57122419D02*
X101315788Y-57122419D01*
X101315788Y-57122419D02*
X101220550Y-57074800D01*
X101220550Y-57074800D02*
X101125312Y-56979561D01*
X101125312Y-56979561D02*
X101077693Y-56789085D01*
X101077693Y-56789085D02*
X101077693Y-56455752D01*
X101077693Y-56455752D02*
X101125312Y-56265276D01*
X101125312Y-56265276D02*
X101220550Y-56170038D01*
X101220550Y-56170038D02*
X101315788Y-56122419D01*
X98256265Y-71836704D02*
X98732455Y-71836704D01*
X98161027Y-72122419D02*
X98494360Y-71122419D01*
X98494360Y-71122419D02*
X98827693Y-72122419D01*
X99161027Y-71122419D02*
X99161027Y-71931942D01*
X99161027Y-71931942D02*
X99208646Y-72027180D01*
X99208646Y-72027180D02*
X99256265Y-72074800D01*
X99256265Y-72074800D02*
X99351503Y-72122419D01*
X99351503Y-72122419D02*
X99541979Y-72122419D01*
X99541979Y-72122419D02*
X99637217Y-72074800D01*
X99637217Y-72074800D02*
X99684836Y-72027180D01*
X99684836Y-72027180D02*
X99732455Y-71931942D01*
X99732455Y-71931942D02*
X99732455Y-71122419D01*
X100113408Y-71122419D02*
X100780074Y-72122419D01*
X100780074Y-71122419D02*
X100113408Y-72122419D01*
X100922932Y-72217657D02*
X101684836Y-72217657D01*
X101922932Y-72122419D02*
X101922932Y-71122419D01*
X102970550Y-72122419D02*
X102637217Y-71646228D01*
X102399122Y-72122419D02*
X102399122Y-71122419D01*
X102399122Y-71122419D02*
X102780074Y-71122419D01*
X102780074Y-71122419D02*
X102875312Y-71170038D01*
X102875312Y-71170038D02*
X102922931Y-71217657D01*
X102922931Y-71217657D02*
X102970550Y-71312895D01*
X102970550Y-71312895D02*
X102970550Y-71455752D01*
X102970550Y-71455752D02*
X102922931Y-71550990D01*
X102922931Y-71550990D02*
X102875312Y-71598609D01*
X102875312Y-71598609D02*
X102780074Y-71646228D01*
X102780074Y-71646228D02*
X102399122Y-71646228D01*
X104065788Y-72217657D02*
X103970550Y-72170038D01*
X103970550Y-72170038D02*
X103875312Y-72074800D01*
X103875312Y-72074800D02*
X103732455Y-71931942D01*
X103732455Y-71931942D02*
X103637217Y-71884323D01*
X103637217Y-71884323D02*
X103541979Y-71884323D01*
X103589598Y-72122419D02*
X103494360Y-72074800D01*
X103494360Y-72074800D02*
X103399122Y-71979561D01*
X103399122Y-71979561D02*
X103351503Y-71789085D01*
X103351503Y-71789085D02*
X103351503Y-71455752D01*
X103351503Y-71455752D02*
X103399122Y-71265276D01*
X103399122Y-71265276D02*
X103494360Y-71170038D01*
X103494360Y-71170038D02*
X103589598Y-71122419D01*
X103589598Y-71122419D02*
X103780074Y-71122419D01*
X103780074Y-71122419D02*
X103875312Y-71170038D01*
X103875312Y-71170038D02*
X103970550Y-71265276D01*
X103970550Y-71265276D02*
X104018169Y-71455752D01*
X104018169Y-71455752D02*
X104018169Y-71789085D01*
X104018169Y-71789085D02*
X103970550Y-71979561D01*
X103970550Y-71979561D02*
X103875312Y-72074800D01*
X103875312Y-72074800D02*
X103780074Y-72122419D01*
X103780074Y-72122419D02*
X103589598Y-72122419D01*
X98577693Y-78920038D02*
X98482455Y-78872419D01*
X98482455Y-78872419D02*
X98339598Y-78872419D01*
X98339598Y-78872419D02*
X98196741Y-78920038D01*
X98196741Y-78920038D02*
X98101503Y-79015276D01*
X98101503Y-79015276D02*
X98053884Y-79110514D01*
X98053884Y-79110514D02*
X98006265Y-79300990D01*
X98006265Y-79300990D02*
X98006265Y-79443847D01*
X98006265Y-79443847D02*
X98053884Y-79634323D01*
X98053884Y-79634323D02*
X98101503Y-79729561D01*
X98101503Y-79729561D02*
X98196741Y-79824800D01*
X98196741Y-79824800D02*
X98339598Y-79872419D01*
X98339598Y-79872419D02*
X98434836Y-79872419D01*
X98434836Y-79872419D02*
X98577693Y-79824800D01*
X98577693Y-79824800D02*
X98625312Y-79777180D01*
X98625312Y-79777180D02*
X98625312Y-79443847D01*
X98625312Y-79443847D02*
X98434836Y-79443847D01*
X99053884Y-79872419D02*
X99053884Y-78872419D01*
X99053884Y-78872419D02*
X99434836Y-78872419D01*
X99434836Y-78872419D02*
X99530074Y-78920038D01*
X99530074Y-78920038D02*
X99577693Y-78967657D01*
X99577693Y-78967657D02*
X99625312Y-79062895D01*
X99625312Y-79062895D02*
X99625312Y-79205752D01*
X99625312Y-79205752D02*
X99577693Y-79300990D01*
X99577693Y-79300990D02*
X99530074Y-79348609D01*
X99530074Y-79348609D02*
X99434836Y-79396228D01*
X99434836Y-79396228D02*
X99053884Y-79396228D01*
X100053884Y-79872419D02*
X100053884Y-78872419D01*
X100720550Y-78872419D02*
X100911026Y-78872419D01*
X100911026Y-78872419D02*
X101006264Y-78920038D01*
X101006264Y-78920038D02*
X101101502Y-79015276D01*
X101101502Y-79015276D02*
X101149121Y-79205752D01*
X101149121Y-79205752D02*
X101149121Y-79539085D01*
X101149121Y-79539085D02*
X101101502Y-79729561D01*
X101101502Y-79729561D02*
X101006264Y-79824800D01*
X101006264Y-79824800D02*
X100911026Y-79872419D01*
X100911026Y-79872419D02*
X100720550Y-79872419D01*
X100720550Y-79872419D02*
X100625312Y-79824800D01*
X100625312Y-79824800D02*
X100530074Y-79729561D01*
X100530074Y-79729561D02*
X100482455Y-79539085D01*
X100482455Y-79539085D02*
X100482455Y-79205752D01*
X100482455Y-79205752D02*
X100530074Y-79015276D01*
X100530074Y-79015276D02*
X100625312Y-78920038D01*
X100625312Y-78920038D02*
X100720550Y-78872419D01*
X102101502Y-79872419D02*
X101530074Y-79872419D01*
X101815788Y-79872419D02*
X101815788Y-78872419D01*
X101815788Y-78872419D02*
X101720550Y-79015276D01*
X101720550Y-79015276D02*
X101625312Y-79110514D01*
X101625312Y-79110514D02*
X101530074Y-79158133D01*
X98553884Y-59622419D02*
X98553884Y-58622419D01*
X98553884Y-58622419D02*
X98887217Y-59336704D01*
X98887217Y-59336704D02*
X99220550Y-58622419D01*
X99220550Y-58622419D02*
X99220550Y-59622419D01*
X99887217Y-58622419D02*
X100077693Y-58622419D01*
X100077693Y-58622419D02*
X100172931Y-58670038D01*
X100172931Y-58670038D02*
X100268169Y-58765276D01*
X100268169Y-58765276D02*
X100315788Y-58955752D01*
X100315788Y-58955752D02*
X100315788Y-59289085D01*
X100315788Y-59289085D02*
X100268169Y-59479561D01*
X100268169Y-59479561D02*
X100172931Y-59574800D01*
X100172931Y-59574800D02*
X100077693Y-59622419D01*
X100077693Y-59622419D02*
X99887217Y-59622419D01*
X99887217Y-59622419D02*
X99791979Y-59574800D01*
X99791979Y-59574800D02*
X99696741Y-59479561D01*
X99696741Y-59479561D02*
X99649122Y-59289085D01*
X99649122Y-59289085D02*
X99649122Y-58955752D01*
X99649122Y-58955752D02*
X99696741Y-58765276D01*
X99696741Y-58765276D02*
X99791979Y-58670038D01*
X99791979Y-58670038D02*
X99887217Y-58622419D01*
X100696741Y-59574800D02*
X100839598Y-59622419D01*
X100839598Y-59622419D02*
X101077693Y-59622419D01*
X101077693Y-59622419D02*
X101172931Y-59574800D01*
X101172931Y-59574800D02*
X101220550Y-59527180D01*
X101220550Y-59527180D02*
X101268169Y-59431942D01*
X101268169Y-59431942D02*
X101268169Y-59336704D01*
X101268169Y-59336704D02*
X101220550Y-59241466D01*
X101220550Y-59241466D02*
X101172931Y-59193847D01*
X101172931Y-59193847D02*
X101077693Y-59146228D01*
X101077693Y-59146228D02*
X100887217Y-59098609D01*
X100887217Y-59098609D02*
X100791979Y-59050990D01*
X100791979Y-59050990D02*
X100744360Y-59003371D01*
X100744360Y-59003371D02*
X100696741Y-58908133D01*
X100696741Y-58908133D02*
X100696741Y-58812895D01*
X100696741Y-58812895D02*
X100744360Y-58717657D01*
X100744360Y-58717657D02*
X100791979Y-58670038D01*
X100791979Y-58670038D02*
X100887217Y-58622419D01*
X100887217Y-58622419D02*
X101125312Y-58622419D01*
X101125312Y-58622419D02*
X101268169Y-58670038D01*
X101696741Y-59622419D02*
X101696741Y-58622419D01*
X129506265Y-64574800D02*
X129649122Y-64622419D01*
X129649122Y-64622419D02*
X129887217Y-64622419D01*
X129887217Y-64622419D02*
X129982455Y-64574800D01*
X129982455Y-64574800D02*
X130030074Y-64527180D01*
X130030074Y-64527180D02*
X130077693Y-64431942D01*
X130077693Y-64431942D02*
X130077693Y-64336704D01*
X130077693Y-64336704D02*
X130030074Y-64241466D01*
X130030074Y-64241466D02*
X129982455Y-64193847D01*
X129982455Y-64193847D02*
X129887217Y-64146228D01*
X129887217Y-64146228D02*
X129696741Y-64098609D01*
X129696741Y-64098609D02*
X129601503Y-64050990D01*
X129601503Y-64050990D02*
X129553884Y-64003371D01*
X129553884Y-64003371D02*
X129506265Y-63908133D01*
X129506265Y-63908133D02*
X129506265Y-63812895D01*
X129506265Y-63812895D02*
X129553884Y-63717657D01*
X129553884Y-63717657D02*
X129601503Y-63670038D01*
X129601503Y-63670038D02*
X129696741Y-63622419D01*
X129696741Y-63622419D02*
X129934836Y-63622419D01*
X129934836Y-63622419D02*
X130077693Y-63670038D01*
X130506265Y-64098609D02*
X130839598Y-64098609D01*
X130982455Y-64622419D02*
X130506265Y-64622419D01*
X130506265Y-64622419D02*
X130506265Y-63622419D01*
X130506265Y-63622419D02*
X130982455Y-63622419D01*
X131982455Y-64622419D02*
X131649122Y-64146228D01*
X131411027Y-64622419D02*
X131411027Y-63622419D01*
X131411027Y-63622419D02*
X131791979Y-63622419D01*
X131791979Y-63622419D02*
X131887217Y-63670038D01*
X131887217Y-63670038D02*
X131934836Y-63717657D01*
X131934836Y-63717657D02*
X131982455Y-63812895D01*
X131982455Y-63812895D02*
X131982455Y-63955752D01*
X131982455Y-63955752D02*
X131934836Y-64050990D01*
X131934836Y-64050990D02*
X131887217Y-64098609D01*
X131887217Y-64098609D02*
X131791979Y-64146228D01*
X131791979Y-64146228D02*
X131411027Y-64146228D01*
X132172932Y-64717657D02*
X132934836Y-64717657D01*
X133744360Y-64527180D02*
X133696741Y-64574800D01*
X133696741Y-64574800D02*
X133553884Y-64622419D01*
X133553884Y-64622419D02*
X133458646Y-64622419D01*
X133458646Y-64622419D02*
X133315789Y-64574800D01*
X133315789Y-64574800D02*
X133220551Y-64479561D01*
X133220551Y-64479561D02*
X133172932Y-64384323D01*
X133172932Y-64384323D02*
X133125313Y-64193847D01*
X133125313Y-64193847D02*
X133125313Y-64050990D01*
X133125313Y-64050990D02*
X133172932Y-63860514D01*
X133172932Y-63860514D02*
X133220551Y-63765276D01*
X133220551Y-63765276D02*
X133315789Y-63670038D01*
X133315789Y-63670038D02*
X133458646Y-63622419D01*
X133458646Y-63622419D02*
X133553884Y-63622419D01*
X133553884Y-63622419D02*
X133696741Y-63670038D01*
X133696741Y-63670038D02*
X133744360Y-63717657D01*
X134125313Y-64574800D02*
X134268170Y-64622419D01*
X134268170Y-64622419D02*
X134506265Y-64622419D01*
X134506265Y-64622419D02*
X134601503Y-64574800D01*
X134601503Y-64574800D02*
X134649122Y-64527180D01*
X134649122Y-64527180D02*
X134696741Y-64431942D01*
X134696741Y-64431942D02*
X134696741Y-64336704D01*
X134696741Y-64336704D02*
X134649122Y-64241466D01*
X134649122Y-64241466D02*
X134601503Y-64193847D01*
X134601503Y-64193847D02*
X134506265Y-64146228D01*
X134506265Y-64146228D02*
X134315789Y-64098609D01*
X134315789Y-64098609D02*
X134220551Y-64050990D01*
X134220551Y-64050990D02*
X134172932Y-64003371D01*
X134172932Y-64003371D02*
X134125313Y-63908133D01*
X134125313Y-63908133D02*
X134125313Y-63812895D01*
X134125313Y-63812895D02*
X134172932Y-63717657D01*
X134172932Y-63717657D02*
X134220551Y-63670038D01*
X134220551Y-63670038D02*
X134315789Y-63622419D01*
X134315789Y-63622419D02*
X134553884Y-63622419D01*
X134553884Y-63622419D02*
X134696741Y-63670038D01*
X99125312Y-62027180D02*
X99077693Y-62074800D01*
X99077693Y-62074800D02*
X98934836Y-62122419D01*
X98934836Y-62122419D02*
X98839598Y-62122419D01*
X98839598Y-62122419D02*
X98696741Y-62074800D01*
X98696741Y-62074800D02*
X98601503Y-61979561D01*
X98601503Y-61979561D02*
X98553884Y-61884323D01*
X98553884Y-61884323D02*
X98506265Y-61693847D01*
X98506265Y-61693847D02*
X98506265Y-61550990D01*
X98506265Y-61550990D02*
X98553884Y-61360514D01*
X98553884Y-61360514D02*
X98601503Y-61265276D01*
X98601503Y-61265276D02*
X98696741Y-61170038D01*
X98696741Y-61170038D02*
X98839598Y-61122419D01*
X98839598Y-61122419D02*
X98934836Y-61122419D01*
X98934836Y-61122419D02*
X99077693Y-61170038D01*
X99077693Y-61170038D02*
X99125312Y-61217657D01*
X100030074Y-62122419D02*
X99553884Y-62122419D01*
X99553884Y-62122419D02*
X99553884Y-61122419D01*
X100363408Y-62122419D02*
X100363408Y-61122419D01*
X100934836Y-62122419D02*
X100506265Y-61550990D01*
X100934836Y-61122419D02*
X100363408Y-61693847D01*
X129803884Y-57122419D02*
X129803884Y-56122419D01*
X129803884Y-56122419D02*
X130137217Y-56836704D01*
X130137217Y-56836704D02*
X130470550Y-56122419D01*
X130470550Y-56122419D02*
X130470550Y-57122419D01*
X130946741Y-57122419D02*
X130946741Y-56122419D01*
X131375312Y-57074800D02*
X131518169Y-57122419D01*
X131518169Y-57122419D02*
X131756264Y-57122419D01*
X131756264Y-57122419D02*
X131851502Y-57074800D01*
X131851502Y-57074800D02*
X131899121Y-57027180D01*
X131899121Y-57027180D02*
X131946740Y-56931942D01*
X131946740Y-56931942D02*
X131946740Y-56836704D01*
X131946740Y-56836704D02*
X131899121Y-56741466D01*
X131899121Y-56741466D02*
X131851502Y-56693847D01*
X131851502Y-56693847D02*
X131756264Y-56646228D01*
X131756264Y-56646228D02*
X131565788Y-56598609D01*
X131565788Y-56598609D02*
X131470550Y-56550990D01*
X131470550Y-56550990D02*
X131422931Y-56503371D01*
X131422931Y-56503371D02*
X131375312Y-56408133D01*
X131375312Y-56408133D02*
X131375312Y-56312895D01*
X131375312Y-56312895D02*
X131422931Y-56217657D01*
X131422931Y-56217657D02*
X131470550Y-56170038D01*
X131470550Y-56170038D02*
X131565788Y-56122419D01*
X131565788Y-56122419D02*
X131803883Y-56122419D01*
X131803883Y-56122419D02*
X131946740Y-56170038D01*
X132565788Y-56122419D02*
X132756264Y-56122419D01*
X132756264Y-56122419D02*
X132851502Y-56170038D01*
X132851502Y-56170038D02*
X132946740Y-56265276D01*
X132946740Y-56265276D02*
X132994359Y-56455752D01*
X132994359Y-56455752D02*
X132994359Y-56789085D01*
X132994359Y-56789085D02*
X132946740Y-56979561D01*
X132946740Y-56979561D02*
X132851502Y-57074800D01*
X132851502Y-57074800D02*
X132756264Y-57122419D01*
X132756264Y-57122419D02*
X132565788Y-57122419D01*
X132565788Y-57122419D02*
X132470550Y-57074800D01*
X132470550Y-57074800D02*
X132375312Y-56979561D01*
X132375312Y-56979561D02*
X132327693Y-56789085D01*
X132327693Y-56789085D02*
X132327693Y-56455752D01*
X132327693Y-56455752D02*
X132375312Y-56265276D01*
X132375312Y-56265276D02*
X132470550Y-56170038D01*
X132470550Y-56170038D02*
X132565788Y-56122419D01*
D11*
X101583958Y-45500076D02*
X101583958Y-41500076D01*
X101583958Y-41500076D02*
X103107768Y-41500076D01*
X103107768Y-41500076D02*
X103488720Y-41690552D01*
X103488720Y-41690552D02*
X103679197Y-41881028D01*
X103679197Y-41881028D02*
X103869673Y-42261980D01*
X103869673Y-42261980D02*
X103869673Y-42833409D01*
X103869673Y-42833409D02*
X103679197Y-43214361D01*
X103679197Y-43214361D02*
X103488720Y-43404838D01*
X103488720Y-43404838D02*
X103107768Y-43595314D01*
X103107768Y-43595314D02*
X101583958Y-43595314D01*
X107869673Y-45500076D02*
X106536339Y-43595314D01*
X105583958Y-45500076D02*
X105583958Y-41500076D01*
X105583958Y-41500076D02*
X107107768Y-41500076D01*
X107107768Y-41500076D02*
X107488720Y-41690552D01*
X107488720Y-41690552D02*
X107679197Y-41881028D01*
X107679197Y-41881028D02*
X107869673Y-42261980D01*
X107869673Y-42261980D02*
X107869673Y-42833409D01*
X107869673Y-42833409D02*
X107679197Y-43214361D01*
X107679197Y-43214361D02*
X107488720Y-43404838D01*
X107488720Y-43404838D02*
X107107768Y-43595314D01*
X107107768Y-43595314D02*
X105583958Y-43595314D01*
X110345863Y-41500076D02*
X111107768Y-41500076D01*
X111107768Y-41500076D02*
X111488720Y-41690552D01*
X111488720Y-41690552D02*
X111869673Y-42071504D01*
X111869673Y-42071504D02*
X112060149Y-42833409D01*
X112060149Y-42833409D02*
X112060149Y-44166742D01*
X112060149Y-44166742D02*
X111869673Y-44928647D01*
X111869673Y-44928647D02*
X111488720Y-45309600D01*
X111488720Y-45309600D02*
X111107768Y-45500076D01*
X111107768Y-45500076D02*
X110345863Y-45500076D01*
X110345863Y-45500076D02*
X109964911Y-45309600D01*
X109964911Y-45309600D02*
X109583958Y-44928647D01*
X109583958Y-44928647D02*
X109393482Y-44166742D01*
X109393482Y-44166742D02*
X109393482Y-42833409D01*
X109393482Y-42833409D02*
X109583958Y-42071504D01*
X109583958Y-42071504D02*
X109964911Y-41690552D01*
X109964911Y-41690552D02*
X110345863Y-41500076D01*
X114917292Y-41500076D02*
X114917292Y-44357219D01*
X114917292Y-44357219D02*
X114726815Y-44928647D01*
X114726815Y-44928647D02*
X114345863Y-45309600D01*
X114345863Y-45309600D02*
X113774434Y-45500076D01*
X113774434Y-45500076D02*
X113393482Y-45500076D01*
X116822053Y-43404838D02*
X118155387Y-43404838D01*
X118726815Y-45500076D02*
X116822053Y-45500076D01*
X116822053Y-45500076D02*
X116822053Y-41500076D01*
X116822053Y-41500076D02*
X118726815Y-41500076D01*
X122726816Y-45119123D02*
X122536340Y-45309600D01*
X122536340Y-45309600D02*
X121964911Y-45500076D01*
X121964911Y-45500076D02*
X121583959Y-45500076D01*
X121583959Y-45500076D02*
X121012530Y-45309600D01*
X121012530Y-45309600D02*
X120631578Y-44928647D01*
X120631578Y-44928647D02*
X120441101Y-44547695D01*
X120441101Y-44547695D02*
X120250625Y-43785790D01*
X120250625Y-43785790D02*
X120250625Y-43214361D01*
X120250625Y-43214361D02*
X120441101Y-42452457D01*
X120441101Y-42452457D02*
X120631578Y-42071504D01*
X120631578Y-42071504D02*
X121012530Y-41690552D01*
X121012530Y-41690552D02*
X121583959Y-41500076D01*
X121583959Y-41500076D02*
X121964911Y-41500076D01*
X121964911Y-41500076D02*
X122536340Y-41690552D01*
X122536340Y-41690552D02*
X122726816Y-41881028D01*
X123869673Y-41500076D02*
X126155387Y-41500076D01*
X125012530Y-45500076D02*
X125012530Y-41500076D01*
X132250625Y-41500076D02*
X131488720Y-41500076D01*
X131488720Y-41500076D02*
X131107768Y-41690552D01*
X131107768Y-41690552D02*
X130917292Y-41881028D01*
X130917292Y-41881028D02*
X130536339Y-42452457D01*
X130536339Y-42452457D02*
X130345863Y-43214361D01*
X130345863Y-43214361D02*
X130345863Y-44738171D01*
X130345863Y-44738171D02*
X130536339Y-45119123D01*
X130536339Y-45119123D02*
X130726816Y-45309600D01*
X130726816Y-45309600D02*
X131107768Y-45500076D01*
X131107768Y-45500076D02*
X131869673Y-45500076D01*
X131869673Y-45500076D02*
X132250625Y-45309600D01*
X132250625Y-45309600D02*
X132441101Y-45119123D01*
X132441101Y-45119123D02*
X132631578Y-44738171D01*
X132631578Y-44738171D02*
X132631578Y-43785790D01*
X132631578Y-43785790D02*
X132441101Y-43404838D01*
X132441101Y-43404838D02*
X132250625Y-43214361D01*
X132250625Y-43214361D02*
X131869673Y-43023885D01*
X131869673Y-43023885D02*
X131107768Y-43023885D01*
X131107768Y-43023885D02*
X130726816Y-43214361D01*
X130726816Y-43214361D02*
X130536339Y-43404838D01*
X130536339Y-43404838D02*
X130345863Y-43785790D01*
X134917292Y-43214361D02*
X134536340Y-43023885D01*
X134536340Y-43023885D02*
X134345863Y-42833409D01*
X134345863Y-42833409D02*
X134155387Y-42452457D01*
X134155387Y-42452457D02*
X134155387Y-42261980D01*
X134155387Y-42261980D02*
X134345863Y-41881028D01*
X134345863Y-41881028D02*
X134536340Y-41690552D01*
X134536340Y-41690552D02*
X134917292Y-41500076D01*
X134917292Y-41500076D02*
X135679197Y-41500076D01*
X135679197Y-41500076D02*
X136060149Y-41690552D01*
X136060149Y-41690552D02*
X136250625Y-41881028D01*
X136250625Y-41881028D02*
X136441102Y-42261980D01*
X136441102Y-42261980D02*
X136441102Y-42452457D01*
X136441102Y-42452457D02*
X136250625Y-42833409D01*
X136250625Y-42833409D02*
X136060149Y-43023885D01*
X136060149Y-43023885D02*
X135679197Y-43214361D01*
X135679197Y-43214361D02*
X134917292Y-43214361D01*
X134917292Y-43214361D02*
X134536340Y-43404838D01*
X134536340Y-43404838D02*
X134345863Y-43595314D01*
X134345863Y-43595314D02*
X134155387Y-43976266D01*
X134155387Y-43976266D02*
X134155387Y-44738171D01*
X134155387Y-44738171D02*
X134345863Y-45119123D01*
X134345863Y-45119123D02*
X134536340Y-45309600D01*
X134536340Y-45309600D02*
X134917292Y-45500076D01*
X134917292Y-45500076D02*
X135679197Y-45500076D01*
X135679197Y-45500076D02*
X136060149Y-45309600D01*
X136060149Y-45309600D02*
X136250625Y-45119123D01*
X136250625Y-45119123D02*
X136441102Y-44738171D01*
X136441102Y-44738171D02*
X136441102Y-43976266D01*
X136441102Y-43976266D02*
X136250625Y-43595314D01*
X136250625Y-43595314D02*
X136060149Y-43404838D01*
X136060149Y-43404838D02*
X135679197Y-43214361D01*
D12*
X217833333Y-42204819D02*
X217500000Y-41728628D01*
X217261905Y-42204819D02*
X217261905Y-41204819D01*
X217261905Y-41204819D02*
X217642857Y-41204819D01*
X217642857Y-41204819D02*
X217738095Y-41252438D01*
X217738095Y-41252438D02*
X217785714Y-41300057D01*
X217785714Y-41300057D02*
X217833333Y-41395295D01*
X217833333Y-41395295D02*
X217833333Y-41538152D01*
X217833333Y-41538152D02*
X217785714Y-41633390D01*
X217785714Y-41633390D02*
X217738095Y-41681009D01*
X217738095Y-41681009D02*
X217642857Y-41728628D01*
X217642857Y-41728628D02*
X217261905Y-41728628D01*
X218785714Y-42204819D02*
X218214286Y-42204819D01*
X218500000Y-42204819D02*
X218500000Y-41204819D01*
X218500000Y-41204819D02*
X218404762Y-41347676D01*
X218404762Y-41347676D02*
X218309524Y-41442914D01*
X218309524Y-41442914D02*
X218214286Y-41490533D01*
X196037666Y-117334819D02*
X196037666Y-118049104D01*
X196037666Y-118049104D02*
X195990047Y-118191961D01*
X195990047Y-118191961D02*
X195894809Y-118287200D01*
X195894809Y-118287200D02*
X195751952Y-118334819D01*
X195751952Y-118334819D02*
X195656714Y-118334819D01*
X196561476Y-118334819D02*
X196751952Y-118334819D01*
X196751952Y-118334819D02*
X196847190Y-118287200D01*
X196847190Y-118287200D02*
X196894809Y-118239580D01*
X196894809Y-118239580D02*
X196990047Y-118096723D01*
X196990047Y-118096723D02*
X197037666Y-117906247D01*
X197037666Y-117906247D02*
X197037666Y-117525295D01*
X197037666Y-117525295D02*
X196990047Y-117430057D01*
X196990047Y-117430057D02*
X196942428Y-117382438D01*
X196942428Y-117382438D02*
X196847190Y-117334819D01*
X196847190Y-117334819D02*
X196656714Y-117334819D01*
X196656714Y-117334819D02*
X196561476Y-117382438D01*
X196561476Y-117382438D02*
X196513857Y-117430057D01*
X196513857Y-117430057D02*
X196466238Y-117525295D01*
X196466238Y-117525295D02*
X196466238Y-117763390D01*
X196466238Y-117763390D02*
X196513857Y-117858628D01*
X196513857Y-117858628D02*
X196561476Y-117906247D01*
X196561476Y-117906247D02*
X196656714Y-117953866D01*
X196656714Y-117953866D02*
X196847190Y-117953866D01*
X196847190Y-117953866D02*
X196942428Y-117906247D01*
X196942428Y-117906247D02*
X196990047Y-117858628D01*
X196990047Y-117858628D02*
X197037666Y-117763390D01*
X199091833Y-75859819D02*
X198758500Y-75383628D01*
X198520405Y-75859819D02*
X198520405Y-74859819D01*
X198520405Y-74859819D02*
X198901357Y-74859819D01*
X198901357Y-74859819D02*
X198996595Y-74907438D01*
X198996595Y-74907438D02*
X199044214Y-74955057D01*
X199044214Y-74955057D02*
X199091833Y-75050295D01*
X199091833Y-75050295D02*
X199091833Y-75193152D01*
X199091833Y-75193152D02*
X199044214Y-75288390D01*
X199044214Y-75288390D02*
X198996595Y-75336009D01*
X198996595Y-75336009D02*
X198901357Y-75383628D01*
X198901357Y-75383628D02*
X198520405Y-75383628D01*
X199425167Y-74859819D02*
X200044214Y-74859819D01*
X200044214Y-74859819D02*
X199710881Y-75240771D01*
X199710881Y-75240771D02*
X199853738Y-75240771D01*
X199853738Y-75240771D02*
X199948976Y-75288390D01*
X199948976Y-75288390D02*
X199996595Y-75336009D01*
X199996595Y-75336009D02*
X200044214Y-75431247D01*
X200044214Y-75431247D02*
X200044214Y-75669342D01*
X200044214Y-75669342D02*
X199996595Y-75764580D01*
X199996595Y-75764580D02*
X199948976Y-75812200D01*
X199948976Y-75812200D02*
X199853738Y-75859819D01*
X199853738Y-75859819D02*
X199568024Y-75859819D01*
X199568024Y-75859819D02*
X199472786Y-75812200D01*
X199472786Y-75812200D02*
X199425167Y-75764580D01*
X126259095Y-114209819D02*
X126259095Y-115019342D01*
X126259095Y-115019342D02*
X126306714Y-115114580D01*
X126306714Y-115114580D02*
X126354333Y-115162200D01*
X126354333Y-115162200D02*
X126449571Y-115209819D01*
X126449571Y-115209819D02*
X126640047Y-115209819D01*
X126640047Y-115209819D02*
X126735285Y-115162200D01*
X126735285Y-115162200D02*
X126782904Y-115114580D01*
X126782904Y-115114580D02*
X126830523Y-115019342D01*
X126830523Y-115019342D02*
X126830523Y-114209819D01*
X127211476Y-114209819D02*
X127830523Y-114209819D01*
X127830523Y-114209819D02*
X127497190Y-114590771D01*
X127497190Y-114590771D02*
X127640047Y-114590771D01*
X127640047Y-114590771D02*
X127735285Y-114638390D01*
X127735285Y-114638390D02*
X127782904Y-114686009D01*
X127782904Y-114686009D02*
X127830523Y-114781247D01*
X127830523Y-114781247D02*
X127830523Y-115019342D01*
X127830523Y-115019342D02*
X127782904Y-115114580D01*
X127782904Y-115114580D02*
X127735285Y-115162200D01*
X127735285Y-115162200D02*
X127640047Y-115209819D01*
X127640047Y-115209819D02*
X127354333Y-115209819D01*
X127354333Y-115209819D02*
X127259095Y-115162200D01*
X127259095Y-115162200D02*
X127211476Y-115114580D01*
X229738095Y-133119819D02*
X229738095Y-132119819D01*
X229738095Y-132596009D02*
X230309523Y-132596009D01*
X230309523Y-133119819D02*
X230309523Y-132119819D01*
X230690476Y-132119819D02*
X231309523Y-132119819D01*
X231309523Y-132119819D02*
X230976190Y-132500771D01*
X230976190Y-132500771D02*
X231119047Y-132500771D01*
X231119047Y-132500771D02*
X231214285Y-132548390D01*
X231214285Y-132548390D02*
X231261904Y-132596009D01*
X231261904Y-132596009D02*
X231309523Y-132691247D01*
X231309523Y-132691247D02*
X231309523Y-132929342D01*
X231309523Y-132929342D02*
X231261904Y-133024580D01*
X231261904Y-133024580D02*
X231214285Y-133072200D01*
X231214285Y-133072200D02*
X231119047Y-133119819D01*
X231119047Y-133119819D02*
X230833333Y-133119819D01*
X230833333Y-133119819D02*
X230738095Y-133072200D01*
X230738095Y-133072200D02*
X230690476Y-133024580D01*
X205375761Y-74372557D02*
X205280523Y-74324938D01*
X205280523Y-74324938D02*
X205185285Y-74229700D01*
X205185285Y-74229700D02*
X205042428Y-74086842D01*
X205042428Y-74086842D02*
X204947190Y-74039223D01*
X204947190Y-74039223D02*
X204851952Y-74039223D01*
X204899571Y-74277319D02*
X204804333Y-74229700D01*
X204804333Y-74229700D02*
X204709095Y-74134461D01*
X204709095Y-74134461D02*
X204661476Y-73943985D01*
X204661476Y-73943985D02*
X204661476Y-73610652D01*
X204661476Y-73610652D02*
X204709095Y-73420176D01*
X204709095Y-73420176D02*
X204804333Y-73324938D01*
X204804333Y-73324938D02*
X204899571Y-73277319D01*
X204899571Y-73277319D02*
X205090047Y-73277319D01*
X205090047Y-73277319D02*
X205185285Y-73324938D01*
X205185285Y-73324938D02*
X205280523Y-73420176D01*
X205280523Y-73420176D02*
X205328142Y-73610652D01*
X205328142Y-73610652D02*
X205328142Y-73943985D01*
X205328142Y-73943985D02*
X205280523Y-74134461D01*
X205280523Y-74134461D02*
X205185285Y-74229700D01*
X205185285Y-74229700D02*
X205090047Y-74277319D01*
X205090047Y-74277319D02*
X204899571Y-74277319D01*
X206280523Y-74277319D02*
X205709095Y-74277319D01*
X205994809Y-74277319D02*
X205994809Y-73277319D01*
X205994809Y-73277319D02*
X205899571Y-73420176D01*
X205899571Y-73420176D02*
X205804333Y-73515414D01*
X205804333Y-73515414D02*
X205709095Y-73563033D01*
X215038319Y-125571904D02*
X215847842Y-125571904D01*
X215847842Y-125571904D02*
X215943080Y-125524285D01*
X215943080Y-125524285D02*
X215990700Y-125476666D01*
X215990700Y-125476666D02*
X216038319Y-125381428D01*
X216038319Y-125381428D02*
X216038319Y-125190952D01*
X216038319Y-125190952D02*
X215990700Y-125095714D01*
X215990700Y-125095714D02*
X215943080Y-125048095D01*
X215943080Y-125048095D02*
X215847842Y-125000476D01*
X215847842Y-125000476D02*
X215038319Y-125000476D01*
X215038319Y-124048095D02*
X215038319Y-124524285D01*
X215038319Y-124524285D02*
X215514509Y-124571904D01*
X215514509Y-124571904D02*
X215466890Y-124524285D01*
X215466890Y-124524285D02*
X215419271Y-124429047D01*
X215419271Y-124429047D02*
X215419271Y-124190952D01*
X215419271Y-124190952D02*
X215466890Y-124095714D01*
X215466890Y-124095714D02*
X215514509Y-124048095D01*
X215514509Y-124048095D02*
X215609747Y-124000476D01*
X215609747Y-124000476D02*
X215847842Y-124000476D01*
X215847842Y-124000476D02*
X215943080Y-124048095D01*
X215943080Y-124048095D02*
X215990700Y-124095714D01*
X215990700Y-124095714D02*
X216038319Y-124190952D01*
X216038319Y-124190952D02*
X216038319Y-124429047D01*
X216038319Y-124429047D02*
X215990700Y-124524285D01*
X215990700Y-124524285D02*
X215943080Y-124571904D01*
X227091666Y-39819819D02*
X227091666Y-40534104D01*
X227091666Y-40534104D02*
X227044047Y-40676961D01*
X227044047Y-40676961D02*
X226948809Y-40772200D01*
X226948809Y-40772200D02*
X226805952Y-40819819D01*
X226805952Y-40819819D02*
X226710714Y-40819819D01*
X228091666Y-40819819D02*
X227520238Y-40819819D01*
X227805952Y-40819819D02*
X227805952Y-39819819D01*
X227805952Y-39819819D02*
X227710714Y-39962676D01*
X227710714Y-39962676D02*
X227615476Y-40057914D01*
X227615476Y-40057914D02*
X227520238Y-40105533D01*
X187432905Y-129294819D02*
X187432905Y-128294819D01*
X187432905Y-128294819D02*
X187671000Y-128294819D01*
X187671000Y-128294819D02*
X187813857Y-128342438D01*
X187813857Y-128342438D02*
X187909095Y-128437676D01*
X187909095Y-128437676D02*
X187956714Y-128532914D01*
X187956714Y-128532914D02*
X188004333Y-128723390D01*
X188004333Y-128723390D02*
X188004333Y-128866247D01*
X188004333Y-128866247D02*
X187956714Y-129056723D01*
X187956714Y-129056723D02*
X187909095Y-129151961D01*
X187909095Y-129151961D02*
X187813857Y-129247200D01*
X187813857Y-129247200D02*
X187671000Y-129294819D01*
X187671000Y-129294819D02*
X187432905Y-129294819D01*
X188956714Y-129294819D02*
X188385286Y-129294819D01*
X188671000Y-129294819D02*
X188671000Y-128294819D01*
X188671000Y-128294819D02*
X188575762Y-128437676D01*
X188575762Y-128437676D02*
X188480524Y-128532914D01*
X188480524Y-128532914D02*
X188385286Y-128580533D01*
X223975819Y-110113333D02*
X224690104Y-110113333D01*
X224690104Y-110113333D02*
X224832961Y-110160952D01*
X224832961Y-110160952D02*
X224928200Y-110256190D01*
X224928200Y-110256190D02*
X224975819Y-110399047D01*
X224975819Y-110399047D02*
X224975819Y-110494285D01*
X223975819Y-109160952D02*
X223975819Y-109637142D01*
X223975819Y-109637142D02*
X224452009Y-109684761D01*
X224452009Y-109684761D02*
X224404390Y-109637142D01*
X224404390Y-109637142D02*
X224356771Y-109541904D01*
X224356771Y-109541904D02*
X224356771Y-109303809D01*
X224356771Y-109303809D02*
X224404390Y-109208571D01*
X224404390Y-109208571D02*
X224452009Y-109160952D01*
X224452009Y-109160952D02*
X224547247Y-109113333D01*
X224547247Y-109113333D02*
X224785342Y-109113333D01*
X224785342Y-109113333D02*
X224880580Y-109160952D01*
X224880580Y-109160952D02*
X224928200Y-109208571D01*
X224928200Y-109208571D02*
X224975819Y-109303809D01*
X224975819Y-109303809D02*
X224975819Y-109541904D01*
X224975819Y-109541904D02*
X224928200Y-109637142D01*
X224928200Y-109637142D02*
X224880580Y-109684761D01*
X101094809Y-113638628D02*
X101094809Y-114114819D01*
X100761476Y-113114819D02*
X101094809Y-113638628D01*
X101094809Y-113638628D02*
X101428142Y-113114819D01*
X102285285Y-114114819D02*
X101713857Y-114114819D01*
X101999571Y-114114819D02*
X101999571Y-113114819D01*
X101999571Y-113114819D02*
X101904333Y-113257676D01*
X101904333Y-113257676D02*
X101809095Y-113352914D01*
X101809095Y-113352914D02*
X101713857Y-113400533D01*
X94988095Y-43454819D02*
X94988095Y-42454819D01*
X94988095Y-42931009D02*
X95559523Y-42931009D01*
X95559523Y-43454819D02*
X95559523Y-42454819D01*
X96559523Y-43454819D02*
X95988095Y-43454819D01*
X96273809Y-43454819D02*
X96273809Y-42454819D01*
X96273809Y-42454819D02*
X96178571Y-42597676D01*
X96178571Y-42597676D02*
X96083333Y-42692914D01*
X96083333Y-42692914D02*
X95988095Y-42740533D01*
X111755819Y-134693333D02*
X112470104Y-134693333D01*
X112470104Y-134693333D02*
X112612961Y-134740952D01*
X112612961Y-134740952D02*
X112708200Y-134836190D01*
X112708200Y-134836190D02*
X112755819Y-134979047D01*
X112755819Y-134979047D02*
X112755819Y-135074285D01*
X112089152Y-133788571D02*
X112755819Y-133788571D01*
X111708200Y-134026666D02*
X112422485Y-134264761D01*
X112422485Y-134264761D02*
X112422485Y-133645714D01*
X213866833Y-59634819D02*
X213533500Y-59158628D01*
X213295405Y-59634819D02*
X213295405Y-58634819D01*
X213295405Y-58634819D02*
X213676357Y-58634819D01*
X213676357Y-58634819D02*
X213771595Y-58682438D01*
X213771595Y-58682438D02*
X213819214Y-58730057D01*
X213819214Y-58730057D02*
X213866833Y-58825295D01*
X213866833Y-58825295D02*
X213866833Y-58968152D01*
X213866833Y-58968152D02*
X213819214Y-59063390D01*
X213819214Y-59063390D02*
X213771595Y-59111009D01*
X213771595Y-59111009D02*
X213676357Y-59158628D01*
X213676357Y-59158628D02*
X213295405Y-59158628D01*
X214723976Y-58968152D02*
X214723976Y-59634819D01*
X214485881Y-58587200D02*
X214247786Y-59301485D01*
X214247786Y-59301485D02*
X214866833Y-59301485D01*
X202488095Y-41504819D02*
X202488095Y-40504819D01*
X202488095Y-40981009D02*
X203059523Y-40981009D01*
X203059523Y-41504819D02*
X203059523Y-40504819D01*
X203964285Y-40838152D02*
X203964285Y-41504819D01*
X203726190Y-40457200D02*
X203488095Y-41171485D01*
X203488095Y-41171485D02*
X204107142Y-41171485D01*
X221179333Y-110909819D02*
X220846000Y-110433628D01*
X220607905Y-110909819D02*
X220607905Y-109909819D01*
X220607905Y-109909819D02*
X220988857Y-109909819D01*
X220988857Y-109909819D02*
X221084095Y-109957438D01*
X221084095Y-109957438D02*
X221131714Y-110005057D01*
X221131714Y-110005057D02*
X221179333Y-110100295D01*
X221179333Y-110100295D02*
X221179333Y-110243152D01*
X221179333Y-110243152D02*
X221131714Y-110338390D01*
X221131714Y-110338390D02*
X221084095Y-110386009D01*
X221084095Y-110386009D02*
X220988857Y-110433628D01*
X220988857Y-110433628D02*
X220607905Y-110433628D01*
X221512667Y-109909819D02*
X222179333Y-109909819D01*
X222179333Y-109909819D02*
X221750762Y-110909819D01*
X203015819Y-135818333D02*
X203730104Y-135818333D01*
X203730104Y-135818333D02*
X203872961Y-135865952D01*
X203872961Y-135865952D02*
X203968200Y-135961190D01*
X203968200Y-135961190D02*
X204015819Y-136104047D01*
X204015819Y-136104047D02*
X204015819Y-136199285D01*
X203444390Y-135199285D02*
X203396771Y-135294523D01*
X203396771Y-135294523D02*
X203349152Y-135342142D01*
X203349152Y-135342142D02*
X203253914Y-135389761D01*
X203253914Y-135389761D02*
X203206295Y-135389761D01*
X203206295Y-135389761D02*
X203111057Y-135342142D01*
X203111057Y-135342142D02*
X203063438Y-135294523D01*
X203063438Y-135294523D02*
X203015819Y-135199285D01*
X203015819Y-135199285D02*
X203015819Y-135008809D01*
X203015819Y-135008809D02*
X203063438Y-134913571D01*
X203063438Y-134913571D02*
X203111057Y-134865952D01*
X203111057Y-134865952D02*
X203206295Y-134818333D01*
X203206295Y-134818333D02*
X203253914Y-134818333D01*
X203253914Y-134818333D02*
X203349152Y-134865952D01*
X203349152Y-134865952D02*
X203396771Y-134913571D01*
X203396771Y-134913571D02*
X203444390Y-135008809D01*
X203444390Y-135008809D02*
X203444390Y-135199285D01*
X203444390Y-135199285D02*
X203492009Y-135294523D01*
X203492009Y-135294523D02*
X203539628Y-135342142D01*
X203539628Y-135342142D02*
X203634866Y-135389761D01*
X203634866Y-135389761D02*
X203825342Y-135389761D01*
X203825342Y-135389761D02*
X203920580Y-135342142D01*
X203920580Y-135342142D02*
X203968200Y-135294523D01*
X203968200Y-135294523D02*
X204015819Y-135199285D01*
X204015819Y-135199285D02*
X204015819Y-135008809D01*
X204015819Y-135008809D02*
X203968200Y-134913571D01*
X203968200Y-134913571D02*
X203920580Y-134865952D01*
X203920580Y-134865952D02*
X203825342Y-134818333D01*
X203825342Y-134818333D02*
X203634866Y-134818333D01*
X203634866Y-134818333D02*
X203539628Y-134865952D01*
X203539628Y-134865952D02*
X203492009Y-134913571D01*
X203492009Y-134913571D02*
X203444390Y-135008809D01*
X126536476Y-53609819D02*
X126536476Y-54324104D01*
X126536476Y-54324104D02*
X126488857Y-54466961D01*
X126488857Y-54466961D02*
X126393619Y-54562200D01*
X126393619Y-54562200D02*
X126250762Y-54609819D01*
X126250762Y-54609819D02*
X126155524Y-54609819D01*
X127536476Y-54609819D02*
X126965048Y-54609819D01*
X127250762Y-54609819D02*
X127250762Y-53609819D01*
X127250762Y-53609819D02*
X127155524Y-53752676D01*
X127155524Y-53752676D02*
X127060286Y-53847914D01*
X127060286Y-53847914D02*
X126965048Y-53895533D01*
X128488857Y-54609819D02*
X127917429Y-54609819D01*
X128203143Y-54609819D02*
X128203143Y-53609819D01*
X128203143Y-53609819D02*
X128107905Y-53752676D01*
X128107905Y-53752676D02*
X128012667Y-53847914D01*
X128012667Y-53847914D02*
X127917429Y-53895533D01*
X163546595Y-56139819D02*
X163546595Y-56949342D01*
X163546595Y-56949342D02*
X163594214Y-57044580D01*
X163594214Y-57044580D02*
X163641833Y-57092200D01*
X163641833Y-57092200D02*
X163737071Y-57139819D01*
X163737071Y-57139819D02*
X163927547Y-57139819D01*
X163927547Y-57139819D02*
X164022785Y-57092200D01*
X164022785Y-57092200D02*
X164070404Y-57044580D01*
X164070404Y-57044580D02*
X164118023Y-56949342D01*
X164118023Y-56949342D02*
X164118023Y-56139819D01*
X164546595Y-56235057D02*
X164594214Y-56187438D01*
X164594214Y-56187438D02*
X164689452Y-56139819D01*
X164689452Y-56139819D02*
X164927547Y-56139819D01*
X164927547Y-56139819D02*
X165022785Y-56187438D01*
X165022785Y-56187438D02*
X165070404Y-56235057D01*
X165070404Y-56235057D02*
X165118023Y-56330295D01*
X165118023Y-56330295D02*
X165118023Y-56425533D01*
X165118023Y-56425533D02*
X165070404Y-56568390D01*
X165070404Y-56568390D02*
X164498976Y-57139819D01*
X164498976Y-57139819D02*
X165118023Y-57139819D01*
X236291180Y-86626666D02*
X235576895Y-86626666D01*
X235576895Y-86626666D02*
X235434038Y-86579047D01*
X235434038Y-86579047D02*
X235338800Y-86483809D01*
X235338800Y-86483809D02*
X235291180Y-86340952D01*
X235291180Y-86340952D02*
X235291180Y-86245714D01*
X236291180Y-87007619D02*
X236291180Y-87626666D01*
X236291180Y-87626666D02*
X235910228Y-87293333D01*
X235910228Y-87293333D02*
X235910228Y-87436190D01*
X235910228Y-87436190D02*
X235862609Y-87531428D01*
X235862609Y-87531428D02*
X235814990Y-87579047D01*
X235814990Y-87579047D02*
X235719752Y-87626666D01*
X235719752Y-87626666D02*
X235481657Y-87626666D01*
X235481657Y-87626666D02*
X235386419Y-87579047D01*
X235386419Y-87579047D02*
X235338800Y-87531428D01*
X235338800Y-87531428D02*
X235291180Y-87436190D01*
X235291180Y-87436190D02*
X235291180Y-87150476D01*
X235291180Y-87150476D02*
X235338800Y-87055238D01*
X235338800Y-87055238D02*
X235386419Y-87007619D01*
X209209095Y-105519819D02*
X209209095Y-106329342D01*
X209209095Y-106329342D02*
X209256714Y-106424580D01*
X209256714Y-106424580D02*
X209304333Y-106472200D01*
X209304333Y-106472200D02*
X209399571Y-106519819D01*
X209399571Y-106519819D02*
X209590047Y-106519819D01*
X209590047Y-106519819D02*
X209685285Y-106472200D01*
X209685285Y-106472200D02*
X209732904Y-106424580D01*
X209732904Y-106424580D02*
X209780523Y-106329342D01*
X209780523Y-106329342D02*
X209780523Y-105519819D01*
X210685285Y-105519819D02*
X210494809Y-105519819D01*
X210494809Y-105519819D02*
X210399571Y-105567438D01*
X210399571Y-105567438D02*
X210351952Y-105615057D01*
X210351952Y-105615057D02*
X210256714Y-105757914D01*
X210256714Y-105757914D02*
X210209095Y-105948390D01*
X210209095Y-105948390D02*
X210209095Y-106329342D01*
X210209095Y-106329342D02*
X210256714Y-106424580D01*
X210256714Y-106424580D02*
X210304333Y-106472200D01*
X210304333Y-106472200D02*
X210399571Y-106519819D01*
X210399571Y-106519819D02*
X210590047Y-106519819D01*
X210590047Y-106519819D02*
X210685285Y-106472200D01*
X210685285Y-106472200D02*
X210732904Y-106424580D01*
X210732904Y-106424580D02*
X210780523Y-106329342D01*
X210780523Y-106329342D02*
X210780523Y-106091247D01*
X210780523Y-106091247D02*
X210732904Y-105996009D01*
X210732904Y-105996009D02*
X210685285Y-105948390D01*
X210685285Y-105948390D02*
X210590047Y-105900771D01*
X210590047Y-105900771D02*
X210399571Y-105900771D01*
X210399571Y-105900771D02*
X210304333Y-105948390D01*
X210304333Y-105948390D02*
X210256714Y-105996009D01*
X210256714Y-105996009D02*
X210209095Y-106091247D01*
X194291833Y-108184819D02*
X193958500Y-107708628D01*
X193720405Y-108184819D02*
X193720405Y-107184819D01*
X193720405Y-107184819D02*
X194101357Y-107184819D01*
X194101357Y-107184819D02*
X194196595Y-107232438D01*
X194196595Y-107232438D02*
X194244214Y-107280057D01*
X194244214Y-107280057D02*
X194291833Y-107375295D01*
X194291833Y-107375295D02*
X194291833Y-107518152D01*
X194291833Y-107518152D02*
X194244214Y-107613390D01*
X194244214Y-107613390D02*
X194196595Y-107661009D01*
X194196595Y-107661009D02*
X194101357Y-107708628D01*
X194101357Y-107708628D02*
X193720405Y-107708628D01*
X194863262Y-107613390D02*
X194768024Y-107565771D01*
X194768024Y-107565771D02*
X194720405Y-107518152D01*
X194720405Y-107518152D02*
X194672786Y-107422914D01*
X194672786Y-107422914D02*
X194672786Y-107375295D01*
X194672786Y-107375295D02*
X194720405Y-107280057D01*
X194720405Y-107280057D02*
X194768024Y-107232438D01*
X194768024Y-107232438D02*
X194863262Y-107184819D01*
X194863262Y-107184819D02*
X195053738Y-107184819D01*
X195053738Y-107184819D02*
X195148976Y-107232438D01*
X195148976Y-107232438D02*
X195196595Y-107280057D01*
X195196595Y-107280057D02*
X195244214Y-107375295D01*
X195244214Y-107375295D02*
X195244214Y-107422914D01*
X195244214Y-107422914D02*
X195196595Y-107518152D01*
X195196595Y-107518152D02*
X195148976Y-107565771D01*
X195148976Y-107565771D02*
X195053738Y-107613390D01*
X195053738Y-107613390D02*
X194863262Y-107613390D01*
X194863262Y-107613390D02*
X194768024Y-107661009D01*
X194768024Y-107661009D02*
X194720405Y-107708628D01*
X194720405Y-107708628D02*
X194672786Y-107803866D01*
X194672786Y-107803866D02*
X194672786Y-107994342D01*
X194672786Y-107994342D02*
X194720405Y-108089580D01*
X194720405Y-108089580D02*
X194768024Y-108137200D01*
X194768024Y-108137200D02*
X194863262Y-108184819D01*
X194863262Y-108184819D02*
X195053738Y-108184819D01*
X195053738Y-108184819D02*
X195148976Y-108137200D01*
X195148976Y-108137200D02*
X195196595Y-108089580D01*
X195196595Y-108089580D02*
X195244214Y-107994342D01*
X195244214Y-107994342D02*
X195244214Y-107803866D01*
X195244214Y-107803866D02*
X195196595Y-107708628D01*
X195196595Y-107708628D02*
X195148976Y-107661009D01*
X195148976Y-107661009D02*
X195053738Y-107613390D01*
X125284095Y-99384819D02*
X125284095Y-100194342D01*
X125284095Y-100194342D02*
X125331714Y-100289580D01*
X125331714Y-100289580D02*
X125379333Y-100337200D01*
X125379333Y-100337200D02*
X125474571Y-100384819D01*
X125474571Y-100384819D02*
X125665047Y-100384819D01*
X125665047Y-100384819D02*
X125760285Y-100337200D01*
X125760285Y-100337200D02*
X125807904Y-100289580D01*
X125807904Y-100289580D02*
X125855523Y-100194342D01*
X125855523Y-100194342D02*
X125855523Y-99384819D01*
X126760285Y-99718152D02*
X126760285Y-100384819D01*
X126522190Y-99337200D02*
X126284095Y-100051485D01*
X126284095Y-100051485D02*
X126903142Y-100051485D01*
X213566833Y-66359819D02*
X213233500Y-65883628D01*
X212995405Y-66359819D02*
X212995405Y-65359819D01*
X212995405Y-65359819D02*
X213376357Y-65359819D01*
X213376357Y-65359819D02*
X213471595Y-65407438D01*
X213471595Y-65407438D02*
X213519214Y-65455057D01*
X213519214Y-65455057D02*
X213566833Y-65550295D01*
X213566833Y-65550295D02*
X213566833Y-65693152D01*
X213566833Y-65693152D02*
X213519214Y-65788390D01*
X213519214Y-65788390D02*
X213471595Y-65836009D01*
X213471595Y-65836009D02*
X213376357Y-65883628D01*
X213376357Y-65883628D02*
X212995405Y-65883628D01*
X214471595Y-65359819D02*
X213995405Y-65359819D01*
X213995405Y-65359819D02*
X213947786Y-65836009D01*
X213947786Y-65836009D02*
X213995405Y-65788390D01*
X213995405Y-65788390D02*
X214090643Y-65740771D01*
X214090643Y-65740771D02*
X214328738Y-65740771D01*
X214328738Y-65740771D02*
X214423976Y-65788390D01*
X214423976Y-65788390D02*
X214471595Y-65836009D01*
X214471595Y-65836009D02*
X214519214Y-65931247D01*
X214519214Y-65931247D02*
X214519214Y-66169342D01*
X214519214Y-66169342D02*
X214471595Y-66264580D01*
X214471595Y-66264580D02*
X214423976Y-66312200D01*
X214423976Y-66312200D02*
X214328738Y-66359819D01*
X214328738Y-66359819D02*
X214090643Y-66359819D01*
X214090643Y-66359819D02*
X213995405Y-66312200D01*
X213995405Y-66312200D02*
X213947786Y-66264580D01*
X213666833Y-46084819D02*
X213333500Y-45608628D01*
X213095405Y-46084819D02*
X213095405Y-45084819D01*
X213095405Y-45084819D02*
X213476357Y-45084819D01*
X213476357Y-45084819D02*
X213571595Y-45132438D01*
X213571595Y-45132438D02*
X213619214Y-45180057D01*
X213619214Y-45180057D02*
X213666833Y-45275295D01*
X213666833Y-45275295D02*
X213666833Y-45418152D01*
X213666833Y-45418152D02*
X213619214Y-45513390D01*
X213619214Y-45513390D02*
X213571595Y-45561009D01*
X213571595Y-45561009D02*
X213476357Y-45608628D01*
X213476357Y-45608628D02*
X213095405Y-45608628D01*
X214047786Y-45180057D02*
X214095405Y-45132438D01*
X214095405Y-45132438D02*
X214190643Y-45084819D01*
X214190643Y-45084819D02*
X214428738Y-45084819D01*
X214428738Y-45084819D02*
X214523976Y-45132438D01*
X214523976Y-45132438D02*
X214571595Y-45180057D01*
X214571595Y-45180057D02*
X214619214Y-45275295D01*
X214619214Y-45275295D02*
X214619214Y-45370533D01*
X214619214Y-45370533D02*
X214571595Y-45513390D01*
X214571595Y-45513390D02*
X214000167Y-46084819D01*
X214000167Y-46084819D02*
X214619214Y-46084819D01*
X159100405Y-112419819D02*
X159100405Y-113229342D01*
X159100405Y-113229342D02*
X159148024Y-113324580D01*
X159148024Y-113324580D02*
X159195643Y-113372200D01*
X159195643Y-113372200D02*
X159290881Y-113419819D01*
X159290881Y-113419819D02*
X159481357Y-113419819D01*
X159481357Y-113419819D02*
X159576595Y-113372200D01*
X159576595Y-113372200D02*
X159624214Y-113324580D01*
X159624214Y-113324580D02*
X159671833Y-113229342D01*
X159671833Y-113229342D02*
X159671833Y-112419819D01*
X160671833Y-113419819D02*
X160100405Y-113419819D01*
X160386119Y-113419819D02*
X160386119Y-112419819D01*
X160386119Y-112419819D02*
X160290881Y-112562676D01*
X160290881Y-112562676D02*
X160195643Y-112657914D01*
X160195643Y-112657914D02*
X160100405Y-112705533D01*
X161624214Y-113419819D02*
X161052786Y-113419819D01*
X161338500Y-113419819D02*
X161338500Y-112419819D01*
X161338500Y-112419819D02*
X161243262Y-112562676D01*
X161243262Y-112562676D02*
X161148024Y-112657914D01*
X161148024Y-112657914D02*
X161052786Y-112705533D01*
X221166833Y-103584819D02*
X220833500Y-103108628D01*
X220595405Y-103584819D02*
X220595405Y-102584819D01*
X220595405Y-102584819D02*
X220976357Y-102584819D01*
X220976357Y-102584819D02*
X221071595Y-102632438D01*
X221071595Y-102632438D02*
X221119214Y-102680057D01*
X221119214Y-102680057D02*
X221166833Y-102775295D01*
X221166833Y-102775295D02*
X221166833Y-102918152D01*
X221166833Y-102918152D02*
X221119214Y-103013390D01*
X221119214Y-103013390D02*
X221071595Y-103061009D01*
X221071595Y-103061009D02*
X220976357Y-103108628D01*
X220976357Y-103108628D02*
X220595405Y-103108628D01*
X222023976Y-102584819D02*
X221833500Y-102584819D01*
X221833500Y-102584819D02*
X221738262Y-102632438D01*
X221738262Y-102632438D02*
X221690643Y-102680057D01*
X221690643Y-102680057D02*
X221595405Y-102822914D01*
X221595405Y-102822914D02*
X221547786Y-103013390D01*
X221547786Y-103013390D02*
X221547786Y-103394342D01*
X221547786Y-103394342D02*
X221595405Y-103489580D01*
X221595405Y-103489580D02*
X221643024Y-103537200D01*
X221643024Y-103537200D02*
X221738262Y-103584819D01*
X221738262Y-103584819D02*
X221928738Y-103584819D01*
X221928738Y-103584819D02*
X222023976Y-103537200D01*
X222023976Y-103537200D02*
X222071595Y-103489580D01*
X222071595Y-103489580D02*
X222119214Y-103394342D01*
X222119214Y-103394342D02*
X222119214Y-103156247D01*
X222119214Y-103156247D02*
X222071595Y-103061009D01*
X222071595Y-103061009D02*
X222023976Y-103013390D01*
X222023976Y-103013390D02*
X221928738Y-102965771D01*
X221928738Y-102965771D02*
X221738262Y-102965771D01*
X221738262Y-102965771D02*
X221643024Y-103013390D01*
X221643024Y-103013390D02*
X221595405Y-103061009D01*
X221595405Y-103061009D02*
X221547786Y-103156247D01*
X207037666Y-119509819D02*
X207037666Y-120224104D01*
X207037666Y-120224104D02*
X206990047Y-120366961D01*
X206990047Y-120366961D02*
X206894809Y-120462200D01*
X206894809Y-120462200D02*
X206751952Y-120509819D01*
X206751952Y-120509819D02*
X206656714Y-120509819D01*
X207942428Y-119509819D02*
X207751952Y-119509819D01*
X207751952Y-119509819D02*
X207656714Y-119557438D01*
X207656714Y-119557438D02*
X207609095Y-119605057D01*
X207609095Y-119605057D02*
X207513857Y-119747914D01*
X207513857Y-119747914D02*
X207466238Y-119938390D01*
X207466238Y-119938390D02*
X207466238Y-120319342D01*
X207466238Y-120319342D02*
X207513857Y-120414580D01*
X207513857Y-120414580D02*
X207561476Y-120462200D01*
X207561476Y-120462200D02*
X207656714Y-120509819D01*
X207656714Y-120509819D02*
X207847190Y-120509819D01*
X207847190Y-120509819D02*
X207942428Y-120462200D01*
X207942428Y-120462200D02*
X207990047Y-120414580D01*
X207990047Y-120414580D02*
X208037666Y-120319342D01*
X208037666Y-120319342D02*
X208037666Y-120081247D01*
X208037666Y-120081247D02*
X207990047Y-119986009D01*
X207990047Y-119986009D02*
X207942428Y-119938390D01*
X207942428Y-119938390D02*
X207847190Y-119890771D01*
X207847190Y-119890771D02*
X207656714Y-119890771D01*
X207656714Y-119890771D02*
X207561476Y-119938390D01*
X207561476Y-119938390D02*
X207513857Y-119986009D01*
X207513857Y-119986009D02*
X207466238Y-120081247D01*
X207490642Y-130409819D02*
X207157309Y-129933628D01*
X206919214Y-130409819D02*
X206919214Y-129409819D01*
X206919214Y-129409819D02*
X207300166Y-129409819D01*
X207300166Y-129409819D02*
X207395404Y-129457438D01*
X207395404Y-129457438D02*
X207443023Y-129505057D01*
X207443023Y-129505057D02*
X207490642Y-129600295D01*
X207490642Y-129600295D02*
X207490642Y-129743152D01*
X207490642Y-129743152D02*
X207443023Y-129838390D01*
X207443023Y-129838390D02*
X207395404Y-129886009D01*
X207395404Y-129886009D02*
X207300166Y-129933628D01*
X207300166Y-129933628D02*
X206919214Y-129933628D01*
X208443023Y-130409819D02*
X207871595Y-130409819D01*
X208157309Y-130409819D02*
X208157309Y-129409819D01*
X208157309Y-129409819D02*
X208062071Y-129552676D01*
X208062071Y-129552676D02*
X207966833Y-129647914D01*
X207966833Y-129647914D02*
X207871595Y-129695533D01*
X209062071Y-129409819D02*
X209157309Y-129409819D01*
X209157309Y-129409819D02*
X209252547Y-129457438D01*
X209252547Y-129457438D02*
X209300166Y-129505057D01*
X209300166Y-129505057D02*
X209347785Y-129600295D01*
X209347785Y-129600295D02*
X209395404Y-129790771D01*
X209395404Y-129790771D02*
X209395404Y-130028866D01*
X209395404Y-130028866D02*
X209347785Y-130219342D01*
X209347785Y-130219342D02*
X209300166Y-130314580D01*
X209300166Y-130314580D02*
X209252547Y-130362200D01*
X209252547Y-130362200D02*
X209157309Y-130409819D01*
X209157309Y-130409819D02*
X209062071Y-130409819D01*
X209062071Y-130409819D02*
X208966833Y-130362200D01*
X208966833Y-130362200D02*
X208919214Y-130314580D01*
X208919214Y-130314580D02*
X208871595Y-130219342D01*
X208871595Y-130219342D02*
X208823976Y-130028866D01*
X208823976Y-130028866D02*
X208823976Y-129790771D01*
X208823976Y-129790771D02*
X208871595Y-129600295D01*
X208871595Y-129600295D02*
X208919214Y-129505057D01*
X208919214Y-129505057D02*
X208966833Y-129457438D01*
X208966833Y-129457438D02*
X209062071Y-129409819D01*
X214141833Y-130159819D02*
X213808500Y-129683628D01*
X213570405Y-130159819D02*
X213570405Y-129159819D01*
X213570405Y-129159819D02*
X213951357Y-129159819D01*
X213951357Y-129159819D02*
X214046595Y-129207438D01*
X214046595Y-129207438D02*
X214094214Y-129255057D01*
X214094214Y-129255057D02*
X214141833Y-129350295D01*
X214141833Y-129350295D02*
X214141833Y-129493152D01*
X214141833Y-129493152D02*
X214094214Y-129588390D01*
X214094214Y-129588390D02*
X214046595Y-129636009D01*
X214046595Y-129636009D02*
X213951357Y-129683628D01*
X213951357Y-129683628D02*
X213570405Y-129683628D01*
X214618024Y-130159819D02*
X214808500Y-130159819D01*
X214808500Y-130159819D02*
X214903738Y-130112200D01*
X214903738Y-130112200D02*
X214951357Y-130064580D01*
X214951357Y-130064580D02*
X215046595Y-129921723D01*
X215046595Y-129921723D02*
X215094214Y-129731247D01*
X215094214Y-129731247D02*
X215094214Y-129350295D01*
X215094214Y-129350295D02*
X215046595Y-129255057D01*
X215046595Y-129255057D02*
X214998976Y-129207438D01*
X214998976Y-129207438D02*
X214903738Y-129159819D01*
X214903738Y-129159819D02*
X214713262Y-129159819D01*
X214713262Y-129159819D02*
X214618024Y-129207438D01*
X214618024Y-129207438D02*
X214570405Y-129255057D01*
X214570405Y-129255057D02*
X214522786Y-129350295D01*
X214522786Y-129350295D02*
X214522786Y-129588390D01*
X214522786Y-129588390D02*
X214570405Y-129683628D01*
X214570405Y-129683628D02*
X214618024Y-129731247D01*
X214618024Y-129731247D02*
X214713262Y-129778866D01*
X214713262Y-129778866D02*
X214903738Y-129778866D01*
X214903738Y-129778866D02*
X214998976Y-129731247D01*
X214998976Y-129731247D02*
X215046595Y-129683628D01*
X215046595Y-129683628D02*
X215094214Y-129588390D01*
X142954333Y-127194580D02*
X142906714Y-127242200D01*
X142906714Y-127242200D02*
X142763857Y-127289819D01*
X142763857Y-127289819D02*
X142668619Y-127289819D01*
X142668619Y-127289819D02*
X142525762Y-127242200D01*
X142525762Y-127242200D02*
X142430524Y-127146961D01*
X142430524Y-127146961D02*
X142382905Y-127051723D01*
X142382905Y-127051723D02*
X142335286Y-126861247D01*
X142335286Y-126861247D02*
X142335286Y-126718390D01*
X142335286Y-126718390D02*
X142382905Y-126527914D01*
X142382905Y-126527914D02*
X142430524Y-126432676D01*
X142430524Y-126432676D02*
X142525762Y-126337438D01*
X142525762Y-126337438D02*
X142668619Y-126289819D01*
X142668619Y-126289819D02*
X142763857Y-126289819D01*
X142763857Y-126289819D02*
X142906714Y-126337438D01*
X142906714Y-126337438D02*
X142954333Y-126385057D01*
X143335286Y-126385057D02*
X143382905Y-126337438D01*
X143382905Y-126337438D02*
X143478143Y-126289819D01*
X143478143Y-126289819D02*
X143716238Y-126289819D01*
X143716238Y-126289819D02*
X143811476Y-126337438D01*
X143811476Y-126337438D02*
X143859095Y-126385057D01*
X143859095Y-126385057D02*
X143906714Y-126480295D01*
X143906714Y-126480295D02*
X143906714Y-126575533D01*
X143906714Y-126575533D02*
X143859095Y-126718390D01*
X143859095Y-126718390D02*
X143287667Y-127289819D01*
X143287667Y-127289819D02*
X143906714Y-127289819D01*
X95536476Y-53609819D02*
X95536476Y-54324104D01*
X95536476Y-54324104D02*
X95488857Y-54466961D01*
X95488857Y-54466961D02*
X95393619Y-54562200D01*
X95393619Y-54562200D02*
X95250762Y-54609819D01*
X95250762Y-54609819D02*
X95155524Y-54609819D01*
X96536476Y-54609819D02*
X95965048Y-54609819D01*
X96250762Y-54609819D02*
X96250762Y-53609819D01*
X96250762Y-53609819D02*
X96155524Y-53752676D01*
X96155524Y-53752676D02*
X96060286Y-53847914D01*
X96060286Y-53847914D02*
X95965048Y-53895533D01*
X97155524Y-53609819D02*
X97250762Y-53609819D01*
X97250762Y-53609819D02*
X97346000Y-53657438D01*
X97346000Y-53657438D02*
X97393619Y-53705057D01*
X97393619Y-53705057D02*
X97441238Y-53800295D01*
X97441238Y-53800295D02*
X97488857Y-53990771D01*
X97488857Y-53990771D02*
X97488857Y-54228866D01*
X97488857Y-54228866D02*
X97441238Y-54419342D01*
X97441238Y-54419342D02*
X97393619Y-54514580D01*
X97393619Y-54514580D02*
X97346000Y-54562200D01*
X97346000Y-54562200D02*
X97250762Y-54609819D01*
X97250762Y-54609819D02*
X97155524Y-54609819D01*
X97155524Y-54609819D02*
X97060286Y-54562200D01*
X97060286Y-54562200D02*
X97012667Y-54514580D01*
X97012667Y-54514580D02*
X96965048Y-54419342D01*
X96965048Y-54419342D02*
X96917429Y-54228866D01*
X96917429Y-54228866D02*
X96917429Y-53990771D01*
X96917429Y-53990771D02*
X96965048Y-53800295D01*
X96965048Y-53800295D02*
X97012667Y-53705057D01*
X97012667Y-53705057D02*
X97060286Y-53657438D01*
X97060286Y-53657438D02*
X97155524Y-53609819D01*
X89238095Y-132504819D02*
X89238095Y-131504819D01*
X89238095Y-131981009D02*
X89809523Y-131981009D01*
X89809523Y-132504819D02*
X89809523Y-131504819D01*
X90238095Y-131600057D02*
X90285714Y-131552438D01*
X90285714Y-131552438D02*
X90380952Y-131504819D01*
X90380952Y-131504819D02*
X90619047Y-131504819D01*
X90619047Y-131504819D02*
X90714285Y-131552438D01*
X90714285Y-131552438D02*
X90761904Y-131600057D01*
X90761904Y-131600057D02*
X90809523Y-131695295D01*
X90809523Y-131695295D02*
X90809523Y-131790533D01*
X90809523Y-131790533D02*
X90761904Y-131933390D01*
X90761904Y-131933390D02*
X90190476Y-132504819D01*
X90190476Y-132504819D02*
X90809523Y-132504819D01*
X172754968Y-102795097D02*
X172754968Y-101794388D01*
X173803329Y-102699792D02*
X173755676Y-102747445D01*
X173755676Y-102747445D02*
X173612718Y-102795097D01*
X173612718Y-102795097D02*
X173517412Y-102795097D01*
X173517412Y-102795097D02*
X173374454Y-102747445D01*
X173374454Y-102747445D02*
X173279148Y-102652139D01*
X173279148Y-102652139D02*
X173231496Y-102556833D01*
X173231496Y-102556833D02*
X173183843Y-102366222D01*
X173183843Y-102366222D02*
X173183843Y-102223264D01*
X173183843Y-102223264D02*
X173231496Y-102032652D01*
X173231496Y-102032652D02*
X173279148Y-101937347D01*
X173279148Y-101937347D02*
X173374454Y-101842041D01*
X173374454Y-101842041D02*
X173517412Y-101794388D01*
X173517412Y-101794388D02*
X173612718Y-101794388D01*
X173612718Y-101794388D02*
X173755676Y-101842041D01*
X173755676Y-101842041D02*
X173803329Y-101889694D01*
X174756385Y-102795097D02*
X174184552Y-102795097D01*
X174470469Y-102795097D02*
X174470469Y-101794388D01*
X174470469Y-101794388D02*
X174375163Y-101937347D01*
X174375163Y-101937347D02*
X174279857Y-102032652D01*
X174279857Y-102032652D02*
X174184552Y-102080305D01*
X155707073Y-75748773D02*
X155230841Y-75748773D01*
X155230841Y-75748773D02*
X155183218Y-76225005D01*
X155183218Y-76225005D02*
X155230841Y-76177381D01*
X155230841Y-76177381D02*
X155326088Y-76129758D01*
X155326088Y-76129758D02*
X155564204Y-76129758D01*
X155564204Y-76129758D02*
X155659450Y-76177381D01*
X155659450Y-76177381D02*
X155707073Y-76225005D01*
X155707073Y-76225005D02*
X155754697Y-76320251D01*
X155754697Y-76320251D02*
X155754697Y-76558367D01*
X155754697Y-76558367D02*
X155707073Y-76653613D01*
X155707073Y-76653613D02*
X155659450Y-76701237D01*
X155659450Y-76701237D02*
X155564204Y-76748860D01*
X155564204Y-76748860D02*
X155326088Y-76748860D01*
X155326088Y-76748860D02*
X155230841Y-76701237D01*
X155230841Y-76701237D02*
X155183218Y-76653613D01*
X156135682Y-75844019D02*
X156183305Y-75796396D01*
X156183305Y-75796396D02*
X156278552Y-75748773D01*
X156278552Y-75748773D02*
X156516668Y-75748773D01*
X156516668Y-75748773D02*
X156611914Y-75796396D01*
X156611914Y-75796396D02*
X156659537Y-75844019D01*
X156659537Y-75844019D02*
X156707161Y-75939265D01*
X156707161Y-75939265D02*
X156707161Y-76034512D01*
X156707161Y-76034512D02*
X156659537Y-76177381D01*
X156659537Y-76177381D02*
X156088059Y-76748860D01*
X156088059Y-76748860D02*
X156707161Y-76748860D01*
X218415819Y-68593333D02*
X219130104Y-68593333D01*
X219130104Y-68593333D02*
X219272961Y-68640952D01*
X219272961Y-68640952D02*
X219368200Y-68736190D01*
X219368200Y-68736190D02*
X219415819Y-68879047D01*
X219415819Y-68879047D02*
X219415819Y-68974285D01*
X218511057Y-68164761D02*
X218463438Y-68117142D01*
X218463438Y-68117142D02*
X218415819Y-68021904D01*
X218415819Y-68021904D02*
X218415819Y-67783809D01*
X218415819Y-67783809D02*
X218463438Y-67688571D01*
X218463438Y-67688571D02*
X218511057Y-67640952D01*
X218511057Y-67640952D02*
X218606295Y-67593333D01*
X218606295Y-67593333D02*
X218701533Y-67593333D01*
X218701533Y-67593333D02*
X218844390Y-67640952D01*
X218844390Y-67640952D02*
X219415819Y-68212380D01*
X219415819Y-68212380D02*
X219415819Y-67593333D01*
D13*
G04 #@! TO.C,R1*
X213468936Y-42410000D02*
X214923064Y-42410000D01*
X213468936Y-40590000D02*
X214923064Y-40590000D01*
G04 #@! TO.C,J9*
X194991000Y-118880000D02*
X196371000Y-118880000D01*
X194991000Y-120260000D02*
X194991000Y-118880000D01*
X194991000Y-121530000D02*
X194991000Y-134340000D01*
X194991000Y-121530000D02*
X197751000Y-121530000D01*
X194991000Y-134340000D02*
X197751000Y-134340000D01*
X197751000Y-121530000D02*
X197751000Y-134340000D01*
G04 #@! TO.C,R3*
X198531436Y-76325000D02*
X199985564Y-76325000D01*
X198531436Y-78145000D02*
X199985564Y-78145000D01*
G04 #@! TO.C,U3*
X127021000Y-115600000D02*
X125071000Y-115600000D01*
X127021000Y-115600000D02*
X128971000Y-115600000D01*
X127021000Y-124470000D02*
X125071000Y-124470000D01*
X127021000Y-124470000D02*
X128971000Y-124470000D01*
X124321000Y-115665000D02*
X124081000Y-115335000D01*
X124561000Y-115335000D01*
X124321000Y-115665000D01*
G36*
X124321000Y-115665000D02*
G01*
X124081000Y-115335000D01*
X124561000Y-115335000D01*
X124321000Y-115665000D01*
G37*
G04 #@! TO.C,Q1*
X205471000Y-74662500D02*
X204671000Y-74662500D01*
X205471000Y-74662500D02*
X206271000Y-74662500D01*
X205471000Y-77782500D02*
X204671000Y-77782500D01*
X205471000Y-77782500D02*
X206271000Y-77782500D01*
X204171000Y-74712500D02*
X203931000Y-74382500D01*
X204411000Y-74382500D01*
X204171000Y-74712500D01*
G36*
X204171000Y-74712500D02*
G01*
X203931000Y-74382500D01*
X204411000Y-74382500D01*
X204171000Y-74712500D01*
G37*
G04 #@! TO.C,U5*
X216673500Y-122900000D02*
X217933500Y-122900000D01*
X216673500Y-126660000D02*
X216673500Y-122900000D01*
X223493500Y-122900000D02*
X222233500Y-122900000D01*
X223493500Y-126660000D02*
X223493500Y-122900000D01*
X216773500Y-127940000D02*
X216443500Y-128180000D01*
X216443500Y-127700000D01*
X216773500Y-127940000D01*
G36*
X216773500Y-127940000D02*
G01*
X216443500Y-128180000D01*
X216443500Y-127700000D01*
X216773500Y-127940000D01*
G37*
D14*
G04 #@! TO.C,J1*
X224250000Y-42000000D02*
X232230000Y-42000000D01*
X224250000Y-45000000D02*
X224250000Y-42000000D01*
X224250000Y-49000000D02*
X224650000Y-49000000D01*
X224250000Y-52000000D02*
X224250000Y-49000000D01*
X224250000Y-52000000D02*
X232230000Y-52000000D01*
X224650000Y-45000000D02*
X224250000Y-45000000D01*
X224650000Y-45830000D02*
X224650000Y-45000000D01*
X224650000Y-49000000D02*
X224650000Y-48170000D01*
X234250000Y-50000000D02*
X234250000Y-44000000D01*
D11*
X230350000Y-52513000D02*
G75*
G02*
X230150000Y-52513000I-100000J0D01*
G01*
X230150000Y-52513000D02*
G75*
G02*
X230350000Y-52513000I100000J0D01*
G01*
D13*
G04 #@! TO.C,D1*
X186571000Y-128145000D02*
X190456000Y-128145000D01*
X190456000Y-125875000D02*
X186571000Y-125875000D01*
X190456000Y-128145000D02*
X190456000Y-125875000D01*
D14*
G04 #@! TO.C,BZ1*
X210846000Y-89285000D02*
G75*
G02*
X193846000Y-89285000I-8500000J0D01*
G01*
X193846000Y-89285000D02*
G75*
G02*
X210846000Y-89285000I8500000J0D01*
G01*
D13*
G04 #@! TO.C,J5*
X229921000Y-105110000D02*
X228221000Y-105110000D01*
X229921000Y-114450000D02*
X228221000Y-114450000D01*
G04 #@! TO.C,Y1*
X91121000Y-115410000D02*
X91121000Y-127560000D01*
X91121000Y-127560000D02*
X111271000Y-127560000D01*
X111271000Y-114660000D02*
X91871000Y-114660000D01*
X112021000Y-126810000D02*
X112021000Y-115410000D01*
X91121000Y-115410000D02*
G75*
G02*
X91871000Y-114660000I750000J0D01*
G01*
X111271000Y-114660000D02*
G75*
G02*
X112021000Y-115410000I0J-750000D01*
G01*
X112021000Y-126810000D02*
G75*
G02*
X111271000Y-127560000I-750000J0D01*
G01*
G04 #@! TO.C,J4*
X103461000Y-132980000D02*
X103461000Y-135740000D01*
X108651000Y-132980000D02*
X103461000Y-132980000D01*
X108651000Y-132980000D02*
X108651000Y-135740000D01*
X108651000Y-135740000D02*
X103461000Y-135740000D01*
X109921000Y-132980000D02*
X111301000Y-132980000D01*
X111301000Y-132980000D02*
X111301000Y-134360000D01*
G04 #@! TO.C,R4*
X213306436Y-60100000D02*
X214760564Y-60100000D01*
X213306436Y-61920000D02*
X214760564Y-61920000D01*
G04 #@! TO.C,R7*
X220618936Y-111375000D02*
X222073064Y-111375000D01*
X220618936Y-113195000D02*
X222073064Y-113195000D01*
G04 #@! TO.C,J8*
X204561000Y-136865000D02*
X204561000Y-135485000D01*
X205941000Y-136865000D02*
X204561000Y-136865000D01*
X207211000Y-134105000D02*
X225101000Y-134105000D01*
X207211000Y-136865000D02*
X207211000Y-134105000D01*
X207211000Y-136865000D02*
X225101000Y-136865000D01*
X225101000Y-136865000D02*
X225101000Y-134105000D01*
G04 #@! TO.C,J11*
X125966000Y-55155000D02*
X127346000Y-55155000D01*
X125966000Y-56535000D02*
X125966000Y-55155000D01*
X125966000Y-57805000D02*
X125966000Y-80775000D01*
X125966000Y-57805000D02*
X128726000Y-57805000D01*
X125966000Y-80775000D02*
X128726000Y-80775000D01*
X128726000Y-57805000D02*
X128726000Y-80775000D01*
G04 #@! TO.C,U2*
X164308500Y-43575000D02*
X155108500Y-43575000D01*
X164308500Y-43575000D02*
X173508500Y-43575000D01*
X164308500Y-55895000D02*
X155108500Y-55895000D01*
X164308500Y-55895000D02*
X173508500Y-55895000D01*
X175373500Y-55725000D02*
X175043500Y-55485000D01*
X175373500Y-55245000D01*
X175373500Y-55725000D01*
G36*
X175373500Y-55725000D02*
G01*
X175043500Y-55485000D01*
X175373500Y-55245000D01*
X175373500Y-55725000D01*
G37*
G04 #@! TO.C,J3*
X219886000Y-80050000D02*
X219886000Y-93870000D01*
X222386000Y-80050000D02*
X219886000Y-80050000D01*
X222386000Y-93870000D02*
X219886000Y-93870000D01*
X224906000Y-80050000D02*
X230686000Y-80050000D01*
X230686000Y-93870000D02*
X224906000Y-93870000D01*
X234606000Y-80050000D02*
X233206000Y-80050000D01*
X234606000Y-80050000D02*
X234606000Y-93870000D01*
X234606000Y-93870000D02*
X233206000Y-93870000D01*
G04 #@! TO.C,U6*
X209971000Y-106905000D02*
X208021000Y-106905000D01*
X209971000Y-106905000D02*
X211921000Y-106905000D01*
X209971000Y-112025000D02*
X208021000Y-112025000D01*
X209971000Y-112025000D02*
X211921000Y-112025000D01*
X207271000Y-107000000D02*
X207031000Y-106670000D01*
X207511000Y-106670000D01*
X207271000Y-107000000D01*
G36*
X207271000Y-107000000D02*
G01*
X207031000Y-106670000D01*
X207511000Y-106670000D01*
X207271000Y-107000000D01*
G37*
G04 #@! TO.C,R8*
X193731436Y-108650000D02*
X195185564Y-108650000D01*
X193731436Y-110470000D02*
X195185564Y-110470000D01*
G04 #@! TO.C,U4*
X126046000Y-100775000D02*
X124096000Y-100775000D01*
X126046000Y-100775000D02*
X127996000Y-100775000D01*
X126046000Y-109645000D02*
X124096000Y-109645000D01*
X126046000Y-109645000D02*
X127996000Y-109645000D01*
X123346000Y-100840000D02*
X123106000Y-100510000D01*
X123586000Y-100510000D01*
X123346000Y-100840000D01*
G36*
X123346000Y-100840000D02*
G01*
X123106000Y-100510000D01*
X123586000Y-100510000D01*
X123346000Y-100840000D01*
G37*
G04 #@! TO.C,R5*
X213006436Y-66825000D02*
X214460564Y-66825000D01*
X213006436Y-68645000D02*
X214460564Y-68645000D01*
G04 #@! TO.C,R2*
X213106436Y-46550000D02*
X214560564Y-46550000D01*
X213106436Y-48370000D02*
X214560564Y-48370000D01*
D14*
G04 #@! TO.C,U11*
X159723500Y-116210000D02*
X159723500Y-117100000D01*
X159723500Y-116210000D02*
X160613500Y-116210000D01*
X159723500Y-128410000D02*
X159723500Y-127520000D01*
X159723500Y-128410000D02*
X160613500Y-128410000D01*
X171923500Y-116210000D02*
X171033500Y-116210000D01*
X171923500Y-116210000D02*
X171923500Y-117100000D01*
X171923500Y-128410000D02*
X171033500Y-128410000D01*
X171923500Y-128410000D02*
X171923500Y-127520000D01*
D11*
X157483500Y-117560000D02*
G75*
G02*
X157283500Y-117560000I-100000J0D01*
G01*
X157283500Y-117560000D02*
G75*
G02*
X157483500Y-117560000I100000J0D01*
G01*
D13*
G04 #@! TO.C,R6*
X220606436Y-104050000D02*
X222060564Y-104050000D01*
X220606436Y-105870000D02*
X222060564Y-105870000D01*
G04 #@! TO.C,J6*
X205991000Y-121055000D02*
X207371000Y-121055000D01*
X205991000Y-122435000D02*
X205991000Y-121055000D01*
X205991000Y-123705000D02*
X205991000Y-126355000D01*
X205991000Y-123705000D02*
X208751000Y-123705000D01*
X205991000Y-126355000D02*
X208751000Y-126355000D01*
X208751000Y-123705000D02*
X208751000Y-126355000D01*
G04 #@! TO.C,R10*
X207406436Y-130875000D02*
X208860564Y-130875000D01*
X207406436Y-132695000D02*
X208860564Y-132695000D01*
G04 #@! TO.C,R9*
X213581436Y-130625000D02*
X215035564Y-130625000D01*
X213581436Y-132445000D02*
X215035564Y-132445000D01*
G04 #@! TO.C,C2*
X142409748Y-127775000D02*
X143832252Y-127775000D01*
X142409748Y-129595000D02*
X143832252Y-129595000D01*
G04 #@! TO.C,J10*
X94966000Y-55155000D02*
X96346000Y-55155000D01*
X94966000Y-56535000D02*
X94966000Y-55155000D01*
X94966000Y-57805000D02*
X94966000Y-80775000D01*
X94966000Y-57805000D02*
X97726000Y-57805000D01*
X94966000Y-80775000D02*
X97726000Y-80775000D01*
X97726000Y-57805000D02*
X97726000Y-80775000D01*
D15*
G04 #@! TO.C,IC1*
X152517000Y-100679000D02*
X152517000Y-76041000D01*
X153152000Y-75406000D02*
X177790000Y-75406000D01*
X153152000Y-101314000D02*
X176901000Y-101314000D01*
X153787000Y-80359000D02*
X153787000Y-81121000D01*
X153787000Y-81121000D02*
X154295000Y-81121000D01*
X153787000Y-81629000D02*
X153787000Y-82391000D01*
X153787000Y-82391000D02*
X154803000Y-82391000D01*
X153787000Y-82899000D02*
X153787000Y-83661000D01*
X153787000Y-83661000D02*
X154295000Y-83661000D01*
X153787000Y-84169000D02*
X153787000Y-84931000D01*
X153787000Y-84931000D02*
X154803000Y-84931000D01*
X153787000Y-85439000D02*
X153787000Y-86201000D01*
X153787000Y-86201000D02*
X154295000Y-86201000D01*
X153787000Y-86709000D02*
X154803000Y-86709000D01*
X153787000Y-87471000D02*
X153787000Y-86709000D01*
X153787000Y-87979000D02*
X154295000Y-87979000D01*
X153787000Y-88741000D02*
X153787000Y-87979000D01*
X153787000Y-89249000D02*
X154803000Y-89249000D01*
X153787000Y-90011000D02*
X153787000Y-89249000D01*
X153787000Y-90519000D02*
X154295000Y-90519000D01*
X153787000Y-91281000D02*
X153787000Y-90519000D01*
X153787000Y-91789000D02*
X154803000Y-91789000D01*
X153787000Y-92551000D02*
X153787000Y-91789000D01*
X153787000Y-93059000D02*
X154295000Y-93059000D01*
X153787000Y-93821000D02*
X153787000Y-93059000D01*
X153787000Y-94329000D02*
X153787000Y-95091000D01*
X153787000Y-95091000D02*
X154803000Y-95091000D01*
X153787000Y-95599000D02*
X154295000Y-95599000D01*
X153787000Y-96361000D02*
X153787000Y-95599000D01*
X153787000Y-99028000D02*
X154803000Y-100044000D01*
X153787000Y-99028000D02*
X155946000Y-96869000D01*
X154295000Y-80359000D02*
X153787000Y-80359000D01*
X154295000Y-82899000D02*
X153787000Y-82899000D01*
X154295000Y-85439000D02*
X153787000Y-85439000D01*
X154295000Y-88741000D02*
X153787000Y-88741000D01*
X154295000Y-91281000D02*
X153787000Y-91281000D01*
X154295000Y-93821000D02*
X153787000Y-93821000D01*
X154295000Y-96361000D02*
X153787000Y-96361000D01*
X154803000Y-81629000D02*
X153787000Y-81629000D01*
X154803000Y-84169000D02*
X153787000Y-84169000D01*
X154803000Y-87471000D02*
X153787000Y-87471000D01*
X154803000Y-90011000D02*
X153787000Y-90011000D01*
X154803000Y-92551000D02*
X153787000Y-92551000D01*
X154803000Y-94329000D02*
X153787000Y-94329000D01*
X154803000Y-100044000D02*
X156962000Y-97885000D01*
X155946000Y-78835000D02*
X155946000Y-80105000D01*
X155946000Y-96869000D02*
X155946000Y-96615000D01*
X156962000Y-97885000D02*
X157216000Y-97885000D01*
X157216000Y-78835000D02*
X155946000Y-78835000D01*
X157470000Y-76676000D02*
X157470000Y-77184000D01*
X157470000Y-99536000D02*
X157470000Y-100044000D01*
X157470000Y-100044000D02*
X158232000Y-100044000D01*
X158232000Y-76676000D02*
X157470000Y-76676000D01*
X158232000Y-77184000D02*
X158232000Y-76676000D01*
X158232000Y-100044000D02*
X158232000Y-99536000D01*
X158740000Y-76676000D02*
X158740000Y-77692000D01*
X158740000Y-99028000D02*
X158740000Y-100044000D01*
X158740000Y-100044000D02*
X159502000Y-100044000D01*
X159502000Y-76676000D02*
X158740000Y-76676000D01*
X159502000Y-77692000D02*
X159502000Y-76676000D01*
X159502000Y-100044000D02*
X159502000Y-99028000D01*
X160010000Y-76676000D02*
X160010000Y-77184000D01*
X160010000Y-99536000D02*
X160010000Y-100044000D01*
X160010000Y-100044000D02*
X160772000Y-100044000D01*
X160772000Y-76676000D02*
X160010000Y-76676000D01*
X160772000Y-77184000D02*
X160772000Y-76676000D01*
X160772000Y-100044000D02*
X160772000Y-99536000D01*
X161280000Y-76676000D02*
X161280000Y-77692000D01*
X161280000Y-99028000D02*
X161280000Y-100044000D01*
X161280000Y-100044000D02*
X162042000Y-100044000D01*
X162042000Y-76676000D02*
X161280000Y-76676000D01*
X162042000Y-77692000D02*
X162042000Y-76676000D01*
X162042000Y-100044000D02*
X162042000Y-99028000D01*
X162550000Y-76676000D02*
X162550000Y-77184000D01*
X162550000Y-99536000D02*
X162550000Y-100044000D01*
X162550000Y-100044000D02*
X163312000Y-100044000D01*
X163312000Y-76676000D02*
X162550000Y-76676000D01*
X163312000Y-77184000D02*
X163312000Y-76676000D01*
X163312000Y-100044000D02*
X163312000Y-99536000D01*
X163820000Y-76676000D02*
X163820000Y-77692000D01*
X163820000Y-99028000D02*
X163820000Y-100044000D01*
X163820000Y-100044000D02*
X164582000Y-100044000D01*
X164201000Y-93440000D02*
X165471000Y-94710000D01*
X164582000Y-76676000D02*
X163820000Y-76676000D01*
X164582000Y-77692000D02*
X164582000Y-76676000D01*
X164582000Y-100044000D02*
X164582000Y-99028000D01*
X165090000Y-76676000D02*
X165090000Y-77184000D01*
X165090000Y-99536000D02*
X165090000Y-100044000D01*
X165090000Y-100044000D02*
X165852000Y-100044000D01*
X165471000Y-94710000D02*
X166741000Y-93440000D01*
X165852000Y-76676000D02*
X165090000Y-76676000D01*
X165852000Y-77184000D02*
X165852000Y-76676000D01*
X165852000Y-100044000D02*
X165852000Y-99536000D01*
X166360000Y-76676000D02*
X166360000Y-77692000D01*
X166360000Y-99028000D02*
X166360000Y-100044000D01*
X166360000Y-100044000D02*
X167122000Y-100044000D01*
X166741000Y-93440000D02*
X164201000Y-93440000D01*
X167122000Y-76676000D02*
X166360000Y-76676000D01*
X167122000Y-77692000D02*
X167122000Y-76676000D01*
X167122000Y-100044000D02*
X167122000Y-99028000D01*
X167630000Y-76676000D02*
X167630000Y-77184000D01*
X167630000Y-99536000D02*
X167630000Y-100044000D01*
X167630000Y-100044000D02*
X168392000Y-100044000D01*
X168392000Y-76676000D02*
X167630000Y-76676000D01*
X168392000Y-77184000D02*
X168392000Y-76676000D01*
X168392000Y-100044000D02*
X168392000Y-99536000D01*
X168900000Y-76676000D02*
X168900000Y-77565000D01*
X168900000Y-99028000D02*
X168900000Y-100044000D01*
X168900000Y-100044000D02*
X169662000Y-100044000D01*
X169662000Y-76676000D02*
X168900000Y-76676000D01*
X169662000Y-77565000D02*
X169662000Y-76676000D01*
X169662000Y-100044000D02*
X169662000Y-99028000D01*
X170170000Y-76676000D02*
X170170000Y-77184000D01*
X170170000Y-99536000D02*
X170170000Y-100044000D01*
X170170000Y-100044000D02*
X170932000Y-100044000D01*
X170932000Y-76676000D02*
X170170000Y-76676000D01*
X170932000Y-77184000D02*
X170932000Y-76676000D01*
X170932000Y-100044000D02*
X170932000Y-99536000D01*
X171440000Y-76676000D02*
X171440000Y-77692000D01*
X171440000Y-99028000D02*
X171440000Y-100044000D01*
X171440000Y-100044000D02*
X172202000Y-100044000D01*
X172202000Y-76676000D02*
X171440000Y-76676000D01*
X172202000Y-77692000D02*
X172202000Y-76676000D01*
X172202000Y-100044000D02*
X172202000Y-99028000D01*
X172710000Y-76676000D02*
X172710000Y-77184000D01*
X172710000Y-99536000D02*
X172710000Y-100044000D01*
X172710000Y-100044000D02*
X173472000Y-100044000D01*
X173472000Y-76676000D02*
X172710000Y-76676000D01*
X173472000Y-77184000D02*
X173472000Y-76676000D01*
X173472000Y-100044000D02*
X173472000Y-99536000D01*
X173980000Y-78835000D02*
X173726000Y-78835000D01*
X174996000Y-79851000D02*
X174996000Y-80105000D01*
X174996000Y-96615000D02*
X173726000Y-97885000D01*
X176139000Y-76676000D02*
X173980000Y-78835000D01*
X176139000Y-76676000D02*
X177155000Y-77692000D01*
X176139000Y-82391000D02*
X177155000Y-82391000D01*
X176139000Y-84169000D02*
X177155000Y-84169000D01*
X176139000Y-86709000D02*
X177155000Y-86709000D01*
X176139000Y-89249000D02*
X177155000Y-89249000D01*
X176139000Y-92551000D02*
X177155000Y-92551000D01*
X176139000Y-95091000D02*
X177155000Y-95091000D01*
X176647000Y-80359000D02*
X177155000Y-80359000D01*
X176647000Y-82899000D02*
X177155000Y-82899000D01*
X176647000Y-85439000D02*
X177155000Y-85439000D01*
X176647000Y-87979000D02*
X177155000Y-87979000D01*
X176647000Y-91281000D02*
X177155000Y-91281000D01*
X176647000Y-93821000D02*
X177155000Y-93821000D01*
X176647000Y-96361000D02*
X177155000Y-96361000D01*
X176901000Y-101314000D02*
X178425000Y-99790000D01*
X177155000Y-77692000D02*
X174996000Y-79851000D01*
X177155000Y-80359000D02*
X177155000Y-81121000D01*
X177155000Y-81121000D02*
X176647000Y-81121000D01*
X177155000Y-81629000D02*
X176139000Y-81629000D01*
X177155000Y-82391000D02*
X177155000Y-81629000D01*
X177155000Y-82899000D02*
X177155000Y-83661000D01*
X177155000Y-83661000D02*
X176647000Y-83661000D01*
X177155000Y-84169000D02*
X177155000Y-84931000D01*
X177155000Y-84931000D02*
X176139000Y-84931000D01*
X177155000Y-85439000D02*
X177155000Y-86201000D01*
X177155000Y-86201000D02*
X176647000Y-86201000D01*
X177155000Y-86709000D02*
X177155000Y-87471000D01*
X177155000Y-87471000D02*
X176139000Y-87471000D01*
X177155000Y-87979000D02*
X177155000Y-88741000D01*
X177155000Y-88741000D02*
X176647000Y-88741000D01*
X177155000Y-89249000D02*
X177155000Y-90011000D01*
X177155000Y-90011000D02*
X176139000Y-90011000D01*
X177155000Y-90519000D02*
X176647000Y-90519000D01*
X177155000Y-91281000D02*
X177155000Y-90519000D01*
X177155000Y-91789000D02*
X176139000Y-91789000D01*
X177155000Y-92551000D02*
X177155000Y-91789000D01*
X177155000Y-93059000D02*
X176647000Y-93059000D01*
X177155000Y-93821000D02*
X177155000Y-93059000D01*
X177155000Y-94329000D02*
X176139000Y-94329000D01*
X177155000Y-95091000D02*
X177155000Y-94329000D01*
X177155000Y-95599000D02*
X176647000Y-95599000D01*
X177155000Y-96361000D02*
X177155000Y-95599000D01*
X178425000Y-99790000D02*
X178425000Y-76041000D01*
X152517000Y-76041000D02*
G75*
G02*
X153152000Y-75406000I635000J0D01*
G01*
X153152000Y-101314000D02*
G75*
G02*
X152517000Y-100679000I0J635000D01*
G01*
X177790000Y-75406000D02*
G75*
G02*
X178425000Y-76041000I1J-634999D01*
G01*
X164201000Y-85185000D02*
G75*
G02*
X160391000Y-85185000I-1905000J0D01*
G01*
X160391000Y-85185000D02*
G75*
G02*
X164201000Y-85185000I1905000J0D01*
G01*
X164201000Y-91535000D02*
G75*
G02*
X160391000Y-91535000I-1905000J0D01*
G01*
X160391000Y-91535000D02*
G75*
G02*
X164201000Y-91535000I1905000J0D01*
G01*
X170551000Y-85185000D02*
G75*
G02*
X166741000Y-85185000I-1905000J0D01*
G01*
X166741000Y-85185000D02*
G75*
G02*
X170551000Y-85185000I1905000J0D01*
G01*
X170551000Y-91535000D02*
G75*
G02*
X166741000Y-91535000I-1905000J0D01*
G01*
X166741000Y-91535000D02*
G75*
G02*
X170551000Y-91535000I1905000J0D01*
G01*
D16*
X164580936Y-93694000D02*
X164455000Y-93694000D01*
X164455000Y-93573230D01*
X164580936Y-93573230D01*
X164580936Y-93694000D01*
G36*
X164580936Y-93694000D02*
G01*
X164455000Y-93694000D01*
X164455000Y-93573230D01*
X164580936Y-93573230D01*
X164580936Y-93694000D01*
G37*
X164581417Y-93567000D02*
X164328000Y-93567000D01*
X164328000Y-93443330D01*
X164581417Y-93443330D01*
X164581417Y-93567000D01*
G36*
X164581417Y-93567000D02*
G01*
X164328000Y-93567000D01*
X164328000Y-93443330D01*
X164581417Y-93443330D01*
X164581417Y-93567000D01*
G37*
X164835941Y-93948000D02*
X164709000Y-93948000D01*
X164709000Y-93821510D01*
X164835941Y-93821510D01*
X164835941Y-93948000D01*
G36*
X164835941Y-93948000D02*
G01*
X164709000Y-93948000D01*
X164709000Y-93821510D01*
X164835941Y-93821510D01*
X164835941Y-93948000D01*
G37*
X165089807Y-94202000D02*
X164963000Y-94202000D01*
X164963000Y-94077900D01*
X165089807Y-94077900D01*
X165089807Y-94202000D01*
G36*
X165089807Y-94202000D02*
G01*
X164963000Y-94202000D01*
X164963000Y-94077900D01*
X165089807Y-94077900D01*
X165089807Y-94202000D01*
G37*
X165343886Y-94456000D02*
X165217000Y-94456000D01*
X165217000Y-94334380D01*
X165343886Y-94334380D01*
X165343886Y-94456000D01*
G36*
X165343886Y-94456000D02*
G01*
X165217000Y-94456000D01*
X165217000Y-94334380D01*
X165343886Y-94334380D01*
X165343886Y-94456000D01*
G37*
X165598049Y-94583000D02*
X165344000Y-94583000D01*
X165344000Y-94331290D01*
X165598049Y-94331290D01*
X165598049Y-94583000D01*
G36*
X165598049Y-94583000D02*
G01*
X165344000Y-94583000D01*
X165344000Y-94331290D01*
X165598049Y-94331290D01*
X165598049Y-94583000D01*
G37*
X165725027Y-94456000D02*
X165598000Y-94456000D01*
X165598000Y-94329640D01*
X165725027Y-94329640D01*
X165725027Y-94456000D01*
G36*
X165725027Y-94456000D02*
G01*
X165598000Y-94456000D01*
X165598000Y-94329640D01*
X165725027Y-94329640D01*
X165725027Y-94456000D01*
G37*
X165852667Y-94329000D02*
X165090000Y-94329000D01*
X165090000Y-94085000D01*
X165852667Y-94085000D01*
X165852667Y-94329000D01*
G36*
X165852667Y-94329000D02*
G01*
X165090000Y-94329000D01*
X165090000Y-94085000D01*
X165852667Y-94085000D01*
X165852667Y-94329000D01*
G37*
X165979606Y-94202000D02*
X165852000Y-94202000D01*
X165852000Y-94081820D01*
X165979606Y-94081820D01*
X165979606Y-94202000D01*
G36*
X165979606Y-94202000D02*
G01*
X165852000Y-94202000D01*
X165852000Y-94081820D01*
X165979606Y-94081820D01*
X165979606Y-94202000D01*
G37*
X165979831Y-93694000D02*
X164963000Y-93694000D01*
X164963000Y-91794610D01*
X165979831Y-91794610D01*
X165979831Y-93694000D01*
G36*
X165979831Y-93694000D02*
G01*
X164963000Y-93694000D01*
X164963000Y-91794610D01*
X165979831Y-91794610D01*
X165979831Y-93694000D01*
G37*
X166106765Y-94075000D02*
X164836000Y-94075000D01*
X164836000Y-93827580D01*
X166106765Y-93827580D01*
X166106765Y-94075000D01*
G36*
X166106765Y-94075000D02*
G01*
X164836000Y-94075000D01*
X164836000Y-93827580D01*
X166106765Y-93827580D01*
X166106765Y-94075000D01*
G37*
X166234313Y-93948000D02*
X166106000Y-93948000D01*
X166106000Y-93830410D01*
X166234313Y-93830410D01*
X166234313Y-93948000D01*
G36*
X166234313Y-93948000D02*
G01*
X166106000Y-93948000D01*
X166106000Y-93830410D01*
X166234313Y-93830410D01*
X166234313Y-93948000D01*
G37*
X166360112Y-93821000D02*
X164582000Y-93821000D01*
X164582000Y-93440640D01*
X166360112Y-93440640D01*
X166360112Y-93821000D01*
G36*
X166360112Y-93821000D02*
G01*
X164582000Y-93821000D01*
X164582000Y-93440640D01*
X166360112Y-93440640D01*
X166360112Y-93821000D01*
G37*
X166488860Y-93694000D02*
X166360000Y-93694000D01*
X166360000Y-93576530D01*
X166488860Y-93576530D01*
X166488860Y-93694000D01*
G36*
X166488860Y-93694000D02*
G01*
X166360000Y-93694000D01*
X166360000Y-93576530D01*
X166488860Y-93576530D01*
X166488860Y-93694000D01*
G37*
X166614620Y-93567000D02*
X166360000Y-93567000D01*
X166360000Y-93442760D01*
X166614620Y-93442760D01*
X166614620Y-93567000D01*
G36*
X166614620Y-93567000D02*
G01*
X166360000Y-93567000D01*
X166360000Y-93442760D01*
X166614620Y-93442760D01*
X166614620Y-93567000D01*
G37*
D14*
G04 #@! TO.C,J2*
X221696000Y-57435000D02*
X234096000Y-57435000D01*
X221696000Y-71435000D02*
X221696000Y-57435000D01*
X234096000Y-57435000D02*
X234096000Y-71435000D01*
X234096000Y-71435000D02*
X221696000Y-71435000D01*
D11*
X220997000Y-63135000D02*
G75*
G02*
X220797000Y-63135000I-100000J0D01*
G01*
X220797000Y-63135000D02*
G75*
G02*
X220997000Y-63135000I100000J0D01*
G01*
G04 #@! TD*
%LPC*%
D16*
G04 #@! TO.C,J2*
X229433000Y-62971000D02*
X229471000Y-62974000D01*
X229508000Y-62979000D01*
X229545000Y-62986000D01*
X229581000Y-62994000D01*
X229617000Y-63005000D01*
X229652000Y-63017000D01*
X229687000Y-63032000D01*
X229721000Y-63048000D01*
X229753000Y-63066000D01*
X229785000Y-63085000D01*
X229816000Y-63107000D01*
X229846000Y-63129000D01*
X229874000Y-63154000D01*
X229902000Y-63179000D01*
X229927000Y-63207000D01*
X229952000Y-63235000D01*
X229974000Y-63265000D01*
X229996000Y-63296000D01*
X230015000Y-63328000D01*
X230033000Y-63360000D01*
X230049000Y-63394000D01*
X230064000Y-63429000D01*
X230076000Y-63464000D01*
X230087000Y-63500000D01*
X230095000Y-63536000D01*
X230102000Y-63573000D01*
X230107000Y-63610000D01*
X230110000Y-63648000D01*
X230111000Y-63685000D01*
X230111000Y-64435000D01*
X230111000Y-65185000D01*
X230110000Y-65222000D01*
X230107000Y-65260000D01*
X230102000Y-65297000D01*
X230095000Y-65334000D01*
X230087000Y-65370000D01*
X230076000Y-65406000D01*
X230064000Y-65441000D01*
X230049000Y-65476000D01*
X230033000Y-65510000D01*
X230015000Y-65542000D01*
X229996000Y-65574000D01*
X229974000Y-65605000D01*
X229952000Y-65635000D01*
X229927000Y-65663000D01*
X229902000Y-65691000D01*
X229874000Y-65716000D01*
X229846000Y-65741000D01*
X229816000Y-65763000D01*
X229785000Y-65785000D01*
X229753000Y-65804000D01*
X229721000Y-65822000D01*
X229687000Y-65838000D01*
X229652000Y-65853000D01*
X229617000Y-65865000D01*
X229581000Y-65876000D01*
X229545000Y-65884000D01*
X229508000Y-65891000D01*
X229471000Y-65896000D01*
X229433000Y-65899000D01*
X229396000Y-65900000D01*
X229359000Y-65899000D01*
X229321000Y-65896000D01*
X229284000Y-65891000D01*
X229247000Y-65884000D01*
X229211000Y-65876000D01*
X229175000Y-65865000D01*
X229140000Y-65853000D01*
X229105000Y-65838000D01*
X229071000Y-65822000D01*
X229039000Y-65804000D01*
X229007000Y-65785000D01*
X228976000Y-65763000D01*
X228946000Y-65741000D01*
X228918000Y-65716000D01*
X228890000Y-65691000D01*
X228865000Y-65663000D01*
X228840000Y-65635000D01*
X228818000Y-65605000D01*
X228796000Y-65574000D01*
X228777000Y-65542000D01*
X228759000Y-65510000D01*
X228743000Y-65476000D01*
X228728000Y-65441000D01*
X228716000Y-65406000D01*
X228705000Y-65370000D01*
X228697000Y-65334000D01*
X228690000Y-65297000D01*
X228685000Y-65260000D01*
X228682000Y-65222000D01*
X228681000Y-65185000D01*
X228681000Y-64435000D01*
X228681000Y-63685000D01*
X228682000Y-63648000D01*
X228685000Y-63610000D01*
X228690000Y-63573000D01*
X228697000Y-63536000D01*
X228705000Y-63500000D01*
X228716000Y-63464000D01*
X228728000Y-63429000D01*
X228743000Y-63394000D01*
X228759000Y-63360000D01*
X228777000Y-63328000D01*
X228796000Y-63296000D01*
X228818000Y-63265000D01*
X228840000Y-63235000D01*
X228865000Y-63207000D01*
X228890000Y-63179000D01*
X228918000Y-63154000D01*
X228946000Y-63129000D01*
X228976000Y-63107000D01*
X229007000Y-63085000D01*
X229039000Y-63066000D01*
X229071000Y-63048000D01*
X229105000Y-63032000D01*
X229140000Y-63017000D01*
X229175000Y-63005000D01*
X229211000Y-62994000D01*
X229247000Y-62986000D01*
X229284000Y-62979000D01*
X229321000Y-62974000D01*
X229359000Y-62971000D01*
X229396000Y-62970000D01*
X229433000Y-62971000D01*
G36*
X229433000Y-62971000D02*
G01*
X229471000Y-62974000D01*
X229508000Y-62979000D01*
X229545000Y-62986000D01*
X229581000Y-62994000D01*
X229617000Y-63005000D01*
X229652000Y-63017000D01*
X229687000Y-63032000D01*
X229721000Y-63048000D01*
X229753000Y-63066000D01*
X229785000Y-63085000D01*
X229816000Y-63107000D01*
X229846000Y-63129000D01*
X229874000Y-63154000D01*
X229902000Y-63179000D01*
X229927000Y-63207000D01*
X229952000Y-63235000D01*
X229974000Y-63265000D01*
X229996000Y-63296000D01*
X230015000Y-63328000D01*
X230033000Y-63360000D01*
X230049000Y-63394000D01*
X230064000Y-63429000D01*
X230076000Y-63464000D01*
X230087000Y-63500000D01*
X230095000Y-63536000D01*
X230102000Y-63573000D01*
X230107000Y-63610000D01*
X230110000Y-63648000D01*
X230111000Y-63685000D01*
X230111000Y-64435000D01*
X230111000Y-65185000D01*
X230110000Y-65222000D01*
X230107000Y-65260000D01*
X230102000Y-65297000D01*
X230095000Y-65334000D01*
X230087000Y-65370000D01*
X230076000Y-65406000D01*
X230064000Y-65441000D01*
X230049000Y-65476000D01*
X230033000Y-65510000D01*
X230015000Y-65542000D01*
X229996000Y-65574000D01*
X229974000Y-65605000D01*
X229952000Y-65635000D01*
X229927000Y-65663000D01*
X229902000Y-65691000D01*
X229874000Y-65716000D01*
X229846000Y-65741000D01*
X229816000Y-65763000D01*
X229785000Y-65785000D01*
X229753000Y-65804000D01*
X229721000Y-65822000D01*
X229687000Y-65838000D01*
X229652000Y-65853000D01*
X229617000Y-65865000D01*
X229581000Y-65876000D01*
X229545000Y-65884000D01*
X229508000Y-65891000D01*
X229471000Y-65896000D01*
X229433000Y-65899000D01*
X229396000Y-65900000D01*
X229359000Y-65899000D01*
X229321000Y-65896000D01*
X229284000Y-65891000D01*
X229247000Y-65884000D01*
X229211000Y-65876000D01*
X229175000Y-65865000D01*
X229140000Y-65853000D01*
X229105000Y-65838000D01*
X229071000Y-65822000D01*
X229039000Y-65804000D01*
X229007000Y-65785000D01*
X228976000Y-65763000D01*
X228946000Y-65741000D01*
X228918000Y-65716000D01*
X228890000Y-65691000D01*
X228865000Y-65663000D01*
X228840000Y-65635000D01*
X228818000Y-65605000D01*
X228796000Y-65574000D01*
X228777000Y-65542000D01*
X228759000Y-65510000D01*
X228743000Y-65476000D01*
X228728000Y-65441000D01*
X228716000Y-65406000D01*
X228705000Y-65370000D01*
X228697000Y-65334000D01*
X228690000Y-65297000D01*
X228685000Y-65260000D01*
X228682000Y-65222000D01*
X228681000Y-65185000D01*
X228681000Y-64435000D01*
X228681000Y-63685000D01*
X228682000Y-63648000D01*
X228685000Y-63610000D01*
X228690000Y-63573000D01*
X228697000Y-63536000D01*
X228705000Y-63500000D01*
X228716000Y-63464000D01*
X228728000Y-63429000D01*
X228743000Y-63394000D01*
X228759000Y-63360000D01*
X228777000Y-63328000D01*
X228796000Y-63296000D01*
X228818000Y-63265000D01*
X228840000Y-63235000D01*
X228865000Y-63207000D01*
X228890000Y-63179000D01*
X228918000Y-63154000D01*
X228946000Y-63129000D01*
X228976000Y-63107000D01*
X229007000Y-63085000D01*
X229039000Y-63066000D01*
X229071000Y-63048000D01*
X229105000Y-63032000D01*
X229140000Y-63017000D01*
X229175000Y-63005000D01*
X229211000Y-62994000D01*
X229247000Y-62986000D01*
X229284000Y-62979000D01*
X229321000Y-62974000D01*
X229359000Y-62971000D01*
X229396000Y-62970000D01*
X229433000Y-62971000D01*
G37*
G04 #@! TD*
D17*
G04 #@! TO.C,R1*
X215658500Y-41500000D03*
X212733500Y-41500000D03*
G04 #@! TD*
D18*
G04 #@! TO.C,J9*
X196371000Y-120260000D03*
D19*
X196371000Y-122800000D03*
X196371000Y-125340000D03*
X196371000Y-127880000D03*
X196371000Y-130420000D03*
X196371000Y-132960000D03*
G04 #@! TD*
D17*
G04 #@! TO.C,R3*
X197796000Y-77235000D03*
X200721000Y-77235000D03*
G04 #@! TD*
D20*
G04 #@! TO.C,U3*
X124546000Y-116225000D03*
X124546000Y-117495000D03*
X124546000Y-118765000D03*
X124546000Y-120035000D03*
X124546000Y-121305000D03*
X124546000Y-122575000D03*
X124546000Y-123845000D03*
X129496000Y-123845000D03*
X129496000Y-122575000D03*
X129496000Y-121305000D03*
X129496000Y-120035000D03*
X129496000Y-118765000D03*
X129496000Y-117495000D03*
X129496000Y-116225000D03*
G04 #@! TD*
D21*
G04 #@! TO.C,H3*
X230500000Y-136865000D03*
G04 #@! TD*
D22*
G04 #@! TO.C,Q1*
X204333500Y-75272500D03*
X204333500Y-77172500D03*
X206608500Y-76222500D03*
G04 #@! TD*
D23*
G04 #@! TO.C,U5*
X217783500Y-127960000D03*
X220083500Y-127960000D03*
D24*
X220083500Y-121660000D03*
D23*
X222383500Y-127960000D03*
G04 #@! TD*
D25*
G04 #@! TO.C,J1*
X230250000Y-47000000D03*
D26*
X225750000Y-47000000D03*
G04 #@! TD*
D27*
G04 #@! TO.C,D1*
X189571000Y-127010000D03*
X186771000Y-127010000D03*
G04 #@! TD*
D28*
G04 #@! TO.C,BZ1*
X202346000Y-94285000D03*
X202346000Y-83285000D03*
D29*
X207346000Y-89285000D03*
D30*
X197346000Y-89285000D03*
G04 #@! TD*
D31*
G04 #@! TO.C,J5*
X227416000Y-112670000D03*
X227416000Y-106890000D03*
D32*
X226341000Y-112980000D03*
X226341000Y-112180000D03*
D33*
X226341000Y-111030000D03*
X226341000Y-110030000D03*
X226341000Y-109530000D03*
X226341000Y-108530000D03*
D32*
X226341000Y-107380000D03*
X226341000Y-106580000D03*
X226341000Y-106580000D03*
X226341000Y-107380000D03*
D33*
X226341000Y-108030000D03*
X226341000Y-109030000D03*
X226341000Y-110530000D03*
X226341000Y-111530000D03*
D32*
X226341000Y-112180000D03*
X226341000Y-112980000D03*
D34*
X226916000Y-114100000D03*
D35*
X231096000Y-114100000D03*
D34*
X226916000Y-105460000D03*
D35*
X231096000Y-105460000D03*
G04 #@! TD*
D36*
G04 #@! TO.C,Y1*
X93951000Y-124920000D03*
D37*
X109191000Y-124920000D03*
X109191000Y-117300000D03*
X93951000Y-117300000D03*
G04 #@! TD*
D21*
G04 #@! TO.C,H1*
X90250000Y-43000000D03*
G04 #@! TD*
D18*
G04 #@! TO.C,J4*
X109921000Y-134360000D03*
D19*
X107381000Y-134360000D03*
X104841000Y-134360000D03*
G04 #@! TD*
D17*
G04 #@! TO.C,R4*
X212571000Y-61010000D03*
X215496000Y-61010000D03*
G04 #@! TD*
D21*
G04 #@! TO.C,H4*
X203250000Y-45250000D03*
G04 #@! TD*
D17*
G04 #@! TO.C,R7*
X219883500Y-112285000D03*
X222808500Y-112285000D03*
G04 #@! TD*
D18*
G04 #@! TO.C,J8*
X205941000Y-135485000D03*
D19*
X208481000Y-135485000D03*
X211021000Y-135485000D03*
X213561000Y-135485000D03*
X216101000Y-135485000D03*
X218641000Y-135485000D03*
X221181000Y-135485000D03*
X223721000Y-135485000D03*
G04 #@! TD*
D18*
G04 #@! TO.C,J11*
X127346000Y-56535000D03*
D19*
X127346000Y-59075000D03*
X127346000Y-61615000D03*
X127346000Y-64155000D03*
X127346000Y-66695000D03*
X127346000Y-69235000D03*
X127346000Y-71775000D03*
X127346000Y-74315000D03*
X127346000Y-76855000D03*
X127346000Y-79395000D03*
G04 #@! TD*
D38*
G04 #@! TO.C,U2*
X173996000Y-55485000D03*
X173996000Y-54985000D03*
X173996000Y-54485000D03*
X173996000Y-53985000D03*
X173996000Y-53485000D03*
X173996000Y-52985000D03*
X173996000Y-52485000D03*
X173996000Y-51985000D03*
X173996000Y-51485000D03*
X173996000Y-50985000D03*
X173996000Y-50485000D03*
X173996000Y-49985000D03*
X173996000Y-49485000D03*
X173996000Y-48985000D03*
X173996000Y-48485000D03*
X173996000Y-47985000D03*
X173996000Y-47485000D03*
X173996000Y-46985000D03*
X173996000Y-46485000D03*
X173996000Y-45985000D03*
X173996000Y-45485000D03*
X173996000Y-44985000D03*
X173996000Y-44485000D03*
X173996000Y-43985000D03*
X154621000Y-43985000D03*
X154621000Y-44485000D03*
X154621000Y-44985000D03*
X154621000Y-45485000D03*
X154621000Y-45985000D03*
X154621000Y-46485000D03*
X154621000Y-46985000D03*
X154621000Y-47485000D03*
X154621000Y-47985000D03*
X154621000Y-48485000D03*
X154621000Y-48985000D03*
X154621000Y-49485000D03*
X154621000Y-49985000D03*
X154621000Y-50485000D03*
X154621000Y-50985000D03*
X154621000Y-51485000D03*
X154621000Y-51985000D03*
X154621000Y-52485000D03*
X154621000Y-52985000D03*
X154621000Y-53485000D03*
X154621000Y-53985000D03*
X154621000Y-54485000D03*
X154621000Y-54985000D03*
X154621000Y-55485000D03*
G04 #@! TD*
D39*
G04 #@! TO.C,J3*
X229346000Y-83755000D03*
X229346000Y-84855000D03*
X229346000Y-85955000D03*
X229346000Y-87055000D03*
X229346000Y-88155000D03*
X229346000Y-89255000D03*
X229346000Y-90355000D03*
X229346000Y-91455000D03*
D40*
X231946000Y-80085000D03*
X223646000Y-80085000D03*
X231946000Y-93835000D03*
X223646000Y-93835000D03*
G04 #@! TD*
D41*
G04 #@! TO.C,U6*
X207346000Y-107560000D03*
X207346000Y-108830000D03*
X207346000Y-110100000D03*
X207346000Y-111370000D03*
X212596000Y-111370000D03*
X212596000Y-110100000D03*
X212596000Y-108830000D03*
X212596000Y-107560000D03*
G04 #@! TD*
D17*
G04 #@! TO.C,R8*
X192996000Y-109560000D03*
X195921000Y-109560000D03*
G04 #@! TD*
D20*
G04 #@! TO.C,U4*
X123571000Y-101400000D03*
X123571000Y-102670000D03*
X123571000Y-103940000D03*
X123571000Y-105210000D03*
X123571000Y-106480000D03*
X123571000Y-107750000D03*
X123571000Y-109020000D03*
X128521000Y-109020000D03*
X128521000Y-107750000D03*
X128521000Y-106480000D03*
X128521000Y-105210000D03*
X128521000Y-103940000D03*
X128521000Y-102670000D03*
X128521000Y-101400000D03*
G04 #@! TD*
D17*
G04 #@! TO.C,R5*
X212271000Y-67735000D03*
X215196000Y-67735000D03*
G04 #@! TD*
G04 #@! TO.C,R2*
X212371000Y-47460000D03*
X215296000Y-47460000D03*
G04 #@! TD*
D42*
G04 #@! TO.C,U11*
X159143500Y-117560000D03*
X159143500Y-118060000D03*
X159143500Y-118560000D03*
X159143500Y-119060000D03*
X159143500Y-119560000D03*
X159143500Y-120060000D03*
X159143500Y-120560000D03*
X159143500Y-121060000D03*
X159143500Y-121560000D03*
X159143500Y-122060000D03*
X159143500Y-122560000D03*
X159143500Y-123060000D03*
X159143500Y-123560000D03*
X159143500Y-124060000D03*
X159143500Y-124560000D03*
X159143500Y-125060000D03*
X159143500Y-125560000D03*
X159143500Y-126060000D03*
X159143500Y-126560000D03*
X159143500Y-127060000D03*
D43*
X161073500Y-128990000D03*
X161573500Y-128990000D03*
X162073500Y-128990000D03*
X162573500Y-128990000D03*
X163073500Y-128990000D03*
X163573500Y-128990000D03*
X164073500Y-128990000D03*
X164573500Y-128990000D03*
X165073500Y-128990000D03*
X165573500Y-128990000D03*
X166073500Y-128990000D03*
X166573500Y-128990000D03*
X167073500Y-128990000D03*
X167573500Y-128990000D03*
X168073500Y-128990000D03*
X168573500Y-128990000D03*
X169073500Y-128990000D03*
X169573500Y-128990000D03*
X170073500Y-128990000D03*
X170573500Y-128990000D03*
D42*
X172503500Y-127060000D03*
X172503500Y-126560000D03*
X172503500Y-126060000D03*
X172503500Y-125560000D03*
X172503500Y-125060000D03*
X172503500Y-124560000D03*
X172503500Y-124060000D03*
X172503500Y-123560000D03*
X172503500Y-123060000D03*
X172503500Y-122560000D03*
X172503500Y-122060000D03*
X172503500Y-121560000D03*
X172503500Y-121060000D03*
X172503500Y-120560000D03*
X172503500Y-120060000D03*
X172503500Y-119560000D03*
X172503500Y-119060000D03*
X172503500Y-118560000D03*
X172503500Y-118060000D03*
X172503500Y-117560000D03*
D43*
X170573500Y-115630000D03*
X170073500Y-115630000D03*
X169573500Y-115630000D03*
X169073500Y-115630000D03*
X168573500Y-115630000D03*
X168073500Y-115630000D03*
X167573500Y-115630000D03*
X167073500Y-115630000D03*
X166573500Y-115630000D03*
X166073500Y-115630000D03*
X165573500Y-115630000D03*
X165073500Y-115630000D03*
X164573500Y-115630000D03*
X164073500Y-115630000D03*
X163573500Y-115630000D03*
X163073500Y-115630000D03*
X162573500Y-115630000D03*
X162073500Y-115630000D03*
X161573500Y-115630000D03*
X161073500Y-115630000D03*
G04 #@! TD*
D17*
G04 #@! TO.C,R6*
X219871000Y-104960000D03*
X222796000Y-104960000D03*
G04 #@! TD*
D18*
G04 #@! TO.C,J6*
X207371000Y-122435000D03*
D19*
X207371000Y-124975000D03*
G04 #@! TD*
D17*
G04 #@! TO.C,R10*
X206671000Y-131785000D03*
X209596000Y-131785000D03*
G04 #@! TD*
G04 #@! TO.C,R9*
X212846000Y-131535000D03*
X215771000Y-131535000D03*
G04 #@! TD*
D44*
G04 #@! TO.C,C2*
X141646000Y-128685000D03*
X144596000Y-128685000D03*
G04 #@! TD*
D18*
G04 #@! TO.C,J10*
X96346000Y-56535000D03*
D19*
X96346000Y-59075000D03*
X96346000Y-61615000D03*
X96346000Y-64155000D03*
X96346000Y-66695000D03*
X96346000Y-69235000D03*
X96346000Y-71775000D03*
X96346000Y-74315000D03*
X96346000Y-76855000D03*
X96346000Y-79395000D03*
G04 #@! TD*
D21*
G04 #@! TO.C,H2*
X90000000Y-136250000D03*
G04 #@! TD*
D45*
G04 #@! TO.C,IC1*
X165471000Y-98520000D03*
X165471000Y-95980000D03*
X168011000Y-98520000D03*
X168011000Y-95980000D03*
X170551000Y-98520000D03*
X170551000Y-95980000D03*
X173091000Y-98520000D03*
X175631000Y-95980000D03*
X173091000Y-95980000D03*
X175631000Y-93440000D03*
X173091000Y-93440000D03*
X175631000Y-90900000D03*
X173091000Y-90900000D03*
X175631000Y-88360000D03*
X173091000Y-88360000D03*
X175631000Y-85820000D03*
X173091000Y-85820000D03*
X175631000Y-83280000D03*
X173091000Y-83280000D03*
X175631000Y-80740000D03*
X173091000Y-78200000D03*
X173091000Y-80740000D03*
X170551000Y-78200000D03*
X170551000Y-80740000D03*
X168011000Y-78200000D03*
X168011000Y-80740000D03*
X165471000Y-78200000D03*
X165471000Y-80740000D03*
X162931000Y-78200000D03*
X162931000Y-80740000D03*
X160391000Y-78200000D03*
X160391000Y-80740000D03*
X157851000Y-78200000D03*
X155311000Y-80740000D03*
X157851000Y-80740000D03*
X155311000Y-83280000D03*
X157851000Y-83280000D03*
X155311000Y-85820000D03*
X157851000Y-85820000D03*
X155311000Y-88360000D03*
X157851000Y-88360000D03*
X155311000Y-90900000D03*
X157851000Y-90900000D03*
X157851000Y-93440000D03*
X155311000Y-93440000D03*
X155311000Y-95980000D03*
X157851000Y-98520000D03*
X157851000Y-95980000D03*
X160391000Y-98520000D03*
X160391000Y-95980000D03*
X162931000Y-98520000D03*
X162931000Y-95980000D03*
G04 #@! TD*
D46*
G04 #@! TO.C,J2*
X225596000Y-63135000D03*
D47*
X225596000Y-65735000D03*
X225596000Y-61035000D03*
X225596000Y-67835000D03*
X223096000Y-61035000D03*
X223096000Y-67835000D03*
G04 #@! TD*
%LPD*%
M02*
