G04 #@! TF.GenerationSoftware,KiCad,Pcbnew,9.0.1*
G04 #@! TF.CreationDate,2025-09-03T14:35:04-07:00*
G04 #@! TF.ProjectId,Project68,50726f6a-6563-4743-9638-2e6b69636164,rev?*
G04 #@! TF.SameCoordinates,Original*
G04 #@! TF.FileFunction,Legend,Bot*
G04 #@! TF.FilePolarity,Positive*
%FSLAX46Y46*%
G04 Gerber Fmt 4.6, Leading zero omitted, Abs format (unit mm)*
G04 Created by KiCad (PCBNEW 9.0.1) date 2025-09-03 14:35:04*
%MOMM*%
%LPD*%
G01*
G04 APERTURE LIST*
G04 Aperture macros list*
%AMRoundRect*
0 Rectangle with rounded corners*
0 $1 Rounding radius*
0 $2 $3 $4 $5 $6 $7 $8 $9 X,Y pos of 4 corners*
0 Add a 4 corners polygon primitive as box body*
4,1,4,$2,$3,$4,$5,$6,$7,$8,$9,$2,$3,0*
0 Add four circle primitives for the rounded corners*
1,1,$1+$1,$2,$3*
1,1,$1+$1,$4,$5*
1,1,$1+$1,$6,$7*
1,1,$1+$1,$8,$9*
0 Add four rect primitives between the rounded corners*
20,1,$1+$1,$2,$3,$4,$5,0*
20,1,$1+$1,$4,$5,$6,$7,0*
20,1,$1+$1,$6,$7,$8,$9,0*
20,1,$1+$1,$8,$9,$2,$3,0*%
G04 Aperture macros list end*
%ADD10C,0.010000*%
%ADD11R,1.700000X1.700000*%
%ADD12C,1.700000*%
%ADD13C,3.200000*%
%ADD14O,2.154000X4.104000*%
%ADD15O,3.604000X1.904000*%
%ADD16C,0.600000*%
%ADD17C,1.511200*%
%ADD18RoundRect,0.101600X0.654000X0.654000X-0.654000X0.654000X-0.654000X-0.654000X0.654000X-0.654000X0*%
%ADD19C,0.650000*%
%ADD20O,2.100000X1.000000*%
%ADD21O,1.800000X1.000000*%
%ADD22R,1.600000X1.600000*%
%ADD23C,1.600000*%
%ADD24C,1.524800*%
%ADD25RoundRect,0.102000X0.704000X-0.704000X0.704000X0.704000X-0.704000X0.704000X-0.704000X-0.704000X0*%
%ADD26C,1.612000*%
G04 APERTURE END LIST*
%LPC*%
D10*
G04 #@! TO.C,J2*
X229433000Y-62971000D02*
X229471000Y-62974000D01*
X229508000Y-62979000D01*
X229545000Y-62986000D01*
X229581000Y-62994000D01*
X229617000Y-63005000D01*
X229652000Y-63017000D01*
X229687000Y-63032000D01*
X229721000Y-63048000D01*
X229753000Y-63066000D01*
X229785000Y-63085000D01*
X229816000Y-63107000D01*
X229846000Y-63129000D01*
X229874000Y-63154000D01*
X229902000Y-63179000D01*
X229927000Y-63207000D01*
X229952000Y-63235000D01*
X229974000Y-63265000D01*
X229996000Y-63296000D01*
X230015000Y-63328000D01*
X230033000Y-63360000D01*
X230049000Y-63394000D01*
X230064000Y-63429000D01*
X230076000Y-63464000D01*
X230087000Y-63500000D01*
X230095000Y-63536000D01*
X230102000Y-63573000D01*
X230107000Y-63610000D01*
X230110000Y-63648000D01*
X230111000Y-63685000D01*
X230111000Y-64435000D01*
X230111000Y-65185000D01*
X230110000Y-65222000D01*
X230107000Y-65260000D01*
X230102000Y-65297000D01*
X230095000Y-65334000D01*
X230087000Y-65370000D01*
X230076000Y-65406000D01*
X230064000Y-65441000D01*
X230049000Y-65476000D01*
X230033000Y-65510000D01*
X230015000Y-65542000D01*
X229996000Y-65574000D01*
X229974000Y-65605000D01*
X229952000Y-65635000D01*
X229927000Y-65663000D01*
X229902000Y-65691000D01*
X229874000Y-65716000D01*
X229846000Y-65741000D01*
X229816000Y-65763000D01*
X229785000Y-65785000D01*
X229753000Y-65804000D01*
X229721000Y-65822000D01*
X229687000Y-65838000D01*
X229652000Y-65853000D01*
X229617000Y-65865000D01*
X229581000Y-65876000D01*
X229545000Y-65884000D01*
X229508000Y-65891000D01*
X229471000Y-65896000D01*
X229433000Y-65899000D01*
X229396000Y-65900000D01*
X229359000Y-65899000D01*
X229321000Y-65896000D01*
X229284000Y-65891000D01*
X229247000Y-65884000D01*
X229211000Y-65876000D01*
X229175000Y-65865000D01*
X229140000Y-65853000D01*
X229105000Y-65838000D01*
X229071000Y-65822000D01*
X229039000Y-65804000D01*
X229007000Y-65785000D01*
X228976000Y-65763000D01*
X228946000Y-65741000D01*
X228918000Y-65716000D01*
X228890000Y-65691000D01*
X228865000Y-65663000D01*
X228840000Y-65635000D01*
X228818000Y-65605000D01*
X228796000Y-65574000D01*
X228777000Y-65542000D01*
X228759000Y-65510000D01*
X228743000Y-65476000D01*
X228728000Y-65441000D01*
X228716000Y-65406000D01*
X228705000Y-65370000D01*
X228697000Y-65334000D01*
X228690000Y-65297000D01*
X228685000Y-65260000D01*
X228682000Y-65222000D01*
X228681000Y-65185000D01*
X228681000Y-64435000D01*
X228681000Y-63685000D01*
X228682000Y-63648000D01*
X228685000Y-63610000D01*
X228690000Y-63573000D01*
X228697000Y-63536000D01*
X228705000Y-63500000D01*
X228716000Y-63464000D01*
X228728000Y-63429000D01*
X228743000Y-63394000D01*
X228759000Y-63360000D01*
X228777000Y-63328000D01*
X228796000Y-63296000D01*
X228818000Y-63265000D01*
X228840000Y-63235000D01*
X228865000Y-63207000D01*
X228890000Y-63179000D01*
X228918000Y-63154000D01*
X228946000Y-63129000D01*
X228976000Y-63107000D01*
X229007000Y-63085000D01*
X229039000Y-63066000D01*
X229071000Y-63048000D01*
X229105000Y-63032000D01*
X229140000Y-63017000D01*
X229175000Y-63005000D01*
X229211000Y-62994000D01*
X229247000Y-62986000D01*
X229284000Y-62979000D01*
X229321000Y-62974000D01*
X229359000Y-62971000D01*
X229396000Y-62970000D01*
X229433000Y-62971000D01*
G36*
X229433000Y-62971000D02*
G01*
X229471000Y-62974000D01*
X229508000Y-62979000D01*
X229545000Y-62986000D01*
X229581000Y-62994000D01*
X229617000Y-63005000D01*
X229652000Y-63017000D01*
X229687000Y-63032000D01*
X229721000Y-63048000D01*
X229753000Y-63066000D01*
X229785000Y-63085000D01*
X229816000Y-63107000D01*
X229846000Y-63129000D01*
X229874000Y-63154000D01*
X229902000Y-63179000D01*
X229927000Y-63207000D01*
X229952000Y-63235000D01*
X229974000Y-63265000D01*
X229996000Y-63296000D01*
X230015000Y-63328000D01*
X230033000Y-63360000D01*
X230049000Y-63394000D01*
X230064000Y-63429000D01*
X230076000Y-63464000D01*
X230087000Y-63500000D01*
X230095000Y-63536000D01*
X230102000Y-63573000D01*
X230107000Y-63610000D01*
X230110000Y-63648000D01*
X230111000Y-63685000D01*
X230111000Y-64435000D01*
X230111000Y-65185000D01*
X230110000Y-65222000D01*
X230107000Y-65260000D01*
X230102000Y-65297000D01*
X230095000Y-65334000D01*
X230087000Y-65370000D01*
X230076000Y-65406000D01*
X230064000Y-65441000D01*
X230049000Y-65476000D01*
X230033000Y-65510000D01*
X230015000Y-65542000D01*
X229996000Y-65574000D01*
X229974000Y-65605000D01*
X229952000Y-65635000D01*
X229927000Y-65663000D01*
X229902000Y-65691000D01*
X229874000Y-65716000D01*
X229846000Y-65741000D01*
X229816000Y-65763000D01*
X229785000Y-65785000D01*
X229753000Y-65804000D01*
X229721000Y-65822000D01*
X229687000Y-65838000D01*
X229652000Y-65853000D01*
X229617000Y-65865000D01*
X229581000Y-65876000D01*
X229545000Y-65884000D01*
X229508000Y-65891000D01*
X229471000Y-65896000D01*
X229433000Y-65899000D01*
X229396000Y-65900000D01*
X229359000Y-65899000D01*
X229321000Y-65896000D01*
X229284000Y-65891000D01*
X229247000Y-65884000D01*
X229211000Y-65876000D01*
X229175000Y-65865000D01*
X229140000Y-65853000D01*
X229105000Y-65838000D01*
X229071000Y-65822000D01*
X229039000Y-65804000D01*
X229007000Y-65785000D01*
X228976000Y-65763000D01*
X228946000Y-65741000D01*
X228918000Y-65716000D01*
X228890000Y-65691000D01*
X228865000Y-65663000D01*
X228840000Y-65635000D01*
X228818000Y-65605000D01*
X228796000Y-65574000D01*
X228777000Y-65542000D01*
X228759000Y-65510000D01*
X228743000Y-65476000D01*
X228728000Y-65441000D01*
X228716000Y-65406000D01*
X228705000Y-65370000D01*
X228697000Y-65334000D01*
X228690000Y-65297000D01*
X228685000Y-65260000D01*
X228682000Y-65222000D01*
X228681000Y-65185000D01*
X228681000Y-64435000D01*
X228681000Y-63685000D01*
X228682000Y-63648000D01*
X228685000Y-63610000D01*
X228690000Y-63573000D01*
X228697000Y-63536000D01*
X228705000Y-63500000D01*
X228716000Y-63464000D01*
X228728000Y-63429000D01*
X228743000Y-63394000D01*
X228759000Y-63360000D01*
X228777000Y-63328000D01*
X228796000Y-63296000D01*
X228818000Y-63265000D01*
X228840000Y-63235000D01*
X228865000Y-63207000D01*
X228890000Y-63179000D01*
X228918000Y-63154000D01*
X228946000Y-63129000D01*
X228976000Y-63107000D01*
X229007000Y-63085000D01*
X229039000Y-63066000D01*
X229071000Y-63048000D01*
X229105000Y-63032000D01*
X229140000Y-63017000D01*
X229175000Y-63005000D01*
X229211000Y-62994000D01*
X229247000Y-62986000D01*
X229284000Y-62979000D01*
X229321000Y-62974000D01*
X229359000Y-62971000D01*
X229396000Y-62970000D01*
X229433000Y-62971000D01*
G37*
G04 #@! TD*
D11*
G04 #@! TO.C,J9*
X196371000Y-120260000D03*
D12*
X196371000Y-122800000D03*
X196371000Y-125340000D03*
X196371000Y-127880000D03*
X196371000Y-130420000D03*
X196371000Y-132960000D03*
G04 #@! TD*
D13*
G04 #@! TO.C,H3*
X230500000Y-136865000D03*
G04 #@! TD*
D14*
G04 #@! TO.C,J1*
X230250000Y-47000000D03*
D15*
X225750000Y-47000000D03*
G04 #@! TD*
D16*
G04 #@! TO.C,BZ1*
X202346000Y-94285000D03*
X202346000Y-83285000D03*
D17*
X207346000Y-89285000D03*
D18*
X197346000Y-89285000D03*
G04 #@! TD*
D19*
G04 #@! TO.C,J5*
X227416000Y-112670000D03*
X227416000Y-106890000D03*
D20*
X226916000Y-114100000D03*
D21*
X231096000Y-114100000D03*
D20*
X226916000Y-105460000D03*
D21*
X231096000Y-105460000D03*
G04 #@! TD*
D22*
G04 #@! TO.C,Y1*
X93951000Y-124920000D03*
D23*
X109191000Y-124920000D03*
X109191000Y-117300000D03*
X93951000Y-117300000D03*
G04 #@! TD*
D13*
G04 #@! TO.C,H1*
X90250000Y-43000000D03*
G04 #@! TD*
D11*
G04 #@! TO.C,J4*
X109921000Y-134360000D03*
D12*
X107381000Y-134360000D03*
X104841000Y-134360000D03*
G04 #@! TD*
D13*
G04 #@! TO.C,H4*
X203250000Y-45250000D03*
G04 #@! TD*
D11*
G04 #@! TO.C,J8*
X205941000Y-135485000D03*
D12*
X208481000Y-135485000D03*
X211021000Y-135485000D03*
X213561000Y-135485000D03*
X216101000Y-135485000D03*
X218641000Y-135485000D03*
X221181000Y-135485000D03*
X223721000Y-135485000D03*
G04 #@! TD*
D11*
G04 #@! TO.C,J11*
X127346000Y-56535000D03*
D12*
X127346000Y-59075000D03*
X127346000Y-61615000D03*
X127346000Y-64155000D03*
X127346000Y-66695000D03*
X127346000Y-69235000D03*
X127346000Y-71775000D03*
X127346000Y-74315000D03*
X127346000Y-76855000D03*
X127346000Y-79395000D03*
G04 #@! TD*
D11*
G04 #@! TO.C,J6*
X207371000Y-122435000D03*
D12*
X207371000Y-124975000D03*
G04 #@! TD*
D11*
G04 #@! TO.C,J10*
X96346000Y-56535000D03*
D12*
X96346000Y-59075000D03*
X96346000Y-61615000D03*
X96346000Y-64155000D03*
X96346000Y-66695000D03*
X96346000Y-69235000D03*
X96346000Y-71775000D03*
X96346000Y-74315000D03*
X96346000Y-76855000D03*
X96346000Y-79395000D03*
G04 #@! TD*
D13*
G04 #@! TO.C,H2*
X90000000Y-136250000D03*
G04 #@! TD*
D24*
G04 #@! TO.C,IC1*
X165471000Y-98520000D03*
X165471000Y-95980000D03*
X168011000Y-98520000D03*
X168011000Y-95980000D03*
X170551000Y-98520000D03*
X170551000Y-95980000D03*
X173091000Y-98520000D03*
X175631000Y-95980000D03*
X173091000Y-95980000D03*
X175631000Y-93440000D03*
X173091000Y-93440000D03*
X175631000Y-90900000D03*
X173091000Y-90900000D03*
X175631000Y-88360000D03*
X173091000Y-88360000D03*
X175631000Y-85820000D03*
X173091000Y-85820000D03*
X175631000Y-83280000D03*
X173091000Y-83280000D03*
X175631000Y-80740000D03*
X173091000Y-78200000D03*
X173091000Y-80740000D03*
X170551000Y-78200000D03*
X170551000Y-80740000D03*
X168011000Y-78200000D03*
X168011000Y-80740000D03*
X165471000Y-78200000D03*
X165471000Y-80740000D03*
X162931000Y-78200000D03*
X162931000Y-80740000D03*
X160391000Y-78200000D03*
X160391000Y-80740000D03*
X157851000Y-78200000D03*
X155311000Y-80740000D03*
X157851000Y-80740000D03*
X155311000Y-83280000D03*
X157851000Y-83280000D03*
X155311000Y-85820000D03*
X157851000Y-85820000D03*
X155311000Y-88360000D03*
X157851000Y-88360000D03*
X155311000Y-90900000D03*
X157851000Y-90900000D03*
X157851000Y-93440000D03*
X155311000Y-93440000D03*
X155311000Y-95980000D03*
X157851000Y-98520000D03*
X157851000Y-95980000D03*
X160391000Y-98520000D03*
X160391000Y-95980000D03*
X162931000Y-98520000D03*
X162931000Y-95980000D03*
G04 #@! TD*
D25*
G04 #@! TO.C,J2*
X225596000Y-63135000D03*
D26*
X225596000Y-65735000D03*
X225596000Y-61035000D03*
X225596000Y-67835000D03*
X223096000Y-61035000D03*
X223096000Y-67835000D03*
G04 #@! TD*
%LPD*%
M02*
