%TF.GenerationSoftware,KiCad,Pcbnew,9.0.1*%
%TF.CreationDate,2025-09-03T14:35:04-07:00*%
%TF.ProjectId,Project68,50726f6a-6563-4743-9638-2e6b69636164,rev?*%
%TF.SameCoordinates,Original*%
%TF.FileFunction,Drillmap*%
%TF.FilePolarity,Positive*%
%FSLAX45Y45*%
G04 Gerber Fmt 4.5, Leading zero omitted, Abs format (unit mm)*
G04 Created by KiCad (PCBNEW 9.0.1) date 2025-09-03 14:35:04*
%MOMM*%
%LPD*%
G01*
G04 APERTURE LIST*
%ADD10C,0.050000*%
%ADD11C,0.010000*%
%ADD12C,0.200000*%
%ADD13C,0.100000*%
%ADD14C,0.130000*%
G04 APERTURE END LIST*
D10*
X8575000Y-3948100D02*
X23480000Y-3948100D01*
X23480000Y-14300000D01*
X8575000Y-14300000D01*
X8575000Y-3948100D01*
D11*
X23255000Y-4185000D02*
X23255000Y-4365000D01*
X23255000Y-4365000D02*
X23425000Y-4365000D01*
X23255000Y-5035000D02*
X23255000Y-5215000D01*
X23255000Y-5215000D02*
X23425000Y-5215000D01*
X23425000Y-4185000D02*
X23255000Y-4185000D01*
X23425000Y-4365000D02*
X23425000Y-4185000D01*
X23425000Y-5035000D02*
X23255000Y-5035000D01*
X23425000Y-5215000D02*
X23425000Y-5035000D01*
X22904600Y-6333500D02*
X22974600Y-6333500D01*
X22904600Y-6553500D02*
X22904600Y-6333500D01*
X22974600Y-6333500D02*
X22974600Y-6553500D01*
X22974600Y-6553500D02*
X22904600Y-6553500D01*
D12*
D13*
X9717810Y-13746500D02*
X9747810Y-13776500D01*
X9747810Y-13746500D02*
X9717810Y-13776500D01*
X10012990Y-11104200D02*
X10042990Y-11134200D01*
X10042990Y-11104200D02*
X10012990Y-11134200D01*
X10308170Y-12572200D02*
X10338170Y-12602200D01*
X10338170Y-12572200D02*
X10308170Y-12602200D01*
X10781100Y-10973700D02*
X10811100Y-11003700D01*
X10811100Y-10973700D02*
X10781100Y-11003700D01*
X10795500Y-10868900D02*
X10825500Y-10898900D01*
X10825500Y-10868900D02*
X10795500Y-10898900D01*
X11935000Y-10460000D02*
X11965000Y-10490000D01*
X11965000Y-10460000D02*
X11935000Y-10490000D01*
X12019600Y-10887000D02*
X12049600Y-10917000D01*
X12049600Y-10887000D02*
X12019600Y-10917000D01*
X12332100Y-12477000D02*
X12362100Y-12507000D01*
X12362100Y-12477000D02*
X12332100Y-12507000D01*
X12435000Y-11310000D02*
X12465000Y-11340000D01*
X12465000Y-11310000D02*
X12435000Y-11340000D01*
X12610800Y-10477900D02*
X12640800Y-10507900D01*
X12640800Y-10477900D02*
X12610800Y-10507900D01*
X12621600Y-12046500D02*
X12651600Y-12076500D01*
X12651600Y-12046500D02*
X12621600Y-12076500D01*
X12630800Y-10258200D02*
X12660800Y-10288200D01*
X12660800Y-10258200D02*
X12630800Y-10288200D01*
X12650100Y-10810600D02*
X12680100Y-10840600D01*
X12680100Y-10810600D02*
X12650100Y-10840600D01*
X12669600Y-13159300D02*
X12699600Y-13189300D01*
X12699600Y-13159300D02*
X12669600Y-13189300D01*
X12964800Y-8755490D02*
X12994800Y-8785490D01*
X12994800Y-8755490D02*
X12964800Y-8785490D01*
X13023500Y-10620900D02*
X13053500Y-10650900D01*
X13053500Y-10620900D02*
X13023500Y-10650900D01*
X13169600Y-12113500D02*
X13199600Y-12143500D01*
X13199600Y-12113500D02*
X13169600Y-12143500D01*
X13233100Y-8728810D02*
X13263100Y-8758810D01*
X13263100Y-8728810D02*
X13233100Y-8758810D01*
X13260000Y-11985000D02*
X13290000Y-12015000D01*
X13290000Y-11985000D02*
X13260000Y-12015000D01*
X13265700Y-10522900D02*
X13295700Y-10552900D01*
X13295700Y-10522900D02*
X13265700Y-10552900D01*
X13466400Y-10919100D02*
X13496400Y-10949100D01*
X13496400Y-10919100D02*
X13466400Y-10949100D01*
X13555200Y-10886400D02*
X13585200Y-10916400D01*
X13585200Y-10886400D02*
X13555200Y-10916400D01*
X13872100Y-5291000D02*
X13902100Y-5321000D01*
X13902100Y-5291000D02*
X13872100Y-5321000D01*
X13968400Y-5369750D02*
X13998400Y-5399750D01*
X13998400Y-5369750D02*
X13968400Y-5399750D01*
X14048400Y-5427250D02*
X14078400Y-5457250D01*
X14078400Y-5427250D02*
X14048400Y-5457250D01*
X14124600Y-13121000D02*
X14154600Y-13151000D01*
X14154600Y-13121000D02*
X14124600Y-13151000D01*
X14194600Y-9863500D02*
X14224600Y-9893500D01*
X14224600Y-9863500D02*
X14194600Y-9893500D01*
X14335000Y-11860000D02*
X14365000Y-11890000D01*
X14365000Y-11860000D02*
X14335000Y-11890000D01*
X14420800Y-4567250D02*
X14450800Y-4597250D01*
X14450800Y-4567250D02*
X14420800Y-4597250D01*
X14422070Y-12470760D02*
X14452070Y-12500760D01*
X14452070Y-12470760D02*
X14422070Y-12500760D01*
X14435000Y-11660000D02*
X14465000Y-11690000D01*
X14465000Y-11660000D02*
X14435000Y-11690000D01*
X14605800Y-4462250D02*
X14635800Y-4492250D01*
X14635800Y-4462250D02*
X14605800Y-4492250D01*
X14654790Y-12642680D02*
X14684790Y-12672680D01*
X14684790Y-12642680D02*
X14654790Y-12672680D01*
X14666800Y-7111000D02*
X14696800Y-7141000D01*
X14696800Y-7111000D02*
X14666800Y-7141000D01*
X14680800Y-4387250D02*
X14710800Y-4417250D01*
X14710800Y-4387250D02*
X14680800Y-4417250D01*
X14730410Y-8414690D02*
X14760410Y-8444690D01*
X14760410Y-8414690D02*
X14730410Y-8444690D01*
X14731300Y-11691400D02*
X14761300Y-11721400D01*
X14761300Y-11691400D02*
X14731300Y-11721400D01*
X14766900Y-8195380D02*
X14796900Y-8225380D01*
X14796900Y-8195380D02*
X14766900Y-8225380D01*
X14844000Y-8755490D02*
X14874000Y-8785490D01*
X14874000Y-8755490D02*
X14844000Y-8785490D01*
X14879600Y-12141000D02*
X14909600Y-12171000D01*
X14909600Y-12141000D02*
X14879600Y-12171000D01*
X14904600Y-11781000D02*
X14934600Y-11811000D01*
X14934600Y-11781000D02*
X14904600Y-11811000D01*
X14919600Y-4473500D02*
X14949600Y-4503500D01*
X14949600Y-4473500D02*
X14919600Y-4503500D01*
X14953400Y-11577300D02*
X14983400Y-11607300D01*
X14983400Y-11577300D02*
X14953400Y-11607300D01*
X14982100Y-4433500D02*
X15012100Y-4463500D01*
X15012100Y-4433500D02*
X14982100Y-4463500D01*
X14985800Y-12447300D02*
X15015800Y-12477300D01*
X15015800Y-12447300D02*
X14985800Y-12477300D01*
X15010000Y-10185000D02*
X15040000Y-10215000D01*
X15040000Y-10185000D02*
X15010000Y-10215000D01*
X15037100Y-11556000D02*
X15067100Y-11586000D01*
X15067100Y-11556000D02*
X15037100Y-11586000D01*
X15137100Y-11533500D02*
X15167100Y-11563500D01*
X15167100Y-11533500D02*
X15137100Y-11563500D01*
X15139600Y-12421000D02*
X15169600Y-12451000D01*
X15169600Y-12421000D02*
X15139600Y-12451000D01*
X15219600Y-5663500D02*
X15249600Y-5693500D01*
X15249600Y-5663500D02*
X15219600Y-5693500D01*
X15234600Y-4783500D02*
X15264600Y-4813500D01*
X15264600Y-4783500D02*
X15234600Y-4813500D01*
X15244600Y-5513500D02*
X15274600Y-5543500D01*
X15274600Y-5513500D02*
X15244600Y-5543500D01*
X15245800Y-11489700D02*
X15275800Y-11519700D01*
X15275800Y-11489700D02*
X15245800Y-11519700D01*
X15269600Y-12738500D02*
X15299600Y-12768500D01*
X15299600Y-12738500D02*
X15269600Y-12768500D01*
X15300800Y-10810600D02*
X15330800Y-10840600D01*
X15330800Y-10810600D02*
X15300800Y-10840600D01*
X15314400Y-8232290D02*
X15344400Y-8262290D01*
X15344400Y-8232290D02*
X15314400Y-8262290D01*
X15319600Y-13446000D02*
X15349600Y-13476000D01*
X15349600Y-13446000D02*
X15319600Y-13476000D01*
X15336000Y-12519200D02*
X15366000Y-12549200D01*
X15366000Y-12519200D02*
X15336000Y-12549200D01*
X15355800Y-11482300D02*
X15385800Y-11512300D01*
X15385800Y-11482300D02*
X15355800Y-11512300D01*
X15390804Y-12834704D02*
X15420804Y-12864704D01*
X15420804Y-12834704D02*
X15390804Y-12864704D01*
X15419600Y-13063500D02*
X15449600Y-13093500D01*
X15449600Y-13063500D02*
X15419600Y-13093500D01*
X15442100Y-11468500D02*
X15472100Y-11498500D01*
X15472100Y-11468500D02*
X15442100Y-11498500D01*
X15490100Y-10157800D02*
X15520100Y-10187800D01*
X15520100Y-10157800D02*
X15490100Y-10187800D01*
X15510000Y-10060000D02*
X15540000Y-10090000D01*
X15540000Y-10060000D02*
X15510000Y-10090000D01*
X15519600Y-13163500D02*
X15549600Y-13193500D01*
X15549600Y-13163500D02*
X15519600Y-13193500D01*
X15554600Y-11441000D02*
X15584600Y-11471000D01*
X15584600Y-11441000D02*
X15554600Y-11471000D01*
X15682100Y-13446000D02*
X15712100Y-13476000D01*
X15712100Y-13446000D02*
X15682100Y-13476000D01*
X15685000Y-13010000D02*
X15715000Y-13040000D01*
X15715000Y-13010000D02*
X15685000Y-13040000D01*
X15707100Y-13918500D02*
X15737100Y-13948500D01*
X15737100Y-13918500D02*
X15707100Y-13948500D01*
X15720900Y-4903360D02*
X15750900Y-4933360D01*
X15750900Y-4903360D02*
X15720900Y-4933360D01*
X15724600Y-14033500D02*
X15754600Y-14063500D01*
X15754600Y-14033500D02*
X15724600Y-14063500D01*
X15747300Y-13102900D02*
X15777300Y-13132900D01*
X15777300Y-13102900D02*
X15747300Y-13132900D01*
X15912400Y-11494300D02*
X15942400Y-11524300D01*
X15942400Y-11494300D02*
X15912400Y-11524300D01*
X15963000Y-12801600D02*
X15993000Y-12831600D01*
X15993000Y-12801600D02*
X15963000Y-12831600D01*
X15993300Y-9414230D02*
X16023300Y-9444230D01*
X16023300Y-9414230D02*
X15993300Y-9444230D01*
X16012100Y-14063500D02*
X16042100Y-14093500D01*
X16042100Y-14063500D02*
X16012100Y-14093500D01*
X16170500Y-5139540D02*
X16200500Y-5169540D01*
X16200500Y-5139540D02*
X16170500Y-5169540D01*
X16172100Y-12298500D02*
X16202100Y-12328500D01*
X16202100Y-12298500D02*
X16172100Y-12328500D01*
X16184500Y-7934200D02*
X16214500Y-7964200D01*
X16214500Y-7934200D02*
X16184500Y-7964200D01*
X16200100Y-4935540D02*
X16230100Y-4965540D01*
X16230100Y-4935540D02*
X16200100Y-4965540D01*
X16212800Y-5231490D02*
X16242800Y-5261490D01*
X16242800Y-5231490D02*
X16212800Y-5261490D01*
X16222300Y-12532600D02*
X16252300Y-12562600D01*
X16252300Y-12532600D02*
X16222300Y-12562600D01*
X16249633Y-12318214D02*
X16279633Y-12348214D01*
X16279633Y-12318214D02*
X16249633Y-12348214D01*
X16250200Y-7581130D02*
X16280200Y-7611130D01*
X16280200Y-7581130D02*
X16250200Y-7611130D01*
X16265800Y-10412300D02*
X16295800Y-10442300D01*
X16295800Y-10412300D02*
X16265800Y-10442300D01*
X16287100Y-10533500D02*
X16317100Y-10563500D01*
X16317100Y-10533500D02*
X16287100Y-10563500D01*
X16309800Y-5311560D02*
X16339800Y-5341560D01*
X16339800Y-5311560D02*
X16309800Y-5341560D01*
X16324284Y-13158815D02*
X16354284Y-13188815D01*
X16354284Y-13158815D02*
X16324284Y-13188815D01*
X16459800Y-12551300D02*
X16489800Y-12581300D01*
X16489800Y-12551300D02*
X16459800Y-12581300D01*
X16467100Y-10578500D02*
X16497100Y-10608500D01*
X16497100Y-10578500D02*
X16467100Y-10608500D01*
X16525000Y-9713570D02*
X16555000Y-9743570D01*
X16555000Y-9713570D02*
X16525000Y-9743570D01*
X16529500Y-9996800D02*
X16559500Y-10026800D01*
X16559500Y-9996800D02*
X16529500Y-10026800D01*
X16602400Y-13038500D02*
X16632400Y-13068500D01*
X16632400Y-13038500D02*
X16602400Y-13068500D01*
X16645800Y-10564700D02*
X16675800Y-10594700D01*
X16675800Y-10564700D02*
X16645800Y-10594700D01*
X16656887Y-13576213D02*
X16686887Y-13606213D01*
X16686887Y-13576213D02*
X16656887Y-13606213D01*
X16660800Y-12195000D02*
X16690800Y-12225000D01*
X16690800Y-12195000D02*
X16660800Y-12225000D01*
X16680900Y-11224800D02*
X16710900Y-11254800D01*
X16710900Y-11224800D02*
X16680900Y-11254800D01*
X16709400Y-12371900D02*
X16739400Y-12401900D01*
X16739400Y-12371900D02*
X16709400Y-12401900D01*
X16774800Y-12543300D02*
X16804800Y-12573300D01*
X16804800Y-12543300D02*
X16774800Y-12573300D01*
X16799500Y-9342670D02*
X16829500Y-9372670D01*
X16829500Y-9342670D02*
X16799500Y-9372670D01*
X16814600Y-13538500D02*
X16844600Y-13568500D01*
X16844600Y-13538500D02*
X16814600Y-13568500D01*
X16832000Y-12755500D02*
X16862000Y-12785500D01*
X16862000Y-12755500D02*
X16832000Y-12785500D01*
X16857100Y-10523500D02*
X16887100Y-10553500D01*
X16887100Y-10523500D02*
X16857100Y-10553500D01*
X16932100Y-13513500D02*
X16962100Y-13543500D01*
X16962100Y-13513500D02*
X16932100Y-13543500D01*
X16977500Y-8342910D02*
X17007500Y-8372910D01*
X17007500Y-8342910D02*
X16977500Y-8372910D01*
X16987100Y-10523500D02*
X17017100Y-10553500D01*
X17017100Y-10523500D02*
X16987100Y-10553500D01*
X16999100Y-12293400D02*
X17029100Y-12323400D01*
X17029100Y-12293400D02*
X16999100Y-12323400D01*
X17057100Y-13463500D02*
X17087100Y-13493500D01*
X17087100Y-13463500D02*
X17057100Y-13493500D01*
X17097100Y-5508220D02*
X17127100Y-5538220D01*
X17127100Y-5508220D02*
X17097100Y-5538220D01*
X17112700Y-10485000D02*
X17142700Y-10515000D01*
X17142700Y-10485000D02*
X17112700Y-10515000D01*
X17197100Y-13401000D02*
X17227100Y-13431000D01*
X17227100Y-13401000D02*
X17197100Y-13431000D01*
X17219600Y-4913500D02*
X17249600Y-4943500D01*
X17249600Y-4913500D02*
X17219600Y-4943500D01*
X17224700Y-5323600D02*
X17254700Y-5353600D01*
X17254700Y-5323600D02*
X17224700Y-5353600D01*
X17349600Y-13356000D02*
X17379600Y-13386000D01*
X17379600Y-13356000D02*
X17349600Y-13386000D01*
X17442100Y-10801000D02*
X17472100Y-10831000D01*
X17472100Y-10801000D02*
X17442100Y-10831000D01*
X17464600Y-10966000D02*
X17494600Y-10996000D01*
X17494600Y-10966000D02*
X17464600Y-10996000D01*
X17469600Y-13291000D02*
X17499600Y-13321000D01*
X17499600Y-13291000D02*
X17469600Y-13321000D01*
X17484600Y-11053500D02*
X17514600Y-11083500D01*
X17514600Y-11053500D02*
X17484600Y-11083500D01*
X17501000Y-5609200D02*
X17531000Y-5639200D01*
X17531000Y-5609200D02*
X17501000Y-5639200D01*
X17504600Y-11226000D02*
X17534600Y-11256000D01*
X17534600Y-11226000D02*
X17504600Y-11256000D01*
X17507100Y-11326000D02*
X17537100Y-11356000D01*
X17537100Y-11326000D02*
X17507100Y-11356000D01*
X17707900Y-9658470D02*
X17737900Y-9688470D01*
X17737900Y-9658470D02*
X17707900Y-9688470D01*
X17714600Y-11486000D02*
X17744600Y-11516000D01*
X17744600Y-11486000D02*
X17714600Y-11516000D01*
X17727100Y-4291000D02*
X17757100Y-4321000D01*
X17757100Y-4291000D02*
X17727100Y-4321000D01*
X17728100Y-8062260D02*
X17758100Y-8092260D01*
X17758100Y-8062260D02*
X17728100Y-8092260D01*
X17732100Y-4383500D02*
X17762100Y-4413500D01*
X17762100Y-4383500D02*
X17732100Y-4413500D01*
X17737400Y-11202300D02*
X17767400Y-11232300D01*
X17767400Y-11202300D02*
X17737400Y-11232300D01*
X17739600Y-13023500D02*
X17769600Y-13053500D01*
X17769600Y-13023500D02*
X17739600Y-13053500D01*
X17786700Y-7918920D02*
X17816700Y-7948920D01*
X17816700Y-7918920D02*
X17786700Y-7948920D01*
X17788700Y-7786320D02*
X17818700Y-7816320D01*
X17818700Y-7786320D02*
X17788700Y-7816320D01*
X17794600Y-12923500D02*
X17824600Y-12953500D01*
X17824600Y-12923500D02*
X17794600Y-12953500D01*
X17797100Y-4436000D02*
X17827100Y-4466000D01*
X17827100Y-4436000D02*
X17797100Y-4466000D01*
X17809600Y-9293940D02*
X17839600Y-9323940D01*
X17839600Y-9293940D02*
X17809600Y-9323940D01*
X17820100Y-8766850D02*
X17850100Y-8796850D01*
X17850100Y-8766850D02*
X17820100Y-8796850D01*
X17827100Y-11488500D02*
X17857100Y-11518500D01*
X17857100Y-11488500D02*
X17827100Y-11518500D01*
X17856000Y-9385440D02*
X17886000Y-9415440D01*
X17886000Y-9385440D02*
X17856000Y-9415440D01*
X17879600Y-4493500D02*
X17909600Y-4523500D01*
X17909600Y-4493500D02*
X17879600Y-4523500D01*
X17910800Y-12579700D02*
X17940800Y-12609700D01*
X17940800Y-12579700D02*
X17910800Y-12609700D01*
X17933400Y-11492300D02*
X17963400Y-11522300D01*
X17963400Y-11492300D02*
X17933400Y-11522300D01*
X17942890Y-12923550D02*
X17972890Y-12953550D01*
X17972890Y-12923550D02*
X17942890Y-12953550D01*
X17970500Y-9036700D02*
X18000500Y-9066700D01*
X18000500Y-9036700D02*
X17970500Y-9066700D01*
X17982100Y-10248800D02*
X18012100Y-10278800D01*
X18012100Y-10248800D02*
X17982100Y-10278800D01*
X17984600Y-4538500D02*
X18014600Y-4568500D01*
X18014600Y-4538500D02*
X17984600Y-4568500D01*
X18039600Y-12361000D02*
X18069600Y-12391000D01*
X18069600Y-12361000D02*
X18039600Y-12391000D01*
X18042100Y-11508500D02*
X18072100Y-11538500D01*
X18072100Y-11508500D02*
X18042100Y-11538500D01*
X18060800Y-4577250D02*
X18090800Y-4607250D01*
X18090800Y-4577250D02*
X18060800Y-4607250D01*
X18073400Y-12806300D02*
X18103400Y-12836300D01*
X18103400Y-12806300D02*
X18073400Y-12836300D01*
X18076200Y-11331700D02*
X18106200Y-11361700D01*
X18106200Y-11331700D02*
X18076200Y-11361700D01*
X18087500Y-12905600D02*
X18117500Y-12935600D01*
X18117500Y-12905600D02*
X18087500Y-12935600D01*
X18097100Y-4656000D02*
X18127100Y-4686000D01*
X18127100Y-4656000D02*
X18097100Y-4686000D01*
X18182100Y-4673500D02*
X18212100Y-4703500D01*
X18212100Y-4673500D02*
X18182100Y-4703500D01*
X18318900Y-4618470D02*
X18348900Y-4648470D01*
X18348900Y-4618470D02*
X18318900Y-4648470D01*
X18444600Y-11138500D02*
X18474600Y-11168500D01*
X18474600Y-11138500D02*
X18444600Y-11168500D01*
X18509600Y-4986000D02*
X18539600Y-5016000D01*
X18539600Y-4986000D02*
X18509600Y-5016000D01*
X18573200Y-9360350D02*
X18603200Y-9390350D01*
X18603200Y-9360350D02*
X18573200Y-9390350D01*
X18573200Y-11044700D02*
X18603200Y-11074700D01*
X18603200Y-11044700D02*
X18573200Y-11074700D01*
X18580800Y-11789700D02*
X18610800Y-11819700D01*
X18610800Y-11789700D02*
X18580800Y-11819700D01*
X18599600Y-11613500D02*
X18629600Y-11643500D01*
X18629600Y-11613500D02*
X18599600Y-11643500D01*
X18602100Y-5003500D02*
X18632100Y-5033500D01*
X18632100Y-5003500D02*
X18602100Y-5033500D01*
X18614600Y-5101000D02*
X18644600Y-5131000D01*
X18644600Y-5101000D02*
X18614600Y-5131000D01*
X18724600Y-5096000D02*
X18754600Y-5126000D01*
X18754600Y-5096000D02*
X18724600Y-5126000D01*
X18737100Y-5746000D02*
X18767100Y-5776000D01*
X18767100Y-5746000D02*
X18737100Y-5776000D01*
X18747100Y-10691000D02*
X18777100Y-10721000D01*
X18777100Y-10691000D02*
X18747100Y-10721000D01*
X18812100Y-5678500D02*
X18842100Y-5708500D01*
X18842100Y-5678500D02*
X18812100Y-5708500D01*
X18819600Y-5153500D02*
X18849600Y-5183500D01*
X18849600Y-5153500D02*
X18819600Y-5183500D01*
X18847100Y-5438500D02*
X18877100Y-5468500D01*
X18877100Y-5438500D02*
X18847100Y-5468500D01*
X18899600Y-5216000D02*
X18929600Y-5246000D01*
X18929600Y-5216000D02*
X18899600Y-5246000D01*
X18916900Y-9096820D02*
X18946900Y-9126820D01*
X18946900Y-9096820D02*
X18916900Y-9126820D01*
X19004800Y-12517400D02*
X19034800Y-12547400D01*
X19034800Y-12517400D02*
X19004800Y-12547400D01*
X19122100Y-10810600D02*
X19152100Y-10840600D01*
X19152100Y-10810600D02*
X19122100Y-10840600D01*
X19538800Y-11613000D02*
X19568800Y-11643000D01*
X19568800Y-11613000D02*
X19538800Y-11643000D01*
X19769600Y-11113500D02*
X19799600Y-11143500D01*
X19799600Y-11113500D02*
X19769600Y-11143500D01*
X20694600Y-7338500D02*
X20724600Y-7368500D01*
X20724600Y-7338500D02*
X20694600Y-7368500D01*
X20824100Y-11231600D02*
X20854100Y-11261600D01*
X20854100Y-11231600D02*
X20824100Y-11261600D01*
X20855900Y-4645230D02*
X20885900Y-4675230D01*
X20885900Y-4645230D02*
X20855900Y-4675230D01*
X20934600Y-4058050D02*
X20964600Y-4088050D01*
X20964600Y-4058050D02*
X20934600Y-4088050D01*
X20994800Y-11691400D02*
X21024800Y-11721400D01*
X21024800Y-11691400D02*
X20994800Y-11721400D01*
X21114600Y-12963500D02*
X21144600Y-12993500D01*
X21144600Y-12963500D02*
X21114600Y-12993500D01*
X21236010Y-11457800D02*
X21266010Y-11487800D01*
X21266010Y-11457800D02*
X21236010Y-11487800D01*
X21419600Y-12663500D02*
X21449600Y-12693500D01*
X21449600Y-12663500D02*
X21419600Y-12693500D01*
X21468200Y-6380750D02*
X21498200Y-6410750D01*
X21498200Y-6380750D02*
X21468200Y-6410750D01*
X21525010Y-12901640D02*
X21555010Y-12931640D01*
X21555010Y-12901640D02*
X21525010Y-12931640D01*
X21934600Y-10954900D02*
X21964600Y-10984900D01*
X21964600Y-10954900D02*
X21934600Y-10984900D01*
X22387400Y-8848200D02*
X22417400Y-8878200D01*
X22417400Y-8848200D02*
X22387400Y-8878200D01*
X22387400Y-10894900D02*
X22417400Y-10924900D01*
X22417400Y-10894900D02*
X22387400Y-10924900D01*
X22490200Y-10663500D02*
X22520200Y-10693500D01*
X22520200Y-10663500D02*
X22490200Y-10693500D01*
X22701400Y-8644600D02*
X22731400Y-8674600D01*
X22731400Y-8644600D02*
X22701400Y-8674600D01*
X22846500Y-9222820D02*
X22876500Y-9252820D01*
X22876500Y-9222820D02*
X22846500Y-9252820D01*
X23025500Y-9216030D02*
X23055500Y-9246030D01*
X23055500Y-9216030D02*
X23025500Y-9246030D01*
X20756300Y-8611760D02*
G75*
G02*
X20706300Y-8611760I-25000J0D01*
G01*
X20706300Y-8611760D02*
G75*
G02*
X20756300Y-8611760I25000J0D01*
G01*
X22437200Y-11315800D02*
G75*
G02*
X22387200Y-11315800I-25000J0D01*
G01*
X22387200Y-11315800D02*
G75*
G02*
X22437200Y-11315800I25000J0D01*
G01*
X22459800Y-12576700D02*
G75*
G02*
X22409800Y-12576700I-25000J0D01*
G01*
X22409800Y-12576700D02*
G75*
G02*
X22459800Y-12576700I25000J0D01*
G01*
X22691600Y-10516000D02*
X22691600Y-10576000D01*
X22661600Y-10546000D02*
X22721600Y-10546000D01*
X22636600Y-10576000D02*
X22746600Y-10576000D01*
X22746600Y-10516000D02*
G75*
G02*
X22746600Y-10576000I0J-30000D01*
G01*
X22746600Y-10516000D02*
X22636600Y-10516000D01*
X22636600Y-10516000D02*
G75*
G03*
X22636600Y-10576000I0J-30000D01*
G01*
X22691600Y-11380000D02*
X22691600Y-11440000D01*
X22661600Y-11410000D02*
X22721600Y-11410000D01*
X22636600Y-11440000D02*
X22746600Y-11440000D01*
X22746600Y-11380000D02*
G75*
G02*
X22746600Y-11440000I0J-30000D01*
G01*
X22746600Y-11380000D02*
X22636600Y-11380000D01*
X22636600Y-11380000D02*
G75*
G03*
X22636600Y-11440000I0J-30000D01*
G01*
X23109600Y-10516000D02*
X23109600Y-10576000D01*
X23079600Y-10546000D02*
X23139600Y-10546000D01*
X23069600Y-10576000D02*
X23149600Y-10576000D01*
X23149600Y-10516000D02*
G75*
G02*
X23149600Y-10576000I0J-30000D01*
G01*
X23149600Y-10516000D02*
X23069600Y-10516000D01*
X23069600Y-10516000D02*
G75*
G03*
X23069600Y-10576000I0J-30000D01*
G01*
X23109600Y-11380000D02*
X23109600Y-11440000D01*
X23079600Y-11410000D02*
X23139600Y-11410000D01*
X23069600Y-11440000D02*
X23149600Y-11440000D01*
X23149600Y-11380000D02*
G75*
G02*
X23149600Y-11440000I0J-30000D01*
G01*
X23149600Y-11380000D02*
X23069600Y-11380000D01*
X23069600Y-11380000D02*
G75*
G03*
X23069600Y-11440000I0J-30000D01*
G01*
X22964349Y-6468249D02*
X22964349Y-6418751D01*
X22914851Y-6418751D01*
X22914851Y-6468249D01*
X22964349Y-6468249D01*
X22974600Y-6518500D02*
X22974600Y-6368500D01*
X22904600Y-6368500D02*
G75*
G02*
X22974600Y-6368500I35000J0D01*
G01*
X22904600Y-6368500D02*
X22904600Y-6518500D01*
X22904600Y-6518500D02*
G75*
G03*
X22974600Y-6518500I35000J0D01*
G01*
X9395100Y-11770000D02*
X9435100Y-11730000D01*
X9395100Y-11690000D01*
X9355100Y-11730000D01*
X9395100Y-11770000D01*
X9395100Y-12532000D02*
X9435100Y-12492000D01*
X9395100Y-12452000D01*
X9355100Y-12492000D01*
X9395100Y-12532000D01*
X10919100Y-11770000D02*
X10959100Y-11730000D01*
X10919100Y-11690000D01*
X10879100Y-11730000D01*
X10919100Y-11770000D01*
X10919100Y-12532000D02*
X10959100Y-12492000D01*
X10919100Y-12452000D01*
X10879100Y-12492000D01*
X10919100Y-12532000D01*
X19734600Y-8968500D02*
X19774600Y-8928500D01*
X19734600Y-8888500D01*
X19694600Y-8928500D01*
X19734600Y-8968500D01*
X20734600Y-8968500D02*
X20774600Y-8928500D01*
X20734600Y-8888500D01*
X20694600Y-8928500D01*
X20734600Y-8968500D01*
X15490460Y-8033360D02*
X15571740Y-8114640D01*
X15571740Y-8033360D02*
X15490460Y-8114640D01*
X15571740Y-8074000D02*
G75*
G02*
X15490460Y-8074000I-40640J0D01*
G01*
X15490460Y-8074000D02*
G75*
G02*
X15571740Y-8074000I40640J0D01*
G01*
X15490460Y-8287360D02*
X15571740Y-8368640D01*
X15571740Y-8287360D02*
X15490460Y-8368640D01*
X15571740Y-8328000D02*
G75*
G02*
X15490460Y-8328000I-40640J0D01*
G01*
X15490460Y-8328000D02*
G75*
G02*
X15571740Y-8328000I40640J0D01*
G01*
X15490460Y-8541360D02*
X15571740Y-8622640D01*
X15571740Y-8541360D02*
X15490460Y-8622640D01*
X15571740Y-8582000D02*
G75*
G02*
X15490460Y-8582000I-40640J0D01*
G01*
X15490460Y-8582000D02*
G75*
G02*
X15571740Y-8582000I40640J0D01*
G01*
X15490460Y-8795360D02*
X15571740Y-8876640D01*
X15571740Y-8795360D02*
X15490460Y-8876640D01*
X15571740Y-8836000D02*
G75*
G02*
X15490460Y-8836000I-40640J0D01*
G01*
X15490460Y-8836000D02*
G75*
G02*
X15571740Y-8836000I40640J0D01*
G01*
X15490460Y-9049360D02*
X15571740Y-9130640D01*
X15571740Y-9049360D02*
X15490460Y-9130640D01*
X15571740Y-9090000D02*
G75*
G02*
X15490460Y-9090000I-40640J0D01*
G01*
X15490460Y-9090000D02*
G75*
G02*
X15571740Y-9090000I40640J0D01*
G01*
X15490460Y-9303360D02*
X15571740Y-9384640D01*
X15571740Y-9303360D02*
X15490460Y-9384640D01*
X15571740Y-9344000D02*
G75*
G02*
X15490460Y-9344000I-40640J0D01*
G01*
X15490460Y-9344000D02*
G75*
G02*
X15571740Y-9344000I40640J0D01*
G01*
X15490460Y-9557360D02*
X15571740Y-9638640D01*
X15571740Y-9557360D02*
X15490460Y-9638640D01*
X15571740Y-9598000D02*
G75*
G02*
X15490460Y-9598000I-40640J0D01*
G01*
X15490460Y-9598000D02*
G75*
G02*
X15571740Y-9598000I40640J0D01*
G01*
X15744460Y-7779360D02*
X15825740Y-7860640D01*
X15825740Y-7779360D02*
X15744460Y-7860640D01*
X15825740Y-7820000D02*
G75*
G02*
X15744460Y-7820000I-40640J0D01*
G01*
X15744460Y-7820000D02*
G75*
G02*
X15825740Y-7820000I40640J0D01*
G01*
X15744460Y-8033360D02*
X15825740Y-8114640D01*
X15825740Y-8033360D02*
X15744460Y-8114640D01*
X15825740Y-8074000D02*
G75*
G02*
X15744460Y-8074000I-40640J0D01*
G01*
X15744460Y-8074000D02*
G75*
G02*
X15825740Y-8074000I40640J0D01*
G01*
X15744460Y-8287360D02*
X15825740Y-8368640D01*
X15825740Y-8287360D02*
X15744460Y-8368640D01*
X15825740Y-8328000D02*
G75*
G02*
X15744460Y-8328000I-40640J0D01*
G01*
X15744460Y-8328000D02*
G75*
G02*
X15825740Y-8328000I40640J0D01*
G01*
X15744460Y-8541360D02*
X15825740Y-8622640D01*
X15825740Y-8541360D02*
X15744460Y-8622640D01*
X15825740Y-8582000D02*
G75*
G02*
X15744460Y-8582000I-40640J0D01*
G01*
X15744460Y-8582000D02*
G75*
G02*
X15825740Y-8582000I40640J0D01*
G01*
X15744460Y-8795360D02*
X15825740Y-8876640D01*
X15825740Y-8795360D02*
X15744460Y-8876640D01*
X15825740Y-8836000D02*
G75*
G02*
X15744460Y-8836000I-40640J0D01*
G01*
X15744460Y-8836000D02*
G75*
G02*
X15825740Y-8836000I40640J0D01*
G01*
X15744460Y-9049360D02*
X15825740Y-9130640D01*
X15825740Y-9049360D02*
X15744460Y-9130640D01*
X15825740Y-9090000D02*
G75*
G02*
X15744460Y-9090000I-40640J0D01*
G01*
X15744460Y-9090000D02*
G75*
G02*
X15825740Y-9090000I40640J0D01*
G01*
X15744460Y-9303360D02*
X15825740Y-9384640D01*
X15825740Y-9303360D02*
X15744460Y-9384640D01*
X15825740Y-9344000D02*
G75*
G02*
X15744460Y-9344000I-40640J0D01*
G01*
X15744460Y-9344000D02*
G75*
G02*
X15825740Y-9344000I40640J0D01*
G01*
X15744460Y-9557360D02*
X15825740Y-9638640D01*
X15825740Y-9557360D02*
X15744460Y-9638640D01*
X15825740Y-9598000D02*
G75*
G02*
X15744460Y-9598000I-40640J0D01*
G01*
X15744460Y-9598000D02*
G75*
G02*
X15825740Y-9598000I40640J0D01*
G01*
X15744460Y-9811360D02*
X15825740Y-9892640D01*
X15825740Y-9811360D02*
X15744460Y-9892640D01*
X15825740Y-9852000D02*
G75*
G02*
X15744460Y-9852000I-40640J0D01*
G01*
X15744460Y-9852000D02*
G75*
G02*
X15825740Y-9852000I40640J0D01*
G01*
X15998460Y-7779360D02*
X16079740Y-7860640D01*
X16079740Y-7779360D02*
X15998460Y-7860640D01*
X16079740Y-7820000D02*
G75*
G02*
X15998460Y-7820000I-40640J0D01*
G01*
X15998460Y-7820000D02*
G75*
G02*
X16079740Y-7820000I40640J0D01*
G01*
X15998460Y-8033360D02*
X16079740Y-8114640D01*
X16079740Y-8033360D02*
X15998460Y-8114640D01*
X16079740Y-8074000D02*
G75*
G02*
X15998460Y-8074000I-40640J0D01*
G01*
X15998460Y-8074000D02*
G75*
G02*
X16079740Y-8074000I40640J0D01*
G01*
X15998460Y-9557360D02*
X16079740Y-9638640D01*
X16079740Y-9557360D02*
X15998460Y-9638640D01*
X16079740Y-9598000D02*
G75*
G02*
X15998460Y-9598000I-40640J0D01*
G01*
X15998460Y-9598000D02*
G75*
G02*
X16079740Y-9598000I40640J0D01*
G01*
X15998460Y-9811360D02*
X16079740Y-9892640D01*
X16079740Y-9811360D02*
X15998460Y-9892640D01*
X16079740Y-9852000D02*
G75*
G02*
X15998460Y-9852000I-40640J0D01*
G01*
X15998460Y-9852000D02*
G75*
G02*
X16079740Y-9852000I40640J0D01*
G01*
X16252460Y-7779360D02*
X16333740Y-7860640D01*
X16333740Y-7779360D02*
X16252460Y-7860640D01*
X16333740Y-7820000D02*
G75*
G02*
X16252460Y-7820000I-40640J0D01*
G01*
X16252460Y-7820000D02*
G75*
G02*
X16333740Y-7820000I40640J0D01*
G01*
X16252460Y-8033360D02*
X16333740Y-8114640D01*
X16333740Y-8033360D02*
X16252460Y-8114640D01*
X16333740Y-8074000D02*
G75*
G02*
X16252460Y-8074000I-40640J0D01*
G01*
X16252460Y-8074000D02*
G75*
G02*
X16333740Y-8074000I40640J0D01*
G01*
X16252460Y-9557360D02*
X16333740Y-9638640D01*
X16333740Y-9557360D02*
X16252460Y-9638640D01*
X16333740Y-9598000D02*
G75*
G02*
X16252460Y-9598000I-40640J0D01*
G01*
X16252460Y-9598000D02*
G75*
G02*
X16333740Y-9598000I40640J0D01*
G01*
X16252460Y-9811360D02*
X16333740Y-9892640D01*
X16333740Y-9811360D02*
X16252460Y-9892640D01*
X16333740Y-9852000D02*
G75*
G02*
X16252460Y-9852000I-40640J0D01*
G01*
X16252460Y-9852000D02*
G75*
G02*
X16333740Y-9852000I40640J0D01*
G01*
X16506460Y-7779360D02*
X16587740Y-7860640D01*
X16587740Y-7779360D02*
X16506460Y-7860640D01*
X16587740Y-7820000D02*
G75*
G02*
X16506460Y-7820000I-40640J0D01*
G01*
X16506460Y-7820000D02*
G75*
G02*
X16587740Y-7820000I40640J0D01*
G01*
X16506460Y-8033360D02*
X16587740Y-8114640D01*
X16587740Y-8033360D02*
X16506460Y-8114640D01*
X16587740Y-8074000D02*
G75*
G02*
X16506460Y-8074000I-40640J0D01*
G01*
X16506460Y-8074000D02*
G75*
G02*
X16587740Y-8074000I40640J0D01*
G01*
X16506460Y-9557360D02*
X16587740Y-9638640D01*
X16587740Y-9557360D02*
X16506460Y-9638640D01*
X16587740Y-9598000D02*
G75*
G02*
X16506460Y-9598000I-40640J0D01*
G01*
X16506460Y-9598000D02*
G75*
G02*
X16587740Y-9598000I40640J0D01*
G01*
X16506460Y-9811360D02*
X16587740Y-9892640D01*
X16587740Y-9811360D02*
X16506460Y-9892640D01*
X16587740Y-9852000D02*
G75*
G02*
X16506460Y-9852000I-40640J0D01*
G01*
X16506460Y-9852000D02*
G75*
G02*
X16587740Y-9852000I40640J0D01*
G01*
X16760460Y-7779360D02*
X16841740Y-7860640D01*
X16841740Y-7779360D02*
X16760460Y-7860640D01*
X16841740Y-7820000D02*
G75*
G02*
X16760460Y-7820000I-40640J0D01*
G01*
X16760460Y-7820000D02*
G75*
G02*
X16841740Y-7820000I40640J0D01*
G01*
X16760460Y-8033360D02*
X16841740Y-8114640D01*
X16841740Y-8033360D02*
X16760460Y-8114640D01*
X16841740Y-8074000D02*
G75*
G02*
X16760460Y-8074000I-40640J0D01*
G01*
X16760460Y-8074000D02*
G75*
G02*
X16841740Y-8074000I40640J0D01*
G01*
X16760460Y-9557360D02*
X16841740Y-9638640D01*
X16841740Y-9557360D02*
X16760460Y-9638640D01*
X16841740Y-9598000D02*
G75*
G02*
X16760460Y-9598000I-40640J0D01*
G01*
X16760460Y-9598000D02*
G75*
G02*
X16841740Y-9598000I40640J0D01*
G01*
X16760460Y-9811360D02*
X16841740Y-9892640D01*
X16841740Y-9811360D02*
X16760460Y-9892640D01*
X16841740Y-9852000D02*
G75*
G02*
X16760460Y-9852000I-40640J0D01*
G01*
X16760460Y-9852000D02*
G75*
G02*
X16841740Y-9852000I40640J0D01*
G01*
X17014460Y-7779360D02*
X17095740Y-7860640D01*
X17095740Y-7779360D02*
X17014460Y-7860640D01*
X17095740Y-7820000D02*
G75*
G02*
X17014460Y-7820000I-40640J0D01*
G01*
X17014460Y-7820000D02*
G75*
G02*
X17095740Y-7820000I40640J0D01*
G01*
X17014460Y-8033360D02*
X17095740Y-8114640D01*
X17095740Y-8033360D02*
X17014460Y-8114640D01*
X17095740Y-8074000D02*
G75*
G02*
X17014460Y-8074000I-40640J0D01*
G01*
X17014460Y-8074000D02*
G75*
G02*
X17095740Y-8074000I40640J0D01*
G01*
X17014460Y-9557360D02*
X17095740Y-9638640D01*
X17095740Y-9557360D02*
X17014460Y-9638640D01*
X17095740Y-9598000D02*
G75*
G02*
X17014460Y-9598000I-40640J0D01*
G01*
X17014460Y-9598000D02*
G75*
G02*
X17095740Y-9598000I40640J0D01*
G01*
X17014460Y-9811360D02*
X17095740Y-9892640D01*
X17095740Y-9811360D02*
X17014460Y-9892640D01*
X17095740Y-9852000D02*
G75*
G02*
X17014460Y-9852000I-40640J0D01*
G01*
X17014460Y-9852000D02*
G75*
G02*
X17095740Y-9852000I40640J0D01*
G01*
X17268460Y-7779360D02*
X17349740Y-7860640D01*
X17349740Y-7779360D02*
X17268460Y-7860640D01*
X17349740Y-7820000D02*
G75*
G02*
X17268460Y-7820000I-40640J0D01*
G01*
X17268460Y-7820000D02*
G75*
G02*
X17349740Y-7820000I40640J0D01*
G01*
X17268460Y-8033360D02*
X17349740Y-8114640D01*
X17349740Y-8033360D02*
X17268460Y-8114640D01*
X17349740Y-8074000D02*
G75*
G02*
X17268460Y-8074000I-40640J0D01*
G01*
X17268460Y-8074000D02*
G75*
G02*
X17349740Y-8074000I40640J0D01*
G01*
X17268460Y-8287360D02*
X17349740Y-8368640D01*
X17349740Y-8287360D02*
X17268460Y-8368640D01*
X17349740Y-8328000D02*
G75*
G02*
X17268460Y-8328000I-40640J0D01*
G01*
X17268460Y-8328000D02*
G75*
G02*
X17349740Y-8328000I40640J0D01*
G01*
X17268460Y-8541360D02*
X17349740Y-8622640D01*
X17349740Y-8541360D02*
X17268460Y-8622640D01*
X17349740Y-8582000D02*
G75*
G02*
X17268460Y-8582000I-40640J0D01*
G01*
X17268460Y-8582000D02*
G75*
G02*
X17349740Y-8582000I40640J0D01*
G01*
X17268460Y-8795360D02*
X17349740Y-8876640D01*
X17349740Y-8795360D02*
X17268460Y-8876640D01*
X17349740Y-8836000D02*
G75*
G02*
X17268460Y-8836000I-40640J0D01*
G01*
X17268460Y-8836000D02*
G75*
G02*
X17349740Y-8836000I40640J0D01*
G01*
X17268460Y-9049360D02*
X17349740Y-9130640D01*
X17349740Y-9049360D02*
X17268460Y-9130640D01*
X17349740Y-9090000D02*
G75*
G02*
X17268460Y-9090000I-40640J0D01*
G01*
X17268460Y-9090000D02*
G75*
G02*
X17349740Y-9090000I40640J0D01*
G01*
X17268460Y-9303360D02*
X17349740Y-9384640D01*
X17349740Y-9303360D02*
X17268460Y-9384640D01*
X17349740Y-9344000D02*
G75*
G02*
X17268460Y-9344000I-40640J0D01*
G01*
X17268460Y-9344000D02*
G75*
G02*
X17349740Y-9344000I40640J0D01*
G01*
X17268460Y-9557360D02*
X17349740Y-9638640D01*
X17349740Y-9557360D02*
X17268460Y-9638640D01*
X17349740Y-9598000D02*
G75*
G02*
X17268460Y-9598000I-40640J0D01*
G01*
X17268460Y-9598000D02*
G75*
G02*
X17349740Y-9598000I40640J0D01*
G01*
X17268460Y-9811360D02*
X17349740Y-9892640D01*
X17349740Y-9811360D02*
X17268460Y-9892640D01*
X17349740Y-9852000D02*
G75*
G02*
X17268460Y-9852000I-40640J0D01*
G01*
X17268460Y-9852000D02*
G75*
G02*
X17349740Y-9852000I40640J0D01*
G01*
X17522460Y-8033360D02*
X17603740Y-8114640D01*
X17603740Y-8033360D02*
X17522460Y-8114640D01*
X17603740Y-8074000D02*
G75*
G02*
X17522460Y-8074000I-40640J0D01*
G01*
X17522460Y-8074000D02*
G75*
G02*
X17603740Y-8074000I40640J0D01*
G01*
X17522460Y-8287360D02*
X17603740Y-8368640D01*
X17603740Y-8287360D02*
X17522460Y-8368640D01*
X17603740Y-8328000D02*
G75*
G02*
X17522460Y-8328000I-40640J0D01*
G01*
X17522460Y-8328000D02*
G75*
G02*
X17603740Y-8328000I40640J0D01*
G01*
X17522460Y-8541360D02*
X17603740Y-8622640D01*
X17603740Y-8541360D02*
X17522460Y-8622640D01*
X17603740Y-8582000D02*
G75*
G02*
X17522460Y-8582000I-40640J0D01*
G01*
X17522460Y-8582000D02*
G75*
G02*
X17603740Y-8582000I40640J0D01*
G01*
X17522460Y-8795360D02*
X17603740Y-8876640D01*
X17603740Y-8795360D02*
X17522460Y-8876640D01*
X17603740Y-8836000D02*
G75*
G02*
X17522460Y-8836000I-40640J0D01*
G01*
X17522460Y-8836000D02*
G75*
G02*
X17603740Y-8836000I40640J0D01*
G01*
X17522460Y-9049360D02*
X17603740Y-9130640D01*
X17603740Y-9049360D02*
X17522460Y-9130640D01*
X17603740Y-9090000D02*
G75*
G02*
X17522460Y-9090000I-40640J0D01*
G01*
X17522460Y-9090000D02*
G75*
G02*
X17603740Y-9090000I40640J0D01*
G01*
X17522460Y-9303360D02*
X17603740Y-9384640D01*
X17603740Y-9303360D02*
X17522460Y-9384640D01*
X17603740Y-9344000D02*
G75*
G02*
X17522460Y-9344000I-40640J0D01*
G01*
X17522460Y-9344000D02*
G75*
G02*
X17603740Y-9344000I40640J0D01*
G01*
X17522460Y-9557360D02*
X17603740Y-9638640D01*
X17603740Y-9557360D02*
X17522460Y-9638640D01*
X17603740Y-9598000D02*
G75*
G02*
X17522460Y-9598000I-40640J0D01*
G01*
X17522460Y-9598000D02*
G75*
G02*
X17603740Y-9598000I40640J0D01*
G01*
X22264600Y-6058500D02*
X22354600Y-6148500D01*
X22354600Y-6058500D02*
X22264600Y-6148500D01*
X22309600Y-6058500D02*
X22309600Y-6148500D01*
X22264600Y-6103500D02*
X22354600Y-6103500D01*
X22264600Y-6738500D02*
X22354600Y-6828500D01*
X22354600Y-6738500D02*
X22264600Y-6828500D01*
X22309600Y-6738500D02*
X22309600Y-6828500D01*
X22264600Y-6783500D02*
X22354600Y-6783500D01*
X22514600Y-6058500D02*
X22604600Y-6148500D01*
X22604600Y-6058500D02*
X22514600Y-6148500D01*
X22559600Y-6058500D02*
X22559600Y-6148500D01*
X22514600Y-6103500D02*
X22604600Y-6103500D01*
X22514600Y-6268500D02*
X22604600Y-6358500D01*
X22604600Y-6268500D02*
X22514600Y-6358500D01*
X22559600Y-6268500D02*
X22559600Y-6358500D01*
X22514600Y-6313500D02*
X22604600Y-6313500D01*
X22514600Y-6528500D02*
X22604600Y-6618500D01*
X22604600Y-6528500D02*
X22514600Y-6618500D01*
X22559600Y-6528500D02*
X22559600Y-6618500D01*
X22514600Y-6573500D02*
X22604600Y-6573500D01*
X22514600Y-6738500D02*
X22604600Y-6828500D01*
X22604600Y-6738500D02*
X22514600Y-6828500D01*
X22559600Y-6738500D02*
X22559600Y-6828500D01*
X22514600Y-6783500D02*
X22604600Y-6783500D01*
X9584600Y-5603500D02*
X9684600Y-5703500D01*
X9684600Y-5603500D02*
X9584600Y-5703500D01*
X9669956Y-5688856D02*
X9669956Y-5618144D01*
X9599244Y-5618144D01*
X9599244Y-5688856D01*
X9669956Y-5688856D01*
X9584600Y-5857500D02*
X9684600Y-5957500D01*
X9684600Y-5857500D02*
X9584600Y-5957500D01*
X9669956Y-5942856D02*
X9669956Y-5872144D01*
X9599244Y-5872144D01*
X9599244Y-5942856D01*
X9669956Y-5942856D01*
X9584600Y-6111500D02*
X9684600Y-6211500D01*
X9684600Y-6111500D02*
X9584600Y-6211500D01*
X9669956Y-6196856D02*
X9669956Y-6126144D01*
X9599244Y-6126144D01*
X9599244Y-6196856D01*
X9669956Y-6196856D01*
X9584600Y-6365500D02*
X9684600Y-6465500D01*
X9684600Y-6365500D02*
X9584600Y-6465500D01*
X9669956Y-6450856D02*
X9669956Y-6380144D01*
X9599244Y-6380144D01*
X9599244Y-6450856D01*
X9669956Y-6450856D01*
X9584600Y-6619500D02*
X9684600Y-6719500D01*
X9684600Y-6619500D02*
X9584600Y-6719500D01*
X9669956Y-6704856D02*
X9669956Y-6634144D01*
X9599244Y-6634144D01*
X9599244Y-6704856D01*
X9669956Y-6704856D01*
X9584600Y-6873500D02*
X9684600Y-6973500D01*
X9684600Y-6873500D02*
X9584600Y-6973500D01*
X9669956Y-6958856D02*
X9669956Y-6888144D01*
X9599244Y-6888144D01*
X9599244Y-6958856D01*
X9669956Y-6958856D01*
X9584600Y-7127500D02*
X9684600Y-7227500D01*
X9684600Y-7127500D02*
X9584600Y-7227500D01*
X9669956Y-7212856D02*
X9669956Y-7142144D01*
X9599244Y-7142144D01*
X9599244Y-7212856D01*
X9669956Y-7212856D01*
X9584600Y-7381500D02*
X9684600Y-7481500D01*
X9684600Y-7381500D02*
X9584600Y-7481500D01*
X9669956Y-7466856D02*
X9669956Y-7396144D01*
X9599244Y-7396144D01*
X9599244Y-7466856D01*
X9669956Y-7466856D01*
X9584600Y-7635500D02*
X9684600Y-7735500D01*
X9684600Y-7635500D02*
X9584600Y-7735500D01*
X9669956Y-7720856D02*
X9669956Y-7650144D01*
X9599244Y-7650144D01*
X9599244Y-7720856D01*
X9669956Y-7720856D01*
X9584600Y-7889500D02*
X9684600Y-7989500D01*
X9684600Y-7889500D02*
X9584600Y-7989500D01*
X9669956Y-7974856D02*
X9669956Y-7904144D01*
X9599244Y-7904144D01*
X9599244Y-7974856D01*
X9669956Y-7974856D01*
X10434100Y-13386000D02*
X10534100Y-13486000D01*
X10534100Y-13386000D02*
X10434100Y-13486000D01*
X10519456Y-13471356D02*
X10519456Y-13400644D01*
X10448744Y-13400644D01*
X10448744Y-13471356D01*
X10519456Y-13471356D01*
X10688100Y-13386000D02*
X10788100Y-13486000D01*
X10788100Y-13386000D02*
X10688100Y-13486000D01*
X10773456Y-13471356D02*
X10773456Y-13400644D01*
X10702744Y-13400644D01*
X10702744Y-13471356D01*
X10773456Y-13471356D01*
X10942100Y-13386000D02*
X11042100Y-13486000D01*
X11042100Y-13386000D02*
X10942100Y-13486000D01*
X11027456Y-13471356D02*
X11027456Y-13400644D01*
X10956744Y-13400644D01*
X10956744Y-13471356D01*
X11027456Y-13471356D01*
X12684600Y-5603500D02*
X12784600Y-5703500D01*
X12784600Y-5603500D02*
X12684600Y-5703500D01*
X12769956Y-5688856D02*
X12769956Y-5618144D01*
X12699244Y-5618144D01*
X12699244Y-5688856D01*
X12769956Y-5688856D01*
X12684600Y-5857500D02*
X12784600Y-5957500D01*
X12784600Y-5857500D02*
X12684600Y-5957500D01*
X12769956Y-5942856D02*
X12769956Y-5872144D01*
X12699244Y-5872144D01*
X12699244Y-5942856D01*
X12769956Y-5942856D01*
X12684600Y-6111500D02*
X12784600Y-6211500D01*
X12784600Y-6111500D02*
X12684600Y-6211500D01*
X12769956Y-6196856D02*
X12769956Y-6126144D01*
X12699244Y-6126144D01*
X12699244Y-6196856D01*
X12769956Y-6196856D01*
X12684600Y-6365500D02*
X12784600Y-6465500D01*
X12784600Y-6365500D02*
X12684600Y-6465500D01*
X12769956Y-6450856D02*
X12769956Y-6380144D01*
X12699244Y-6380144D01*
X12699244Y-6450856D01*
X12769956Y-6450856D01*
X12684600Y-6619500D02*
X12784600Y-6719500D01*
X12784600Y-6619500D02*
X12684600Y-6719500D01*
X12769956Y-6704856D02*
X12769956Y-6634144D01*
X12699244Y-6634144D01*
X12699244Y-6704856D01*
X12769956Y-6704856D01*
X12684600Y-6873500D02*
X12784600Y-6973500D01*
X12784600Y-6873500D02*
X12684600Y-6973500D01*
X12769956Y-6958856D02*
X12769956Y-6888144D01*
X12699244Y-6888144D01*
X12699244Y-6958856D01*
X12769956Y-6958856D01*
X12684600Y-7127500D02*
X12784600Y-7227500D01*
X12784600Y-7127500D02*
X12684600Y-7227500D01*
X12769956Y-7212856D02*
X12769956Y-7142144D01*
X12699244Y-7142144D01*
X12699244Y-7212856D01*
X12769956Y-7212856D01*
X12684600Y-7381500D02*
X12784600Y-7481500D01*
X12784600Y-7381500D02*
X12684600Y-7481500D01*
X12769956Y-7466856D02*
X12769956Y-7396144D01*
X12699244Y-7396144D01*
X12699244Y-7466856D01*
X12769956Y-7466856D01*
X12684600Y-7635500D02*
X12784600Y-7735500D01*
X12784600Y-7635500D02*
X12684600Y-7735500D01*
X12769956Y-7720856D02*
X12769956Y-7650144D01*
X12699244Y-7650144D01*
X12699244Y-7720856D01*
X12769956Y-7720856D01*
X12684600Y-7889500D02*
X12784600Y-7989500D01*
X12784600Y-7889500D02*
X12684600Y-7989500D01*
X12769956Y-7974856D02*
X12769956Y-7904144D01*
X12699244Y-7904144D01*
X12699244Y-7974856D01*
X12769956Y-7974856D01*
X19587100Y-11976000D02*
X19687100Y-12076000D01*
X19687100Y-11976000D02*
X19587100Y-12076000D01*
X19672456Y-12061356D02*
X19672456Y-11990644D01*
X19601744Y-11990644D01*
X19601744Y-12061356D01*
X19672456Y-12061356D01*
X19587100Y-12230000D02*
X19687100Y-12330000D01*
X19687100Y-12230000D02*
X19587100Y-12330000D01*
X19672456Y-12315356D02*
X19672456Y-12244644D01*
X19601744Y-12244644D01*
X19601744Y-12315356D01*
X19672456Y-12315356D01*
X19587100Y-12484000D02*
X19687100Y-12584000D01*
X19687100Y-12484000D02*
X19587100Y-12584000D01*
X19672456Y-12569356D02*
X19672456Y-12498644D01*
X19601744Y-12498644D01*
X19601744Y-12569356D01*
X19672456Y-12569356D01*
X19587100Y-12738000D02*
X19687100Y-12838000D01*
X19687100Y-12738000D02*
X19587100Y-12838000D01*
X19672456Y-12823356D02*
X19672456Y-12752644D01*
X19601744Y-12752644D01*
X19601744Y-12823356D01*
X19672456Y-12823356D01*
X19587100Y-12992000D02*
X19687100Y-13092000D01*
X19687100Y-12992000D02*
X19587100Y-13092000D01*
X19672456Y-13077356D02*
X19672456Y-13006644D01*
X19601744Y-13006644D01*
X19601744Y-13077356D01*
X19672456Y-13077356D01*
X19587100Y-13246000D02*
X19687100Y-13346000D01*
X19687100Y-13246000D02*
X19587100Y-13346000D01*
X19672456Y-13331356D02*
X19672456Y-13260644D01*
X19601744Y-13260644D01*
X19601744Y-13331356D01*
X19672456Y-13331356D01*
X20544100Y-13498500D02*
X20644100Y-13598500D01*
X20644100Y-13498500D02*
X20544100Y-13598500D01*
X20629456Y-13583856D02*
X20629456Y-13513144D01*
X20558744Y-13513144D01*
X20558744Y-13583856D01*
X20629456Y-13583856D01*
X20687100Y-12193500D02*
X20787100Y-12293500D01*
X20787100Y-12193500D02*
X20687100Y-12293500D01*
X20772456Y-12278856D02*
X20772456Y-12208144D01*
X20701744Y-12208144D01*
X20701744Y-12278856D01*
X20772456Y-12278856D01*
X20687100Y-12447500D02*
X20787100Y-12547500D01*
X20787100Y-12447500D02*
X20687100Y-12547500D01*
X20772456Y-12532856D02*
X20772456Y-12462144D01*
X20701744Y-12462144D01*
X20701744Y-12532856D01*
X20772456Y-12532856D01*
X20798100Y-13498500D02*
X20898100Y-13598500D01*
X20898100Y-13498500D02*
X20798100Y-13598500D01*
X20883456Y-13583856D02*
X20883456Y-13513144D01*
X20812744Y-13513144D01*
X20812744Y-13583856D01*
X20883456Y-13583856D01*
X21052100Y-13498500D02*
X21152100Y-13598500D01*
X21152100Y-13498500D02*
X21052100Y-13598500D01*
X21137456Y-13583856D02*
X21137456Y-13513144D01*
X21066744Y-13513144D01*
X21066744Y-13583856D01*
X21137456Y-13583856D01*
X21306100Y-13498500D02*
X21406100Y-13598500D01*
X21406100Y-13498500D02*
X21306100Y-13598500D01*
X21391456Y-13583856D02*
X21391456Y-13513144D01*
X21320744Y-13513144D01*
X21320744Y-13583856D01*
X21391456Y-13583856D01*
X21560100Y-13498500D02*
X21660100Y-13598500D01*
X21660100Y-13498500D02*
X21560100Y-13598500D01*
X21645456Y-13583856D02*
X21645456Y-13513144D01*
X21574744Y-13513144D01*
X21574744Y-13583856D01*
X21645456Y-13583856D01*
X21814100Y-13498500D02*
X21914100Y-13598500D01*
X21914100Y-13498500D02*
X21814100Y-13598500D01*
X21899456Y-13583856D02*
X21899456Y-13513144D01*
X21828744Y-13513144D01*
X21828744Y-13583856D01*
X21899456Y-13583856D01*
X22068100Y-13498500D02*
X22168100Y-13598500D01*
X22168100Y-13498500D02*
X22068100Y-13598500D01*
X22153456Y-13583856D02*
X22153456Y-13513144D01*
X22082744Y-13513144D01*
X22082744Y-13583856D01*
X22153456Y-13583856D01*
X22322100Y-13498500D02*
X22422100Y-13598500D01*
X22422100Y-13498500D02*
X22322100Y-13598500D01*
X22407456Y-13583856D02*
X22407456Y-13513144D01*
X22336744Y-13513144D01*
X22336744Y-13583856D01*
X22407456Y-13583856D01*
X22525000Y-4650000D02*
X22625000Y-4750000D01*
X22625000Y-4650000D02*
X22525000Y-4750000D01*
X22610356Y-4735356D02*
X22610356Y-4664644D01*
X22539644Y-4664644D01*
X22539644Y-4735356D01*
X22610356Y-4735356D01*
X22500000Y-4750000D02*
X22650000Y-4750000D01*
X22650000Y-4650000D02*
G75*
G02*
X22650000Y-4750000I0J-50000D01*
G01*
X22650000Y-4650000D02*
X22500000Y-4650000D01*
X22500000Y-4650000D02*
G75*
G03*
X22500000Y-4750000I0J-50000D01*
G01*
D14*
X22960000Y-4635000D02*
X23090000Y-4765000D01*
X23090000Y-4635000D02*
X22960000Y-4765000D01*
X23025000Y-4765000D02*
X23090000Y-4700000D01*
X23025000Y-4635000D01*
X22960000Y-4700000D01*
X23025000Y-4765000D01*
D13*
X22960000Y-4640000D02*
X22960000Y-4760000D01*
X23090000Y-4760000D02*
G75*
G02*
X22960000Y-4760000I-65000J0D01*
G01*
X23090000Y-4760000D02*
X23090000Y-4640000D01*
X23090000Y-4640000D02*
G75*
G03*
X22960000Y-4640000I-65000J0D01*
G01*
D12*
X8833277Y-14613984D02*
X8833277Y-14413984D01*
X8833277Y-14413984D02*
X8880896Y-14413984D01*
X8880896Y-14413984D02*
X8909467Y-14423508D01*
X8909467Y-14423508D02*
X8928515Y-14442555D01*
X8928515Y-14442555D02*
X8938039Y-14461603D01*
X8938039Y-14461603D02*
X8947563Y-14499698D01*
X8947563Y-14499698D02*
X8947563Y-14528269D01*
X8947563Y-14528269D02*
X8938039Y-14566365D01*
X8938039Y-14566365D02*
X8928515Y-14585412D01*
X8928515Y-14585412D02*
X8909467Y-14604460D01*
X8909467Y-14604460D02*
X8880896Y-14613984D01*
X8880896Y-14613984D02*
X8833277Y-14613984D01*
X9033277Y-14613984D02*
X9033277Y-14480650D01*
X9033277Y-14518746D02*
X9042801Y-14499698D01*
X9042801Y-14499698D02*
X9052324Y-14490174D01*
X9052324Y-14490174D02*
X9071372Y-14480650D01*
X9071372Y-14480650D02*
X9090420Y-14480650D01*
X9157086Y-14613984D02*
X9157086Y-14480650D01*
X9157086Y-14413984D02*
X9147563Y-14423508D01*
X9147563Y-14423508D02*
X9157086Y-14433031D01*
X9157086Y-14433031D02*
X9166610Y-14423508D01*
X9166610Y-14423508D02*
X9157086Y-14413984D01*
X9157086Y-14413984D02*
X9157086Y-14433031D01*
X9280896Y-14613984D02*
X9261848Y-14604460D01*
X9261848Y-14604460D02*
X9252324Y-14585412D01*
X9252324Y-14585412D02*
X9252324Y-14413984D01*
X9385658Y-14613984D02*
X9366610Y-14604460D01*
X9366610Y-14604460D02*
X9357086Y-14585412D01*
X9357086Y-14585412D02*
X9357086Y-14413984D01*
X9614229Y-14613984D02*
X9614229Y-14413984D01*
X9614229Y-14413984D02*
X9680896Y-14556841D01*
X9680896Y-14556841D02*
X9747563Y-14413984D01*
X9747563Y-14413984D02*
X9747563Y-14613984D01*
X9928515Y-14613984D02*
X9928515Y-14509222D01*
X9928515Y-14509222D02*
X9918991Y-14490174D01*
X9918991Y-14490174D02*
X9899944Y-14480650D01*
X9899944Y-14480650D02*
X9861848Y-14480650D01*
X9861848Y-14480650D02*
X9842801Y-14490174D01*
X9928515Y-14604460D02*
X9909467Y-14613984D01*
X9909467Y-14613984D02*
X9861848Y-14613984D01*
X9861848Y-14613984D02*
X9842801Y-14604460D01*
X9842801Y-14604460D02*
X9833277Y-14585412D01*
X9833277Y-14585412D02*
X9833277Y-14566365D01*
X9833277Y-14566365D02*
X9842801Y-14547317D01*
X9842801Y-14547317D02*
X9861848Y-14537793D01*
X9861848Y-14537793D02*
X9909467Y-14537793D01*
X9909467Y-14537793D02*
X9928515Y-14528269D01*
X10023753Y-14480650D02*
X10023753Y-14680650D01*
X10023753Y-14490174D02*
X10042801Y-14480650D01*
X10042801Y-14480650D02*
X10080896Y-14480650D01*
X10080896Y-14480650D02*
X10099944Y-14490174D01*
X10099944Y-14490174D02*
X10109467Y-14499698D01*
X10109467Y-14499698D02*
X10118991Y-14518746D01*
X10118991Y-14518746D02*
X10118991Y-14575888D01*
X10118991Y-14575888D02*
X10109467Y-14594936D01*
X10109467Y-14594936D02*
X10099944Y-14604460D01*
X10099944Y-14604460D02*
X10080896Y-14613984D01*
X10080896Y-14613984D02*
X10042801Y-14613984D01*
X10042801Y-14613984D02*
X10023753Y-14604460D01*
X10204705Y-14594936D02*
X10214229Y-14604460D01*
X10214229Y-14604460D02*
X10204705Y-14613984D01*
X10204705Y-14613984D02*
X10195182Y-14604460D01*
X10195182Y-14604460D02*
X10204705Y-14594936D01*
X10204705Y-14594936D02*
X10204705Y-14613984D01*
X10204705Y-14490174D02*
X10214229Y-14499698D01*
X10214229Y-14499698D02*
X10204705Y-14509222D01*
X10204705Y-14509222D02*
X10195182Y-14499698D01*
X10195182Y-14499698D02*
X10204705Y-14490174D01*
X10204705Y-14490174D02*
X10204705Y-14509222D01*
D13*
X8542500Y-14927500D02*
X8572500Y-14957500D01*
X8572500Y-14927500D02*
X8542500Y-14957500D01*
D12*
X8871372Y-14833984D02*
X8890420Y-14833984D01*
X8890420Y-14833984D02*
X8909467Y-14843508D01*
X8909467Y-14843508D02*
X8918991Y-14853031D01*
X8918991Y-14853031D02*
X8928515Y-14872079D01*
X8928515Y-14872079D02*
X8938039Y-14910174D01*
X8938039Y-14910174D02*
X8938039Y-14957793D01*
X8938039Y-14957793D02*
X8928515Y-14995888D01*
X8928515Y-14995888D02*
X8918991Y-15014936D01*
X8918991Y-15014936D02*
X8909467Y-15024460D01*
X8909467Y-15024460D02*
X8890420Y-15033984D01*
X8890420Y-15033984D02*
X8871372Y-15033984D01*
X8871372Y-15033984D02*
X8852324Y-15024460D01*
X8852324Y-15024460D02*
X8842801Y-15014936D01*
X8842801Y-15014936D02*
X8833277Y-14995888D01*
X8833277Y-14995888D02*
X8823753Y-14957793D01*
X8823753Y-14957793D02*
X8823753Y-14910174D01*
X8823753Y-14910174D02*
X8833277Y-14872079D01*
X8833277Y-14872079D02*
X8842801Y-14853031D01*
X8842801Y-14853031D02*
X8852324Y-14843508D01*
X8852324Y-14843508D02*
X8871372Y-14833984D01*
X9023753Y-15014936D02*
X9033277Y-15024460D01*
X9033277Y-15024460D02*
X9023753Y-15033984D01*
X9023753Y-15033984D02*
X9014229Y-15024460D01*
X9014229Y-15024460D02*
X9023753Y-15014936D01*
X9023753Y-15014936D02*
X9023753Y-15033984D01*
X9099944Y-14833984D02*
X9223753Y-14833984D01*
X9223753Y-14833984D02*
X9157086Y-14910174D01*
X9157086Y-14910174D02*
X9185658Y-14910174D01*
X9185658Y-14910174D02*
X9204705Y-14919698D01*
X9204705Y-14919698D02*
X9214229Y-14929222D01*
X9214229Y-14929222D02*
X9223753Y-14948269D01*
X9223753Y-14948269D02*
X9223753Y-14995888D01*
X9223753Y-14995888D02*
X9214229Y-15014936D01*
X9214229Y-15014936D02*
X9204705Y-15024460D01*
X9204705Y-15024460D02*
X9185658Y-15033984D01*
X9185658Y-15033984D02*
X9128515Y-15033984D01*
X9128515Y-15033984D02*
X9109467Y-15024460D01*
X9109467Y-15024460D02*
X9099944Y-15014936D01*
X9347563Y-14833984D02*
X9366610Y-14833984D01*
X9366610Y-14833984D02*
X9385658Y-14843508D01*
X9385658Y-14843508D02*
X9395182Y-14853031D01*
X9395182Y-14853031D02*
X9404705Y-14872079D01*
X9404705Y-14872079D02*
X9414229Y-14910174D01*
X9414229Y-14910174D02*
X9414229Y-14957793D01*
X9414229Y-14957793D02*
X9404705Y-14995888D01*
X9404705Y-14995888D02*
X9395182Y-15014936D01*
X9395182Y-15014936D02*
X9385658Y-15024460D01*
X9385658Y-15024460D02*
X9366610Y-15033984D01*
X9366610Y-15033984D02*
X9347563Y-15033984D01*
X9347563Y-15033984D02*
X9328515Y-15024460D01*
X9328515Y-15024460D02*
X9318991Y-15014936D01*
X9318991Y-15014936D02*
X9309467Y-14995888D01*
X9309467Y-14995888D02*
X9299944Y-14957793D01*
X9299944Y-14957793D02*
X9299944Y-14910174D01*
X9299944Y-14910174D02*
X9309467Y-14872079D01*
X9309467Y-14872079D02*
X9318991Y-14853031D01*
X9318991Y-14853031D02*
X9328515Y-14843508D01*
X9328515Y-14843508D02*
X9347563Y-14833984D01*
X9538039Y-14833984D02*
X9557086Y-14833984D01*
X9557086Y-14833984D02*
X9576134Y-14843508D01*
X9576134Y-14843508D02*
X9585658Y-14853031D01*
X9585658Y-14853031D02*
X9595182Y-14872079D01*
X9595182Y-14872079D02*
X9604705Y-14910174D01*
X9604705Y-14910174D02*
X9604705Y-14957793D01*
X9604705Y-14957793D02*
X9595182Y-14995888D01*
X9595182Y-14995888D02*
X9585658Y-15014936D01*
X9585658Y-15014936D02*
X9576134Y-15024460D01*
X9576134Y-15024460D02*
X9557086Y-15033984D01*
X9557086Y-15033984D02*
X9538039Y-15033984D01*
X9538039Y-15033984D02*
X9518991Y-15024460D01*
X9518991Y-15024460D02*
X9509467Y-15014936D01*
X9509467Y-15014936D02*
X9499944Y-14995888D01*
X9499944Y-14995888D02*
X9490420Y-14957793D01*
X9490420Y-14957793D02*
X9490420Y-14910174D01*
X9490420Y-14910174D02*
X9499944Y-14872079D01*
X9499944Y-14872079D02*
X9509467Y-14853031D01*
X9509467Y-14853031D02*
X9518991Y-14843508D01*
X9518991Y-14843508D02*
X9538039Y-14833984D01*
X9690420Y-15033984D02*
X9690420Y-14900650D01*
X9690420Y-14919698D02*
X9699944Y-14910174D01*
X9699944Y-14910174D02*
X9718991Y-14900650D01*
X9718991Y-14900650D02*
X9747563Y-14900650D01*
X9747563Y-14900650D02*
X9766610Y-14910174D01*
X9766610Y-14910174D02*
X9776134Y-14929222D01*
X9776134Y-14929222D02*
X9776134Y-15033984D01*
X9776134Y-14929222D02*
X9785658Y-14910174D01*
X9785658Y-14910174D02*
X9804705Y-14900650D01*
X9804705Y-14900650D02*
X9833277Y-14900650D01*
X9833277Y-14900650D02*
X9852325Y-14910174D01*
X9852325Y-14910174D02*
X9861848Y-14929222D01*
X9861848Y-14929222D02*
X9861848Y-15033984D01*
X9957086Y-15033984D02*
X9957086Y-14900650D01*
X9957086Y-14919698D02*
X9966610Y-14910174D01*
X9966610Y-14910174D02*
X9985658Y-14900650D01*
X9985658Y-14900650D02*
X10014229Y-14900650D01*
X10014229Y-14900650D02*
X10033277Y-14910174D01*
X10033277Y-14910174D02*
X10042801Y-14929222D01*
X10042801Y-14929222D02*
X10042801Y-15033984D01*
X10042801Y-14929222D02*
X10052325Y-14910174D01*
X10052325Y-14910174D02*
X10071372Y-14900650D01*
X10071372Y-14900650D02*
X10099944Y-14900650D01*
X10099944Y-14900650D02*
X10118991Y-14910174D01*
X10118991Y-14910174D02*
X10128515Y-14929222D01*
X10128515Y-14929222D02*
X10128515Y-15033984D01*
X10518991Y-14824460D02*
X10347563Y-15081603D01*
X10776134Y-14833984D02*
X10795182Y-14833984D01*
X10795182Y-14833984D02*
X10814229Y-14843508D01*
X10814229Y-14843508D02*
X10823753Y-14853031D01*
X10823753Y-14853031D02*
X10833277Y-14872079D01*
X10833277Y-14872079D02*
X10842801Y-14910174D01*
X10842801Y-14910174D02*
X10842801Y-14957793D01*
X10842801Y-14957793D02*
X10833277Y-14995888D01*
X10833277Y-14995888D02*
X10823753Y-15014936D01*
X10823753Y-15014936D02*
X10814229Y-15024460D01*
X10814229Y-15024460D02*
X10795182Y-15033984D01*
X10795182Y-15033984D02*
X10776134Y-15033984D01*
X10776134Y-15033984D02*
X10757087Y-15024460D01*
X10757087Y-15024460D02*
X10747563Y-15014936D01*
X10747563Y-15014936D02*
X10738039Y-14995888D01*
X10738039Y-14995888D02*
X10728515Y-14957793D01*
X10728515Y-14957793D02*
X10728515Y-14910174D01*
X10728515Y-14910174D02*
X10738039Y-14872079D01*
X10738039Y-14872079D02*
X10747563Y-14853031D01*
X10747563Y-14853031D02*
X10757087Y-14843508D01*
X10757087Y-14843508D02*
X10776134Y-14833984D01*
X10928515Y-15014936D02*
X10938039Y-15024460D01*
X10938039Y-15024460D02*
X10928515Y-15033984D01*
X10928515Y-15033984D02*
X10918991Y-15024460D01*
X10918991Y-15024460D02*
X10928515Y-15014936D01*
X10928515Y-15014936D02*
X10928515Y-15033984D01*
X11061848Y-14833984D02*
X11080896Y-14833984D01*
X11080896Y-14833984D02*
X11099944Y-14843508D01*
X11099944Y-14843508D02*
X11109468Y-14853031D01*
X11109468Y-14853031D02*
X11118991Y-14872079D01*
X11118991Y-14872079D02*
X11128515Y-14910174D01*
X11128515Y-14910174D02*
X11128515Y-14957793D01*
X11128515Y-14957793D02*
X11118991Y-14995888D01*
X11118991Y-14995888D02*
X11109468Y-15014936D01*
X11109468Y-15014936D02*
X11099944Y-15024460D01*
X11099944Y-15024460D02*
X11080896Y-15033984D01*
X11080896Y-15033984D02*
X11061848Y-15033984D01*
X11061848Y-15033984D02*
X11042801Y-15024460D01*
X11042801Y-15024460D02*
X11033277Y-15014936D01*
X11033277Y-15014936D02*
X11023753Y-14995888D01*
X11023753Y-14995888D02*
X11014229Y-14957793D01*
X11014229Y-14957793D02*
X11014229Y-14910174D01*
X11014229Y-14910174D02*
X11023753Y-14872079D01*
X11023753Y-14872079D02*
X11033277Y-14853031D01*
X11033277Y-14853031D02*
X11042801Y-14843508D01*
X11042801Y-14843508D02*
X11061848Y-14833984D01*
X11318991Y-15033984D02*
X11204706Y-15033984D01*
X11261848Y-15033984D02*
X11261848Y-14833984D01*
X11261848Y-14833984D02*
X11242801Y-14862555D01*
X11242801Y-14862555D02*
X11223753Y-14881603D01*
X11223753Y-14881603D02*
X11204706Y-14891127D01*
X11509467Y-15033984D02*
X11395182Y-15033984D01*
X11452325Y-15033984D02*
X11452325Y-14833984D01*
X11452325Y-14833984D02*
X11433277Y-14862555D01*
X11433277Y-14862555D02*
X11414229Y-14881603D01*
X11414229Y-14881603D02*
X11395182Y-14891127D01*
X11623753Y-14919698D02*
X11604706Y-14910174D01*
X11604706Y-14910174D02*
X11595182Y-14900650D01*
X11595182Y-14900650D02*
X11585658Y-14881603D01*
X11585658Y-14881603D02*
X11585658Y-14872079D01*
X11585658Y-14872079D02*
X11595182Y-14853031D01*
X11595182Y-14853031D02*
X11604706Y-14843508D01*
X11604706Y-14843508D02*
X11623753Y-14833984D01*
X11623753Y-14833984D02*
X11661848Y-14833984D01*
X11661848Y-14833984D02*
X11680896Y-14843508D01*
X11680896Y-14843508D02*
X11690420Y-14853031D01*
X11690420Y-14853031D02*
X11699944Y-14872079D01*
X11699944Y-14872079D02*
X11699944Y-14881603D01*
X11699944Y-14881603D02*
X11690420Y-14900650D01*
X11690420Y-14900650D02*
X11680896Y-14910174D01*
X11680896Y-14910174D02*
X11661848Y-14919698D01*
X11661848Y-14919698D02*
X11623753Y-14919698D01*
X11623753Y-14919698D02*
X11604706Y-14929222D01*
X11604706Y-14929222D02*
X11595182Y-14938746D01*
X11595182Y-14938746D02*
X11585658Y-14957793D01*
X11585658Y-14957793D02*
X11585658Y-14995888D01*
X11585658Y-14995888D02*
X11595182Y-15014936D01*
X11595182Y-15014936D02*
X11604706Y-15024460D01*
X11604706Y-15024460D02*
X11623753Y-15033984D01*
X11623753Y-15033984D02*
X11661848Y-15033984D01*
X11661848Y-15033984D02*
X11680896Y-15024460D01*
X11680896Y-15024460D02*
X11690420Y-15014936D01*
X11690420Y-15014936D02*
X11699944Y-14995888D01*
X11699944Y-14995888D02*
X11699944Y-14957793D01*
X11699944Y-14957793D02*
X11690420Y-14938746D01*
X11690420Y-14938746D02*
X11680896Y-14929222D01*
X11680896Y-14929222D02*
X11661848Y-14919698D01*
X11776134Y-14833984D02*
X11776134Y-14872079D01*
X11852325Y-14833984D02*
X11852325Y-14872079D01*
X12147563Y-15110174D02*
X12138039Y-15100650D01*
X12138039Y-15100650D02*
X12118991Y-15072079D01*
X12118991Y-15072079D02*
X12109468Y-15053031D01*
X12109468Y-15053031D02*
X12099944Y-15024460D01*
X12099944Y-15024460D02*
X12090420Y-14976841D01*
X12090420Y-14976841D02*
X12090420Y-14938746D01*
X12090420Y-14938746D02*
X12099944Y-14891127D01*
X12099944Y-14891127D02*
X12109468Y-14862555D01*
X12109468Y-14862555D02*
X12118991Y-14843508D01*
X12118991Y-14843508D02*
X12138039Y-14814936D01*
X12138039Y-14814936D02*
X12147563Y-14805412D01*
X12328515Y-15033984D02*
X12214229Y-15033984D01*
X12271372Y-15033984D02*
X12271372Y-14833984D01*
X12271372Y-14833984D02*
X12252325Y-14862555D01*
X12252325Y-14862555D02*
X12233277Y-14881603D01*
X12233277Y-14881603D02*
X12214229Y-14891127D01*
X12442801Y-14919698D02*
X12423753Y-14910174D01*
X12423753Y-14910174D02*
X12414229Y-14900650D01*
X12414229Y-14900650D02*
X12404706Y-14881603D01*
X12404706Y-14881603D02*
X12404706Y-14872079D01*
X12404706Y-14872079D02*
X12414229Y-14853031D01*
X12414229Y-14853031D02*
X12423753Y-14843508D01*
X12423753Y-14843508D02*
X12442801Y-14833984D01*
X12442801Y-14833984D02*
X12480896Y-14833984D01*
X12480896Y-14833984D02*
X12499944Y-14843508D01*
X12499944Y-14843508D02*
X12509468Y-14853031D01*
X12509468Y-14853031D02*
X12518991Y-14872079D01*
X12518991Y-14872079D02*
X12518991Y-14881603D01*
X12518991Y-14881603D02*
X12509468Y-14900650D01*
X12509468Y-14900650D02*
X12499944Y-14910174D01*
X12499944Y-14910174D02*
X12480896Y-14919698D01*
X12480896Y-14919698D02*
X12442801Y-14919698D01*
X12442801Y-14919698D02*
X12423753Y-14929222D01*
X12423753Y-14929222D02*
X12414229Y-14938746D01*
X12414229Y-14938746D02*
X12404706Y-14957793D01*
X12404706Y-14957793D02*
X12404706Y-14995888D01*
X12404706Y-14995888D02*
X12414229Y-15014936D01*
X12414229Y-15014936D02*
X12423753Y-15024460D01*
X12423753Y-15024460D02*
X12442801Y-15033984D01*
X12442801Y-15033984D02*
X12480896Y-15033984D01*
X12480896Y-15033984D02*
X12499944Y-15024460D01*
X12499944Y-15024460D02*
X12509468Y-15014936D01*
X12509468Y-15014936D02*
X12518991Y-14995888D01*
X12518991Y-14995888D02*
X12518991Y-14957793D01*
X12518991Y-14957793D02*
X12509468Y-14938746D01*
X12509468Y-14938746D02*
X12499944Y-14929222D01*
X12499944Y-14929222D02*
X12480896Y-14919698D01*
X12614229Y-15033984D02*
X12652325Y-15033984D01*
X12652325Y-15033984D02*
X12671372Y-15024460D01*
X12671372Y-15024460D02*
X12680896Y-15014936D01*
X12680896Y-15014936D02*
X12699944Y-14986365D01*
X12699944Y-14986365D02*
X12709468Y-14948269D01*
X12709468Y-14948269D02*
X12709468Y-14872079D01*
X12709468Y-14872079D02*
X12699944Y-14853031D01*
X12699944Y-14853031D02*
X12690420Y-14843508D01*
X12690420Y-14843508D02*
X12671372Y-14833984D01*
X12671372Y-14833984D02*
X12633277Y-14833984D01*
X12633277Y-14833984D02*
X12614229Y-14843508D01*
X12614229Y-14843508D02*
X12604706Y-14853031D01*
X12604706Y-14853031D02*
X12595182Y-14872079D01*
X12595182Y-14872079D02*
X12595182Y-14919698D01*
X12595182Y-14919698D02*
X12604706Y-14938746D01*
X12604706Y-14938746D02*
X12614229Y-14948269D01*
X12614229Y-14948269D02*
X12633277Y-14957793D01*
X12633277Y-14957793D02*
X12671372Y-14957793D01*
X12671372Y-14957793D02*
X12690420Y-14948269D01*
X12690420Y-14948269D02*
X12699944Y-14938746D01*
X12699944Y-14938746D02*
X12709468Y-14919698D01*
X12947563Y-15033984D02*
X12947563Y-14833984D01*
X13033277Y-15033984D02*
X13033277Y-14929222D01*
X13033277Y-14929222D02*
X13023753Y-14910174D01*
X13023753Y-14910174D02*
X13004706Y-14900650D01*
X13004706Y-14900650D02*
X12976134Y-14900650D01*
X12976134Y-14900650D02*
X12957087Y-14910174D01*
X12957087Y-14910174D02*
X12947563Y-14919698D01*
X13157087Y-15033984D02*
X13138039Y-15024460D01*
X13138039Y-15024460D02*
X13128515Y-15014936D01*
X13128515Y-15014936D02*
X13118991Y-14995888D01*
X13118991Y-14995888D02*
X13118991Y-14938746D01*
X13118991Y-14938746D02*
X13128515Y-14919698D01*
X13128515Y-14919698D02*
X13138039Y-14910174D01*
X13138039Y-14910174D02*
X13157087Y-14900650D01*
X13157087Y-14900650D02*
X13185658Y-14900650D01*
X13185658Y-14900650D02*
X13204706Y-14910174D01*
X13204706Y-14910174D02*
X13214230Y-14919698D01*
X13214230Y-14919698D02*
X13223753Y-14938746D01*
X13223753Y-14938746D02*
X13223753Y-14995888D01*
X13223753Y-14995888D02*
X13214230Y-15014936D01*
X13214230Y-15014936D02*
X13204706Y-15024460D01*
X13204706Y-15024460D02*
X13185658Y-15033984D01*
X13185658Y-15033984D02*
X13157087Y-15033984D01*
X13338039Y-15033984D02*
X13318991Y-15024460D01*
X13318991Y-15024460D02*
X13309468Y-15005412D01*
X13309468Y-15005412D02*
X13309468Y-14833984D01*
X13490420Y-15024460D02*
X13471372Y-15033984D01*
X13471372Y-15033984D02*
X13433277Y-15033984D01*
X13433277Y-15033984D02*
X13414230Y-15024460D01*
X13414230Y-15024460D02*
X13404706Y-15005412D01*
X13404706Y-15005412D02*
X13404706Y-14929222D01*
X13404706Y-14929222D02*
X13414230Y-14910174D01*
X13414230Y-14910174D02*
X13433277Y-14900650D01*
X13433277Y-14900650D02*
X13471372Y-14900650D01*
X13471372Y-14900650D02*
X13490420Y-14910174D01*
X13490420Y-14910174D02*
X13499944Y-14929222D01*
X13499944Y-14929222D02*
X13499944Y-14948269D01*
X13499944Y-14948269D02*
X13404706Y-14967317D01*
X13576134Y-15024460D02*
X13595182Y-15033984D01*
X13595182Y-15033984D02*
X13633277Y-15033984D01*
X13633277Y-15033984D02*
X13652325Y-15024460D01*
X13652325Y-15024460D02*
X13661849Y-15005412D01*
X13661849Y-15005412D02*
X13661849Y-14995888D01*
X13661849Y-14995888D02*
X13652325Y-14976841D01*
X13652325Y-14976841D02*
X13633277Y-14967317D01*
X13633277Y-14967317D02*
X13604706Y-14967317D01*
X13604706Y-14967317D02*
X13585658Y-14957793D01*
X13585658Y-14957793D02*
X13576134Y-14938746D01*
X13576134Y-14938746D02*
X13576134Y-14929222D01*
X13576134Y-14929222D02*
X13585658Y-14910174D01*
X13585658Y-14910174D02*
X13604706Y-14900650D01*
X13604706Y-14900650D02*
X13633277Y-14900650D01*
X13633277Y-14900650D02*
X13652325Y-14910174D01*
X13728515Y-15110174D02*
X13738039Y-15100650D01*
X13738039Y-15100650D02*
X13757087Y-15072079D01*
X13757087Y-15072079D02*
X13766611Y-15053031D01*
X13766611Y-15053031D02*
X13776134Y-15024460D01*
X13776134Y-15024460D02*
X13785658Y-14976841D01*
X13785658Y-14976841D02*
X13785658Y-14938746D01*
X13785658Y-14938746D02*
X13776134Y-14891127D01*
X13776134Y-14891127D02*
X13766611Y-14862555D01*
X13766611Y-14862555D02*
X13757087Y-14843508D01*
X13757087Y-14843508D02*
X13738039Y-14814936D01*
X13738039Y-14814936D02*
X13728515Y-14805412D01*
D13*
X8572500Y-15206500D02*
G75*
G02*
X8522500Y-15206500I-25000J0D01*
G01*
X8522500Y-15206500D02*
G75*
G02*
X8572500Y-15206500I25000J0D01*
G01*
D12*
X8871372Y-15097984D02*
X8890420Y-15097984D01*
X8890420Y-15097984D02*
X8909467Y-15107508D01*
X8909467Y-15107508D02*
X8918991Y-15117031D01*
X8918991Y-15117031D02*
X8928515Y-15136079D01*
X8928515Y-15136079D02*
X8938039Y-15174174D01*
X8938039Y-15174174D02*
X8938039Y-15221793D01*
X8938039Y-15221793D02*
X8928515Y-15259888D01*
X8928515Y-15259888D02*
X8918991Y-15278936D01*
X8918991Y-15278936D02*
X8909467Y-15288460D01*
X8909467Y-15288460D02*
X8890420Y-15297984D01*
X8890420Y-15297984D02*
X8871372Y-15297984D01*
X8871372Y-15297984D02*
X8852324Y-15288460D01*
X8852324Y-15288460D02*
X8842801Y-15278936D01*
X8842801Y-15278936D02*
X8833277Y-15259888D01*
X8833277Y-15259888D02*
X8823753Y-15221793D01*
X8823753Y-15221793D02*
X8823753Y-15174174D01*
X8823753Y-15174174D02*
X8833277Y-15136079D01*
X8833277Y-15136079D02*
X8842801Y-15117031D01*
X8842801Y-15117031D02*
X8852324Y-15107508D01*
X8852324Y-15107508D02*
X8871372Y-15097984D01*
X9023753Y-15278936D02*
X9033277Y-15288460D01*
X9033277Y-15288460D02*
X9023753Y-15297984D01*
X9023753Y-15297984D02*
X9014229Y-15288460D01*
X9014229Y-15288460D02*
X9023753Y-15278936D01*
X9023753Y-15278936D02*
X9023753Y-15297984D01*
X9214229Y-15097984D02*
X9118991Y-15097984D01*
X9118991Y-15097984D02*
X9109467Y-15193222D01*
X9109467Y-15193222D02*
X9118991Y-15183698D01*
X9118991Y-15183698D02*
X9138039Y-15174174D01*
X9138039Y-15174174D02*
X9185658Y-15174174D01*
X9185658Y-15174174D02*
X9204705Y-15183698D01*
X9204705Y-15183698D02*
X9214229Y-15193222D01*
X9214229Y-15193222D02*
X9223753Y-15212269D01*
X9223753Y-15212269D02*
X9223753Y-15259888D01*
X9223753Y-15259888D02*
X9214229Y-15278936D01*
X9214229Y-15278936D02*
X9204705Y-15288460D01*
X9204705Y-15288460D02*
X9185658Y-15297984D01*
X9185658Y-15297984D02*
X9138039Y-15297984D01*
X9138039Y-15297984D02*
X9118991Y-15288460D01*
X9118991Y-15288460D02*
X9109467Y-15278936D01*
X9347563Y-15097984D02*
X9366610Y-15097984D01*
X9366610Y-15097984D02*
X9385658Y-15107508D01*
X9385658Y-15107508D02*
X9395182Y-15117031D01*
X9395182Y-15117031D02*
X9404705Y-15136079D01*
X9404705Y-15136079D02*
X9414229Y-15174174D01*
X9414229Y-15174174D02*
X9414229Y-15221793D01*
X9414229Y-15221793D02*
X9404705Y-15259888D01*
X9404705Y-15259888D02*
X9395182Y-15278936D01*
X9395182Y-15278936D02*
X9385658Y-15288460D01*
X9385658Y-15288460D02*
X9366610Y-15297984D01*
X9366610Y-15297984D02*
X9347563Y-15297984D01*
X9347563Y-15297984D02*
X9328515Y-15288460D01*
X9328515Y-15288460D02*
X9318991Y-15278936D01*
X9318991Y-15278936D02*
X9309467Y-15259888D01*
X9309467Y-15259888D02*
X9299944Y-15221793D01*
X9299944Y-15221793D02*
X9299944Y-15174174D01*
X9299944Y-15174174D02*
X9309467Y-15136079D01*
X9309467Y-15136079D02*
X9318991Y-15117031D01*
X9318991Y-15117031D02*
X9328515Y-15107508D01*
X9328515Y-15107508D02*
X9347563Y-15097984D01*
X9538039Y-15097984D02*
X9557086Y-15097984D01*
X9557086Y-15097984D02*
X9576134Y-15107508D01*
X9576134Y-15107508D02*
X9585658Y-15117031D01*
X9585658Y-15117031D02*
X9595182Y-15136079D01*
X9595182Y-15136079D02*
X9604705Y-15174174D01*
X9604705Y-15174174D02*
X9604705Y-15221793D01*
X9604705Y-15221793D02*
X9595182Y-15259888D01*
X9595182Y-15259888D02*
X9585658Y-15278936D01*
X9585658Y-15278936D02*
X9576134Y-15288460D01*
X9576134Y-15288460D02*
X9557086Y-15297984D01*
X9557086Y-15297984D02*
X9538039Y-15297984D01*
X9538039Y-15297984D02*
X9518991Y-15288460D01*
X9518991Y-15288460D02*
X9509467Y-15278936D01*
X9509467Y-15278936D02*
X9499944Y-15259888D01*
X9499944Y-15259888D02*
X9490420Y-15221793D01*
X9490420Y-15221793D02*
X9490420Y-15174174D01*
X9490420Y-15174174D02*
X9499944Y-15136079D01*
X9499944Y-15136079D02*
X9509467Y-15117031D01*
X9509467Y-15117031D02*
X9518991Y-15107508D01*
X9518991Y-15107508D02*
X9538039Y-15097984D01*
X9690420Y-15297984D02*
X9690420Y-15164650D01*
X9690420Y-15183698D02*
X9699944Y-15174174D01*
X9699944Y-15174174D02*
X9718991Y-15164650D01*
X9718991Y-15164650D02*
X9747563Y-15164650D01*
X9747563Y-15164650D02*
X9766610Y-15174174D01*
X9766610Y-15174174D02*
X9776134Y-15193222D01*
X9776134Y-15193222D02*
X9776134Y-15297984D01*
X9776134Y-15193222D02*
X9785658Y-15174174D01*
X9785658Y-15174174D02*
X9804705Y-15164650D01*
X9804705Y-15164650D02*
X9833277Y-15164650D01*
X9833277Y-15164650D02*
X9852325Y-15174174D01*
X9852325Y-15174174D02*
X9861848Y-15193222D01*
X9861848Y-15193222D02*
X9861848Y-15297984D01*
X9957086Y-15297984D02*
X9957086Y-15164650D01*
X9957086Y-15183698D02*
X9966610Y-15174174D01*
X9966610Y-15174174D02*
X9985658Y-15164650D01*
X9985658Y-15164650D02*
X10014229Y-15164650D01*
X10014229Y-15164650D02*
X10033277Y-15174174D01*
X10033277Y-15174174D02*
X10042801Y-15193222D01*
X10042801Y-15193222D02*
X10042801Y-15297984D01*
X10042801Y-15193222D02*
X10052325Y-15174174D01*
X10052325Y-15174174D02*
X10071372Y-15164650D01*
X10071372Y-15164650D02*
X10099944Y-15164650D01*
X10099944Y-15164650D02*
X10118991Y-15174174D01*
X10118991Y-15174174D02*
X10128515Y-15193222D01*
X10128515Y-15193222D02*
X10128515Y-15297984D01*
X10518991Y-15088460D02*
X10347563Y-15345603D01*
X10776134Y-15097984D02*
X10795182Y-15097984D01*
X10795182Y-15097984D02*
X10814229Y-15107508D01*
X10814229Y-15107508D02*
X10823753Y-15117031D01*
X10823753Y-15117031D02*
X10833277Y-15136079D01*
X10833277Y-15136079D02*
X10842801Y-15174174D01*
X10842801Y-15174174D02*
X10842801Y-15221793D01*
X10842801Y-15221793D02*
X10833277Y-15259888D01*
X10833277Y-15259888D02*
X10823753Y-15278936D01*
X10823753Y-15278936D02*
X10814229Y-15288460D01*
X10814229Y-15288460D02*
X10795182Y-15297984D01*
X10795182Y-15297984D02*
X10776134Y-15297984D01*
X10776134Y-15297984D02*
X10757087Y-15288460D01*
X10757087Y-15288460D02*
X10747563Y-15278936D01*
X10747563Y-15278936D02*
X10738039Y-15259888D01*
X10738039Y-15259888D02*
X10728515Y-15221793D01*
X10728515Y-15221793D02*
X10728515Y-15174174D01*
X10728515Y-15174174D02*
X10738039Y-15136079D01*
X10738039Y-15136079D02*
X10747563Y-15117031D01*
X10747563Y-15117031D02*
X10757087Y-15107508D01*
X10757087Y-15107508D02*
X10776134Y-15097984D01*
X10928515Y-15278936D02*
X10938039Y-15288460D01*
X10938039Y-15288460D02*
X10928515Y-15297984D01*
X10928515Y-15297984D02*
X10918991Y-15288460D01*
X10918991Y-15288460D02*
X10928515Y-15278936D01*
X10928515Y-15278936D02*
X10928515Y-15297984D01*
X11061848Y-15097984D02*
X11080896Y-15097984D01*
X11080896Y-15097984D02*
X11099944Y-15107508D01*
X11099944Y-15107508D02*
X11109468Y-15117031D01*
X11109468Y-15117031D02*
X11118991Y-15136079D01*
X11118991Y-15136079D02*
X11128515Y-15174174D01*
X11128515Y-15174174D02*
X11128515Y-15221793D01*
X11128515Y-15221793D02*
X11118991Y-15259888D01*
X11118991Y-15259888D02*
X11109468Y-15278936D01*
X11109468Y-15278936D02*
X11099944Y-15288460D01*
X11099944Y-15288460D02*
X11080896Y-15297984D01*
X11080896Y-15297984D02*
X11061848Y-15297984D01*
X11061848Y-15297984D02*
X11042801Y-15288460D01*
X11042801Y-15288460D02*
X11033277Y-15278936D01*
X11033277Y-15278936D02*
X11023753Y-15259888D01*
X11023753Y-15259888D02*
X11014229Y-15221793D01*
X11014229Y-15221793D02*
X11014229Y-15174174D01*
X11014229Y-15174174D02*
X11023753Y-15136079D01*
X11023753Y-15136079D02*
X11033277Y-15117031D01*
X11033277Y-15117031D02*
X11042801Y-15107508D01*
X11042801Y-15107508D02*
X11061848Y-15097984D01*
X11318991Y-15297984D02*
X11204706Y-15297984D01*
X11261848Y-15297984D02*
X11261848Y-15097984D01*
X11261848Y-15097984D02*
X11242801Y-15126555D01*
X11242801Y-15126555D02*
X11223753Y-15145603D01*
X11223753Y-15145603D02*
X11204706Y-15155127D01*
X11414229Y-15297984D02*
X11452325Y-15297984D01*
X11452325Y-15297984D02*
X11471372Y-15288460D01*
X11471372Y-15288460D02*
X11480896Y-15278936D01*
X11480896Y-15278936D02*
X11499944Y-15250365D01*
X11499944Y-15250365D02*
X11509467Y-15212269D01*
X11509467Y-15212269D02*
X11509467Y-15136079D01*
X11509467Y-15136079D02*
X11499944Y-15117031D01*
X11499944Y-15117031D02*
X11490420Y-15107508D01*
X11490420Y-15107508D02*
X11471372Y-15097984D01*
X11471372Y-15097984D02*
X11433277Y-15097984D01*
X11433277Y-15097984D02*
X11414229Y-15107508D01*
X11414229Y-15107508D02*
X11404706Y-15117031D01*
X11404706Y-15117031D02*
X11395182Y-15136079D01*
X11395182Y-15136079D02*
X11395182Y-15183698D01*
X11395182Y-15183698D02*
X11404706Y-15202746D01*
X11404706Y-15202746D02*
X11414229Y-15212269D01*
X11414229Y-15212269D02*
X11433277Y-15221793D01*
X11433277Y-15221793D02*
X11471372Y-15221793D01*
X11471372Y-15221793D02*
X11490420Y-15212269D01*
X11490420Y-15212269D02*
X11499944Y-15202746D01*
X11499944Y-15202746D02*
X11509467Y-15183698D01*
X11576134Y-15097984D02*
X11709467Y-15097984D01*
X11709467Y-15097984D02*
X11623753Y-15297984D01*
X11776134Y-15097984D02*
X11776134Y-15136079D01*
X11852325Y-15097984D02*
X11852325Y-15136079D01*
X12147563Y-15374174D02*
X12138039Y-15364650D01*
X12138039Y-15364650D02*
X12118991Y-15336079D01*
X12118991Y-15336079D02*
X12109468Y-15317031D01*
X12109468Y-15317031D02*
X12099944Y-15288460D01*
X12099944Y-15288460D02*
X12090420Y-15240841D01*
X12090420Y-15240841D02*
X12090420Y-15202746D01*
X12090420Y-15202746D02*
X12099944Y-15155127D01*
X12099944Y-15155127D02*
X12109468Y-15126555D01*
X12109468Y-15126555D02*
X12118991Y-15107508D01*
X12118991Y-15107508D02*
X12138039Y-15078936D01*
X12138039Y-15078936D02*
X12147563Y-15069412D01*
X12204706Y-15097984D02*
X12328515Y-15097984D01*
X12328515Y-15097984D02*
X12261848Y-15174174D01*
X12261848Y-15174174D02*
X12290420Y-15174174D01*
X12290420Y-15174174D02*
X12309468Y-15183698D01*
X12309468Y-15183698D02*
X12318991Y-15193222D01*
X12318991Y-15193222D02*
X12328515Y-15212269D01*
X12328515Y-15212269D02*
X12328515Y-15259888D01*
X12328515Y-15259888D02*
X12318991Y-15278936D01*
X12318991Y-15278936D02*
X12309468Y-15288460D01*
X12309468Y-15288460D02*
X12290420Y-15297984D01*
X12290420Y-15297984D02*
X12233277Y-15297984D01*
X12233277Y-15297984D02*
X12214229Y-15288460D01*
X12214229Y-15288460D02*
X12204706Y-15278936D01*
X12566610Y-15297984D02*
X12566610Y-15097984D01*
X12652325Y-15297984D02*
X12652325Y-15193222D01*
X12652325Y-15193222D02*
X12642801Y-15174174D01*
X12642801Y-15174174D02*
X12623753Y-15164650D01*
X12623753Y-15164650D02*
X12595182Y-15164650D01*
X12595182Y-15164650D02*
X12576134Y-15174174D01*
X12576134Y-15174174D02*
X12566610Y-15183698D01*
X12776134Y-15297984D02*
X12757087Y-15288460D01*
X12757087Y-15288460D02*
X12747563Y-15278936D01*
X12747563Y-15278936D02*
X12738039Y-15259888D01*
X12738039Y-15259888D02*
X12738039Y-15202746D01*
X12738039Y-15202746D02*
X12747563Y-15183698D01*
X12747563Y-15183698D02*
X12757087Y-15174174D01*
X12757087Y-15174174D02*
X12776134Y-15164650D01*
X12776134Y-15164650D02*
X12804706Y-15164650D01*
X12804706Y-15164650D02*
X12823753Y-15174174D01*
X12823753Y-15174174D02*
X12833277Y-15183698D01*
X12833277Y-15183698D02*
X12842801Y-15202746D01*
X12842801Y-15202746D02*
X12842801Y-15259888D01*
X12842801Y-15259888D02*
X12833277Y-15278936D01*
X12833277Y-15278936D02*
X12823753Y-15288460D01*
X12823753Y-15288460D02*
X12804706Y-15297984D01*
X12804706Y-15297984D02*
X12776134Y-15297984D01*
X12957087Y-15297984D02*
X12938039Y-15288460D01*
X12938039Y-15288460D02*
X12928515Y-15269412D01*
X12928515Y-15269412D02*
X12928515Y-15097984D01*
X13109468Y-15288460D02*
X13090420Y-15297984D01*
X13090420Y-15297984D02*
X13052325Y-15297984D01*
X13052325Y-15297984D02*
X13033277Y-15288460D01*
X13033277Y-15288460D02*
X13023753Y-15269412D01*
X13023753Y-15269412D02*
X13023753Y-15193222D01*
X13023753Y-15193222D02*
X13033277Y-15174174D01*
X13033277Y-15174174D02*
X13052325Y-15164650D01*
X13052325Y-15164650D02*
X13090420Y-15164650D01*
X13090420Y-15164650D02*
X13109468Y-15174174D01*
X13109468Y-15174174D02*
X13118991Y-15193222D01*
X13118991Y-15193222D02*
X13118991Y-15212269D01*
X13118991Y-15212269D02*
X13023753Y-15231317D01*
X13195182Y-15288460D02*
X13214230Y-15297984D01*
X13214230Y-15297984D02*
X13252325Y-15297984D01*
X13252325Y-15297984D02*
X13271372Y-15288460D01*
X13271372Y-15288460D02*
X13280896Y-15269412D01*
X13280896Y-15269412D02*
X13280896Y-15259888D01*
X13280896Y-15259888D02*
X13271372Y-15240841D01*
X13271372Y-15240841D02*
X13252325Y-15231317D01*
X13252325Y-15231317D02*
X13223753Y-15231317D01*
X13223753Y-15231317D02*
X13204706Y-15221793D01*
X13204706Y-15221793D02*
X13195182Y-15202746D01*
X13195182Y-15202746D02*
X13195182Y-15193222D01*
X13195182Y-15193222D02*
X13204706Y-15174174D01*
X13204706Y-15174174D02*
X13223753Y-15164650D01*
X13223753Y-15164650D02*
X13252325Y-15164650D01*
X13252325Y-15164650D02*
X13271372Y-15174174D01*
X13347563Y-15374174D02*
X13357087Y-15364650D01*
X13357087Y-15364650D02*
X13376134Y-15336079D01*
X13376134Y-15336079D02*
X13385658Y-15317031D01*
X13385658Y-15317031D02*
X13395182Y-15288460D01*
X13395182Y-15288460D02*
X13404706Y-15240841D01*
X13404706Y-15240841D02*
X13404706Y-15202746D01*
X13404706Y-15202746D02*
X13395182Y-15155127D01*
X13395182Y-15155127D02*
X13385658Y-15126555D01*
X13385658Y-15126555D02*
X13376134Y-15107508D01*
X13376134Y-15107508D02*
X13357087Y-15078936D01*
X13357087Y-15078936D02*
X13347563Y-15069412D01*
D13*
X8542500Y-15440500D02*
X8542500Y-15500500D01*
X8512500Y-15470500D02*
X8572500Y-15470500D01*
D12*
X8871372Y-15361984D02*
X8890420Y-15361984D01*
X8890420Y-15361984D02*
X8909467Y-15371508D01*
X8909467Y-15371508D02*
X8918991Y-15381031D01*
X8918991Y-15381031D02*
X8928515Y-15400079D01*
X8928515Y-15400079D02*
X8938039Y-15438174D01*
X8938039Y-15438174D02*
X8938039Y-15485793D01*
X8938039Y-15485793D02*
X8928515Y-15523888D01*
X8928515Y-15523888D02*
X8918991Y-15542936D01*
X8918991Y-15542936D02*
X8909467Y-15552460D01*
X8909467Y-15552460D02*
X8890420Y-15561984D01*
X8890420Y-15561984D02*
X8871372Y-15561984D01*
X8871372Y-15561984D02*
X8852324Y-15552460D01*
X8852324Y-15552460D02*
X8842801Y-15542936D01*
X8842801Y-15542936D02*
X8833277Y-15523888D01*
X8833277Y-15523888D02*
X8823753Y-15485793D01*
X8823753Y-15485793D02*
X8823753Y-15438174D01*
X8823753Y-15438174D02*
X8833277Y-15400079D01*
X8833277Y-15400079D02*
X8842801Y-15381031D01*
X8842801Y-15381031D02*
X8852324Y-15371508D01*
X8852324Y-15371508D02*
X8871372Y-15361984D01*
X9023753Y-15542936D02*
X9033277Y-15552460D01*
X9033277Y-15552460D02*
X9023753Y-15561984D01*
X9023753Y-15561984D02*
X9014229Y-15552460D01*
X9014229Y-15552460D02*
X9023753Y-15542936D01*
X9023753Y-15542936D02*
X9023753Y-15561984D01*
X9204705Y-15361984D02*
X9166610Y-15361984D01*
X9166610Y-15361984D02*
X9147563Y-15371508D01*
X9147563Y-15371508D02*
X9138039Y-15381031D01*
X9138039Y-15381031D02*
X9118991Y-15409603D01*
X9118991Y-15409603D02*
X9109467Y-15447698D01*
X9109467Y-15447698D02*
X9109467Y-15523888D01*
X9109467Y-15523888D02*
X9118991Y-15542936D01*
X9118991Y-15542936D02*
X9128515Y-15552460D01*
X9128515Y-15552460D02*
X9147563Y-15561984D01*
X9147563Y-15561984D02*
X9185658Y-15561984D01*
X9185658Y-15561984D02*
X9204705Y-15552460D01*
X9204705Y-15552460D02*
X9214229Y-15542936D01*
X9214229Y-15542936D02*
X9223753Y-15523888D01*
X9223753Y-15523888D02*
X9223753Y-15476269D01*
X9223753Y-15476269D02*
X9214229Y-15457222D01*
X9214229Y-15457222D02*
X9204705Y-15447698D01*
X9204705Y-15447698D02*
X9185658Y-15438174D01*
X9185658Y-15438174D02*
X9147563Y-15438174D01*
X9147563Y-15438174D02*
X9128515Y-15447698D01*
X9128515Y-15447698D02*
X9118991Y-15457222D01*
X9118991Y-15457222D02*
X9109467Y-15476269D01*
X9347563Y-15361984D02*
X9366610Y-15361984D01*
X9366610Y-15361984D02*
X9385658Y-15371508D01*
X9385658Y-15371508D02*
X9395182Y-15381031D01*
X9395182Y-15381031D02*
X9404705Y-15400079D01*
X9404705Y-15400079D02*
X9414229Y-15438174D01*
X9414229Y-15438174D02*
X9414229Y-15485793D01*
X9414229Y-15485793D02*
X9404705Y-15523888D01*
X9404705Y-15523888D02*
X9395182Y-15542936D01*
X9395182Y-15542936D02*
X9385658Y-15552460D01*
X9385658Y-15552460D02*
X9366610Y-15561984D01*
X9366610Y-15561984D02*
X9347563Y-15561984D01*
X9347563Y-15561984D02*
X9328515Y-15552460D01*
X9328515Y-15552460D02*
X9318991Y-15542936D01*
X9318991Y-15542936D02*
X9309467Y-15523888D01*
X9309467Y-15523888D02*
X9299944Y-15485793D01*
X9299944Y-15485793D02*
X9299944Y-15438174D01*
X9299944Y-15438174D02*
X9309467Y-15400079D01*
X9309467Y-15400079D02*
X9318991Y-15381031D01*
X9318991Y-15381031D02*
X9328515Y-15371508D01*
X9328515Y-15371508D02*
X9347563Y-15361984D01*
X9538039Y-15361984D02*
X9557086Y-15361984D01*
X9557086Y-15361984D02*
X9576134Y-15371508D01*
X9576134Y-15371508D02*
X9585658Y-15381031D01*
X9585658Y-15381031D02*
X9595182Y-15400079D01*
X9595182Y-15400079D02*
X9604705Y-15438174D01*
X9604705Y-15438174D02*
X9604705Y-15485793D01*
X9604705Y-15485793D02*
X9595182Y-15523888D01*
X9595182Y-15523888D02*
X9585658Y-15542936D01*
X9585658Y-15542936D02*
X9576134Y-15552460D01*
X9576134Y-15552460D02*
X9557086Y-15561984D01*
X9557086Y-15561984D02*
X9538039Y-15561984D01*
X9538039Y-15561984D02*
X9518991Y-15552460D01*
X9518991Y-15552460D02*
X9509467Y-15542936D01*
X9509467Y-15542936D02*
X9499944Y-15523888D01*
X9499944Y-15523888D02*
X9490420Y-15485793D01*
X9490420Y-15485793D02*
X9490420Y-15438174D01*
X9490420Y-15438174D02*
X9499944Y-15400079D01*
X9499944Y-15400079D02*
X9509467Y-15381031D01*
X9509467Y-15381031D02*
X9518991Y-15371508D01*
X9518991Y-15371508D02*
X9538039Y-15361984D01*
X9690420Y-15561984D02*
X9690420Y-15428650D01*
X9690420Y-15447698D02*
X9699944Y-15438174D01*
X9699944Y-15438174D02*
X9718991Y-15428650D01*
X9718991Y-15428650D02*
X9747563Y-15428650D01*
X9747563Y-15428650D02*
X9766610Y-15438174D01*
X9766610Y-15438174D02*
X9776134Y-15457222D01*
X9776134Y-15457222D02*
X9776134Y-15561984D01*
X9776134Y-15457222D02*
X9785658Y-15438174D01*
X9785658Y-15438174D02*
X9804705Y-15428650D01*
X9804705Y-15428650D02*
X9833277Y-15428650D01*
X9833277Y-15428650D02*
X9852325Y-15438174D01*
X9852325Y-15438174D02*
X9861848Y-15457222D01*
X9861848Y-15457222D02*
X9861848Y-15561984D01*
X9957086Y-15561984D02*
X9957086Y-15428650D01*
X9957086Y-15447698D02*
X9966610Y-15438174D01*
X9966610Y-15438174D02*
X9985658Y-15428650D01*
X9985658Y-15428650D02*
X10014229Y-15428650D01*
X10014229Y-15428650D02*
X10033277Y-15438174D01*
X10033277Y-15438174D02*
X10042801Y-15457222D01*
X10042801Y-15457222D02*
X10042801Y-15561984D01*
X10042801Y-15457222D02*
X10052325Y-15438174D01*
X10052325Y-15438174D02*
X10071372Y-15428650D01*
X10071372Y-15428650D02*
X10099944Y-15428650D01*
X10099944Y-15428650D02*
X10118991Y-15438174D01*
X10118991Y-15438174D02*
X10128515Y-15457222D01*
X10128515Y-15457222D02*
X10128515Y-15561984D01*
X10518991Y-15352460D02*
X10347563Y-15609603D01*
X10776134Y-15361984D02*
X10795182Y-15361984D01*
X10795182Y-15361984D02*
X10814229Y-15371508D01*
X10814229Y-15371508D02*
X10823753Y-15381031D01*
X10823753Y-15381031D02*
X10833277Y-15400079D01*
X10833277Y-15400079D02*
X10842801Y-15438174D01*
X10842801Y-15438174D02*
X10842801Y-15485793D01*
X10842801Y-15485793D02*
X10833277Y-15523888D01*
X10833277Y-15523888D02*
X10823753Y-15542936D01*
X10823753Y-15542936D02*
X10814229Y-15552460D01*
X10814229Y-15552460D02*
X10795182Y-15561984D01*
X10795182Y-15561984D02*
X10776134Y-15561984D01*
X10776134Y-15561984D02*
X10757087Y-15552460D01*
X10757087Y-15552460D02*
X10747563Y-15542936D01*
X10747563Y-15542936D02*
X10738039Y-15523888D01*
X10738039Y-15523888D02*
X10728515Y-15485793D01*
X10728515Y-15485793D02*
X10728515Y-15438174D01*
X10728515Y-15438174D02*
X10738039Y-15400079D01*
X10738039Y-15400079D02*
X10747563Y-15381031D01*
X10747563Y-15381031D02*
X10757087Y-15371508D01*
X10757087Y-15371508D02*
X10776134Y-15361984D01*
X10928515Y-15542936D02*
X10938039Y-15552460D01*
X10938039Y-15552460D02*
X10928515Y-15561984D01*
X10928515Y-15561984D02*
X10918991Y-15552460D01*
X10918991Y-15552460D02*
X10928515Y-15542936D01*
X10928515Y-15542936D02*
X10928515Y-15561984D01*
X11061848Y-15361984D02*
X11080896Y-15361984D01*
X11080896Y-15361984D02*
X11099944Y-15371508D01*
X11099944Y-15371508D02*
X11109468Y-15381031D01*
X11109468Y-15381031D02*
X11118991Y-15400079D01*
X11118991Y-15400079D02*
X11128515Y-15438174D01*
X11128515Y-15438174D02*
X11128515Y-15485793D01*
X11128515Y-15485793D02*
X11118991Y-15523888D01*
X11118991Y-15523888D02*
X11109468Y-15542936D01*
X11109468Y-15542936D02*
X11099944Y-15552460D01*
X11099944Y-15552460D02*
X11080896Y-15561984D01*
X11080896Y-15561984D02*
X11061848Y-15561984D01*
X11061848Y-15561984D02*
X11042801Y-15552460D01*
X11042801Y-15552460D02*
X11033277Y-15542936D01*
X11033277Y-15542936D02*
X11023753Y-15523888D01*
X11023753Y-15523888D02*
X11014229Y-15485793D01*
X11014229Y-15485793D02*
X11014229Y-15438174D01*
X11014229Y-15438174D02*
X11023753Y-15400079D01*
X11023753Y-15400079D02*
X11033277Y-15381031D01*
X11033277Y-15381031D02*
X11042801Y-15371508D01*
X11042801Y-15371508D02*
X11061848Y-15361984D01*
X11204706Y-15381031D02*
X11214229Y-15371508D01*
X11214229Y-15371508D02*
X11233277Y-15361984D01*
X11233277Y-15361984D02*
X11280896Y-15361984D01*
X11280896Y-15361984D02*
X11299944Y-15371508D01*
X11299944Y-15371508D02*
X11309467Y-15381031D01*
X11309467Y-15381031D02*
X11318991Y-15400079D01*
X11318991Y-15400079D02*
X11318991Y-15419127D01*
X11318991Y-15419127D02*
X11309467Y-15447698D01*
X11309467Y-15447698D02*
X11195182Y-15561984D01*
X11195182Y-15561984D02*
X11318991Y-15561984D01*
X11385658Y-15361984D02*
X11509467Y-15361984D01*
X11509467Y-15361984D02*
X11442801Y-15438174D01*
X11442801Y-15438174D02*
X11471372Y-15438174D01*
X11471372Y-15438174D02*
X11490420Y-15447698D01*
X11490420Y-15447698D02*
X11499944Y-15457222D01*
X11499944Y-15457222D02*
X11509467Y-15476269D01*
X11509467Y-15476269D02*
X11509467Y-15523888D01*
X11509467Y-15523888D02*
X11499944Y-15542936D01*
X11499944Y-15542936D02*
X11490420Y-15552460D01*
X11490420Y-15552460D02*
X11471372Y-15561984D01*
X11471372Y-15561984D02*
X11414229Y-15561984D01*
X11414229Y-15561984D02*
X11395182Y-15552460D01*
X11395182Y-15552460D02*
X11385658Y-15542936D01*
X11680896Y-15361984D02*
X11642801Y-15361984D01*
X11642801Y-15361984D02*
X11623753Y-15371508D01*
X11623753Y-15371508D02*
X11614229Y-15381031D01*
X11614229Y-15381031D02*
X11595182Y-15409603D01*
X11595182Y-15409603D02*
X11585658Y-15447698D01*
X11585658Y-15447698D02*
X11585658Y-15523888D01*
X11585658Y-15523888D02*
X11595182Y-15542936D01*
X11595182Y-15542936D02*
X11604706Y-15552460D01*
X11604706Y-15552460D02*
X11623753Y-15561984D01*
X11623753Y-15561984D02*
X11661848Y-15561984D01*
X11661848Y-15561984D02*
X11680896Y-15552460D01*
X11680896Y-15552460D02*
X11690420Y-15542936D01*
X11690420Y-15542936D02*
X11699944Y-15523888D01*
X11699944Y-15523888D02*
X11699944Y-15476269D01*
X11699944Y-15476269D02*
X11690420Y-15457222D01*
X11690420Y-15457222D02*
X11680896Y-15447698D01*
X11680896Y-15447698D02*
X11661848Y-15438174D01*
X11661848Y-15438174D02*
X11623753Y-15438174D01*
X11623753Y-15438174D02*
X11604706Y-15447698D01*
X11604706Y-15447698D02*
X11595182Y-15457222D01*
X11595182Y-15457222D02*
X11585658Y-15476269D01*
X11776134Y-15361984D02*
X11776134Y-15400079D01*
X11852325Y-15361984D02*
X11852325Y-15400079D01*
X12147563Y-15638174D02*
X12138039Y-15628650D01*
X12138039Y-15628650D02*
X12118991Y-15600079D01*
X12118991Y-15600079D02*
X12109468Y-15581031D01*
X12109468Y-15581031D02*
X12099944Y-15552460D01*
X12099944Y-15552460D02*
X12090420Y-15504841D01*
X12090420Y-15504841D02*
X12090420Y-15466746D01*
X12090420Y-15466746D02*
X12099944Y-15419127D01*
X12099944Y-15419127D02*
X12109468Y-15390555D01*
X12109468Y-15390555D02*
X12118991Y-15371508D01*
X12118991Y-15371508D02*
X12138039Y-15342936D01*
X12138039Y-15342936D02*
X12147563Y-15333412D01*
X12261848Y-15361984D02*
X12280896Y-15361984D01*
X12280896Y-15361984D02*
X12299944Y-15371508D01*
X12299944Y-15371508D02*
X12309468Y-15381031D01*
X12309468Y-15381031D02*
X12318991Y-15400079D01*
X12318991Y-15400079D02*
X12328515Y-15438174D01*
X12328515Y-15438174D02*
X12328515Y-15485793D01*
X12328515Y-15485793D02*
X12318991Y-15523888D01*
X12318991Y-15523888D02*
X12309468Y-15542936D01*
X12309468Y-15542936D02*
X12299944Y-15552460D01*
X12299944Y-15552460D02*
X12280896Y-15561984D01*
X12280896Y-15561984D02*
X12261848Y-15561984D01*
X12261848Y-15561984D02*
X12242801Y-15552460D01*
X12242801Y-15552460D02*
X12233277Y-15542936D01*
X12233277Y-15542936D02*
X12223753Y-15523888D01*
X12223753Y-15523888D02*
X12214229Y-15485793D01*
X12214229Y-15485793D02*
X12214229Y-15438174D01*
X12214229Y-15438174D02*
X12223753Y-15400079D01*
X12223753Y-15400079D02*
X12233277Y-15381031D01*
X12233277Y-15381031D02*
X12242801Y-15371508D01*
X12242801Y-15371508D02*
X12261848Y-15361984D01*
X12566610Y-15561984D02*
X12566610Y-15361984D01*
X12652325Y-15561984D02*
X12652325Y-15457222D01*
X12652325Y-15457222D02*
X12642801Y-15438174D01*
X12642801Y-15438174D02*
X12623753Y-15428650D01*
X12623753Y-15428650D02*
X12595182Y-15428650D01*
X12595182Y-15428650D02*
X12576134Y-15438174D01*
X12576134Y-15438174D02*
X12566610Y-15447698D01*
X12776134Y-15561984D02*
X12757087Y-15552460D01*
X12757087Y-15552460D02*
X12747563Y-15542936D01*
X12747563Y-15542936D02*
X12738039Y-15523888D01*
X12738039Y-15523888D02*
X12738039Y-15466746D01*
X12738039Y-15466746D02*
X12747563Y-15447698D01*
X12747563Y-15447698D02*
X12757087Y-15438174D01*
X12757087Y-15438174D02*
X12776134Y-15428650D01*
X12776134Y-15428650D02*
X12804706Y-15428650D01*
X12804706Y-15428650D02*
X12823753Y-15438174D01*
X12823753Y-15438174D02*
X12833277Y-15447698D01*
X12833277Y-15447698D02*
X12842801Y-15466746D01*
X12842801Y-15466746D02*
X12842801Y-15523888D01*
X12842801Y-15523888D02*
X12833277Y-15542936D01*
X12833277Y-15542936D02*
X12823753Y-15552460D01*
X12823753Y-15552460D02*
X12804706Y-15561984D01*
X12804706Y-15561984D02*
X12776134Y-15561984D01*
X12957087Y-15561984D02*
X12938039Y-15552460D01*
X12938039Y-15552460D02*
X12928515Y-15533412D01*
X12928515Y-15533412D02*
X12928515Y-15361984D01*
X13109468Y-15552460D02*
X13090420Y-15561984D01*
X13090420Y-15561984D02*
X13052325Y-15561984D01*
X13052325Y-15561984D02*
X13033277Y-15552460D01*
X13033277Y-15552460D02*
X13023753Y-15533412D01*
X13023753Y-15533412D02*
X13023753Y-15457222D01*
X13023753Y-15457222D02*
X13033277Y-15438174D01*
X13033277Y-15438174D02*
X13052325Y-15428650D01*
X13052325Y-15428650D02*
X13090420Y-15428650D01*
X13090420Y-15428650D02*
X13109468Y-15438174D01*
X13109468Y-15438174D02*
X13118991Y-15457222D01*
X13118991Y-15457222D02*
X13118991Y-15476269D01*
X13118991Y-15476269D02*
X13023753Y-15495317D01*
X13195182Y-15552460D02*
X13214230Y-15561984D01*
X13214230Y-15561984D02*
X13252325Y-15561984D01*
X13252325Y-15561984D02*
X13271372Y-15552460D01*
X13271372Y-15552460D02*
X13280896Y-15533412D01*
X13280896Y-15533412D02*
X13280896Y-15523888D01*
X13280896Y-15523888D02*
X13271372Y-15504841D01*
X13271372Y-15504841D02*
X13252325Y-15495317D01*
X13252325Y-15495317D02*
X13223753Y-15495317D01*
X13223753Y-15495317D02*
X13204706Y-15485793D01*
X13204706Y-15485793D02*
X13195182Y-15466746D01*
X13195182Y-15466746D02*
X13195182Y-15457222D01*
X13195182Y-15457222D02*
X13204706Y-15438174D01*
X13204706Y-15438174D02*
X13223753Y-15428650D01*
X13223753Y-15428650D02*
X13252325Y-15428650D01*
X13252325Y-15428650D02*
X13271372Y-15438174D01*
X13518992Y-15485793D02*
X13671373Y-15485793D01*
X13595182Y-15561984D02*
X13595182Y-15409603D01*
X14004706Y-15428650D02*
X14004706Y-15561984D01*
X13957087Y-15352460D02*
X13909468Y-15495317D01*
X13909468Y-15495317D02*
X14033277Y-15495317D01*
X14252325Y-15552460D02*
X14271373Y-15561984D01*
X14271373Y-15561984D02*
X14309468Y-15561984D01*
X14309468Y-15561984D02*
X14328515Y-15552460D01*
X14328515Y-15552460D02*
X14338039Y-15533412D01*
X14338039Y-15533412D02*
X14338039Y-15523888D01*
X14338039Y-15523888D02*
X14328515Y-15504841D01*
X14328515Y-15504841D02*
X14309468Y-15495317D01*
X14309468Y-15495317D02*
X14280896Y-15495317D01*
X14280896Y-15495317D02*
X14261849Y-15485793D01*
X14261849Y-15485793D02*
X14252325Y-15466746D01*
X14252325Y-15466746D02*
X14252325Y-15457222D01*
X14252325Y-15457222D02*
X14261849Y-15438174D01*
X14261849Y-15438174D02*
X14280896Y-15428650D01*
X14280896Y-15428650D02*
X14309468Y-15428650D01*
X14309468Y-15428650D02*
X14328515Y-15438174D01*
X14452325Y-15561984D02*
X14433277Y-15552460D01*
X14433277Y-15552460D02*
X14423754Y-15533412D01*
X14423754Y-15533412D02*
X14423754Y-15361984D01*
X14557087Y-15561984D02*
X14538039Y-15552460D01*
X14538039Y-15552460D02*
X14528515Y-15542936D01*
X14528515Y-15542936D02*
X14518992Y-15523888D01*
X14518992Y-15523888D02*
X14518992Y-15466746D01*
X14518992Y-15466746D02*
X14528515Y-15447698D01*
X14528515Y-15447698D02*
X14538039Y-15438174D01*
X14538039Y-15438174D02*
X14557087Y-15428650D01*
X14557087Y-15428650D02*
X14585658Y-15428650D01*
X14585658Y-15428650D02*
X14604706Y-15438174D01*
X14604706Y-15438174D02*
X14614230Y-15447698D01*
X14614230Y-15447698D02*
X14623754Y-15466746D01*
X14623754Y-15466746D02*
X14623754Y-15523888D01*
X14623754Y-15523888D02*
X14614230Y-15542936D01*
X14614230Y-15542936D02*
X14604706Y-15552460D01*
X14604706Y-15552460D02*
X14585658Y-15561984D01*
X14585658Y-15561984D02*
X14557087Y-15561984D01*
X14680896Y-15428650D02*
X14757087Y-15428650D01*
X14709468Y-15361984D02*
X14709468Y-15533412D01*
X14709468Y-15533412D02*
X14718992Y-15552460D01*
X14718992Y-15552460D02*
X14738039Y-15561984D01*
X14738039Y-15561984D02*
X14757087Y-15561984D01*
X14814230Y-15552460D02*
X14833277Y-15561984D01*
X14833277Y-15561984D02*
X14871373Y-15561984D01*
X14871373Y-15561984D02*
X14890420Y-15552460D01*
X14890420Y-15552460D02*
X14899944Y-15533412D01*
X14899944Y-15533412D02*
X14899944Y-15523888D01*
X14899944Y-15523888D02*
X14890420Y-15504841D01*
X14890420Y-15504841D02*
X14871373Y-15495317D01*
X14871373Y-15495317D02*
X14842801Y-15495317D01*
X14842801Y-15495317D02*
X14823754Y-15485793D01*
X14823754Y-15485793D02*
X14814230Y-15466746D01*
X14814230Y-15466746D02*
X14814230Y-15457222D01*
X14814230Y-15457222D02*
X14823754Y-15438174D01*
X14823754Y-15438174D02*
X14842801Y-15428650D01*
X14842801Y-15428650D02*
X14871373Y-15428650D01*
X14871373Y-15428650D02*
X14890420Y-15438174D01*
X14966611Y-15638174D02*
X14976135Y-15628650D01*
X14976135Y-15628650D02*
X14995182Y-15600079D01*
X14995182Y-15600079D02*
X15004706Y-15581031D01*
X15004706Y-15581031D02*
X15014230Y-15552460D01*
X15014230Y-15552460D02*
X15023754Y-15504841D01*
X15023754Y-15504841D02*
X15023754Y-15466746D01*
X15023754Y-15466746D02*
X15014230Y-15419127D01*
X15014230Y-15419127D02*
X15004706Y-15390555D01*
X15004706Y-15390555D02*
X14995182Y-15371508D01*
X14995182Y-15371508D02*
X14976135Y-15342936D01*
X14976135Y-15342936D02*
X14966611Y-15333412D01*
D13*
X8562249Y-15759249D02*
X8562249Y-15709751D01*
X8512751Y-15709751D01*
X8512751Y-15759249D01*
X8562249Y-15759249D01*
D12*
X8871372Y-15625984D02*
X8890420Y-15625984D01*
X8890420Y-15625984D02*
X8909467Y-15635508D01*
X8909467Y-15635508D02*
X8918991Y-15645031D01*
X8918991Y-15645031D02*
X8928515Y-15664079D01*
X8928515Y-15664079D02*
X8938039Y-15702174D01*
X8938039Y-15702174D02*
X8938039Y-15749793D01*
X8938039Y-15749793D02*
X8928515Y-15787888D01*
X8928515Y-15787888D02*
X8918991Y-15806936D01*
X8918991Y-15806936D02*
X8909467Y-15816460D01*
X8909467Y-15816460D02*
X8890420Y-15825984D01*
X8890420Y-15825984D02*
X8871372Y-15825984D01*
X8871372Y-15825984D02*
X8852324Y-15816460D01*
X8852324Y-15816460D02*
X8842801Y-15806936D01*
X8842801Y-15806936D02*
X8833277Y-15787888D01*
X8833277Y-15787888D02*
X8823753Y-15749793D01*
X8823753Y-15749793D02*
X8823753Y-15702174D01*
X8823753Y-15702174D02*
X8833277Y-15664079D01*
X8833277Y-15664079D02*
X8842801Y-15645031D01*
X8842801Y-15645031D02*
X8852324Y-15635508D01*
X8852324Y-15635508D02*
X8871372Y-15625984D01*
X9023753Y-15806936D02*
X9033277Y-15816460D01*
X9033277Y-15816460D02*
X9023753Y-15825984D01*
X9023753Y-15825984D02*
X9014229Y-15816460D01*
X9014229Y-15816460D02*
X9023753Y-15806936D01*
X9023753Y-15806936D02*
X9023753Y-15825984D01*
X9099944Y-15625984D02*
X9233277Y-15625984D01*
X9233277Y-15625984D02*
X9147563Y-15825984D01*
X9347563Y-15625984D02*
X9366610Y-15625984D01*
X9366610Y-15625984D02*
X9385658Y-15635508D01*
X9385658Y-15635508D02*
X9395182Y-15645031D01*
X9395182Y-15645031D02*
X9404705Y-15664079D01*
X9404705Y-15664079D02*
X9414229Y-15702174D01*
X9414229Y-15702174D02*
X9414229Y-15749793D01*
X9414229Y-15749793D02*
X9404705Y-15787888D01*
X9404705Y-15787888D02*
X9395182Y-15806936D01*
X9395182Y-15806936D02*
X9385658Y-15816460D01*
X9385658Y-15816460D02*
X9366610Y-15825984D01*
X9366610Y-15825984D02*
X9347563Y-15825984D01*
X9347563Y-15825984D02*
X9328515Y-15816460D01*
X9328515Y-15816460D02*
X9318991Y-15806936D01*
X9318991Y-15806936D02*
X9309467Y-15787888D01*
X9309467Y-15787888D02*
X9299944Y-15749793D01*
X9299944Y-15749793D02*
X9299944Y-15702174D01*
X9299944Y-15702174D02*
X9309467Y-15664079D01*
X9309467Y-15664079D02*
X9318991Y-15645031D01*
X9318991Y-15645031D02*
X9328515Y-15635508D01*
X9328515Y-15635508D02*
X9347563Y-15625984D01*
X9538039Y-15625984D02*
X9557086Y-15625984D01*
X9557086Y-15625984D02*
X9576134Y-15635508D01*
X9576134Y-15635508D02*
X9585658Y-15645031D01*
X9585658Y-15645031D02*
X9595182Y-15664079D01*
X9595182Y-15664079D02*
X9604705Y-15702174D01*
X9604705Y-15702174D02*
X9604705Y-15749793D01*
X9604705Y-15749793D02*
X9595182Y-15787888D01*
X9595182Y-15787888D02*
X9585658Y-15806936D01*
X9585658Y-15806936D02*
X9576134Y-15816460D01*
X9576134Y-15816460D02*
X9557086Y-15825984D01*
X9557086Y-15825984D02*
X9538039Y-15825984D01*
X9538039Y-15825984D02*
X9518991Y-15816460D01*
X9518991Y-15816460D02*
X9509467Y-15806936D01*
X9509467Y-15806936D02*
X9499944Y-15787888D01*
X9499944Y-15787888D02*
X9490420Y-15749793D01*
X9490420Y-15749793D02*
X9490420Y-15702174D01*
X9490420Y-15702174D02*
X9499944Y-15664079D01*
X9499944Y-15664079D02*
X9509467Y-15645031D01*
X9509467Y-15645031D02*
X9518991Y-15635508D01*
X9518991Y-15635508D02*
X9538039Y-15625984D01*
X9690420Y-15825984D02*
X9690420Y-15692650D01*
X9690420Y-15711698D02*
X9699944Y-15702174D01*
X9699944Y-15702174D02*
X9718991Y-15692650D01*
X9718991Y-15692650D02*
X9747563Y-15692650D01*
X9747563Y-15692650D02*
X9766610Y-15702174D01*
X9766610Y-15702174D02*
X9776134Y-15721222D01*
X9776134Y-15721222D02*
X9776134Y-15825984D01*
X9776134Y-15721222D02*
X9785658Y-15702174D01*
X9785658Y-15702174D02*
X9804705Y-15692650D01*
X9804705Y-15692650D02*
X9833277Y-15692650D01*
X9833277Y-15692650D02*
X9852325Y-15702174D01*
X9852325Y-15702174D02*
X9861848Y-15721222D01*
X9861848Y-15721222D02*
X9861848Y-15825984D01*
X9957086Y-15825984D02*
X9957086Y-15692650D01*
X9957086Y-15711698D02*
X9966610Y-15702174D01*
X9966610Y-15702174D02*
X9985658Y-15692650D01*
X9985658Y-15692650D02*
X10014229Y-15692650D01*
X10014229Y-15692650D02*
X10033277Y-15702174D01*
X10033277Y-15702174D02*
X10042801Y-15721222D01*
X10042801Y-15721222D02*
X10042801Y-15825984D01*
X10042801Y-15721222D02*
X10052325Y-15702174D01*
X10052325Y-15702174D02*
X10071372Y-15692650D01*
X10071372Y-15692650D02*
X10099944Y-15692650D01*
X10099944Y-15692650D02*
X10118991Y-15702174D01*
X10118991Y-15702174D02*
X10128515Y-15721222D01*
X10128515Y-15721222D02*
X10128515Y-15825984D01*
X10518991Y-15616460D02*
X10347563Y-15873603D01*
X10776134Y-15625984D02*
X10795182Y-15625984D01*
X10795182Y-15625984D02*
X10814229Y-15635508D01*
X10814229Y-15635508D02*
X10823753Y-15645031D01*
X10823753Y-15645031D02*
X10833277Y-15664079D01*
X10833277Y-15664079D02*
X10842801Y-15702174D01*
X10842801Y-15702174D02*
X10842801Y-15749793D01*
X10842801Y-15749793D02*
X10833277Y-15787888D01*
X10833277Y-15787888D02*
X10823753Y-15806936D01*
X10823753Y-15806936D02*
X10814229Y-15816460D01*
X10814229Y-15816460D02*
X10795182Y-15825984D01*
X10795182Y-15825984D02*
X10776134Y-15825984D01*
X10776134Y-15825984D02*
X10757087Y-15816460D01*
X10757087Y-15816460D02*
X10747563Y-15806936D01*
X10747563Y-15806936D02*
X10738039Y-15787888D01*
X10738039Y-15787888D02*
X10728515Y-15749793D01*
X10728515Y-15749793D02*
X10728515Y-15702174D01*
X10728515Y-15702174D02*
X10738039Y-15664079D01*
X10738039Y-15664079D02*
X10747563Y-15645031D01*
X10747563Y-15645031D02*
X10757087Y-15635508D01*
X10757087Y-15635508D02*
X10776134Y-15625984D01*
X10928515Y-15806936D02*
X10938039Y-15816460D01*
X10938039Y-15816460D02*
X10928515Y-15825984D01*
X10928515Y-15825984D02*
X10918991Y-15816460D01*
X10918991Y-15816460D02*
X10928515Y-15806936D01*
X10928515Y-15806936D02*
X10928515Y-15825984D01*
X11061848Y-15625984D02*
X11080896Y-15625984D01*
X11080896Y-15625984D02*
X11099944Y-15635508D01*
X11099944Y-15635508D02*
X11109468Y-15645031D01*
X11109468Y-15645031D02*
X11118991Y-15664079D01*
X11118991Y-15664079D02*
X11128515Y-15702174D01*
X11128515Y-15702174D02*
X11128515Y-15749793D01*
X11128515Y-15749793D02*
X11118991Y-15787888D01*
X11118991Y-15787888D02*
X11109468Y-15806936D01*
X11109468Y-15806936D02*
X11099944Y-15816460D01*
X11099944Y-15816460D02*
X11080896Y-15825984D01*
X11080896Y-15825984D02*
X11061848Y-15825984D01*
X11061848Y-15825984D02*
X11042801Y-15816460D01*
X11042801Y-15816460D02*
X11033277Y-15806936D01*
X11033277Y-15806936D02*
X11023753Y-15787888D01*
X11023753Y-15787888D02*
X11014229Y-15749793D01*
X11014229Y-15749793D02*
X11014229Y-15702174D01*
X11014229Y-15702174D02*
X11023753Y-15664079D01*
X11023753Y-15664079D02*
X11033277Y-15645031D01*
X11033277Y-15645031D02*
X11042801Y-15635508D01*
X11042801Y-15635508D02*
X11061848Y-15625984D01*
X11204706Y-15645031D02*
X11214229Y-15635508D01*
X11214229Y-15635508D02*
X11233277Y-15625984D01*
X11233277Y-15625984D02*
X11280896Y-15625984D01*
X11280896Y-15625984D02*
X11299944Y-15635508D01*
X11299944Y-15635508D02*
X11309467Y-15645031D01*
X11309467Y-15645031D02*
X11318991Y-15664079D01*
X11318991Y-15664079D02*
X11318991Y-15683127D01*
X11318991Y-15683127D02*
X11309467Y-15711698D01*
X11309467Y-15711698D02*
X11195182Y-15825984D01*
X11195182Y-15825984D02*
X11318991Y-15825984D01*
X11385658Y-15625984D02*
X11518991Y-15625984D01*
X11518991Y-15625984D02*
X11433277Y-15825984D01*
X11680896Y-15625984D02*
X11642801Y-15625984D01*
X11642801Y-15625984D02*
X11623753Y-15635508D01*
X11623753Y-15635508D02*
X11614229Y-15645031D01*
X11614229Y-15645031D02*
X11595182Y-15673603D01*
X11595182Y-15673603D02*
X11585658Y-15711698D01*
X11585658Y-15711698D02*
X11585658Y-15787888D01*
X11585658Y-15787888D02*
X11595182Y-15806936D01*
X11595182Y-15806936D02*
X11604706Y-15816460D01*
X11604706Y-15816460D02*
X11623753Y-15825984D01*
X11623753Y-15825984D02*
X11661848Y-15825984D01*
X11661848Y-15825984D02*
X11680896Y-15816460D01*
X11680896Y-15816460D02*
X11690420Y-15806936D01*
X11690420Y-15806936D02*
X11699944Y-15787888D01*
X11699944Y-15787888D02*
X11699944Y-15740269D01*
X11699944Y-15740269D02*
X11690420Y-15721222D01*
X11690420Y-15721222D02*
X11680896Y-15711698D01*
X11680896Y-15711698D02*
X11661848Y-15702174D01*
X11661848Y-15702174D02*
X11623753Y-15702174D01*
X11623753Y-15702174D02*
X11604706Y-15711698D01*
X11604706Y-15711698D02*
X11595182Y-15721222D01*
X11595182Y-15721222D02*
X11585658Y-15740269D01*
X11776134Y-15625984D02*
X11776134Y-15664079D01*
X11852325Y-15625984D02*
X11852325Y-15664079D01*
X12147563Y-15902174D02*
X12138039Y-15892650D01*
X12138039Y-15892650D02*
X12118991Y-15864079D01*
X12118991Y-15864079D02*
X12109468Y-15845031D01*
X12109468Y-15845031D02*
X12099944Y-15816460D01*
X12099944Y-15816460D02*
X12090420Y-15768841D01*
X12090420Y-15768841D02*
X12090420Y-15730746D01*
X12090420Y-15730746D02*
X12099944Y-15683127D01*
X12099944Y-15683127D02*
X12109468Y-15654555D01*
X12109468Y-15654555D02*
X12118991Y-15635508D01*
X12118991Y-15635508D02*
X12138039Y-15606936D01*
X12138039Y-15606936D02*
X12147563Y-15597412D01*
X12328515Y-15825984D02*
X12214229Y-15825984D01*
X12271372Y-15825984D02*
X12271372Y-15625984D01*
X12271372Y-15625984D02*
X12252325Y-15654555D01*
X12252325Y-15654555D02*
X12233277Y-15673603D01*
X12233277Y-15673603D02*
X12214229Y-15683127D01*
X12557087Y-15816460D02*
X12576134Y-15825984D01*
X12576134Y-15825984D02*
X12614229Y-15825984D01*
X12614229Y-15825984D02*
X12633277Y-15816460D01*
X12633277Y-15816460D02*
X12642801Y-15797412D01*
X12642801Y-15797412D02*
X12642801Y-15787888D01*
X12642801Y-15787888D02*
X12633277Y-15768841D01*
X12633277Y-15768841D02*
X12614229Y-15759317D01*
X12614229Y-15759317D02*
X12585658Y-15759317D01*
X12585658Y-15759317D02*
X12566610Y-15749793D01*
X12566610Y-15749793D02*
X12557087Y-15730746D01*
X12557087Y-15730746D02*
X12557087Y-15721222D01*
X12557087Y-15721222D02*
X12566610Y-15702174D01*
X12566610Y-15702174D02*
X12585658Y-15692650D01*
X12585658Y-15692650D02*
X12614229Y-15692650D01*
X12614229Y-15692650D02*
X12633277Y-15702174D01*
X12757087Y-15825984D02*
X12738039Y-15816460D01*
X12738039Y-15816460D02*
X12728515Y-15797412D01*
X12728515Y-15797412D02*
X12728515Y-15625984D01*
X12861849Y-15825984D02*
X12842801Y-15816460D01*
X12842801Y-15816460D02*
X12833277Y-15806936D01*
X12833277Y-15806936D02*
X12823753Y-15787888D01*
X12823753Y-15787888D02*
X12823753Y-15730746D01*
X12823753Y-15730746D02*
X12833277Y-15711698D01*
X12833277Y-15711698D02*
X12842801Y-15702174D01*
X12842801Y-15702174D02*
X12861849Y-15692650D01*
X12861849Y-15692650D02*
X12890420Y-15692650D01*
X12890420Y-15692650D02*
X12909468Y-15702174D01*
X12909468Y-15702174D02*
X12918991Y-15711698D01*
X12918991Y-15711698D02*
X12928515Y-15730746D01*
X12928515Y-15730746D02*
X12928515Y-15787888D01*
X12928515Y-15787888D02*
X12918991Y-15806936D01*
X12918991Y-15806936D02*
X12909468Y-15816460D01*
X12909468Y-15816460D02*
X12890420Y-15825984D01*
X12890420Y-15825984D02*
X12861849Y-15825984D01*
X12985658Y-15692650D02*
X13061849Y-15692650D01*
X13014230Y-15625984D02*
X13014230Y-15797412D01*
X13014230Y-15797412D02*
X13023753Y-15816460D01*
X13023753Y-15816460D02*
X13042801Y-15825984D01*
X13042801Y-15825984D02*
X13061849Y-15825984D01*
X13109468Y-15902174D02*
X13118991Y-15892650D01*
X13118991Y-15892650D02*
X13138039Y-15864079D01*
X13138039Y-15864079D02*
X13147563Y-15845031D01*
X13147563Y-15845031D02*
X13157087Y-15816460D01*
X13157087Y-15816460D02*
X13166610Y-15768841D01*
X13166610Y-15768841D02*
X13166610Y-15730746D01*
X13166610Y-15730746D02*
X13157087Y-15683127D01*
X13157087Y-15683127D02*
X13147563Y-15654555D01*
X13147563Y-15654555D02*
X13138039Y-15635508D01*
X13138039Y-15635508D02*
X13118991Y-15606936D01*
X13118991Y-15606936D02*
X13109468Y-15597412D01*
D13*
X8532500Y-16038500D02*
X8572500Y-15998500D01*
X8532500Y-15958500D01*
X8492500Y-15998500D01*
X8532500Y-16038500D01*
D12*
X8871372Y-15889984D02*
X8890420Y-15889984D01*
X8890420Y-15889984D02*
X8909467Y-15899508D01*
X8909467Y-15899508D02*
X8918991Y-15909031D01*
X8918991Y-15909031D02*
X8928515Y-15928079D01*
X8928515Y-15928079D02*
X8938039Y-15966174D01*
X8938039Y-15966174D02*
X8938039Y-16013793D01*
X8938039Y-16013793D02*
X8928515Y-16051888D01*
X8928515Y-16051888D02*
X8918991Y-16070936D01*
X8918991Y-16070936D02*
X8909467Y-16080460D01*
X8909467Y-16080460D02*
X8890420Y-16089984D01*
X8890420Y-16089984D02*
X8871372Y-16089984D01*
X8871372Y-16089984D02*
X8852324Y-16080460D01*
X8852324Y-16080460D02*
X8842801Y-16070936D01*
X8842801Y-16070936D02*
X8833277Y-16051888D01*
X8833277Y-16051888D02*
X8823753Y-16013793D01*
X8823753Y-16013793D02*
X8823753Y-15966174D01*
X8823753Y-15966174D02*
X8833277Y-15928079D01*
X8833277Y-15928079D02*
X8842801Y-15909031D01*
X8842801Y-15909031D02*
X8852324Y-15899508D01*
X8852324Y-15899508D02*
X8871372Y-15889984D01*
X9023753Y-16070936D02*
X9033277Y-16080460D01*
X9033277Y-16080460D02*
X9023753Y-16089984D01*
X9023753Y-16089984D02*
X9014229Y-16080460D01*
X9014229Y-16080460D02*
X9023753Y-16070936D01*
X9023753Y-16070936D02*
X9023753Y-16089984D01*
X9147563Y-15975698D02*
X9128515Y-15966174D01*
X9128515Y-15966174D02*
X9118991Y-15956650D01*
X9118991Y-15956650D02*
X9109467Y-15937603D01*
X9109467Y-15937603D02*
X9109467Y-15928079D01*
X9109467Y-15928079D02*
X9118991Y-15909031D01*
X9118991Y-15909031D02*
X9128515Y-15899508D01*
X9128515Y-15899508D02*
X9147563Y-15889984D01*
X9147563Y-15889984D02*
X9185658Y-15889984D01*
X9185658Y-15889984D02*
X9204705Y-15899508D01*
X9204705Y-15899508D02*
X9214229Y-15909031D01*
X9214229Y-15909031D02*
X9223753Y-15928079D01*
X9223753Y-15928079D02*
X9223753Y-15937603D01*
X9223753Y-15937603D02*
X9214229Y-15956650D01*
X9214229Y-15956650D02*
X9204705Y-15966174D01*
X9204705Y-15966174D02*
X9185658Y-15975698D01*
X9185658Y-15975698D02*
X9147563Y-15975698D01*
X9147563Y-15975698D02*
X9128515Y-15985222D01*
X9128515Y-15985222D02*
X9118991Y-15994746D01*
X9118991Y-15994746D02*
X9109467Y-16013793D01*
X9109467Y-16013793D02*
X9109467Y-16051888D01*
X9109467Y-16051888D02*
X9118991Y-16070936D01*
X9118991Y-16070936D02*
X9128515Y-16080460D01*
X9128515Y-16080460D02*
X9147563Y-16089984D01*
X9147563Y-16089984D02*
X9185658Y-16089984D01*
X9185658Y-16089984D02*
X9204705Y-16080460D01*
X9204705Y-16080460D02*
X9214229Y-16070936D01*
X9214229Y-16070936D02*
X9223753Y-16051888D01*
X9223753Y-16051888D02*
X9223753Y-16013793D01*
X9223753Y-16013793D02*
X9214229Y-15994746D01*
X9214229Y-15994746D02*
X9204705Y-15985222D01*
X9204705Y-15985222D02*
X9185658Y-15975698D01*
X9347563Y-15889984D02*
X9366610Y-15889984D01*
X9366610Y-15889984D02*
X9385658Y-15899508D01*
X9385658Y-15899508D02*
X9395182Y-15909031D01*
X9395182Y-15909031D02*
X9404705Y-15928079D01*
X9404705Y-15928079D02*
X9414229Y-15966174D01*
X9414229Y-15966174D02*
X9414229Y-16013793D01*
X9414229Y-16013793D02*
X9404705Y-16051888D01*
X9404705Y-16051888D02*
X9395182Y-16070936D01*
X9395182Y-16070936D02*
X9385658Y-16080460D01*
X9385658Y-16080460D02*
X9366610Y-16089984D01*
X9366610Y-16089984D02*
X9347563Y-16089984D01*
X9347563Y-16089984D02*
X9328515Y-16080460D01*
X9328515Y-16080460D02*
X9318991Y-16070936D01*
X9318991Y-16070936D02*
X9309467Y-16051888D01*
X9309467Y-16051888D02*
X9299944Y-16013793D01*
X9299944Y-16013793D02*
X9299944Y-15966174D01*
X9299944Y-15966174D02*
X9309467Y-15928079D01*
X9309467Y-15928079D02*
X9318991Y-15909031D01*
X9318991Y-15909031D02*
X9328515Y-15899508D01*
X9328515Y-15899508D02*
X9347563Y-15889984D01*
X9538039Y-15889984D02*
X9557086Y-15889984D01*
X9557086Y-15889984D02*
X9576134Y-15899508D01*
X9576134Y-15899508D02*
X9585658Y-15909031D01*
X9585658Y-15909031D02*
X9595182Y-15928079D01*
X9595182Y-15928079D02*
X9604705Y-15966174D01*
X9604705Y-15966174D02*
X9604705Y-16013793D01*
X9604705Y-16013793D02*
X9595182Y-16051888D01*
X9595182Y-16051888D02*
X9585658Y-16070936D01*
X9585658Y-16070936D02*
X9576134Y-16080460D01*
X9576134Y-16080460D02*
X9557086Y-16089984D01*
X9557086Y-16089984D02*
X9538039Y-16089984D01*
X9538039Y-16089984D02*
X9518991Y-16080460D01*
X9518991Y-16080460D02*
X9509467Y-16070936D01*
X9509467Y-16070936D02*
X9499944Y-16051888D01*
X9499944Y-16051888D02*
X9490420Y-16013793D01*
X9490420Y-16013793D02*
X9490420Y-15966174D01*
X9490420Y-15966174D02*
X9499944Y-15928079D01*
X9499944Y-15928079D02*
X9509467Y-15909031D01*
X9509467Y-15909031D02*
X9518991Y-15899508D01*
X9518991Y-15899508D02*
X9538039Y-15889984D01*
X9690420Y-16089984D02*
X9690420Y-15956650D01*
X9690420Y-15975698D02*
X9699944Y-15966174D01*
X9699944Y-15966174D02*
X9718991Y-15956650D01*
X9718991Y-15956650D02*
X9747563Y-15956650D01*
X9747563Y-15956650D02*
X9766610Y-15966174D01*
X9766610Y-15966174D02*
X9776134Y-15985222D01*
X9776134Y-15985222D02*
X9776134Y-16089984D01*
X9776134Y-15985222D02*
X9785658Y-15966174D01*
X9785658Y-15966174D02*
X9804705Y-15956650D01*
X9804705Y-15956650D02*
X9833277Y-15956650D01*
X9833277Y-15956650D02*
X9852325Y-15966174D01*
X9852325Y-15966174D02*
X9861848Y-15985222D01*
X9861848Y-15985222D02*
X9861848Y-16089984D01*
X9957086Y-16089984D02*
X9957086Y-15956650D01*
X9957086Y-15975698D02*
X9966610Y-15966174D01*
X9966610Y-15966174D02*
X9985658Y-15956650D01*
X9985658Y-15956650D02*
X10014229Y-15956650D01*
X10014229Y-15956650D02*
X10033277Y-15966174D01*
X10033277Y-15966174D02*
X10042801Y-15985222D01*
X10042801Y-15985222D02*
X10042801Y-16089984D01*
X10042801Y-15985222D02*
X10052325Y-15966174D01*
X10052325Y-15966174D02*
X10071372Y-15956650D01*
X10071372Y-15956650D02*
X10099944Y-15956650D01*
X10099944Y-15956650D02*
X10118991Y-15966174D01*
X10118991Y-15966174D02*
X10128515Y-15985222D01*
X10128515Y-15985222D02*
X10128515Y-16089984D01*
X10518991Y-15880460D02*
X10347563Y-16137603D01*
X10776134Y-15889984D02*
X10795182Y-15889984D01*
X10795182Y-15889984D02*
X10814229Y-15899508D01*
X10814229Y-15899508D02*
X10823753Y-15909031D01*
X10823753Y-15909031D02*
X10833277Y-15928079D01*
X10833277Y-15928079D02*
X10842801Y-15966174D01*
X10842801Y-15966174D02*
X10842801Y-16013793D01*
X10842801Y-16013793D02*
X10833277Y-16051888D01*
X10833277Y-16051888D02*
X10823753Y-16070936D01*
X10823753Y-16070936D02*
X10814229Y-16080460D01*
X10814229Y-16080460D02*
X10795182Y-16089984D01*
X10795182Y-16089984D02*
X10776134Y-16089984D01*
X10776134Y-16089984D02*
X10757087Y-16080460D01*
X10757087Y-16080460D02*
X10747563Y-16070936D01*
X10747563Y-16070936D02*
X10738039Y-16051888D01*
X10738039Y-16051888D02*
X10728515Y-16013793D01*
X10728515Y-16013793D02*
X10728515Y-15966174D01*
X10728515Y-15966174D02*
X10738039Y-15928079D01*
X10738039Y-15928079D02*
X10747563Y-15909031D01*
X10747563Y-15909031D02*
X10757087Y-15899508D01*
X10757087Y-15899508D02*
X10776134Y-15889984D01*
X10928515Y-16070936D02*
X10938039Y-16080460D01*
X10938039Y-16080460D02*
X10928515Y-16089984D01*
X10928515Y-16089984D02*
X10918991Y-16080460D01*
X10918991Y-16080460D02*
X10928515Y-16070936D01*
X10928515Y-16070936D02*
X10928515Y-16089984D01*
X11061848Y-15889984D02*
X11080896Y-15889984D01*
X11080896Y-15889984D02*
X11099944Y-15899508D01*
X11099944Y-15899508D02*
X11109468Y-15909031D01*
X11109468Y-15909031D02*
X11118991Y-15928079D01*
X11118991Y-15928079D02*
X11128515Y-15966174D01*
X11128515Y-15966174D02*
X11128515Y-16013793D01*
X11128515Y-16013793D02*
X11118991Y-16051888D01*
X11118991Y-16051888D02*
X11109468Y-16070936D01*
X11109468Y-16070936D02*
X11099944Y-16080460D01*
X11099944Y-16080460D02*
X11080896Y-16089984D01*
X11080896Y-16089984D02*
X11061848Y-16089984D01*
X11061848Y-16089984D02*
X11042801Y-16080460D01*
X11042801Y-16080460D02*
X11033277Y-16070936D01*
X11033277Y-16070936D02*
X11023753Y-16051888D01*
X11023753Y-16051888D02*
X11014229Y-16013793D01*
X11014229Y-16013793D02*
X11014229Y-15966174D01*
X11014229Y-15966174D02*
X11023753Y-15928079D01*
X11023753Y-15928079D02*
X11033277Y-15909031D01*
X11033277Y-15909031D02*
X11042801Y-15899508D01*
X11042801Y-15899508D02*
X11061848Y-15889984D01*
X11195182Y-15889984D02*
X11318991Y-15889984D01*
X11318991Y-15889984D02*
X11252325Y-15966174D01*
X11252325Y-15966174D02*
X11280896Y-15966174D01*
X11280896Y-15966174D02*
X11299944Y-15975698D01*
X11299944Y-15975698D02*
X11309467Y-15985222D01*
X11309467Y-15985222D02*
X11318991Y-16004269D01*
X11318991Y-16004269D02*
X11318991Y-16051888D01*
X11318991Y-16051888D02*
X11309467Y-16070936D01*
X11309467Y-16070936D02*
X11299944Y-16080460D01*
X11299944Y-16080460D02*
X11280896Y-16089984D01*
X11280896Y-16089984D02*
X11223753Y-16089984D01*
X11223753Y-16089984D02*
X11204706Y-16080460D01*
X11204706Y-16080460D02*
X11195182Y-16070936D01*
X11509467Y-16089984D02*
X11395182Y-16089984D01*
X11452325Y-16089984D02*
X11452325Y-15889984D01*
X11452325Y-15889984D02*
X11433277Y-15918555D01*
X11433277Y-15918555D02*
X11414229Y-15937603D01*
X11414229Y-15937603D02*
X11395182Y-15947127D01*
X11690420Y-15889984D02*
X11595182Y-15889984D01*
X11595182Y-15889984D02*
X11585658Y-15985222D01*
X11585658Y-15985222D02*
X11595182Y-15975698D01*
X11595182Y-15975698D02*
X11614229Y-15966174D01*
X11614229Y-15966174D02*
X11661848Y-15966174D01*
X11661848Y-15966174D02*
X11680896Y-15975698D01*
X11680896Y-15975698D02*
X11690420Y-15985222D01*
X11690420Y-15985222D02*
X11699944Y-16004269D01*
X11699944Y-16004269D02*
X11699944Y-16051888D01*
X11699944Y-16051888D02*
X11690420Y-16070936D01*
X11690420Y-16070936D02*
X11680896Y-16080460D01*
X11680896Y-16080460D02*
X11661848Y-16089984D01*
X11661848Y-16089984D02*
X11614229Y-16089984D01*
X11614229Y-16089984D02*
X11595182Y-16080460D01*
X11595182Y-16080460D02*
X11585658Y-16070936D01*
X11776134Y-15889984D02*
X11776134Y-15928079D01*
X11852325Y-15889984D02*
X11852325Y-15928079D01*
X12147563Y-16166174D02*
X12138039Y-16156650D01*
X12138039Y-16156650D02*
X12118991Y-16128079D01*
X12118991Y-16128079D02*
X12109468Y-16109031D01*
X12109468Y-16109031D02*
X12099944Y-16080460D01*
X12099944Y-16080460D02*
X12090420Y-16032841D01*
X12090420Y-16032841D02*
X12090420Y-15994746D01*
X12090420Y-15994746D02*
X12099944Y-15947127D01*
X12099944Y-15947127D02*
X12109468Y-15918555D01*
X12109468Y-15918555D02*
X12118991Y-15899508D01*
X12118991Y-15899508D02*
X12138039Y-15870936D01*
X12138039Y-15870936D02*
X12147563Y-15861412D01*
X12309468Y-15889984D02*
X12271372Y-15889984D01*
X12271372Y-15889984D02*
X12252325Y-15899508D01*
X12252325Y-15899508D02*
X12242801Y-15909031D01*
X12242801Y-15909031D02*
X12223753Y-15937603D01*
X12223753Y-15937603D02*
X12214229Y-15975698D01*
X12214229Y-15975698D02*
X12214229Y-16051888D01*
X12214229Y-16051888D02*
X12223753Y-16070936D01*
X12223753Y-16070936D02*
X12233277Y-16080460D01*
X12233277Y-16080460D02*
X12252325Y-16089984D01*
X12252325Y-16089984D02*
X12290420Y-16089984D01*
X12290420Y-16089984D02*
X12309468Y-16080460D01*
X12309468Y-16080460D02*
X12318991Y-16070936D01*
X12318991Y-16070936D02*
X12328515Y-16051888D01*
X12328515Y-16051888D02*
X12328515Y-16004269D01*
X12328515Y-16004269D02*
X12318991Y-15985222D01*
X12318991Y-15985222D02*
X12309468Y-15975698D01*
X12309468Y-15975698D02*
X12290420Y-15966174D01*
X12290420Y-15966174D02*
X12252325Y-15966174D01*
X12252325Y-15966174D02*
X12233277Y-15975698D01*
X12233277Y-15975698D02*
X12223753Y-15985222D01*
X12223753Y-15985222D02*
X12214229Y-16004269D01*
X12566610Y-16089984D02*
X12566610Y-15889984D01*
X12652325Y-16089984D02*
X12652325Y-15985222D01*
X12652325Y-15985222D02*
X12642801Y-15966174D01*
X12642801Y-15966174D02*
X12623753Y-15956650D01*
X12623753Y-15956650D02*
X12595182Y-15956650D01*
X12595182Y-15956650D02*
X12576134Y-15966174D01*
X12576134Y-15966174D02*
X12566610Y-15975698D01*
X12776134Y-16089984D02*
X12757087Y-16080460D01*
X12757087Y-16080460D02*
X12747563Y-16070936D01*
X12747563Y-16070936D02*
X12738039Y-16051888D01*
X12738039Y-16051888D02*
X12738039Y-15994746D01*
X12738039Y-15994746D02*
X12747563Y-15975698D01*
X12747563Y-15975698D02*
X12757087Y-15966174D01*
X12757087Y-15966174D02*
X12776134Y-15956650D01*
X12776134Y-15956650D02*
X12804706Y-15956650D01*
X12804706Y-15956650D02*
X12823753Y-15966174D01*
X12823753Y-15966174D02*
X12833277Y-15975698D01*
X12833277Y-15975698D02*
X12842801Y-15994746D01*
X12842801Y-15994746D02*
X12842801Y-16051888D01*
X12842801Y-16051888D02*
X12833277Y-16070936D01*
X12833277Y-16070936D02*
X12823753Y-16080460D01*
X12823753Y-16080460D02*
X12804706Y-16089984D01*
X12804706Y-16089984D02*
X12776134Y-16089984D01*
X12957087Y-16089984D02*
X12938039Y-16080460D01*
X12938039Y-16080460D02*
X12928515Y-16061412D01*
X12928515Y-16061412D02*
X12928515Y-15889984D01*
X13109468Y-16080460D02*
X13090420Y-16089984D01*
X13090420Y-16089984D02*
X13052325Y-16089984D01*
X13052325Y-16089984D02*
X13033277Y-16080460D01*
X13033277Y-16080460D02*
X13023753Y-16061412D01*
X13023753Y-16061412D02*
X13023753Y-15985222D01*
X13023753Y-15985222D02*
X13033277Y-15966174D01*
X13033277Y-15966174D02*
X13052325Y-15956650D01*
X13052325Y-15956650D02*
X13090420Y-15956650D01*
X13090420Y-15956650D02*
X13109468Y-15966174D01*
X13109468Y-15966174D02*
X13118991Y-15985222D01*
X13118991Y-15985222D02*
X13118991Y-16004269D01*
X13118991Y-16004269D02*
X13023753Y-16023317D01*
X13195182Y-16080460D02*
X13214230Y-16089984D01*
X13214230Y-16089984D02*
X13252325Y-16089984D01*
X13252325Y-16089984D02*
X13271372Y-16080460D01*
X13271372Y-16080460D02*
X13280896Y-16061412D01*
X13280896Y-16061412D02*
X13280896Y-16051888D01*
X13280896Y-16051888D02*
X13271372Y-16032841D01*
X13271372Y-16032841D02*
X13252325Y-16023317D01*
X13252325Y-16023317D02*
X13223753Y-16023317D01*
X13223753Y-16023317D02*
X13204706Y-16013793D01*
X13204706Y-16013793D02*
X13195182Y-15994746D01*
X13195182Y-15994746D02*
X13195182Y-15985222D01*
X13195182Y-15985222D02*
X13204706Y-15966174D01*
X13204706Y-15966174D02*
X13223753Y-15956650D01*
X13223753Y-15956650D02*
X13252325Y-15956650D01*
X13252325Y-15956650D02*
X13271372Y-15966174D01*
X13347563Y-16166174D02*
X13357087Y-16156650D01*
X13357087Y-16156650D02*
X13376134Y-16128079D01*
X13376134Y-16128079D02*
X13385658Y-16109031D01*
X13385658Y-16109031D02*
X13395182Y-16080460D01*
X13395182Y-16080460D02*
X13404706Y-16032841D01*
X13404706Y-16032841D02*
X13404706Y-15994746D01*
X13404706Y-15994746D02*
X13395182Y-15947127D01*
X13395182Y-15947127D02*
X13385658Y-15918555D01*
X13385658Y-15918555D02*
X13376134Y-15899508D01*
X13376134Y-15899508D02*
X13357087Y-15870936D01*
X13357087Y-15870936D02*
X13347563Y-15861412D01*
D13*
X8491220Y-16221860D02*
X8572500Y-16303140D01*
X8572500Y-16221860D02*
X8491220Y-16303140D01*
X8572500Y-16262500D02*
G75*
G02*
X8491220Y-16262500I-40640J0D01*
G01*
X8491220Y-16262500D02*
G75*
G02*
X8572500Y-16262500I40640J0D01*
G01*
D12*
X8871372Y-16153984D02*
X8890420Y-16153984D01*
X8890420Y-16153984D02*
X8909467Y-16163508D01*
X8909467Y-16163508D02*
X8918991Y-16173031D01*
X8918991Y-16173031D02*
X8928515Y-16192079D01*
X8928515Y-16192079D02*
X8938039Y-16230174D01*
X8938039Y-16230174D02*
X8938039Y-16277793D01*
X8938039Y-16277793D02*
X8928515Y-16315888D01*
X8928515Y-16315888D02*
X8918991Y-16334936D01*
X8918991Y-16334936D02*
X8909467Y-16344460D01*
X8909467Y-16344460D02*
X8890420Y-16353984D01*
X8890420Y-16353984D02*
X8871372Y-16353984D01*
X8871372Y-16353984D02*
X8852324Y-16344460D01*
X8852324Y-16344460D02*
X8842801Y-16334936D01*
X8842801Y-16334936D02*
X8833277Y-16315888D01*
X8833277Y-16315888D02*
X8823753Y-16277793D01*
X8823753Y-16277793D02*
X8823753Y-16230174D01*
X8823753Y-16230174D02*
X8833277Y-16192079D01*
X8833277Y-16192079D02*
X8842801Y-16173031D01*
X8842801Y-16173031D02*
X8852324Y-16163508D01*
X8852324Y-16163508D02*
X8871372Y-16153984D01*
X9023753Y-16334936D02*
X9033277Y-16344460D01*
X9033277Y-16344460D02*
X9023753Y-16353984D01*
X9023753Y-16353984D02*
X9014229Y-16344460D01*
X9014229Y-16344460D02*
X9023753Y-16334936D01*
X9023753Y-16334936D02*
X9023753Y-16353984D01*
X9147563Y-16239698D02*
X9128515Y-16230174D01*
X9128515Y-16230174D02*
X9118991Y-16220650D01*
X9118991Y-16220650D02*
X9109467Y-16201603D01*
X9109467Y-16201603D02*
X9109467Y-16192079D01*
X9109467Y-16192079D02*
X9118991Y-16173031D01*
X9118991Y-16173031D02*
X9128515Y-16163508D01*
X9128515Y-16163508D02*
X9147563Y-16153984D01*
X9147563Y-16153984D02*
X9185658Y-16153984D01*
X9185658Y-16153984D02*
X9204705Y-16163508D01*
X9204705Y-16163508D02*
X9214229Y-16173031D01*
X9214229Y-16173031D02*
X9223753Y-16192079D01*
X9223753Y-16192079D02*
X9223753Y-16201603D01*
X9223753Y-16201603D02*
X9214229Y-16220650D01*
X9214229Y-16220650D02*
X9204705Y-16230174D01*
X9204705Y-16230174D02*
X9185658Y-16239698D01*
X9185658Y-16239698D02*
X9147563Y-16239698D01*
X9147563Y-16239698D02*
X9128515Y-16249222D01*
X9128515Y-16249222D02*
X9118991Y-16258746D01*
X9118991Y-16258746D02*
X9109467Y-16277793D01*
X9109467Y-16277793D02*
X9109467Y-16315888D01*
X9109467Y-16315888D02*
X9118991Y-16334936D01*
X9118991Y-16334936D02*
X9128515Y-16344460D01*
X9128515Y-16344460D02*
X9147563Y-16353984D01*
X9147563Y-16353984D02*
X9185658Y-16353984D01*
X9185658Y-16353984D02*
X9204705Y-16344460D01*
X9204705Y-16344460D02*
X9214229Y-16334936D01*
X9214229Y-16334936D02*
X9223753Y-16315888D01*
X9223753Y-16315888D02*
X9223753Y-16277793D01*
X9223753Y-16277793D02*
X9214229Y-16258746D01*
X9214229Y-16258746D02*
X9204705Y-16249222D01*
X9204705Y-16249222D02*
X9185658Y-16239698D01*
X9414229Y-16353984D02*
X9299944Y-16353984D01*
X9357086Y-16353984D02*
X9357086Y-16153984D01*
X9357086Y-16153984D02*
X9338039Y-16182555D01*
X9338039Y-16182555D02*
X9318991Y-16201603D01*
X9318991Y-16201603D02*
X9299944Y-16211127D01*
X9480896Y-16153984D02*
X9604705Y-16153984D01*
X9604705Y-16153984D02*
X9538039Y-16230174D01*
X9538039Y-16230174D02*
X9566610Y-16230174D01*
X9566610Y-16230174D02*
X9585658Y-16239698D01*
X9585658Y-16239698D02*
X9595182Y-16249222D01*
X9595182Y-16249222D02*
X9604705Y-16268269D01*
X9604705Y-16268269D02*
X9604705Y-16315888D01*
X9604705Y-16315888D02*
X9595182Y-16334936D01*
X9595182Y-16334936D02*
X9585658Y-16344460D01*
X9585658Y-16344460D02*
X9566610Y-16353984D01*
X9566610Y-16353984D02*
X9509467Y-16353984D01*
X9509467Y-16353984D02*
X9490420Y-16344460D01*
X9490420Y-16344460D02*
X9480896Y-16334936D01*
X9690420Y-16353984D02*
X9690420Y-16220650D01*
X9690420Y-16239698D02*
X9699944Y-16230174D01*
X9699944Y-16230174D02*
X9718991Y-16220650D01*
X9718991Y-16220650D02*
X9747563Y-16220650D01*
X9747563Y-16220650D02*
X9766610Y-16230174D01*
X9766610Y-16230174D02*
X9776134Y-16249222D01*
X9776134Y-16249222D02*
X9776134Y-16353984D01*
X9776134Y-16249222D02*
X9785658Y-16230174D01*
X9785658Y-16230174D02*
X9804705Y-16220650D01*
X9804705Y-16220650D02*
X9833277Y-16220650D01*
X9833277Y-16220650D02*
X9852325Y-16230174D01*
X9852325Y-16230174D02*
X9861848Y-16249222D01*
X9861848Y-16249222D02*
X9861848Y-16353984D01*
X9957086Y-16353984D02*
X9957086Y-16220650D01*
X9957086Y-16239698D02*
X9966610Y-16230174D01*
X9966610Y-16230174D02*
X9985658Y-16220650D01*
X9985658Y-16220650D02*
X10014229Y-16220650D01*
X10014229Y-16220650D02*
X10033277Y-16230174D01*
X10033277Y-16230174D02*
X10042801Y-16249222D01*
X10042801Y-16249222D02*
X10042801Y-16353984D01*
X10042801Y-16249222D02*
X10052325Y-16230174D01*
X10052325Y-16230174D02*
X10071372Y-16220650D01*
X10071372Y-16220650D02*
X10099944Y-16220650D01*
X10099944Y-16220650D02*
X10118991Y-16230174D01*
X10118991Y-16230174D02*
X10128515Y-16249222D01*
X10128515Y-16249222D02*
X10128515Y-16353984D01*
X10518991Y-16144460D02*
X10347563Y-16401603D01*
X10776134Y-16153984D02*
X10795182Y-16153984D01*
X10795182Y-16153984D02*
X10814229Y-16163508D01*
X10814229Y-16163508D02*
X10823753Y-16173031D01*
X10823753Y-16173031D02*
X10833277Y-16192079D01*
X10833277Y-16192079D02*
X10842801Y-16230174D01*
X10842801Y-16230174D02*
X10842801Y-16277793D01*
X10842801Y-16277793D02*
X10833277Y-16315888D01*
X10833277Y-16315888D02*
X10823753Y-16334936D01*
X10823753Y-16334936D02*
X10814229Y-16344460D01*
X10814229Y-16344460D02*
X10795182Y-16353984D01*
X10795182Y-16353984D02*
X10776134Y-16353984D01*
X10776134Y-16353984D02*
X10757087Y-16344460D01*
X10757087Y-16344460D02*
X10747563Y-16334936D01*
X10747563Y-16334936D02*
X10738039Y-16315888D01*
X10738039Y-16315888D02*
X10728515Y-16277793D01*
X10728515Y-16277793D02*
X10728515Y-16230174D01*
X10728515Y-16230174D02*
X10738039Y-16192079D01*
X10738039Y-16192079D02*
X10747563Y-16173031D01*
X10747563Y-16173031D02*
X10757087Y-16163508D01*
X10757087Y-16163508D02*
X10776134Y-16153984D01*
X10928515Y-16334936D02*
X10938039Y-16344460D01*
X10938039Y-16344460D02*
X10928515Y-16353984D01*
X10928515Y-16353984D02*
X10918991Y-16344460D01*
X10918991Y-16344460D02*
X10928515Y-16334936D01*
X10928515Y-16334936D02*
X10928515Y-16353984D01*
X11061848Y-16153984D02*
X11080896Y-16153984D01*
X11080896Y-16153984D02*
X11099944Y-16163508D01*
X11099944Y-16163508D02*
X11109468Y-16173031D01*
X11109468Y-16173031D02*
X11118991Y-16192079D01*
X11118991Y-16192079D02*
X11128515Y-16230174D01*
X11128515Y-16230174D02*
X11128515Y-16277793D01*
X11128515Y-16277793D02*
X11118991Y-16315888D01*
X11118991Y-16315888D02*
X11109468Y-16334936D01*
X11109468Y-16334936D02*
X11099944Y-16344460D01*
X11099944Y-16344460D02*
X11080896Y-16353984D01*
X11080896Y-16353984D02*
X11061848Y-16353984D01*
X11061848Y-16353984D02*
X11042801Y-16344460D01*
X11042801Y-16344460D02*
X11033277Y-16334936D01*
X11033277Y-16334936D02*
X11023753Y-16315888D01*
X11023753Y-16315888D02*
X11014229Y-16277793D01*
X11014229Y-16277793D02*
X11014229Y-16230174D01*
X11014229Y-16230174D02*
X11023753Y-16192079D01*
X11023753Y-16192079D02*
X11033277Y-16173031D01*
X11033277Y-16173031D02*
X11042801Y-16163508D01*
X11042801Y-16163508D02*
X11061848Y-16153984D01*
X11195182Y-16153984D02*
X11318991Y-16153984D01*
X11318991Y-16153984D02*
X11252325Y-16230174D01*
X11252325Y-16230174D02*
X11280896Y-16230174D01*
X11280896Y-16230174D02*
X11299944Y-16239698D01*
X11299944Y-16239698D02*
X11309467Y-16249222D01*
X11309467Y-16249222D02*
X11318991Y-16268269D01*
X11318991Y-16268269D02*
X11318991Y-16315888D01*
X11318991Y-16315888D02*
X11309467Y-16334936D01*
X11309467Y-16334936D02*
X11299944Y-16344460D01*
X11299944Y-16344460D02*
X11280896Y-16353984D01*
X11280896Y-16353984D02*
X11223753Y-16353984D01*
X11223753Y-16353984D02*
X11204706Y-16344460D01*
X11204706Y-16344460D02*
X11195182Y-16334936D01*
X11395182Y-16173031D02*
X11404706Y-16163508D01*
X11404706Y-16163508D02*
X11423753Y-16153984D01*
X11423753Y-16153984D02*
X11471372Y-16153984D01*
X11471372Y-16153984D02*
X11490420Y-16163508D01*
X11490420Y-16163508D02*
X11499944Y-16173031D01*
X11499944Y-16173031D02*
X11509467Y-16192079D01*
X11509467Y-16192079D02*
X11509467Y-16211127D01*
X11509467Y-16211127D02*
X11499944Y-16239698D01*
X11499944Y-16239698D02*
X11385658Y-16353984D01*
X11385658Y-16353984D02*
X11509467Y-16353984D01*
X11633277Y-16153984D02*
X11652325Y-16153984D01*
X11652325Y-16153984D02*
X11671372Y-16163508D01*
X11671372Y-16163508D02*
X11680896Y-16173031D01*
X11680896Y-16173031D02*
X11690420Y-16192079D01*
X11690420Y-16192079D02*
X11699944Y-16230174D01*
X11699944Y-16230174D02*
X11699944Y-16277793D01*
X11699944Y-16277793D02*
X11690420Y-16315888D01*
X11690420Y-16315888D02*
X11680896Y-16334936D01*
X11680896Y-16334936D02*
X11671372Y-16344460D01*
X11671372Y-16344460D02*
X11652325Y-16353984D01*
X11652325Y-16353984D02*
X11633277Y-16353984D01*
X11633277Y-16353984D02*
X11614229Y-16344460D01*
X11614229Y-16344460D02*
X11604706Y-16334936D01*
X11604706Y-16334936D02*
X11595182Y-16315888D01*
X11595182Y-16315888D02*
X11585658Y-16277793D01*
X11585658Y-16277793D02*
X11585658Y-16230174D01*
X11585658Y-16230174D02*
X11595182Y-16192079D01*
X11595182Y-16192079D02*
X11604706Y-16173031D01*
X11604706Y-16173031D02*
X11614229Y-16163508D01*
X11614229Y-16163508D02*
X11633277Y-16153984D01*
X11776134Y-16153984D02*
X11776134Y-16192079D01*
X11852325Y-16153984D02*
X11852325Y-16192079D01*
X12147563Y-16430174D02*
X12138039Y-16420650D01*
X12138039Y-16420650D02*
X12118991Y-16392079D01*
X12118991Y-16392079D02*
X12109468Y-16373031D01*
X12109468Y-16373031D02*
X12099944Y-16344460D01*
X12099944Y-16344460D02*
X12090420Y-16296841D01*
X12090420Y-16296841D02*
X12090420Y-16258746D01*
X12090420Y-16258746D02*
X12099944Y-16211127D01*
X12099944Y-16211127D02*
X12109468Y-16182555D01*
X12109468Y-16182555D02*
X12118991Y-16163508D01*
X12118991Y-16163508D02*
X12138039Y-16134936D01*
X12138039Y-16134936D02*
X12147563Y-16125412D01*
X12318991Y-16153984D02*
X12223753Y-16153984D01*
X12223753Y-16153984D02*
X12214229Y-16249222D01*
X12214229Y-16249222D02*
X12223753Y-16239698D01*
X12223753Y-16239698D02*
X12242801Y-16230174D01*
X12242801Y-16230174D02*
X12290420Y-16230174D01*
X12290420Y-16230174D02*
X12309468Y-16239698D01*
X12309468Y-16239698D02*
X12318991Y-16249222D01*
X12318991Y-16249222D02*
X12328515Y-16268269D01*
X12328515Y-16268269D02*
X12328515Y-16315888D01*
X12328515Y-16315888D02*
X12318991Y-16334936D01*
X12318991Y-16334936D02*
X12309468Y-16344460D01*
X12309468Y-16344460D02*
X12290420Y-16353984D01*
X12290420Y-16353984D02*
X12242801Y-16353984D01*
X12242801Y-16353984D02*
X12223753Y-16344460D01*
X12223753Y-16344460D02*
X12214229Y-16334936D01*
X12404706Y-16173031D02*
X12414229Y-16163508D01*
X12414229Y-16163508D02*
X12433277Y-16153984D01*
X12433277Y-16153984D02*
X12480896Y-16153984D01*
X12480896Y-16153984D02*
X12499944Y-16163508D01*
X12499944Y-16163508D02*
X12509468Y-16173031D01*
X12509468Y-16173031D02*
X12518991Y-16192079D01*
X12518991Y-16192079D02*
X12518991Y-16211127D01*
X12518991Y-16211127D02*
X12509468Y-16239698D01*
X12509468Y-16239698D02*
X12395182Y-16353984D01*
X12395182Y-16353984D02*
X12518991Y-16353984D01*
X12757087Y-16353984D02*
X12757087Y-16153984D01*
X12842801Y-16353984D02*
X12842801Y-16249222D01*
X12842801Y-16249222D02*
X12833277Y-16230174D01*
X12833277Y-16230174D02*
X12814230Y-16220650D01*
X12814230Y-16220650D02*
X12785658Y-16220650D01*
X12785658Y-16220650D02*
X12766610Y-16230174D01*
X12766610Y-16230174D02*
X12757087Y-16239698D01*
X12966610Y-16353984D02*
X12947563Y-16344460D01*
X12947563Y-16344460D02*
X12938039Y-16334936D01*
X12938039Y-16334936D02*
X12928515Y-16315888D01*
X12928515Y-16315888D02*
X12928515Y-16258746D01*
X12928515Y-16258746D02*
X12938039Y-16239698D01*
X12938039Y-16239698D02*
X12947563Y-16230174D01*
X12947563Y-16230174D02*
X12966610Y-16220650D01*
X12966610Y-16220650D02*
X12995182Y-16220650D01*
X12995182Y-16220650D02*
X13014230Y-16230174D01*
X13014230Y-16230174D02*
X13023753Y-16239698D01*
X13023753Y-16239698D02*
X13033277Y-16258746D01*
X13033277Y-16258746D02*
X13033277Y-16315888D01*
X13033277Y-16315888D02*
X13023753Y-16334936D01*
X13023753Y-16334936D02*
X13014230Y-16344460D01*
X13014230Y-16344460D02*
X12995182Y-16353984D01*
X12995182Y-16353984D02*
X12966610Y-16353984D01*
X13147563Y-16353984D02*
X13128515Y-16344460D01*
X13128515Y-16344460D02*
X13118991Y-16325412D01*
X13118991Y-16325412D02*
X13118991Y-16153984D01*
X13299944Y-16344460D02*
X13280896Y-16353984D01*
X13280896Y-16353984D02*
X13242801Y-16353984D01*
X13242801Y-16353984D02*
X13223753Y-16344460D01*
X13223753Y-16344460D02*
X13214230Y-16325412D01*
X13214230Y-16325412D02*
X13214230Y-16249222D01*
X13214230Y-16249222D02*
X13223753Y-16230174D01*
X13223753Y-16230174D02*
X13242801Y-16220650D01*
X13242801Y-16220650D02*
X13280896Y-16220650D01*
X13280896Y-16220650D02*
X13299944Y-16230174D01*
X13299944Y-16230174D02*
X13309468Y-16249222D01*
X13309468Y-16249222D02*
X13309468Y-16268269D01*
X13309468Y-16268269D02*
X13214230Y-16287317D01*
X13385658Y-16344460D02*
X13404706Y-16353984D01*
X13404706Y-16353984D02*
X13442801Y-16353984D01*
X13442801Y-16353984D02*
X13461849Y-16344460D01*
X13461849Y-16344460D02*
X13471372Y-16325412D01*
X13471372Y-16325412D02*
X13471372Y-16315888D01*
X13471372Y-16315888D02*
X13461849Y-16296841D01*
X13461849Y-16296841D02*
X13442801Y-16287317D01*
X13442801Y-16287317D02*
X13414230Y-16287317D01*
X13414230Y-16287317D02*
X13395182Y-16277793D01*
X13395182Y-16277793D02*
X13385658Y-16258746D01*
X13385658Y-16258746D02*
X13385658Y-16249222D01*
X13385658Y-16249222D02*
X13395182Y-16230174D01*
X13395182Y-16230174D02*
X13414230Y-16220650D01*
X13414230Y-16220650D02*
X13442801Y-16220650D01*
X13442801Y-16220650D02*
X13461849Y-16230174D01*
X13538039Y-16430174D02*
X13547563Y-16420650D01*
X13547563Y-16420650D02*
X13566611Y-16392079D01*
X13566611Y-16392079D02*
X13576134Y-16373031D01*
X13576134Y-16373031D02*
X13585658Y-16344460D01*
X13585658Y-16344460D02*
X13595182Y-16296841D01*
X13595182Y-16296841D02*
X13595182Y-16258746D01*
X13595182Y-16258746D02*
X13585658Y-16211127D01*
X13585658Y-16211127D02*
X13576134Y-16182555D01*
X13576134Y-16182555D02*
X13566611Y-16163508D01*
X13566611Y-16163508D02*
X13547563Y-16134936D01*
X13547563Y-16134936D02*
X13538039Y-16125412D01*
D13*
X8482500Y-16481500D02*
X8572500Y-16571500D01*
X8572500Y-16481500D02*
X8482500Y-16571500D01*
X8527500Y-16481500D02*
X8527500Y-16571500D01*
X8482500Y-16526500D02*
X8572500Y-16526500D01*
D12*
X8871372Y-16417984D02*
X8890420Y-16417984D01*
X8890420Y-16417984D02*
X8909467Y-16427508D01*
X8909467Y-16427508D02*
X8918991Y-16437031D01*
X8918991Y-16437031D02*
X8928515Y-16456079D01*
X8928515Y-16456079D02*
X8938039Y-16494174D01*
X8938039Y-16494174D02*
X8938039Y-16541793D01*
X8938039Y-16541793D02*
X8928515Y-16579888D01*
X8928515Y-16579888D02*
X8918991Y-16598936D01*
X8918991Y-16598936D02*
X8909467Y-16608460D01*
X8909467Y-16608460D02*
X8890420Y-16617984D01*
X8890420Y-16617984D02*
X8871372Y-16617984D01*
X8871372Y-16617984D02*
X8852324Y-16608460D01*
X8852324Y-16608460D02*
X8842801Y-16598936D01*
X8842801Y-16598936D02*
X8833277Y-16579888D01*
X8833277Y-16579888D02*
X8823753Y-16541793D01*
X8823753Y-16541793D02*
X8823753Y-16494174D01*
X8823753Y-16494174D02*
X8833277Y-16456079D01*
X8833277Y-16456079D02*
X8842801Y-16437031D01*
X8842801Y-16437031D02*
X8852324Y-16427508D01*
X8852324Y-16427508D02*
X8871372Y-16417984D01*
X9023753Y-16598936D02*
X9033277Y-16608460D01*
X9033277Y-16608460D02*
X9023753Y-16617984D01*
X9023753Y-16617984D02*
X9014229Y-16608460D01*
X9014229Y-16608460D02*
X9023753Y-16598936D01*
X9023753Y-16598936D02*
X9023753Y-16617984D01*
X9128515Y-16617984D02*
X9166610Y-16617984D01*
X9166610Y-16617984D02*
X9185658Y-16608460D01*
X9185658Y-16608460D02*
X9195182Y-16598936D01*
X9195182Y-16598936D02*
X9214229Y-16570365D01*
X9214229Y-16570365D02*
X9223753Y-16532269D01*
X9223753Y-16532269D02*
X9223753Y-16456079D01*
X9223753Y-16456079D02*
X9214229Y-16437031D01*
X9214229Y-16437031D02*
X9204705Y-16427508D01*
X9204705Y-16427508D02*
X9185658Y-16417984D01*
X9185658Y-16417984D02*
X9147563Y-16417984D01*
X9147563Y-16417984D02*
X9128515Y-16427508D01*
X9128515Y-16427508D02*
X9118991Y-16437031D01*
X9118991Y-16437031D02*
X9109467Y-16456079D01*
X9109467Y-16456079D02*
X9109467Y-16503698D01*
X9109467Y-16503698D02*
X9118991Y-16522746D01*
X9118991Y-16522746D02*
X9128515Y-16532269D01*
X9128515Y-16532269D02*
X9147563Y-16541793D01*
X9147563Y-16541793D02*
X9185658Y-16541793D01*
X9185658Y-16541793D02*
X9204705Y-16532269D01*
X9204705Y-16532269D02*
X9214229Y-16522746D01*
X9214229Y-16522746D02*
X9223753Y-16503698D01*
X9347563Y-16417984D02*
X9366610Y-16417984D01*
X9366610Y-16417984D02*
X9385658Y-16427508D01*
X9385658Y-16427508D02*
X9395182Y-16437031D01*
X9395182Y-16437031D02*
X9404705Y-16456079D01*
X9404705Y-16456079D02*
X9414229Y-16494174D01*
X9414229Y-16494174D02*
X9414229Y-16541793D01*
X9414229Y-16541793D02*
X9404705Y-16579888D01*
X9404705Y-16579888D02*
X9395182Y-16598936D01*
X9395182Y-16598936D02*
X9385658Y-16608460D01*
X9385658Y-16608460D02*
X9366610Y-16617984D01*
X9366610Y-16617984D02*
X9347563Y-16617984D01*
X9347563Y-16617984D02*
X9328515Y-16608460D01*
X9328515Y-16608460D02*
X9318991Y-16598936D01*
X9318991Y-16598936D02*
X9309467Y-16579888D01*
X9309467Y-16579888D02*
X9299944Y-16541793D01*
X9299944Y-16541793D02*
X9299944Y-16494174D01*
X9299944Y-16494174D02*
X9309467Y-16456079D01*
X9309467Y-16456079D02*
X9318991Y-16437031D01*
X9318991Y-16437031D02*
X9328515Y-16427508D01*
X9328515Y-16427508D02*
X9347563Y-16417984D01*
X9538039Y-16417984D02*
X9557086Y-16417984D01*
X9557086Y-16417984D02*
X9576134Y-16427508D01*
X9576134Y-16427508D02*
X9585658Y-16437031D01*
X9585658Y-16437031D02*
X9595182Y-16456079D01*
X9595182Y-16456079D02*
X9604705Y-16494174D01*
X9604705Y-16494174D02*
X9604705Y-16541793D01*
X9604705Y-16541793D02*
X9595182Y-16579888D01*
X9595182Y-16579888D02*
X9585658Y-16598936D01*
X9585658Y-16598936D02*
X9576134Y-16608460D01*
X9576134Y-16608460D02*
X9557086Y-16617984D01*
X9557086Y-16617984D02*
X9538039Y-16617984D01*
X9538039Y-16617984D02*
X9518991Y-16608460D01*
X9518991Y-16608460D02*
X9509467Y-16598936D01*
X9509467Y-16598936D02*
X9499944Y-16579888D01*
X9499944Y-16579888D02*
X9490420Y-16541793D01*
X9490420Y-16541793D02*
X9490420Y-16494174D01*
X9490420Y-16494174D02*
X9499944Y-16456079D01*
X9499944Y-16456079D02*
X9509467Y-16437031D01*
X9509467Y-16437031D02*
X9518991Y-16427508D01*
X9518991Y-16427508D02*
X9538039Y-16417984D01*
X9690420Y-16617984D02*
X9690420Y-16484650D01*
X9690420Y-16503698D02*
X9699944Y-16494174D01*
X9699944Y-16494174D02*
X9718991Y-16484650D01*
X9718991Y-16484650D02*
X9747563Y-16484650D01*
X9747563Y-16484650D02*
X9766610Y-16494174D01*
X9766610Y-16494174D02*
X9776134Y-16513222D01*
X9776134Y-16513222D02*
X9776134Y-16617984D01*
X9776134Y-16513222D02*
X9785658Y-16494174D01*
X9785658Y-16494174D02*
X9804705Y-16484650D01*
X9804705Y-16484650D02*
X9833277Y-16484650D01*
X9833277Y-16484650D02*
X9852325Y-16494174D01*
X9852325Y-16494174D02*
X9861848Y-16513222D01*
X9861848Y-16513222D02*
X9861848Y-16617984D01*
X9957086Y-16617984D02*
X9957086Y-16484650D01*
X9957086Y-16503698D02*
X9966610Y-16494174D01*
X9966610Y-16494174D02*
X9985658Y-16484650D01*
X9985658Y-16484650D02*
X10014229Y-16484650D01*
X10014229Y-16484650D02*
X10033277Y-16494174D01*
X10033277Y-16494174D02*
X10042801Y-16513222D01*
X10042801Y-16513222D02*
X10042801Y-16617984D01*
X10042801Y-16513222D02*
X10052325Y-16494174D01*
X10052325Y-16494174D02*
X10071372Y-16484650D01*
X10071372Y-16484650D02*
X10099944Y-16484650D01*
X10099944Y-16484650D02*
X10118991Y-16494174D01*
X10118991Y-16494174D02*
X10128515Y-16513222D01*
X10128515Y-16513222D02*
X10128515Y-16617984D01*
X10518991Y-16408460D02*
X10347563Y-16665603D01*
X10776134Y-16417984D02*
X10795182Y-16417984D01*
X10795182Y-16417984D02*
X10814229Y-16427508D01*
X10814229Y-16427508D02*
X10823753Y-16437031D01*
X10823753Y-16437031D02*
X10833277Y-16456079D01*
X10833277Y-16456079D02*
X10842801Y-16494174D01*
X10842801Y-16494174D02*
X10842801Y-16541793D01*
X10842801Y-16541793D02*
X10833277Y-16579888D01*
X10833277Y-16579888D02*
X10823753Y-16598936D01*
X10823753Y-16598936D02*
X10814229Y-16608460D01*
X10814229Y-16608460D02*
X10795182Y-16617984D01*
X10795182Y-16617984D02*
X10776134Y-16617984D01*
X10776134Y-16617984D02*
X10757087Y-16608460D01*
X10757087Y-16608460D02*
X10747563Y-16598936D01*
X10747563Y-16598936D02*
X10738039Y-16579888D01*
X10738039Y-16579888D02*
X10728515Y-16541793D01*
X10728515Y-16541793D02*
X10728515Y-16494174D01*
X10728515Y-16494174D02*
X10738039Y-16456079D01*
X10738039Y-16456079D02*
X10747563Y-16437031D01*
X10747563Y-16437031D02*
X10757087Y-16427508D01*
X10757087Y-16427508D02*
X10776134Y-16417984D01*
X10928515Y-16598936D02*
X10938039Y-16608460D01*
X10938039Y-16608460D02*
X10928515Y-16617984D01*
X10928515Y-16617984D02*
X10918991Y-16608460D01*
X10918991Y-16608460D02*
X10928515Y-16598936D01*
X10928515Y-16598936D02*
X10928515Y-16617984D01*
X11061848Y-16417984D02*
X11080896Y-16417984D01*
X11080896Y-16417984D02*
X11099944Y-16427508D01*
X11099944Y-16427508D02*
X11109468Y-16437031D01*
X11109468Y-16437031D02*
X11118991Y-16456079D01*
X11118991Y-16456079D02*
X11128515Y-16494174D01*
X11128515Y-16494174D02*
X11128515Y-16541793D01*
X11128515Y-16541793D02*
X11118991Y-16579888D01*
X11118991Y-16579888D02*
X11109468Y-16598936D01*
X11109468Y-16598936D02*
X11099944Y-16608460D01*
X11099944Y-16608460D02*
X11080896Y-16617984D01*
X11080896Y-16617984D02*
X11061848Y-16617984D01*
X11061848Y-16617984D02*
X11042801Y-16608460D01*
X11042801Y-16608460D02*
X11033277Y-16598936D01*
X11033277Y-16598936D02*
X11023753Y-16579888D01*
X11023753Y-16579888D02*
X11014229Y-16541793D01*
X11014229Y-16541793D02*
X11014229Y-16494174D01*
X11014229Y-16494174D02*
X11023753Y-16456079D01*
X11023753Y-16456079D02*
X11033277Y-16437031D01*
X11033277Y-16437031D02*
X11042801Y-16427508D01*
X11042801Y-16427508D02*
X11061848Y-16417984D01*
X11195182Y-16417984D02*
X11318991Y-16417984D01*
X11318991Y-16417984D02*
X11252325Y-16494174D01*
X11252325Y-16494174D02*
X11280896Y-16494174D01*
X11280896Y-16494174D02*
X11299944Y-16503698D01*
X11299944Y-16503698D02*
X11309467Y-16513222D01*
X11309467Y-16513222D02*
X11318991Y-16532269D01*
X11318991Y-16532269D02*
X11318991Y-16579888D01*
X11318991Y-16579888D02*
X11309467Y-16598936D01*
X11309467Y-16598936D02*
X11299944Y-16608460D01*
X11299944Y-16608460D02*
X11280896Y-16617984D01*
X11280896Y-16617984D02*
X11223753Y-16617984D01*
X11223753Y-16617984D02*
X11204706Y-16608460D01*
X11204706Y-16608460D02*
X11195182Y-16598936D01*
X11499944Y-16417984D02*
X11404706Y-16417984D01*
X11404706Y-16417984D02*
X11395182Y-16513222D01*
X11395182Y-16513222D02*
X11404706Y-16503698D01*
X11404706Y-16503698D02*
X11423753Y-16494174D01*
X11423753Y-16494174D02*
X11471372Y-16494174D01*
X11471372Y-16494174D02*
X11490420Y-16503698D01*
X11490420Y-16503698D02*
X11499944Y-16513222D01*
X11499944Y-16513222D02*
X11509467Y-16532269D01*
X11509467Y-16532269D02*
X11509467Y-16579888D01*
X11509467Y-16579888D02*
X11499944Y-16598936D01*
X11499944Y-16598936D02*
X11490420Y-16608460D01*
X11490420Y-16608460D02*
X11471372Y-16617984D01*
X11471372Y-16617984D02*
X11423753Y-16617984D01*
X11423753Y-16617984D02*
X11404706Y-16608460D01*
X11404706Y-16608460D02*
X11395182Y-16598936D01*
X11680896Y-16484650D02*
X11680896Y-16617984D01*
X11633277Y-16408460D02*
X11585658Y-16551317D01*
X11585658Y-16551317D02*
X11709467Y-16551317D01*
X11776134Y-16417984D02*
X11776134Y-16456079D01*
X11852325Y-16417984D02*
X11852325Y-16456079D01*
X12147563Y-16694174D02*
X12138039Y-16684650D01*
X12138039Y-16684650D02*
X12118991Y-16656079D01*
X12118991Y-16656079D02*
X12109468Y-16637031D01*
X12109468Y-16637031D02*
X12099944Y-16608460D01*
X12099944Y-16608460D02*
X12090420Y-16560841D01*
X12090420Y-16560841D02*
X12090420Y-16522746D01*
X12090420Y-16522746D02*
X12099944Y-16475127D01*
X12099944Y-16475127D02*
X12109468Y-16446555D01*
X12109468Y-16446555D02*
X12118991Y-16427508D01*
X12118991Y-16427508D02*
X12138039Y-16398936D01*
X12138039Y-16398936D02*
X12147563Y-16389412D01*
X12309468Y-16417984D02*
X12271372Y-16417984D01*
X12271372Y-16417984D02*
X12252325Y-16427508D01*
X12252325Y-16427508D02*
X12242801Y-16437031D01*
X12242801Y-16437031D02*
X12223753Y-16465603D01*
X12223753Y-16465603D02*
X12214229Y-16503698D01*
X12214229Y-16503698D02*
X12214229Y-16579888D01*
X12214229Y-16579888D02*
X12223753Y-16598936D01*
X12223753Y-16598936D02*
X12233277Y-16608460D01*
X12233277Y-16608460D02*
X12252325Y-16617984D01*
X12252325Y-16617984D02*
X12290420Y-16617984D01*
X12290420Y-16617984D02*
X12309468Y-16608460D01*
X12309468Y-16608460D02*
X12318991Y-16598936D01*
X12318991Y-16598936D02*
X12328515Y-16579888D01*
X12328515Y-16579888D02*
X12328515Y-16532269D01*
X12328515Y-16532269D02*
X12318991Y-16513222D01*
X12318991Y-16513222D02*
X12309468Y-16503698D01*
X12309468Y-16503698D02*
X12290420Y-16494174D01*
X12290420Y-16494174D02*
X12252325Y-16494174D01*
X12252325Y-16494174D02*
X12233277Y-16503698D01*
X12233277Y-16503698D02*
X12223753Y-16513222D01*
X12223753Y-16513222D02*
X12214229Y-16532269D01*
X12566610Y-16617984D02*
X12566610Y-16417984D01*
X12652325Y-16617984D02*
X12652325Y-16513222D01*
X12652325Y-16513222D02*
X12642801Y-16494174D01*
X12642801Y-16494174D02*
X12623753Y-16484650D01*
X12623753Y-16484650D02*
X12595182Y-16484650D01*
X12595182Y-16484650D02*
X12576134Y-16494174D01*
X12576134Y-16494174D02*
X12566610Y-16503698D01*
X12776134Y-16617984D02*
X12757087Y-16608460D01*
X12757087Y-16608460D02*
X12747563Y-16598936D01*
X12747563Y-16598936D02*
X12738039Y-16579888D01*
X12738039Y-16579888D02*
X12738039Y-16522746D01*
X12738039Y-16522746D02*
X12747563Y-16503698D01*
X12747563Y-16503698D02*
X12757087Y-16494174D01*
X12757087Y-16494174D02*
X12776134Y-16484650D01*
X12776134Y-16484650D02*
X12804706Y-16484650D01*
X12804706Y-16484650D02*
X12823753Y-16494174D01*
X12823753Y-16494174D02*
X12833277Y-16503698D01*
X12833277Y-16503698D02*
X12842801Y-16522746D01*
X12842801Y-16522746D02*
X12842801Y-16579888D01*
X12842801Y-16579888D02*
X12833277Y-16598936D01*
X12833277Y-16598936D02*
X12823753Y-16608460D01*
X12823753Y-16608460D02*
X12804706Y-16617984D01*
X12804706Y-16617984D02*
X12776134Y-16617984D01*
X12957087Y-16617984D02*
X12938039Y-16608460D01*
X12938039Y-16608460D02*
X12928515Y-16589412D01*
X12928515Y-16589412D02*
X12928515Y-16417984D01*
X13109468Y-16608460D02*
X13090420Y-16617984D01*
X13090420Y-16617984D02*
X13052325Y-16617984D01*
X13052325Y-16617984D02*
X13033277Y-16608460D01*
X13033277Y-16608460D02*
X13023753Y-16589412D01*
X13023753Y-16589412D02*
X13023753Y-16513222D01*
X13023753Y-16513222D02*
X13033277Y-16494174D01*
X13033277Y-16494174D02*
X13052325Y-16484650D01*
X13052325Y-16484650D02*
X13090420Y-16484650D01*
X13090420Y-16484650D02*
X13109468Y-16494174D01*
X13109468Y-16494174D02*
X13118991Y-16513222D01*
X13118991Y-16513222D02*
X13118991Y-16532269D01*
X13118991Y-16532269D02*
X13023753Y-16551317D01*
X13195182Y-16608460D02*
X13214230Y-16617984D01*
X13214230Y-16617984D02*
X13252325Y-16617984D01*
X13252325Y-16617984D02*
X13271372Y-16608460D01*
X13271372Y-16608460D02*
X13280896Y-16589412D01*
X13280896Y-16589412D02*
X13280896Y-16579888D01*
X13280896Y-16579888D02*
X13271372Y-16560841D01*
X13271372Y-16560841D02*
X13252325Y-16551317D01*
X13252325Y-16551317D02*
X13223753Y-16551317D01*
X13223753Y-16551317D02*
X13204706Y-16541793D01*
X13204706Y-16541793D02*
X13195182Y-16522746D01*
X13195182Y-16522746D02*
X13195182Y-16513222D01*
X13195182Y-16513222D02*
X13204706Y-16494174D01*
X13204706Y-16494174D02*
X13223753Y-16484650D01*
X13223753Y-16484650D02*
X13252325Y-16484650D01*
X13252325Y-16484650D02*
X13271372Y-16494174D01*
X13347563Y-16694174D02*
X13357087Y-16684650D01*
X13357087Y-16684650D02*
X13376134Y-16656079D01*
X13376134Y-16656079D02*
X13385658Y-16637031D01*
X13385658Y-16637031D02*
X13395182Y-16608460D01*
X13395182Y-16608460D02*
X13404706Y-16560841D01*
X13404706Y-16560841D02*
X13404706Y-16522746D01*
X13404706Y-16522746D02*
X13395182Y-16475127D01*
X13395182Y-16475127D02*
X13385658Y-16446555D01*
X13385658Y-16446555D02*
X13376134Y-16427508D01*
X13376134Y-16427508D02*
X13357087Y-16398936D01*
X13357087Y-16398936D02*
X13347563Y-16389412D01*
D13*
X8472500Y-16740500D02*
X8572500Y-16840500D01*
X8572500Y-16740500D02*
X8472500Y-16840500D01*
X8557856Y-16825856D02*
X8557856Y-16755144D01*
X8487144Y-16755144D01*
X8487144Y-16825856D01*
X8557856Y-16825856D01*
D12*
X8938039Y-16881984D02*
X8823753Y-16881984D01*
X8880896Y-16881984D02*
X8880896Y-16681984D01*
X8880896Y-16681984D02*
X8861848Y-16710555D01*
X8861848Y-16710555D02*
X8842801Y-16729603D01*
X8842801Y-16729603D02*
X8823753Y-16739127D01*
X9023753Y-16862936D02*
X9033277Y-16872460D01*
X9033277Y-16872460D02*
X9023753Y-16881984D01*
X9023753Y-16881984D02*
X9014229Y-16872460D01*
X9014229Y-16872460D02*
X9023753Y-16862936D01*
X9023753Y-16862936D02*
X9023753Y-16881984D01*
X9157086Y-16681984D02*
X9176134Y-16681984D01*
X9176134Y-16681984D02*
X9195182Y-16691508D01*
X9195182Y-16691508D02*
X9204705Y-16701031D01*
X9204705Y-16701031D02*
X9214229Y-16720079D01*
X9214229Y-16720079D02*
X9223753Y-16758174D01*
X9223753Y-16758174D02*
X9223753Y-16805793D01*
X9223753Y-16805793D02*
X9214229Y-16843889D01*
X9214229Y-16843889D02*
X9204705Y-16862936D01*
X9204705Y-16862936D02*
X9195182Y-16872460D01*
X9195182Y-16872460D02*
X9176134Y-16881984D01*
X9176134Y-16881984D02*
X9157086Y-16881984D01*
X9157086Y-16881984D02*
X9138039Y-16872460D01*
X9138039Y-16872460D02*
X9128515Y-16862936D01*
X9128515Y-16862936D02*
X9118991Y-16843889D01*
X9118991Y-16843889D02*
X9109467Y-16805793D01*
X9109467Y-16805793D02*
X9109467Y-16758174D01*
X9109467Y-16758174D02*
X9118991Y-16720079D01*
X9118991Y-16720079D02*
X9128515Y-16701031D01*
X9128515Y-16701031D02*
X9138039Y-16691508D01*
X9138039Y-16691508D02*
X9157086Y-16681984D01*
X9347563Y-16681984D02*
X9366610Y-16681984D01*
X9366610Y-16681984D02*
X9385658Y-16691508D01*
X9385658Y-16691508D02*
X9395182Y-16701031D01*
X9395182Y-16701031D02*
X9404705Y-16720079D01*
X9404705Y-16720079D02*
X9414229Y-16758174D01*
X9414229Y-16758174D02*
X9414229Y-16805793D01*
X9414229Y-16805793D02*
X9404705Y-16843889D01*
X9404705Y-16843889D02*
X9395182Y-16862936D01*
X9395182Y-16862936D02*
X9385658Y-16872460D01*
X9385658Y-16872460D02*
X9366610Y-16881984D01*
X9366610Y-16881984D02*
X9347563Y-16881984D01*
X9347563Y-16881984D02*
X9328515Y-16872460D01*
X9328515Y-16872460D02*
X9318991Y-16862936D01*
X9318991Y-16862936D02*
X9309467Y-16843889D01*
X9309467Y-16843889D02*
X9299944Y-16805793D01*
X9299944Y-16805793D02*
X9299944Y-16758174D01*
X9299944Y-16758174D02*
X9309467Y-16720079D01*
X9309467Y-16720079D02*
X9318991Y-16701031D01*
X9318991Y-16701031D02*
X9328515Y-16691508D01*
X9328515Y-16691508D02*
X9347563Y-16681984D01*
X9538039Y-16681984D02*
X9557086Y-16681984D01*
X9557086Y-16681984D02*
X9576134Y-16691508D01*
X9576134Y-16691508D02*
X9585658Y-16701031D01*
X9585658Y-16701031D02*
X9595182Y-16720079D01*
X9595182Y-16720079D02*
X9604705Y-16758174D01*
X9604705Y-16758174D02*
X9604705Y-16805793D01*
X9604705Y-16805793D02*
X9595182Y-16843889D01*
X9595182Y-16843889D02*
X9585658Y-16862936D01*
X9585658Y-16862936D02*
X9576134Y-16872460D01*
X9576134Y-16872460D02*
X9557086Y-16881984D01*
X9557086Y-16881984D02*
X9538039Y-16881984D01*
X9538039Y-16881984D02*
X9518991Y-16872460D01*
X9518991Y-16872460D02*
X9509467Y-16862936D01*
X9509467Y-16862936D02*
X9499944Y-16843889D01*
X9499944Y-16843889D02*
X9490420Y-16805793D01*
X9490420Y-16805793D02*
X9490420Y-16758174D01*
X9490420Y-16758174D02*
X9499944Y-16720079D01*
X9499944Y-16720079D02*
X9509467Y-16701031D01*
X9509467Y-16701031D02*
X9518991Y-16691508D01*
X9518991Y-16691508D02*
X9538039Y-16681984D01*
X9690420Y-16881984D02*
X9690420Y-16748650D01*
X9690420Y-16767698D02*
X9699944Y-16758174D01*
X9699944Y-16758174D02*
X9718991Y-16748650D01*
X9718991Y-16748650D02*
X9747563Y-16748650D01*
X9747563Y-16748650D02*
X9766610Y-16758174D01*
X9766610Y-16758174D02*
X9776134Y-16777222D01*
X9776134Y-16777222D02*
X9776134Y-16881984D01*
X9776134Y-16777222D02*
X9785658Y-16758174D01*
X9785658Y-16758174D02*
X9804705Y-16748650D01*
X9804705Y-16748650D02*
X9833277Y-16748650D01*
X9833277Y-16748650D02*
X9852325Y-16758174D01*
X9852325Y-16758174D02*
X9861848Y-16777222D01*
X9861848Y-16777222D02*
X9861848Y-16881984D01*
X9957086Y-16881984D02*
X9957086Y-16748650D01*
X9957086Y-16767698D02*
X9966610Y-16758174D01*
X9966610Y-16758174D02*
X9985658Y-16748650D01*
X9985658Y-16748650D02*
X10014229Y-16748650D01*
X10014229Y-16748650D02*
X10033277Y-16758174D01*
X10033277Y-16758174D02*
X10042801Y-16777222D01*
X10042801Y-16777222D02*
X10042801Y-16881984D01*
X10042801Y-16777222D02*
X10052325Y-16758174D01*
X10052325Y-16758174D02*
X10071372Y-16748650D01*
X10071372Y-16748650D02*
X10099944Y-16748650D01*
X10099944Y-16748650D02*
X10118991Y-16758174D01*
X10118991Y-16758174D02*
X10128515Y-16777222D01*
X10128515Y-16777222D02*
X10128515Y-16881984D01*
X10518991Y-16672460D02*
X10347563Y-16929603D01*
X10776134Y-16681984D02*
X10795182Y-16681984D01*
X10795182Y-16681984D02*
X10814229Y-16691508D01*
X10814229Y-16691508D02*
X10823753Y-16701031D01*
X10823753Y-16701031D02*
X10833277Y-16720079D01*
X10833277Y-16720079D02*
X10842801Y-16758174D01*
X10842801Y-16758174D02*
X10842801Y-16805793D01*
X10842801Y-16805793D02*
X10833277Y-16843889D01*
X10833277Y-16843889D02*
X10823753Y-16862936D01*
X10823753Y-16862936D02*
X10814229Y-16872460D01*
X10814229Y-16872460D02*
X10795182Y-16881984D01*
X10795182Y-16881984D02*
X10776134Y-16881984D01*
X10776134Y-16881984D02*
X10757087Y-16872460D01*
X10757087Y-16872460D02*
X10747563Y-16862936D01*
X10747563Y-16862936D02*
X10738039Y-16843889D01*
X10738039Y-16843889D02*
X10728515Y-16805793D01*
X10728515Y-16805793D02*
X10728515Y-16758174D01*
X10728515Y-16758174D02*
X10738039Y-16720079D01*
X10738039Y-16720079D02*
X10747563Y-16701031D01*
X10747563Y-16701031D02*
X10757087Y-16691508D01*
X10757087Y-16691508D02*
X10776134Y-16681984D01*
X10928515Y-16862936D02*
X10938039Y-16872460D01*
X10938039Y-16872460D02*
X10928515Y-16881984D01*
X10928515Y-16881984D02*
X10918991Y-16872460D01*
X10918991Y-16872460D02*
X10928515Y-16862936D01*
X10928515Y-16862936D02*
X10928515Y-16881984D01*
X11061848Y-16681984D02*
X11080896Y-16681984D01*
X11080896Y-16681984D02*
X11099944Y-16691508D01*
X11099944Y-16691508D02*
X11109468Y-16701031D01*
X11109468Y-16701031D02*
X11118991Y-16720079D01*
X11118991Y-16720079D02*
X11128515Y-16758174D01*
X11128515Y-16758174D02*
X11128515Y-16805793D01*
X11128515Y-16805793D02*
X11118991Y-16843889D01*
X11118991Y-16843889D02*
X11109468Y-16862936D01*
X11109468Y-16862936D02*
X11099944Y-16872460D01*
X11099944Y-16872460D02*
X11080896Y-16881984D01*
X11080896Y-16881984D02*
X11061848Y-16881984D01*
X11061848Y-16881984D02*
X11042801Y-16872460D01*
X11042801Y-16872460D02*
X11033277Y-16862936D01*
X11033277Y-16862936D02*
X11023753Y-16843889D01*
X11023753Y-16843889D02*
X11014229Y-16805793D01*
X11014229Y-16805793D02*
X11014229Y-16758174D01*
X11014229Y-16758174D02*
X11023753Y-16720079D01*
X11023753Y-16720079D02*
X11033277Y-16701031D01*
X11033277Y-16701031D02*
X11042801Y-16691508D01*
X11042801Y-16691508D02*
X11061848Y-16681984D01*
X11195182Y-16681984D02*
X11318991Y-16681984D01*
X11318991Y-16681984D02*
X11252325Y-16758174D01*
X11252325Y-16758174D02*
X11280896Y-16758174D01*
X11280896Y-16758174D02*
X11299944Y-16767698D01*
X11299944Y-16767698D02*
X11309467Y-16777222D01*
X11309467Y-16777222D02*
X11318991Y-16796270D01*
X11318991Y-16796270D02*
X11318991Y-16843889D01*
X11318991Y-16843889D02*
X11309467Y-16862936D01*
X11309467Y-16862936D02*
X11299944Y-16872460D01*
X11299944Y-16872460D02*
X11280896Y-16881984D01*
X11280896Y-16881984D02*
X11223753Y-16881984D01*
X11223753Y-16881984D02*
X11204706Y-16872460D01*
X11204706Y-16872460D02*
X11195182Y-16862936D01*
X11414229Y-16881984D02*
X11452325Y-16881984D01*
X11452325Y-16881984D02*
X11471372Y-16872460D01*
X11471372Y-16872460D02*
X11480896Y-16862936D01*
X11480896Y-16862936D02*
X11499944Y-16834365D01*
X11499944Y-16834365D02*
X11509467Y-16796270D01*
X11509467Y-16796270D02*
X11509467Y-16720079D01*
X11509467Y-16720079D02*
X11499944Y-16701031D01*
X11499944Y-16701031D02*
X11490420Y-16691508D01*
X11490420Y-16691508D02*
X11471372Y-16681984D01*
X11471372Y-16681984D02*
X11433277Y-16681984D01*
X11433277Y-16681984D02*
X11414229Y-16691508D01*
X11414229Y-16691508D02*
X11404706Y-16701031D01*
X11404706Y-16701031D02*
X11395182Y-16720079D01*
X11395182Y-16720079D02*
X11395182Y-16767698D01*
X11395182Y-16767698D02*
X11404706Y-16786746D01*
X11404706Y-16786746D02*
X11414229Y-16796270D01*
X11414229Y-16796270D02*
X11433277Y-16805793D01*
X11433277Y-16805793D02*
X11471372Y-16805793D01*
X11471372Y-16805793D02*
X11490420Y-16796270D01*
X11490420Y-16796270D02*
X11499944Y-16786746D01*
X11499944Y-16786746D02*
X11509467Y-16767698D01*
X11680896Y-16748650D02*
X11680896Y-16881984D01*
X11633277Y-16672460D02*
X11585658Y-16815317D01*
X11585658Y-16815317D02*
X11709467Y-16815317D01*
X11776134Y-16681984D02*
X11776134Y-16720079D01*
X11852325Y-16681984D02*
X11852325Y-16720079D01*
X12147563Y-16958174D02*
X12138039Y-16948650D01*
X12138039Y-16948650D02*
X12118991Y-16920079D01*
X12118991Y-16920079D02*
X12109468Y-16901031D01*
X12109468Y-16901031D02*
X12099944Y-16872460D01*
X12099944Y-16872460D02*
X12090420Y-16824841D01*
X12090420Y-16824841D02*
X12090420Y-16786746D01*
X12090420Y-16786746D02*
X12099944Y-16739127D01*
X12099944Y-16739127D02*
X12109468Y-16710555D01*
X12109468Y-16710555D02*
X12118991Y-16691508D01*
X12118991Y-16691508D02*
X12138039Y-16662936D01*
X12138039Y-16662936D02*
X12147563Y-16653412D01*
X12204706Y-16681984D02*
X12328515Y-16681984D01*
X12328515Y-16681984D02*
X12261848Y-16758174D01*
X12261848Y-16758174D02*
X12290420Y-16758174D01*
X12290420Y-16758174D02*
X12309468Y-16767698D01*
X12309468Y-16767698D02*
X12318991Y-16777222D01*
X12318991Y-16777222D02*
X12328515Y-16796270D01*
X12328515Y-16796270D02*
X12328515Y-16843889D01*
X12328515Y-16843889D02*
X12318991Y-16862936D01*
X12318991Y-16862936D02*
X12309468Y-16872460D01*
X12309468Y-16872460D02*
X12290420Y-16881984D01*
X12290420Y-16881984D02*
X12233277Y-16881984D01*
X12233277Y-16881984D02*
X12214229Y-16872460D01*
X12214229Y-16872460D02*
X12204706Y-16862936D01*
X12423753Y-16881984D02*
X12461848Y-16881984D01*
X12461848Y-16881984D02*
X12480896Y-16872460D01*
X12480896Y-16872460D02*
X12490420Y-16862936D01*
X12490420Y-16862936D02*
X12509468Y-16834365D01*
X12509468Y-16834365D02*
X12518991Y-16796270D01*
X12518991Y-16796270D02*
X12518991Y-16720079D01*
X12518991Y-16720079D02*
X12509468Y-16701031D01*
X12509468Y-16701031D02*
X12499944Y-16691508D01*
X12499944Y-16691508D02*
X12480896Y-16681984D01*
X12480896Y-16681984D02*
X12442801Y-16681984D01*
X12442801Y-16681984D02*
X12423753Y-16691508D01*
X12423753Y-16691508D02*
X12414229Y-16701031D01*
X12414229Y-16701031D02*
X12404706Y-16720079D01*
X12404706Y-16720079D02*
X12404706Y-16767698D01*
X12404706Y-16767698D02*
X12414229Y-16786746D01*
X12414229Y-16786746D02*
X12423753Y-16796270D01*
X12423753Y-16796270D02*
X12442801Y-16805793D01*
X12442801Y-16805793D02*
X12480896Y-16805793D01*
X12480896Y-16805793D02*
X12499944Y-16796270D01*
X12499944Y-16796270D02*
X12509468Y-16786746D01*
X12509468Y-16786746D02*
X12518991Y-16767698D01*
X12757087Y-16881984D02*
X12757087Y-16681984D01*
X12842801Y-16881984D02*
X12842801Y-16777222D01*
X12842801Y-16777222D02*
X12833277Y-16758174D01*
X12833277Y-16758174D02*
X12814230Y-16748650D01*
X12814230Y-16748650D02*
X12785658Y-16748650D01*
X12785658Y-16748650D02*
X12766610Y-16758174D01*
X12766610Y-16758174D02*
X12757087Y-16767698D01*
X12966610Y-16881984D02*
X12947563Y-16872460D01*
X12947563Y-16872460D02*
X12938039Y-16862936D01*
X12938039Y-16862936D02*
X12928515Y-16843889D01*
X12928515Y-16843889D02*
X12928515Y-16786746D01*
X12928515Y-16786746D02*
X12938039Y-16767698D01*
X12938039Y-16767698D02*
X12947563Y-16758174D01*
X12947563Y-16758174D02*
X12966610Y-16748650D01*
X12966610Y-16748650D02*
X12995182Y-16748650D01*
X12995182Y-16748650D02*
X13014230Y-16758174D01*
X13014230Y-16758174D02*
X13023753Y-16767698D01*
X13023753Y-16767698D02*
X13033277Y-16786746D01*
X13033277Y-16786746D02*
X13033277Y-16843889D01*
X13033277Y-16843889D02*
X13023753Y-16862936D01*
X13023753Y-16862936D02*
X13014230Y-16872460D01*
X13014230Y-16872460D02*
X12995182Y-16881984D01*
X12995182Y-16881984D02*
X12966610Y-16881984D01*
X13147563Y-16881984D02*
X13128515Y-16872460D01*
X13128515Y-16872460D02*
X13118991Y-16853412D01*
X13118991Y-16853412D02*
X13118991Y-16681984D01*
X13299944Y-16872460D02*
X13280896Y-16881984D01*
X13280896Y-16881984D02*
X13242801Y-16881984D01*
X13242801Y-16881984D02*
X13223753Y-16872460D01*
X13223753Y-16872460D02*
X13214230Y-16853412D01*
X13214230Y-16853412D02*
X13214230Y-16777222D01*
X13214230Y-16777222D02*
X13223753Y-16758174D01*
X13223753Y-16758174D02*
X13242801Y-16748650D01*
X13242801Y-16748650D02*
X13280896Y-16748650D01*
X13280896Y-16748650D02*
X13299944Y-16758174D01*
X13299944Y-16758174D02*
X13309468Y-16777222D01*
X13309468Y-16777222D02*
X13309468Y-16796270D01*
X13309468Y-16796270D02*
X13214230Y-16815317D01*
X13385658Y-16872460D02*
X13404706Y-16881984D01*
X13404706Y-16881984D02*
X13442801Y-16881984D01*
X13442801Y-16881984D02*
X13461849Y-16872460D01*
X13461849Y-16872460D02*
X13471372Y-16853412D01*
X13471372Y-16853412D02*
X13471372Y-16843889D01*
X13471372Y-16843889D02*
X13461849Y-16824841D01*
X13461849Y-16824841D02*
X13442801Y-16815317D01*
X13442801Y-16815317D02*
X13414230Y-16815317D01*
X13414230Y-16815317D02*
X13395182Y-16805793D01*
X13395182Y-16805793D02*
X13385658Y-16786746D01*
X13385658Y-16786746D02*
X13385658Y-16777222D01*
X13385658Y-16777222D02*
X13395182Y-16758174D01*
X13395182Y-16758174D02*
X13414230Y-16748650D01*
X13414230Y-16748650D02*
X13442801Y-16748650D01*
X13442801Y-16748650D02*
X13461849Y-16758174D01*
X13709468Y-16805793D02*
X13861849Y-16805793D01*
X13785658Y-16881984D02*
X13785658Y-16729603D01*
X14214230Y-16881984D02*
X14099944Y-16881984D01*
X14157087Y-16881984D02*
X14157087Y-16681984D01*
X14157087Y-16681984D02*
X14138039Y-16710555D01*
X14138039Y-16710555D02*
X14118992Y-16729603D01*
X14118992Y-16729603D02*
X14099944Y-16739127D01*
X14442801Y-16872460D02*
X14461849Y-16881984D01*
X14461849Y-16881984D02*
X14499944Y-16881984D01*
X14499944Y-16881984D02*
X14518992Y-16872460D01*
X14518992Y-16872460D02*
X14528515Y-16853412D01*
X14528515Y-16853412D02*
X14528515Y-16843889D01*
X14528515Y-16843889D02*
X14518992Y-16824841D01*
X14518992Y-16824841D02*
X14499944Y-16815317D01*
X14499944Y-16815317D02*
X14471373Y-16815317D01*
X14471373Y-16815317D02*
X14452325Y-16805793D01*
X14452325Y-16805793D02*
X14442801Y-16786746D01*
X14442801Y-16786746D02*
X14442801Y-16777222D01*
X14442801Y-16777222D02*
X14452325Y-16758174D01*
X14452325Y-16758174D02*
X14471373Y-16748650D01*
X14471373Y-16748650D02*
X14499944Y-16748650D01*
X14499944Y-16748650D02*
X14518992Y-16758174D01*
X14642801Y-16881984D02*
X14623754Y-16872460D01*
X14623754Y-16872460D02*
X14614230Y-16853412D01*
X14614230Y-16853412D02*
X14614230Y-16681984D01*
X14747563Y-16881984D02*
X14728515Y-16872460D01*
X14728515Y-16872460D02*
X14718992Y-16862936D01*
X14718992Y-16862936D02*
X14709468Y-16843889D01*
X14709468Y-16843889D02*
X14709468Y-16786746D01*
X14709468Y-16786746D02*
X14718992Y-16767698D01*
X14718992Y-16767698D02*
X14728515Y-16758174D01*
X14728515Y-16758174D02*
X14747563Y-16748650D01*
X14747563Y-16748650D02*
X14776135Y-16748650D01*
X14776135Y-16748650D02*
X14795182Y-16758174D01*
X14795182Y-16758174D02*
X14804706Y-16767698D01*
X14804706Y-16767698D02*
X14814230Y-16786746D01*
X14814230Y-16786746D02*
X14814230Y-16843889D01*
X14814230Y-16843889D02*
X14804706Y-16862936D01*
X14804706Y-16862936D02*
X14795182Y-16872460D01*
X14795182Y-16872460D02*
X14776135Y-16881984D01*
X14776135Y-16881984D02*
X14747563Y-16881984D01*
X14871373Y-16748650D02*
X14947563Y-16748650D01*
X14899944Y-16681984D02*
X14899944Y-16853412D01*
X14899944Y-16853412D02*
X14909468Y-16872460D01*
X14909468Y-16872460D02*
X14928515Y-16881984D01*
X14928515Y-16881984D02*
X14947563Y-16881984D01*
X14995182Y-16958174D02*
X15004706Y-16948650D01*
X15004706Y-16948650D02*
X15023754Y-16920079D01*
X15023754Y-16920079D02*
X15033277Y-16901031D01*
X15033277Y-16901031D02*
X15042801Y-16872460D01*
X15042801Y-16872460D02*
X15052325Y-16824841D01*
X15052325Y-16824841D02*
X15052325Y-16786746D01*
X15052325Y-16786746D02*
X15042801Y-16739127D01*
X15042801Y-16739127D02*
X15033277Y-16710555D01*
X15033277Y-16710555D02*
X15023754Y-16691508D01*
X15023754Y-16691508D02*
X15004706Y-16662936D01*
X15004706Y-16662936D02*
X14995182Y-16653412D01*
D14*
X8442500Y-16989500D02*
X8572500Y-17119500D01*
X8572500Y-16989500D02*
X8442500Y-17119500D01*
X8507500Y-17119500D02*
X8572500Y-17054500D01*
X8507500Y-16989500D01*
X8442500Y-17054500D01*
X8507500Y-17119500D01*
D12*
X8938039Y-17145984D02*
X8823753Y-17145984D01*
X8880896Y-17145984D02*
X8880896Y-16945984D01*
X8880896Y-16945984D02*
X8861848Y-16974555D01*
X8861848Y-16974555D02*
X8842801Y-16993603D01*
X8842801Y-16993603D02*
X8823753Y-17003127D01*
X9023753Y-17126936D02*
X9033277Y-17136460D01*
X9033277Y-17136460D02*
X9023753Y-17145984D01*
X9023753Y-17145984D02*
X9014229Y-17136460D01*
X9014229Y-17136460D02*
X9023753Y-17126936D01*
X9023753Y-17126936D02*
X9023753Y-17145984D01*
X9099944Y-16945984D02*
X9223753Y-16945984D01*
X9223753Y-16945984D02*
X9157086Y-17022174D01*
X9157086Y-17022174D02*
X9185658Y-17022174D01*
X9185658Y-17022174D02*
X9204705Y-17031698D01*
X9204705Y-17031698D02*
X9214229Y-17041222D01*
X9214229Y-17041222D02*
X9223753Y-17060270D01*
X9223753Y-17060270D02*
X9223753Y-17107889D01*
X9223753Y-17107889D02*
X9214229Y-17126936D01*
X9214229Y-17126936D02*
X9204705Y-17136460D01*
X9204705Y-17136460D02*
X9185658Y-17145984D01*
X9185658Y-17145984D02*
X9128515Y-17145984D01*
X9128515Y-17145984D02*
X9109467Y-17136460D01*
X9109467Y-17136460D02*
X9099944Y-17126936D01*
X9347563Y-16945984D02*
X9366610Y-16945984D01*
X9366610Y-16945984D02*
X9385658Y-16955508D01*
X9385658Y-16955508D02*
X9395182Y-16965031D01*
X9395182Y-16965031D02*
X9404705Y-16984079D01*
X9404705Y-16984079D02*
X9414229Y-17022174D01*
X9414229Y-17022174D02*
X9414229Y-17069793D01*
X9414229Y-17069793D02*
X9404705Y-17107889D01*
X9404705Y-17107889D02*
X9395182Y-17126936D01*
X9395182Y-17126936D02*
X9385658Y-17136460D01*
X9385658Y-17136460D02*
X9366610Y-17145984D01*
X9366610Y-17145984D02*
X9347563Y-17145984D01*
X9347563Y-17145984D02*
X9328515Y-17136460D01*
X9328515Y-17136460D02*
X9318991Y-17126936D01*
X9318991Y-17126936D02*
X9309467Y-17107889D01*
X9309467Y-17107889D02*
X9299944Y-17069793D01*
X9299944Y-17069793D02*
X9299944Y-17022174D01*
X9299944Y-17022174D02*
X9309467Y-16984079D01*
X9309467Y-16984079D02*
X9318991Y-16965031D01*
X9318991Y-16965031D02*
X9328515Y-16955508D01*
X9328515Y-16955508D02*
X9347563Y-16945984D01*
X9538039Y-16945984D02*
X9557086Y-16945984D01*
X9557086Y-16945984D02*
X9576134Y-16955508D01*
X9576134Y-16955508D02*
X9585658Y-16965031D01*
X9585658Y-16965031D02*
X9595182Y-16984079D01*
X9595182Y-16984079D02*
X9604705Y-17022174D01*
X9604705Y-17022174D02*
X9604705Y-17069793D01*
X9604705Y-17069793D02*
X9595182Y-17107889D01*
X9595182Y-17107889D02*
X9585658Y-17126936D01*
X9585658Y-17126936D02*
X9576134Y-17136460D01*
X9576134Y-17136460D02*
X9557086Y-17145984D01*
X9557086Y-17145984D02*
X9538039Y-17145984D01*
X9538039Y-17145984D02*
X9518991Y-17136460D01*
X9518991Y-17136460D02*
X9509467Y-17126936D01*
X9509467Y-17126936D02*
X9499944Y-17107889D01*
X9499944Y-17107889D02*
X9490420Y-17069793D01*
X9490420Y-17069793D02*
X9490420Y-17022174D01*
X9490420Y-17022174D02*
X9499944Y-16984079D01*
X9499944Y-16984079D02*
X9509467Y-16965031D01*
X9509467Y-16965031D02*
X9518991Y-16955508D01*
X9518991Y-16955508D02*
X9538039Y-16945984D01*
X9690420Y-17145984D02*
X9690420Y-17012650D01*
X9690420Y-17031698D02*
X9699944Y-17022174D01*
X9699944Y-17022174D02*
X9718991Y-17012650D01*
X9718991Y-17012650D02*
X9747563Y-17012650D01*
X9747563Y-17012650D02*
X9766610Y-17022174D01*
X9766610Y-17022174D02*
X9776134Y-17041222D01*
X9776134Y-17041222D02*
X9776134Y-17145984D01*
X9776134Y-17041222D02*
X9785658Y-17022174D01*
X9785658Y-17022174D02*
X9804705Y-17012650D01*
X9804705Y-17012650D02*
X9833277Y-17012650D01*
X9833277Y-17012650D02*
X9852325Y-17022174D01*
X9852325Y-17022174D02*
X9861848Y-17041222D01*
X9861848Y-17041222D02*
X9861848Y-17145984D01*
X9957086Y-17145984D02*
X9957086Y-17012650D01*
X9957086Y-17031698D02*
X9966610Y-17022174D01*
X9966610Y-17022174D02*
X9985658Y-17012650D01*
X9985658Y-17012650D02*
X10014229Y-17012650D01*
X10014229Y-17012650D02*
X10033277Y-17022174D01*
X10033277Y-17022174D02*
X10042801Y-17041222D01*
X10042801Y-17041222D02*
X10042801Y-17145984D01*
X10042801Y-17041222D02*
X10052325Y-17022174D01*
X10052325Y-17022174D02*
X10071372Y-17012650D01*
X10071372Y-17012650D02*
X10099944Y-17012650D01*
X10099944Y-17012650D02*
X10118991Y-17022174D01*
X10118991Y-17022174D02*
X10128515Y-17041222D01*
X10128515Y-17041222D02*
X10128515Y-17145984D01*
X10518991Y-16936460D02*
X10347563Y-17193603D01*
X10776134Y-16945984D02*
X10795182Y-16945984D01*
X10795182Y-16945984D02*
X10814229Y-16955508D01*
X10814229Y-16955508D02*
X10823753Y-16965031D01*
X10823753Y-16965031D02*
X10833277Y-16984079D01*
X10833277Y-16984079D02*
X10842801Y-17022174D01*
X10842801Y-17022174D02*
X10842801Y-17069793D01*
X10842801Y-17069793D02*
X10833277Y-17107889D01*
X10833277Y-17107889D02*
X10823753Y-17126936D01*
X10823753Y-17126936D02*
X10814229Y-17136460D01*
X10814229Y-17136460D02*
X10795182Y-17145984D01*
X10795182Y-17145984D02*
X10776134Y-17145984D01*
X10776134Y-17145984D02*
X10757087Y-17136460D01*
X10757087Y-17136460D02*
X10747563Y-17126936D01*
X10747563Y-17126936D02*
X10738039Y-17107889D01*
X10738039Y-17107889D02*
X10728515Y-17069793D01*
X10728515Y-17069793D02*
X10728515Y-17022174D01*
X10728515Y-17022174D02*
X10738039Y-16984079D01*
X10738039Y-16984079D02*
X10747563Y-16965031D01*
X10747563Y-16965031D02*
X10757087Y-16955508D01*
X10757087Y-16955508D02*
X10776134Y-16945984D01*
X10928515Y-17126936D02*
X10938039Y-17136460D01*
X10938039Y-17136460D02*
X10928515Y-17145984D01*
X10928515Y-17145984D02*
X10918991Y-17136460D01*
X10918991Y-17136460D02*
X10928515Y-17126936D01*
X10928515Y-17126936D02*
X10928515Y-17145984D01*
X11061848Y-16945984D02*
X11080896Y-16945984D01*
X11080896Y-16945984D02*
X11099944Y-16955508D01*
X11099944Y-16955508D02*
X11109468Y-16965031D01*
X11109468Y-16965031D02*
X11118991Y-16984079D01*
X11118991Y-16984079D02*
X11128515Y-17022174D01*
X11128515Y-17022174D02*
X11128515Y-17069793D01*
X11128515Y-17069793D02*
X11118991Y-17107889D01*
X11118991Y-17107889D02*
X11109468Y-17126936D01*
X11109468Y-17126936D02*
X11099944Y-17136460D01*
X11099944Y-17136460D02*
X11080896Y-17145984D01*
X11080896Y-17145984D02*
X11061848Y-17145984D01*
X11061848Y-17145984D02*
X11042801Y-17136460D01*
X11042801Y-17136460D02*
X11033277Y-17126936D01*
X11033277Y-17126936D02*
X11023753Y-17107889D01*
X11023753Y-17107889D02*
X11014229Y-17069793D01*
X11014229Y-17069793D02*
X11014229Y-17022174D01*
X11014229Y-17022174D02*
X11023753Y-16984079D01*
X11023753Y-16984079D02*
X11033277Y-16965031D01*
X11033277Y-16965031D02*
X11042801Y-16955508D01*
X11042801Y-16955508D02*
X11061848Y-16945984D01*
X11309467Y-16945984D02*
X11214229Y-16945984D01*
X11214229Y-16945984D02*
X11204706Y-17041222D01*
X11204706Y-17041222D02*
X11214229Y-17031698D01*
X11214229Y-17031698D02*
X11233277Y-17022174D01*
X11233277Y-17022174D02*
X11280896Y-17022174D01*
X11280896Y-17022174D02*
X11299944Y-17031698D01*
X11299944Y-17031698D02*
X11309467Y-17041222D01*
X11309467Y-17041222D02*
X11318991Y-17060270D01*
X11318991Y-17060270D02*
X11318991Y-17107889D01*
X11318991Y-17107889D02*
X11309467Y-17126936D01*
X11309467Y-17126936D02*
X11299944Y-17136460D01*
X11299944Y-17136460D02*
X11280896Y-17145984D01*
X11280896Y-17145984D02*
X11233277Y-17145984D01*
X11233277Y-17145984D02*
X11214229Y-17136460D01*
X11214229Y-17136460D02*
X11204706Y-17126936D01*
X11509467Y-17145984D02*
X11395182Y-17145984D01*
X11452325Y-17145984D02*
X11452325Y-16945984D01*
X11452325Y-16945984D02*
X11433277Y-16974555D01*
X11433277Y-16974555D02*
X11414229Y-16993603D01*
X11414229Y-16993603D02*
X11395182Y-17003127D01*
X11585658Y-16965031D02*
X11595182Y-16955508D01*
X11595182Y-16955508D02*
X11614229Y-16945984D01*
X11614229Y-16945984D02*
X11661848Y-16945984D01*
X11661848Y-16945984D02*
X11680896Y-16955508D01*
X11680896Y-16955508D02*
X11690420Y-16965031D01*
X11690420Y-16965031D02*
X11699944Y-16984079D01*
X11699944Y-16984079D02*
X11699944Y-17003127D01*
X11699944Y-17003127D02*
X11690420Y-17031698D01*
X11690420Y-17031698D02*
X11576134Y-17145984D01*
X11576134Y-17145984D02*
X11699944Y-17145984D01*
X11776134Y-16945984D02*
X11776134Y-16984079D01*
X11852325Y-16945984D02*
X11852325Y-16984079D01*
X12147563Y-17222174D02*
X12138039Y-17212650D01*
X12138039Y-17212650D02*
X12118991Y-17184079D01*
X12118991Y-17184079D02*
X12109468Y-17165031D01*
X12109468Y-17165031D02*
X12099944Y-17136460D01*
X12099944Y-17136460D02*
X12090420Y-17088841D01*
X12090420Y-17088841D02*
X12090420Y-17050746D01*
X12090420Y-17050746D02*
X12099944Y-17003127D01*
X12099944Y-17003127D02*
X12109468Y-16974555D01*
X12109468Y-16974555D02*
X12118991Y-16955508D01*
X12118991Y-16955508D02*
X12138039Y-16926936D01*
X12138039Y-16926936D02*
X12147563Y-16917412D01*
X12328515Y-17145984D02*
X12214229Y-17145984D01*
X12271372Y-17145984D02*
X12271372Y-16945984D01*
X12271372Y-16945984D02*
X12252325Y-16974555D01*
X12252325Y-16974555D02*
X12233277Y-16993603D01*
X12233277Y-16993603D02*
X12214229Y-17003127D01*
X12557087Y-17136460D02*
X12576134Y-17145984D01*
X12576134Y-17145984D02*
X12614229Y-17145984D01*
X12614229Y-17145984D02*
X12633277Y-17136460D01*
X12633277Y-17136460D02*
X12642801Y-17117412D01*
X12642801Y-17117412D02*
X12642801Y-17107889D01*
X12642801Y-17107889D02*
X12633277Y-17088841D01*
X12633277Y-17088841D02*
X12614229Y-17079317D01*
X12614229Y-17079317D02*
X12585658Y-17079317D01*
X12585658Y-17079317D02*
X12566610Y-17069793D01*
X12566610Y-17069793D02*
X12557087Y-17050746D01*
X12557087Y-17050746D02*
X12557087Y-17041222D01*
X12557087Y-17041222D02*
X12566610Y-17022174D01*
X12566610Y-17022174D02*
X12585658Y-17012650D01*
X12585658Y-17012650D02*
X12614229Y-17012650D01*
X12614229Y-17012650D02*
X12633277Y-17022174D01*
X12757087Y-17145984D02*
X12738039Y-17136460D01*
X12738039Y-17136460D02*
X12728515Y-17117412D01*
X12728515Y-17117412D02*
X12728515Y-16945984D01*
X12861849Y-17145984D02*
X12842801Y-17136460D01*
X12842801Y-17136460D02*
X12833277Y-17126936D01*
X12833277Y-17126936D02*
X12823753Y-17107889D01*
X12823753Y-17107889D02*
X12823753Y-17050746D01*
X12823753Y-17050746D02*
X12833277Y-17031698D01*
X12833277Y-17031698D02*
X12842801Y-17022174D01*
X12842801Y-17022174D02*
X12861849Y-17012650D01*
X12861849Y-17012650D02*
X12890420Y-17012650D01*
X12890420Y-17012650D02*
X12909468Y-17022174D01*
X12909468Y-17022174D02*
X12918991Y-17031698D01*
X12918991Y-17031698D02*
X12928515Y-17050746D01*
X12928515Y-17050746D02*
X12928515Y-17107889D01*
X12928515Y-17107889D02*
X12918991Y-17126936D01*
X12918991Y-17126936D02*
X12909468Y-17136460D01*
X12909468Y-17136460D02*
X12890420Y-17145984D01*
X12890420Y-17145984D02*
X12861849Y-17145984D01*
X12985658Y-17012650D02*
X13061849Y-17012650D01*
X13014230Y-16945984D02*
X13014230Y-17117412D01*
X13014230Y-17117412D02*
X13023753Y-17136460D01*
X13023753Y-17136460D02*
X13042801Y-17145984D01*
X13042801Y-17145984D02*
X13061849Y-17145984D01*
X13109468Y-17222174D02*
X13118991Y-17212650D01*
X13118991Y-17212650D02*
X13138039Y-17184079D01*
X13138039Y-17184079D02*
X13147563Y-17165031D01*
X13147563Y-17165031D02*
X13157087Y-17136460D01*
X13157087Y-17136460D02*
X13166610Y-17088841D01*
X13166610Y-17088841D02*
X13166610Y-17050746D01*
X13166610Y-17050746D02*
X13157087Y-17003127D01*
X13157087Y-17003127D02*
X13147563Y-16974555D01*
X13147563Y-16974555D02*
X13138039Y-16955508D01*
X13138039Y-16955508D02*
X13118991Y-16926936D01*
X13118991Y-16926936D02*
X13109468Y-16917412D01*
M02*
