G04 #@! TF.GenerationSoftware,KiCad,Pcbnew,9.0.1*
G04 #@! TF.CreationDate,2025-09-03T14:35:04-07:00*
G04 #@! TF.ProjectId,Project68,50726f6a-6563-4743-9638-2e6b69636164,rev?*
G04 #@! TF.SameCoordinates,Original*
G04 #@! TF.FileFunction,Copper,L3,Inr*
G04 #@! TF.FilePolarity,Positive*
%FSLAX46Y46*%
G04 Gerber Fmt 4.6, Leading zero omitted, Abs format (unit mm)*
G04 Created by KiCad (PCBNEW 9.0.1) date 2025-09-03 14:35:04*
%MOMM*%
%LPD*%
G01*
G04 APERTURE LIST*
G04 Aperture macros list*
%AMFreePoly0*
4,1,229,0.750156,0.619998,0.782156,0.618998,0.782312,0.618990,0.814312,0.616990,0.814772,0.616940,0.878772,0.606940,0.879249,0.606841,0.910249,0.598841,0.910394,0.598802,0.941394,0.589802,0.941721,0.589694,0.971721,0.578694,0.971857,0.578642,1.001857,0.566642,1.002174,0.566503,1.031174,0.552503,1.031297,0.552441,1.060297,0.537441,1.060664,0.537231,1.087664,0.520231,
1.087846,0.520111,1.113846,0.502111,1.114049,0.501963,1.140049,0.481963,1.140216,0.481829,1.165216,0.460829,1.165456,0.460613,1.188456,0.438613,1.188613,0.438456,1.210613,0.415456,1.210829,0.415216,1.231829,0.390216,1.231963,0.390049,1.251963,0.364049,1.252111,0.363846,1.270111,0.337846,1.270274,0.337595,1.287274,0.309595,1.287407,0.309361,1.302407,0.281361,
1.302503,0.281174,1.316503,0.252174,1.316642,0.251857,1.328642,0.221857,1.328694,0.221721,1.339694,0.191721,1.339802,0.191394,1.348802,0.160394,1.348841,0.160249,1.356841,0.129249,1.356940,0.128772,1.366940,0.064772,1.366990,0.064312,1.368990,0.032312,1.368998,0.032156,1.369998,0.000156,1.369998,-0.000156,1.368998,-0.032156,1.368990,-0.032312,1.366990,-0.064312,
1.366940,-0.064772,1.356940,-0.128772,1.356841,-0.129249,1.348841,-0.160249,1.348802,-0.160394,1.339802,-0.191394,1.339694,-0.191721,1.328694,-0.221721,1.328642,-0.221857,1.316642,-0.251857,1.316503,-0.252174,1.302503,-0.281174,1.302407,-0.281361,1.287407,-0.309361,1.287274,-0.309595,1.270274,-0.337595,1.270111,-0.337846,1.252111,-0.363846,1.251963,-0.364049,1.231963,-0.390049,
1.231829,-0.390216,1.210829,-0.415216,1.210613,-0.415456,1.188613,-0.438456,1.188456,-0.438613,1.165456,-0.460613,1.165216,-0.460829,1.140216,-0.481829,1.140049,-0.481963,1.114049,-0.501963,1.113846,-0.502111,1.087846,-0.520111,1.087664,-0.520231,1.060664,-0.537231,1.060297,-0.537441,1.031297,-0.552441,1.031174,-0.552503,1.002174,-0.566503,1.001857,-0.566642,0.971857,-0.578642,
0.971721,-0.578694,0.941721,-0.589694,0.941394,-0.589802,0.910394,-0.598802,0.910249,-0.598841,0.879249,-0.606841,0.878772,-0.606940,0.814772,-0.616940,0.814312,-0.616990,0.782312,-0.618990,0.782156,-0.618998,0.750156,-0.619998,0.750000,-0.620000,-0.750000,-0.620000,-0.750156,-0.619998,-0.782156,-0.618998,-0.782312,-0.618990,-0.814312,-0.616990,-0.814772,-0.616940,-0.878772,-0.606940,
-0.879249,-0.606841,-0.910249,-0.598841,-0.910394,-0.598802,-0.941394,-0.589802,-0.941721,-0.589694,-0.971721,-0.578694,-0.971857,-0.578642,-1.001857,-0.566642,-1.002174,-0.566503,-1.031174,-0.552503,-1.031297,-0.552441,-1.060297,-0.537441,-1.060664,-0.537231,-1.087664,-0.520231,-1.087846,-0.520111,-1.113846,-0.502111,-1.114049,-0.501963,-1.140049,-0.481963,-1.140216,-0.481829,-1.165216,-0.460829,
-1.165456,-0.460613,-1.188456,-0.438613,-1.188613,-0.438456,-1.210613,-0.415456,-1.210829,-0.415216,-1.231829,-0.390216,-1.231963,-0.390049,-1.251963,-0.364049,-1.252111,-0.363846,-1.270111,-0.337846,-1.270231,-0.337664,-1.287231,-0.310664,-1.287441,-0.310297,-1.302441,-0.281297,-1.302503,-0.281174,-1.316503,-0.252174,-1.316642,-0.251857,-1.328642,-0.221857,-1.328694,-0.221721,-1.339694,-0.191721,
-1.339802,-0.191394,-1.348802,-0.160394,-1.348841,-0.160249,-1.356841,-0.129249,-1.356940,-0.128772,-1.366940,-0.064772,-1.366990,-0.064312,-1.368990,-0.032312,-1.368998,-0.032156,-1.369998,-0.000156,-1.369998,0.000156,-1.368998,0.032156,-1.368990,0.032312,-1.366990,0.064312,-1.366940,0.064772,-1.356940,0.128772,-1.356841,0.129249,-1.348841,0.160249,-1.348802,0.160394,-1.339802,0.191394,
-1.339694,0.191721,-1.328694,0.221721,-1.328642,0.221857,-1.316642,0.251857,-1.316503,0.252174,-1.302503,0.281174,-1.302407,0.281361,-1.287407,0.309361,-1.287274,0.309595,-1.270274,0.337595,-1.270111,0.337846,-1.252111,0.363846,-1.251963,0.364049,-1.231963,0.390049,-1.231829,0.390216,-1.210829,0.415216,-1.210613,0.415456,-1.188613,0.438456,-1.188456,0.438613,-1.165456,0.460613,
-1.165216,0.460829,-1.140216,0.481829,-1.140049,0.481963,-1.114049,0.501963,-1.113846,0.502111,-1.087846,0.520111,-1.087664,0.520231,-1.060664,0.537231,-1.060297,0.537441,-1.031297,0.552441,-1.031174,0.552503,-1.002174,0.566503,-1.001857,0.566642,-0.971857,0.578642,-0.971721,0.578694,-0.941721,0.589694,-0.941394,0.589802,-0.910394,0.598802,-0.910249,0.598841,-0.879249,0.606841,
-0.878772,0.606940,-0.814772,0.616940,-0.814312,0.616990,-0.782312,0.618990,-0.782156,0.618998,-0.750156,0.619998,-0.750000,0.620000,0.750000,0.620000,0.750156,0.619998,0.750156,0.619998,$1*%
G04 Aperture macros list end*
G04 #@! TA.AperFunction,ComponentPad*
%ADD10R,1.700000X1.700000*%
G04 #@! TD*
G04 #@! TA.AperFunction,ComponentPad*
%ADD11C,1.700000*%
G04 #@! TD*
G04 #@! TA.AperFunction,ComponentPad*
%ADD12O,1.950000X3.900000*%
G04 #@! TD*
G04 #@! TA.AperFunction,ComponentPad*
%ADD13O,3.400000X1.700000*%
G04 #@! TD*
G04 #@! TA.AperFunction,ComponentPad*
%ADD14C,1.308000*%
G04 #@! TD*
G04 #@! TA.AperFunction,ComponentPad*
%ADD15R,1.308000X1.308000*%
G04 #@! TD*
G04 #@! TA.AperFunction,HeatsinkPad*
%ADD16O,2.100000X1.000000*%
G04 #@! TD*
G04 #@! TA.AperFunction,HeatsinkPad*
%ADD17O,1.800000X1.000000*%
G04 #@! TD*
G04 #@! TA.AperFunction,ComponentPad*
%ADD18R,1.600000X1.600000*%
G04 #@! TD*
G04 #@! TA.AperFunction,ComponentPad*
%ADD19C,1.600000*%
G04 #@! TD*
G04 #@! TA.AperFunction,ComponentPad*
%ADD20C,1.320800*%
G04 #@! TD*
G04 #@! TA.AperFunction,ComponentPad*
%ADD21R,1.408000X1.408000*%
G04 #@! TD*
G04 #@! TA.AperFunction,ComponentPad*
%ADD22C,1.408000*%
G04 #@! TD*
G04 #@! TA.AperFunction,ComponentPad*
%ADD23FreePoly0,90.000000*%
G04 #@! TD*
G04 #@! TA.AperFunction,ViaPad*
%ADD24C,0.600000*%
G04 #@! TD*
G04 #@! TA.AperFunction,ViaPad*
%ADD25C,1.000000*%
G04 #@! TD*
G04 #@! TA.AperFunction,Conductor*
%ADD26C,0.200000*%
G04 #@! TD*
G04 #@! TA.AperFunction,Conductor*
%ADD27C,0.400000*%
G04 #@! TD*
G04 APERTURE END LIST*
D10*
G04 #@! TO.N,/~{MCLR}*
G04 #@! TO.C,J9*
X196371000Y-120260000D03*
D11*
G04 #@! TO.N,+3.3V*
X196371000Y-122800000D03*
G04 #@! TO.N,GND*
X196371000Y-125340000D03*
G04 #@! TO.N,/PGD*
X196371000Y-127880000D03*
G04 #@! TO.N,/PGC*
X196371000Y-130420000D03*
G04 #@! TO.N,unconnected-(J9-Pin_6-Pad6)*
X196371000Y-132960000D03*
G04 #@! TD*
D12*
G04 #@! TO.N,GND*
G04 #@! TO.C,J1*
X230250000Y-47000000D03*
D13*
G04 #@! TO.N,Net-(J1-Pad2)*
X225750000Y-47000000D03*
G04 #@! TD*
D14*
G04 #@! TO.N,VCC*
G04 #@! TO.C,BZ1*
X207346000Y-89285000D03*
D15*
G04 #@! TO.N,Net-(BZ1--)*
X197346000Y-89285000D03*
G04 #@! TD*
D16*
G04 #@! TO.N,GND*
G04 #@! TO.C,J5*
X226916000Y-114100000D03*
D17*
X231096000Y-114100000D03*
D16*
X226916000Y-105460000D03*
D17*
X231096000Y-105460000D03*
G04 #@! TD*
D18*
G04 #@! TO.N,VCC*
G04 #@! TO.C,Y1*
X93951000Y-124920000D03*
D19*
G04 #@! TO.N,GND*
X109191000Y-124920000D03*
G04 #@! TO.N,/~{CLOCK14}*
X109191000Y-117300000D03*
G04 #@! TO.N,VCC*
X93951000Y-117300000D03*
G04 #@! TD*
D10*
G04 #@! TO.N,/~{CLOCK14}*
G04 #@! TO.C,J4*
X109921000Y-134360000D03*
D11*
G04 #@! TO.N,/~{CLOCK}*
X107381000Y-134360000D03*
G04 #@! TO.N,/~{CLOCK7}*
X104841000Y-134360000D03*
G04 #@! TD*
D10*
G04 #@! TO.N,/RX*
G04 #@! TO.C,J8*
X205941000Y-135485000D03*
D11*
G04 #@! TO.N,Net-(J8-Pin_2)*
X208481000Y-135485000D03*
G04 #@! TO.N,Net-(J8-Pin_3)*
X211021000Y-135485000D03*
G04 #@! TO.N,/TX*
X213561000Y-135485000D03*
G04 #@! TO.N,Net-(J8-Pin_5)*
X216101000Y-135485000D03*
G04 #@! TO.N,+3.3V*
X218641000Y-135485000D03*
G04 #@! TO.N,VCC*
X221181000Y-135485000D03*
G04 #@! TO.N,GND*
X223721000Y-135485000D03*
G04 #@! TD*
D10*
G04 #@! TO.N,/MISO*
G04 #@! TO.C,J11*
X127346000Y-56535000D03*
D11*
G04 #@! TO.N,/MOSI*
X127346000Y-59075000D03*
G04 #@! TO.N,/SPI_CLK*
X127346000Y-61615000D03*
G04 #@! TO.N,/SER_CS*
X127346000Y-64155000D03*
G04 #@! TO.N,GND*
X127346000Y-66695000D03*
G04 #@! TO.N,+3.3V*
X127346000Y-69235000D03*
G04 #@! TO.N,/~{SER_IRQ}*
X127346000Y-71775000D03*
G04 #@! TO.N,VCC*
X127346000Y-74315000D03*
G04 #@! TO.N,/AGPIO2*
X127346000Y-76855000D03*
G04 #@! TO.N,/AGPIO3*
X127346000Y-79395000D03*
G04 #@! TD*
D10*
G04 #@! TO.N,GND*
G04 #@! TO.C,J6*
X207371000Y-122435000D03*
D11*
G04 #@! TO.N,VCC*
X207371000Y-124975000D03*
G04 #@! TD*
D10*
G04 #@! TO.N,/MISO*
G04 #@! TO.C,J10*
X96346000Y-56535000D03*
D11*
G04 #@! TO.N,/MOSI*
X96346000Y-59075000D03*
G04 #@! TO.N,/SPI_CLK*
X96346000Y-61615000D03*
G04 #@! TO.N,/AUX_CS*
X96346000Y-64155000D03*
G04 #@! TO.N,GND*
X96346000Y-66695000D03*
G04 #@! TO.N,+3.3V*
X96346000Y-69235000D03*
G04 #@! TO.N,/~{AUX_IRQ}*
X96346000Y-71775000D03*
G04 #@! TO.N,VCC*
X96346000Y-74315000D03*
G04 #@! TO.N,/GPIO0*
X96346000Y-76855000D03*
G04 #@! TO.N,/AGPIO1*
X96346000Y-79395000D03*
G04 #@! TD*
D20*
G04 #@! TO.N,/A2*
G04 #@! TO.C,IC1*
X165471000Y-98520000D03*
G04 #@! TO.N,/A3*
X165471000Y-95980000D03*
G04 #@! TO.N,/A4*
X168011000Y-98520000D03*
G04 #@! TO.N,/A5*
X168011000Y-95980000D03*
G04 #@! TO.N,/A6*
X170551000Y-98520000D03*
G04 #@! TO.N,/A7*
X170551000Y-95980000D03*
G04 #@! TO.N,/A8*
X173091000Y-98520000D03*
G04 #@! TO.N,/A9*
X175631000Y-95980000D03*
G04 #@! TO.N,/A10*
X173091000Y-95980000D03*
G04 #@! TO.N,/A11*
X175631000Y-93440000D03*
G04 #@! TO.N,/A12*
X173091000Y-93440000D03*
G04 #@! TO.N,/A13*
X175631000Y-90900000D03*
G04 #@! TO.N,/A21*
X173091000Y-90900000D03*
G04 #@! TO.N,/A14*
X175631000Y-88360000D03*
G04 #@! TO.N,VCC*
X173091000Y-88360000D03*
G04 #@! TO.N,/A15*
X175631000Y-85820000D03*
G04 #@! TO.N,GND*
X173091000Y-85820000D03*
G04 #@! TO.N,/A16*
X175631000Y-83280000D03*
G04 #@! TO.N,/A17*
X173091000Y-83280000D03*
G04 #@! TO.N,/A18*
X175631000Y-80740000D03*
G04 #@! TO.N,/A19*
X173091000Y-78200000D03*
G04 #@! TO.N,/A20*
X173091000Y-80740000D03*
G04 #@! TO.N,/D7*
X170551000Y-78200000D03*
G04 #@! TO.N,/D6*
X170551000Y-80740000D03*
G04 #@! TO.N,/D5*
X168011000Y-78200000D03*
G04 #@! TO.N,/D4*
X168011000Y-80740000D03*
G04 #@! TO.N,/D3*
X165471000Y-78200000D03*
G04 #@! TO.N,/D2*
X165471000Y-80740000D03*
G04 #@! TO.N,/D1*
X162931000Y-78200000D03*
G04 #@! TO.N,/D0*
X162931000Y-80740000D03*
G04 #@! TO.N,/~{AS}*
X160391000Y-78200000D03*
G04 #@! TO.N,/~{DS}*
X160391000Y-80740000D03*
G04 #@! TO.N,/R{slash}~{W}*
X157851000Y-78200000D03*
G04 #@! TO.N,/~{DTACK}*
X155311000Y-80740000D03*
G04 #@! TO.N,/~{BG}*
X157851000Y-80740000D03*
G04 #@! TO.N,/~{BGACK}*
X155311000Y-83280000D03*
G04 #@! TO.N,/~{BR}*
X157851000Y-83280000D03*
G04 #@! TO.N,/~{CLOCK}*
X155311000Y-85820000D03*
G04 #@! TO.N,GND*
X157851000Y-85820000D03*
G04 #@! TO.N,/~{HALT}*
X155311000Y-88360000D03*
G04 #@! TO.N,/~{RESET}*
X157851000Y-88360000D03*
G04 #@! TO.N,unconnected-(IC1-E-Pad42)*
X155311000Y-90900000D03*
G04 #@! TO.N,unconnected-(IC1-VPA-Pad43)*
X157851000Y-90900000D03*
G04 #@! TO.N,/~{BERR}*
X157851000Y-93440000D03*
G04 #@! TO.N,/~{IPL1}*
X155311000Y-93440000D03*
G04 #@! TO.N,/~{IPL2}*
X155311000Y-95980000D03*
G04 #@! TO.N,/~{IPL0}*
X157851000Y-98520000D03*
G04 #@! TO.N,unconnected-(IC1-FC2-Pad48)*
X157851000Y-95980000D03*
G04 #@! TO.N,unconnected-(IC1-FC1-Pad49)*
X160391000Y-98520000D03*
G04 #@! TO.N,unconnected-(IC1-FC0-Pad50)*
X160391000Y-95980000D03*
G04 #@! TO.N,/A0*
X162931000Y-98520000D03*
G04 #@! TO.N,/A1*
X162931000Y-95980000D03*
G04 #@! TD*
D21*
G04 #@! TO.N,/PS2_DATA*
G04 #@! TO.C,J2*
X225596000Y-63135000D03*
D22*
G04 #@! TO.N,unconnected-(J2-Pad2)*
X225596000Y-65735000D03*
G04 #@! TO.N,GND*
X225596000Y-61035000D03*
G04 #@! TO.N,VCC*
X225596000Y-67835000D03*
G04 #@! TO.N,/PS2_CLK*
X223096000Y-61035000D03*
G04 #@! TO.N,unconnected-(J2-Pad6)*
X223096000Y-67835000D03*
D23*
G04 #@! TO.N,unconnected-(J2-SHIELD-PadS1)*
X229396000Y-64435000D03*
G04 #@! TD*
D24*
G04 #@! TO.N,/~{CLOCK14}*
X119500000Y-104750000D03*
G04 #@! TO.N,/A19*
X143500000Y-118750000D03*
X144500000Y-116750000D03*
G04 #@! TO.N,/R{slash}~{W}*
X150250000Y-102000000D03*
X124500000Y-113250000D03*
G04 #@! TO.N,/A5*
X157000000Y-130250000D03*
G04 #@! TO.N,/~{IPL0}*
X171277000Y-105000000D03*
G04 #@! TO.N,/~{BERR}*
X165400000Y-97285700D03*
X166758000Y-122100000D03*
G04 #@! TO.N,/A15*
X178096000Y-129385000D03*
X180912000Y-113467000D03*
G04 #@! TO.N,/A8*
X187396000Y-51110000D03*
X175160000Y-56242000D03*
X175196000Y-112410000D03*
G04 #@! TO.N,/D5*
X166608000Y-105797000D03*
X162278000Y-52464900D03*
X162652000Y-75961300D03*
G04 #@! TO.N,/D7*
X139834000Y-53847500D03*
X170021000Y-105385000D03*
X146818000Y-71260000D03*
G04 #@! TO.N,/~{CLOCK7}*
X108105000Y-108839000D03*
G04 #@! TO.N,/A1*
X177421000Y-43060000D03*
G04 #@! TO.N,/~{HALT}*
X180571000Y-115235000D03*
X179971000Y-102638000D03*
X155051000Y-101728000D03*
G04 #@! TO.N,/A7*
X162373000Y-125476000D03*
X165445000Y-100118000D03*
X181121000Y-46710000D03*
G04 #@! TO.N,/D6*
X163248000Y-53265600D03*
X168721000Y-105385000D03*
G04 #@! TO.N,/D0*
X152608000Y-115047000D03*
X153294000Y-82472900D03*
X146208000Y-44772500D03*
G04 #@! TO.N,/A13*
X174846000Y-133060000D03*
X188271000Y-56935000D03*
X179855000Y-90517000D03*
G04 #@! TO.N,/A11*
X178421000Y-115035000D03*
X178246000Y-93089400D03*
X188621000Y-54535000D03*
G04 #@! TO.N,/~{CLOCK}*
X129798000Y-87704900D03*
X126258000Y-104929000D03*
X107961000Y-109887000D03*
G04 #@! TO.N,/D4*
X164821000Y-105935000D03*
X161855000Y-51545400D03*
X161995000Y-79492000D03*
G04 #@! TO.N,/D1*
X162151000Y-49505400D03*
X153708000Y-114973000D03*
X144358000Y-45822500D03*
G04 #@! TO.N,+3.3V*
X130385000Y-106359000D03*
G04 #@! TO.N,/D2*
X152496000Y-47985000D03*
X162808000Y-104273000D03*
G04 #@! TO.N,/A5*
X179996000Y-45535000D03*
G04 #@! TO.N,/D3*
X157359000Y-49183600D03*
X163021000Y-105485000D03*
G04 #@! TO.N,/A12*
X171121000Y-55232200D03*
X173646000Y-133710000D03*
G04 #@! TO.N,/A2*
X155696000Y-114560000D03*
X168145000Y-93576700D03*
X177471000Y-43985000D03*
X172397000Y-53386000D03*
G04 #@! TO.N,/A9*
X185882000Y-93753500D03*
X175221000Y-113410000D03*
X188346000Y-51685000D03*
G04 #@! TO.N,/~{WE}*
X185246000Y-50010000D03*
X138871000Y-53060000D03*
X131846000Y-121285000D03*
G04 #@! TO.N,/A6*
X169925000Y-83579100D03*
X180758000Y-45922500D03*
X167244000Y-123869000D03*
G04 #@! TO.N,/A3*
X178121000Y-44510000D03*
X154571000Y-114835000D03*
G04 #@! TO.N,/~{OE}*
X146958000Y-44022500D03*
X132750000Y-120000000D03*
G04 #@! TO.N,/A4*
X164748000Y-125663000D03*
X178946000Y-45085000D03*
X177229000Y-96734700D03*
G04 #@! TO.N,/A10*
X177296000Y-115010000D03*
X178710000Y-94004400D03*
X189146000Y-52310000D03*
G04 #@! TO.N,/A14*
X187521000Y-57610000D03*
X178351000Y-87818500D03*
X177546000Y-130385000D03*
G04 #@! TO.N,/R{slash}~{W}*
X160271000Y-140785000D03*
X147463000Y-117064000D03*
G04 #@! TO.N,/MISO*
X135702000Y-109014000D03*
X174796000Y-109810000D03*
X228615000Y-92378200D03*
G04 #@! TO.N,/MOSI*
X132481000Y-87438100D03*
X227164000Y-86596000D03*
X189319000Y-91118200D03*
X185882000Y-110597000D03*
G04 #@! TO.N,/SPI_CLK*
X177524000Y-112173000D03*
X134814000Y-109341000D03*
X224024000Y-88632000D03*
X174996000Y-110685000D03*
X224024000Y-109099000D03*
G04 #@! TO.N,/A21*
X148590000Y-87704900D03*
X140634000Y-54422500D03*
X153510000Y-125342000D03*
G04 #@! TO.N,/A18*
X154058039Y-128497039D03*
X180884000Y-128213000D03*
X183339000Y-46334700D03*
X177431000Y-80772600D03*
G04 #@! TO.N,/~{RESET}*
X155250000Y-100750000D03*
X179484000Y-115073000D03*
X159274000Y-115093000D03*
G04 #@! TO.N,/A17*
X170141000Y-123084000D03*
X181971000Y-46885000D03*
G04 #@! TO.N,/~{AS}*
X157396000Y-140485000D03*
G04 #@! TO.N,/A20*
X147454100Y-84296900D03*
X178017000Y-79339200D03*
X146697900Y-126576800D03*
X152846000Y-127535000D03*
X186171000Y-50185000D03*
G04 #@! TO.N,/~{BGACK}*
X153346000Y-134610000D03*
G04 #@! TO.N,/~{BG}*
X159780000Y-128166000D03*
X168470000Y-127705000D03*
G04 #@! TO.N,GND*
X120346000Y-109020000D03*
X149971000Y-44485000D03*
X166959000Y-112398000D03*
X214346000Y-126785000D03*
X166174000Y-130535000D03*
X185958000Y-118047000D03*
X123471000Y-124920000D03*
X163392837Y-131738155D03*
X149346000Y-44885000D03*
X197846000Y-111285000D03*
X172346000Y-49285000D03*
X207096000Y-73535000D03*
X230405000Y-92310300D03*
X208391000Y-112466000D03*
X152596000Y-55285000D03*
X144370700Y-124857600D03*
X150008000Y-124623000D03*
G04 #@! TO.N,/~{BR}*
X166718868Y-135912132D03*
X157623000Y-131179000D03*
G04 #@! TO.N,/A16*
X147819000Y-82103800D03*
X156971000Y-134610000D03*
X152346000Y-56785000D03*
G04 #@! TO.N,/A19*
X178037000Y-78013200D03*
X186296000Y-51160000D03*
D25*
G04 #@! TO.N,VCC*
X224122000Y-113158000D03*
X207313000Y-86117600D03*
D24*
X225052000Y-106785000D03*
D25*
X224348000Y-125767000D03*
D24*
G04 #@! TO.N,/~{DTACK}*
X153158000Y-108256000D03*
X126651000Y-108256000D03*
G04 #@! TO.N,/~{DS}*
X157221000Y-139335000D03*
X126846000Y-131743000D03*
X126458000Y-102732000D03*
X160083000Y-94292300D03*
X126366000Y-120615000D03*
G04 #@! TO.N,/~{MCLR}*
X148946000Y-121560000D03*
G04 #@! TO.N,/RX*
X172121000Y-134160000D03*
G04 #@! TO.N,/TX*
X170721000Y-134785000D03*
G04 #@! TO.N,/PGD*
X179258000Y-125947000D03*
G04 #@! TO.N,/VIDPIXEL*
X209496000Y-40730500D03*
X150521000Y-115710000D03*
X210098000Y-117064000D03*
G04 #@! TO.N,Net-(U11-VDDCORE{slash}VCAP)*
X141396000Y-131360000D03*
X151546000Y-124360000D03*
G04 #@! TO.N,/PGC*
X186146000Y-116285000D03*
G04 #@! TO.N,/VIDSYNC*
X195538000Y-116280000D03*
X208709000Y-46602300D03*
X151521000Y-115485000D03*
G04 #@! TO.N,/AUDIO*
X184596000Y-111535000D03*
X168296000Y-135535000D03*
G04 #@! TO.N,/PS2_CLK*
X215400100Y-129166400D03*
X179578900Y-129385500D03*
G04 #@! TO.N,/PS2_DATA*
X187621000Y-107060000D03*
X214832000Y-63957500D03*
X181025000Y-129206000D03*
G04 #@! TO.N,/~{SER_IRQ}*
X162646333Y-123332139D03*
X155346000Y-131785000D03*
G04 #@! TO.N,/~{CLOCK14}*
X180546000Y-123760000D03*
G04 #@! TO.N,/AGPIO1*
X149684000Y-115923000D03*
X100279900Y-111192000D03*
G04 #@! TO.N,/AUX_CS*
X103231700Y-125872000D03*
X167898000Y-125583000D03*
G04 #@! TO.N,/GPIO0*
X169471000Y-135285000D03*
X97328100Y-137615000D03*
G04 #@! TO.N,/SER_CS*
X174571000Y-108160000D03*
X132807000Y-105379000D03*
G04 #@! TO.N,Net-(D1-K)*
X190198000Y-125324000D03*
X191371000Y-108256000D03*
G04 #@! TO.N,/AGPIO2*
X149196000Y-117960000D03*
X142096000Y-98785000D03*
G04 #@! TO.N,/~{AUX_IRQ}*
X161871000Y-123135000D03*
X154346000Y-130785000D03*
G04 #@! TO.N,/TXD*
X219496000Y-109699000D03*
X211296000Y-129785000D03*
G04 #@! TO.N,Net-(J8-Pin_5)*
X212510100Y-114728000D03*
G04 #@! TD*
D26*
G04 #@! TO.N,/~{IPL0}*
X169922000Y-103672000D02*
X171250000Y-105000000D01*
X156145057Y-103672000D02*
X169922000Y-103672000D01*
X154450000Y-101976943D02*
X156145057Y-103672000D01*
X154450000Y-100700057D02*
X154450000Y-101976943D01*
X156630057Y-98520000D02*
X154450000Y-100700057D01*
X157851000Y-98520000D02*
X156630057Y-98520000D01*
G04 #@! TO.N,/~{BERR}*
X164201000Y-95811100D02*
X161830000Y-93440000D01*
X164201000Y-96087200D02*
X164201000Y-95811100D01*
X165400000Y-97285700D02*
X164201000Y-96087200D01*
X161830000Y-93440000D02*
X157851000Y-93440000D01*
G04 #@! TO.N,/A8*
X187396000Y-51110000D02*
X182264000Y-56242000D01*
X182264000Y-56242000D02*
X175160000Y-56242000D01*
G04 #@! TO.N,/D5*
X168011000Y-78200000D02*
X165772000Y-75961300D01*
X165772000Y-75961300D02*
X162652000Y-75961300D01*
G04 #@! TO.N,/D7*
X155710000Y-81702100D02*
X156273000Y-81138600D01*
X149944000Y-74385900D02*
X149944000Y-77703900D01*
X146818000Y-71260000D02*
X149944000Y-74385900D01*
X162244000Y-78890300D02*
X162516000Y-79162100D01*
X156273000Y-81138600D02*
X156273000Y-80939200D01*
X149944000Y-77703900D02*
X153942000Y-81702100D01*
X153942000Y-81702100D02*
X155710000Y-81702100D01*
X169372000Y-78200000D02*
X170551000Y-78200000D01*
X156273000Y-80939200D02*
X158050000Y-79162100D01*
X161746000Y-78890300D02*
X162244000Y-78890300D01*
X162516000Y-79162100D02*
X168410000Y-79162100D01*
X158050000Y-79162100D02*
X161474000Y-79162100D01*
X169372000Y-78200100D02*
X169372000Y-78200000D01*
X161474000Y-79162100D02*
X161746000Y-78890300D01*
X168410000Y-79162100D02*
X169372000Y-78200100D01*
G04 #@! TO.N,unconnected-(IC1-FC2-Pad48)*
X157851000Y-95980000D02*
X157169000Y-95980000D01*
G04 #@! TO.N,/~{HALT}*
X179061000Y-101728000D02*
X179971000Y-102638000D01*
X155051000Y-101728000D02*
X179061000Y-101728000D01*
G04 #@! TO.N,/A7*
X169476000Y-95980000D02*
X168262000Y-97193200D01*
X166883000Y-98255000D02*
X166883000Y-98681000D01*
X166883000Y-98681000D02*
X165445000Y-100118000D01*
X168262000Y-97193200D02*
X167944000Y-97193200D01*
X170551000Y-95980000D02*
X169476000Y-95980000D01*
X167944000Y-97193200D02*
X166883000Y-98255000D01*
G04 #@! TO.N,/A11*
X175982000Y-93089400D02*
X178246000Y-93089400D01*
X175631000Y-93440000D02*
X175982000Y-93089400D01*
G04 #@! TO.N,/~{CLOCK}*
X131683000Y-85820000D02*
X129798000Y-87704900D01*
X155311000Y-85820000D02*
X131683000Y-85820000D01*
X121300000Y-109887000D02*
X107961000Y-109887000D01*
X126258000Y-104929000D02*
X121300000Y-109887000D01*
G04 #@! TO.N,/D4*
X162174000Y-79671100D02*
X161995000Y-79492000D01*
X166942000Y-79671100D02*
X162174000Y-79671100D01*
X168011000Y-80740000D02*
X166942000Y-79671100D01*
G04 #@! TO.N,/D1*
X162151000Y-49507000D02*
X161929000Y-49285000D01*
X156758000Y-49432543D02*
X156758000Y-49285000D01*
X157607943Y-49784600D02*
X157110057Y-49784600D01*
X157960000Y-49285000D02*
X157960000Y-49432543D01*
X157110057Y-49784600D02*
X156758000Y-49432543D01*
X161929000Y-49285000D02*
X157960000Y-49285000D01*
X147820500Y-49285000D02*
X144358000Y-45822500D01*
X157960000Y-49432543D02*
X157607943Y-49784600D01*
X156758000Y-49285000D02*
X147820500Y-49285000D01*
X162151000Y-49505400D02*
X162151000Y-49507000D01*
G04 #@! TO.N,/A2*
X165471000Y-98520000D02*
X166433000Y-97558000D01*
X166433000Y-97558000D02*
X166433000Y-95289000D01*
X166433000Y-95289000D02*
X168145000Y-93576700D01*
G04 #@! TO.N,/A9*
X183656000Y-95980000D02*
X185882000Y-93753500D01*
X175631000Y-95980000D02*
X183656000Y-95980000D01*
G04 #@! TO.N,/~{WE}*
X138871000Y-53060000D02*
X141046000Y-50885100D01*
X141046000Y-50885100D02*
X184371000Y-50885100D01*
X184371000Y-50885100D02*
X185246000Y-50010000D01*
G04 #@! TO.N,/A4*
X169281000Y-97250000D02*
X176714000Y-97250000D01*
X168011000Y-98520000D02*
X169281000Y-97250000D01*
X176714000Y-97250000D02*
X177229000Y-96734700D01*
G04 #@! TO.N,/A10*
X173091000Y-95980000D02*
X174499000Y-94572400D01*
X178142000Y-94572400D02*
X178710000Y-94004400D01*
X174499000Y-94572400D02*
X178142000Y-94572400D01*
G04 #@! TO.N,/MISO*
X228615000Y-92378200D02*
X192228000Y-92378200D01*
X136498000Y-109810000D02*
X135702000Y-109014000D01*
X192228000Y-92378200D02*
X174796000Y-109810000D01*
X127346000Y-56535000D02*
X96346000Y-56535000D01*
X174796000Y-109810000D02*
X136498000Y-109810000D01*
G04 #@! TO.N,/MOSI*
X172692000Y-89322100D02*
X180201000Y-89322100D01*
X191269000Y-89167700D02*
X193401700Y-87035000D01*
X226725000Y-87035000D02*
X227164000Y-86596000D01*
X180201000Y-89322100D02*
X180356000Y-89167700D01*
X159833000Y-87090000D02*
X161412000Y-88669400D01*
X180356000Y-89167700D02*
X191269000Y-89167700D01*
X171915000Y-89160900D02*
X172531000Y-89160900D01*
X172531000Y-89160900D02*
X172692000Y-89322100D01*
X96346000Y-59075000D02*
X127346000Y-59075000D01*
X132704000Y-87215200D02*
X146943000Y-87215200D01*
X193401700Y-87035000D02*
X226725000Y-87035000D01*
X161412000Y-88669400D02*
X171423000Y-88669400D01*
X132481000Y-87438100D02*
X132704000Y-87215200D01*
X171423000Y-88669400D02*
X171915000Y-89160900D01*
X147068000Y-87090000D02*
X159833000Y-87090000D01*
X189319000Y-91118200D02*
X191269000Y-89167700D01*
X146943000Y-87215200D02*
X147068000Y-87090000D01*
G04 #@! TO.N,/SPI_CLK*
X174996000Y-110685000D02*
X136157000Y-110685000D01*
X96346000Y-61615000D02*
X127346000Y-61615000D01*
X136157000Y-110685000D02*
X134814000Y-109341000D01*
X177524000Y-112173000D02*
X180597000Y-109099000D01*
X180597000Y-109099000D02*
X224024000Y-109099000D01*
G04 #@! TO.N,/A21*
X173091000Y-90900000D02*
X171968000Y-89776900D01*
X150662000Y-89776900D02*
X148590000Y-87704900D01*
X171968000Y-89776900D02*
X150662000Y-89776900D01*
G04 #@! TO.N,/A18*
X154329000Y-128768000D02*
X180330000Y-128768000D01*
X180330000Y-128768000D02*
X180884000Y-128213000D01*
X177399000Y-80740000D02*
X175631000Y-80740000D01*
X177431000Y-80772600D02*
X177399000Y-80740000D01*
X154058039Y-128497039D02*
X154329000Y-128768000D01*
G04 #@! TO.N,/~{RESET}*
X178884000Y-115673000D02*
X179484000Y-115073000D01*
X159854000Y-115673000D02*
X178884000Y-115673000D01*
X159274000Y-115093000D02*
X159854000Y-115673000D01*
G04 #@! TO.N,/A20*
X176653400Y-83633000D02*
X175989500Y-84296900D01*
X176653400Y-82849700D02*
X176653400Y-83633000D01*
X147209800Y-127088700D02*
X146697900Y-126576800D01*
X152846000Y-127092400D02*
X152846000Y-127535000D01*
X174492000Y-79339200D02*
X178017000Y-79339200D01*
X152842300Y-127088700D02*
X152846000Y-127092400D01*
X173091000Y-80740000D02*
X174166500Y-80740000D01*
X175585400Y-82158900D02*
X175962600Y-82158900D01*
X152842300Y-127088700D02*
X147209800Y-127088700D01*
X175989500Y-84296900D02*
X147454100Y-84296900D01*
X173091000Y-80740000D02*
X174492000Y-79339200D01*
X175962600Y-82158900D02*
X176653400Y-82849700D01*
X174166500Y-80740000D02*
X175585400Y-82158900D01*
G04 #@! TO.N,/~{BG}*
X159780000Y-128166000D02*
X160241000Y-127705000D01*
X160241000Y-127705000D02*
X168470000Y-127705000D01*
G04 #@! TO.N,/~{BR}*
X166718132Y-135912132D02*
X161985000Y-131179000D01*
X166718868Y-135912132D02*
X166718132Y-135912132D01*
X161985000Y-131179000D02*
X157623000Y-131179000D01*
G04 #@! TO.N,/A16*
X153543000Y-81871200D02*
X148052000Y-81871200D01*
X175631000Y-83280000D02*
X174510000Y-82158700D01*
X174510000Y-82158700D02*
X153831000Y-82158700D01*
X153831000Y-82158700D02*
X153543000Y-81871200D01*
X148052000Y-81871200D02*
X147819000Y-82103800D01*
G04 #@! TO.N,/A19*
X177850000Y-78200000D02*
X178037000Y-78013200D01*
X173091000Y-78200000D02*
X177850000Y-78200000D01*
D27*
G04 #@! TO.N,VCC*
X173091000Y-88360000D02*
X174416000Y-87035000D01*
X178232600Y-87035000D02*
X179150000Y-86117600D01*
X179150000Y-86117600D02*
X207313000Y-86117600D01*
X207313000Y-86117600D02*
X225596000Y-67835000D01*
X174416000Y-87035000D02*
X178232600Y-87035000D01*
D26*
G04 #@! TO.N,/~{DTACK}*
X153158000Y-108256000D02*
X126651000Y-108256000D01*
G04 #@! TO.N,/~{DS}*
X160083000Y-94292300D02*
X159902000Y-94473000D01*
X157221000Y-139335000D02*
X134438000Y-139335000D01*
X134717000Y-94473000D02*
X126458000Y-102732000D01*
X134438000Y-139335000D02*
X126846000Y-131743000D01*
X159902000Y-94473000D02*
X134717000Y-94473000D01*
G04 #@! TO.N,/~{MCLR}*
X150246000Y-120260000D02*
X148946000Y-121560000D01*
X196371000Y-120260000D02*
X150246000Y-120260000D01*
G04 #@! TO.N,/RX*
X205941000Y-135485000D02*
X173446000Y-135485000D01*
X173446000Y-135485000D02*
X172121000Y-134160000D01*
G04 #@! TO.N,/TX*
X172583400Y-136647400D02*
X212398600Y-136647400D01*
X212398600Y-136647400D02*
X213561000Y-135485000D01*
X170721000Y-134785000D02*
X172583400Y-136647400D01*
G04 #@! TO.N,/PGD*
X196102000Y-127611000D02*
X180922000Y-127611000D01*
X196371000Y-127880000D02*
X196102000Y-127611000D01*
X180922000Y-127611000D02*
X179258000Y-125947000D01*
G04 #@! TO.N,/VIDPIXEL*
X155548000Y-117064000D02*
X151875000Y-117064000D01*
X155881000Y-117064000D02*
X210098000Y-117064000D01*
X155715000Y-116898000D02*
X155881000Y-117064000D01*
X155715000Y-116898000D02*
X155548000Y-117064000D01*
X151875000Y-117064000D02*
X150521000Y-115710000D01*
X155715000Y-116898000D02*
X155548000Y-117064000D01*
G04 #@! TO.N,/VIDSYNC*
X151695000Y-115659000D02*
X155904000Y-115659000D01*
X155904000Y-115659000D02*
X157190000Y-114374000D01*
X193632000Y-114374000D02*
X195538000Y-116280000D01*
X157190000Y-114374000D02*
X193632000Y-114374000D01*
X151521000Y-115485000D02*
X151695000Y-115659000D01*
G04 #@! TO.N,/PS2_CLK*
X184722200Y-129166400D02*
X215400100Y-129166400D01*
X180028400Y-129835000D02*
X184053600Y-129835000D01*
X184053600Y-129835000D02*
X184722200Y-129166400D01*
X179578900Y-129385500D02*
X180028400Y-129835000D01*
G04 #@! TO.N,/PS2_DATA*
X223768000Y-63957500D02*
X214832000Y-63957500D01*
X225596000Y-63135000D02*
X224590000Y-63135000D01*
X224590000Y-63135000D02*
X223768000Y-63957500D01*
G04 #@! TO.N,/~{CLOCK14}*
X169840000Y-122535000D02*
X167172943Y-122535000D01*
X167006943Y-122701000D02*
X166509057Y-122701000D01*
X179268000Y-122483000D02*
X169892000Y-122483000D01*
X169892000Y-122483000D02*
X169840000Y-122535000D01*
X114426000Y-122535000D02*
X109191000Y-117300000D01*
X180546000Y-123760000D02*
X179268000Y-122483000D01*
X166509057Y-122701000D02*
X166343057Y-122535000D01*
X166343057Y-122535000D02*
X114426000Y-122535000D01*
X167172943Y-122535000D02*
X167006943Y-122701000D01*
G04 #@! TO.N,/AGPIO1*
X100279900Y-111192000D02*
X144953000Y-111192000D01*
X144953000Y-111192000D02*
X149684000Y-115923000D01*
G04 #@! TO.N,/AUX_CS*
X167898000Y-125583000D02*
X167147000Y-126334000D01*
X167147000Y-126334000D02*
X152326000Y-126334000D01*
X152326000Y-126334000D02*
X151706000Y-125714000D01*
X110876000Y-125714000D02*
X110543000Y-126047000D01*
X151706000Y-125714000D02*
X110876000Y-125714000D01*
X103407000Y-126047000D02*
X103231700Y-125872000D01*
X110543000Y-126047000D02*
X103407000Y-126047000D01*
G04 #@! TO.N,/GPIO0*
X101110200Y-141397000D02*
X165494000Y-141397000D01*
X97328100Y-137615000D02*
X101110200Y-141397000D01*
X169471000Y-137420000D02*
X169471000Y-135285000D01*
X165494000Y-141397000D02*
X169471000Y-137420000D01*
G04 #@! TO.N,/SER_CS*
X158012000Y-108160000D02*
X174571000Y-108160000D01*
X132807000Y-105379000D02*
X155230000Y-105379000D01*
X155230000Y-105379000D02*
X158012000Y-108160000D01*
G04 #@! TO.N,VCC*
X96346000Y-74315000D02*
X127346000Y-74315000D01*
G04 #@! TD*
M02*
